# Blender 4.0.2
# www.blender.org
mtllib untitled.mtl
o apple03_lr_apple03_lr_0
v -0.573207 -0.041181 3.663676
v -0.753047 0.184802 3.916831
v -0.923517 -0.158887 4.056756
v -0.314765 -0.581520 3.901163
v -0.359957 -0.708338 3.791621
v -0.352795 -0.577538 3.669019
v -0.129327 -0.423158 3.720233
v -0.238022 -0.363617 3.715629
v -0.039886 -0.491532 3.675402
v -0.129327 -0.423158 3.720233
v -0.146554 -0.460629 3.853187
v -0.238022 -0.363617 3.715629
v -0.012817 0.365829 -2.072035
v -0.108430 0.229316 -2.042054
v -0.232279 0.338393 -2.005973
v -0.012817 0.365829 -2.072035
v 0.091986 0.381240 -2.034030
v 0.128063 0.210682 -1.974317
v 0.005899 0.249191 -2.221384
v 0.078232 -0.049129 -1.740582
v -0.170250 -0.049982 -1.848477
v -0.101481 0.058625 -1.981916
v -0.170250 -0.049982 -1.848477
v -0.149835 -0.176808 -1.843175
v -0.324664 -0.038103 -1.952909
v -0.338085 -0.217491 3.625195
v -0.359928 -0.443865 3.609363
v -0.320756 0.011315 3.695829
v -0.573207 -0.041181 3.663676
v -0.573207 -0.041181 3.663676
v -0.532196 -0.608368 3.811102
v -0.359928 -0.443865 3.609363
v -0.352795 -0.577538 3.669019
v -0.406266 -0.601489 3.816538
v -0.359957 -0.708338 3.791621
v -0.314765 -0.581520 3.901163
v -0.406266 -0.601489 3.816538
v 4.191642 -0.672899 -2.224794
v 4.583010 -0.804636 -1.407382
v 4.090339 -2.138766 -1.496474
v -0.314004 0.458210 -4.980368
v -0.389026 0.337744 -5.081895
v -0.207126 0.328389 -4.649064
v -0.076291 -0.174605 3.892145
v -0.131884 -0.254001 3.747836
v -0.009119 -0.313906 3.803165
v -0.321054 0.084413 -5.106657
v -0.019770 0.201305 -5.142832
v -0.077767 0.043805 -5.023217
v -0.259263 0.064986 -4.582786
v -0.389026 0.337744 -5.081895
v -0.321054 0.084413 -5.106657
v -0.303416 -0.503269 3.823161
v 0.023461 0.352566 -4.545004
v 0.060497 0.265109 -4.783993
v -0.068682 0.425458 -4.741647
v -0.077767 0.043805 -5.023217
v 0.067277 0.246324 -5.005109
v 0.033872 0.099912 -4.434605
v -0.147665 -0.003421 -4.214137
v -0.118518 0.022406 -4.587038
v -0.147665 -0.003421 -4.214137
v -0.259263 0.064986 -4.582786
v -0.118518 0.022406 -4.587038
v -0.254690 0.189570 -4.452281
v -0.259263 0.064986 -4.582786
v -0.242370 0.064264 -4.268555
v -0.168260 0.303272 -4.286736
v -0.187814 0.154415 -3.837921
v -0.051286 0.005705 -3.817416
v -0.236768 0.064017 -3.998319
v -0.147665 -0.003421 -4.214137
v -0.175126 0.044971 -3.560302
v -0.119742 0.130135 -3.350358
v -0.081237 0.173217 -3.551610
v -0.187814 0.154415 -3.837921
v -0.082563 0.142648 -3.133710
v -0.107364 0.039423 -3.133333
v -0.110929 0.131094 -2.892166
v -0.107364 0.039423 -3.133333
v -0.079284 0.006016 -3.393120
v 0.021031 -0.000360 -3.114896
v -0.022509 0.150446 -3.347831
v -0.081237 0.173217 -3.551610
v -0.119742 0.130135 -3.350358
v 0.102994 0.070569 -3.215834
v 0.021031 -0.000360 -3.114896
v 0.012419 0.005857 -3.500567
v 0.021031 -0.000360 -3.114896
v 0.058789 0.195742 -2.946561
v 0.099734 0.082218 -2.885050
v -1.167754 -0.819671 4.408845
v -0.775109 -1.029445 4.170403
v -1.201786 -0.264167 4.313382
v -0.003132 0.060182 -2.737428
v -0.035915 0.245492 3.835527
v -0.006342 -0.084425 3.857827
v -0.022768 0.005462 -2.557871
v 0.139523 0.032153 -2.486091
v 0.007534 0.002781 -2.192550
v -0.151106 0.326526 3.663378
v -0.035915 0.245492 3.835527
v 0.001120 0.397459 3.689082
v -0.103239 0.049897 -2.429574
v -0.105983 0.131515 -2.661782
v -0.151106 0.326526 3.663378
v 0.001120 0.397459 3.689082
v -0.040036 0.508294 3.691504
v -3.668514 -0.268283 -3.317947
v -3.301535 -1.499063 -3.211658
v -3.833385 -1.667644 -2.662995
v 0.058789 0.195742 -2.946561
v 0.147322 0.133126 -2.602022
v 0.106803 0.206500 -2.340554
v 0.139523 0.032153 -2.486091
v 0.044537 0.206199 -2.600128
v 0.099734 0.082218 -2.885050
v 0.058789 0.195742 -2.946561
v 0.130397 0.080973 -2.121339
v 0.007534 0.002781 -2.192550
v 0.106803 0.206500 -2.340554
v 0.007534 0.002781 -2.192550
v 0.130397 0.080973 -2.121339
v 0.133842 -0.010762 -1.902173
v 0.133842 -0.010762 -1.902173
v -0.108430 0.229316 -2.042054
v -0.294673 0.173781 -1.980825
v -0.232279 0.338393 -2.005973
v -0.324664 -0.038103 -1.952909
v -0.294673 0.173781 -1.980825
v -0.254791 0.063681 -1.805483
v -0.145551 0.139795 -1.902074
v -0.254791 0.063681 -1.805483
v -0.028549 -0.121628 -1.721001
v -0.167158 -0.325687 -2.113822
v 0.352058 0.845980 4.142743
v 0.182766 0.470382 3.684864
v -0.532196 -0.608368 3.811102
v -3.777761 0.697003 -3.271163
v -3.668514 -0.268283 -3.317947
v -4.146867 0.003527 -2.890024
v -0.251466 -0.390556 3.860754
v -0.238022 -0.363617 3.715629
v -0.303416 -0.503269 3.823161
v -0.131884 -0.254001 3.747836
v -0.146554 -0.460629 3.853187
v -0.009119 -0.313906 3.803165
v -0.146554 -0.460629 3.853187
v -0.129327 -0.423158 3.720233
v -0.009119 -0.313906 3.803165
v -0.113610 0.154758 -2.306275
v -0.101481 0.058625 -1.981916
v -0.108430 0.229316 -2.042054
v -3.930413 1.588327 -2.710974
v -4.305478 0.654513 -2.677268
v 0.202355 0.122039 -1.829312
v 0.228813 0.491381 -2.188182
v -0.119183 0.492395 -2.189217
v 0.244037 0.848578 -2.994002
v 0.231302 0.026136 3.741196
v 0.121550 0.332716 3.657531
v 0.143525 0.012696 3.905729
v 0.033241 0.054675 -4.061822
v -0.010437 0.189015 -3.784217
v 0.033447 0.102607 -3.711514
v 0.852795 0.369695 -2.664593
v 0.682921 0.194153 -2.271092
v 0.375931 0.278741 -1.880323
v 0.379419 0.094016 -1.807674
v 0.682921 0.194153 -2.271092
v 0.948082 0.041318 -2.665844
v -0.467131 0.585378 4.048041
v -0.423601 0.301270 3.724313
v -0.040036 0.508294 3.691504
v 0.005882 0.770587 4.043843
v -0.338661 0.868331 4.250556
v -0.423601 0.301270 3.724313
v 0.397520 -1.658983 -3.548037
v 1.319761 -1.507662 -3.610493
v 0.982635 -2.245688 -3.613570
v 0.630823 -0.216095 -2.336135
v 0.905839 -0.213835 -2.700240
v 0.840564 -0.605836 -2.976136
v 0.539625 -0.735978 -2.980684
v -0.454470 -0.287396 -2.335169
v -0.328079 -0.508482 -2.479230
v -0.583873 -0.598851 -2.773915
v 0.033241 0.054675 -4.061822
v -0.929609 -1.490516 4.277244
v -0.095266 0.721518 -2.709516
v -0.387041 -0.915974 3.837061
v -0.270389 -0.766429 3.708791
v -0.359957 -0.708338 3.791621
v 1.281225 0.143102 -3.020791
v 0.852795 0.369695 -2.664593
v 0.878186 -0.892427 -3.256853
v -0.100791 -1.276034 -3.309803
v -0.741799 -0.304410 -2.868924
v -0.813709 -0.653498 -3.075938
v -0.744041 0.337293 -3.025371
v -0.502327 0.262902 -2.544409
v -1.098252 -0.459319 -3.346299
v -1.085096 0.336392 4.268704
v -1.530678 -1.010269 4.534940
v -1.241970 -1.860941 4.303098
v -0.564994 -0.910220 3.943511
v -0.775109 -1.029445 4.170403
v -0.473896 -1.402923 4.125184
v -0.149431 -1.211827 4.007960
v 0.185995 -0.734393 3.726561
v 0.016166 -0.656358 3.633386
v 0.185995 -0.734393 3.726561
v 0.319467 -0.493180 3.664095
v 0.016166 -0.656358 3.633386
v 0.945194 0.978099 -3.349385
v 1.240928 0.518301 -3.180144
v 0.670966 0.708205 -2.971623
v 0.672015 -0.176394 3.962977
v 1.082417 0.205932 4.242663
v 0.641495 0.250592 3.902052
v 0.530327 0.530297 3.907279
v -0.471957 1.107686 4.448862
v -0.338661 0.868331 4.250556
v 0.360185 1.083842 4.308598
v -0.471957 1.107686 4.448862
v -0.575352 1.369539 4.565554
v -1.212247 1.211713 4.635302
v -1.344218 0.382429 4.421507
v -1.904154 -2.028280 4.168839
v -0.945706 -2.772087 4.043097
v -1.043221 -2.288875 4.219708
v -0.271329 -1.742946 4.224729
v -0.929609 -1.490516 4.277244
v -0.277828 -2.190977 4.278218
v 0.348051 -1.260312 4.166973
v 0.832841 -0.966166 4.277794
v 0.570847 -0.842509 4.089891
v 1.093397 0.564506 4.256929
v 0.966143 0.875287 4.334509
v 2.783188 -0.220626 4.231728
v 2.195178 1.410697 4.176251
v 1.990951 0.846579 4.346390
v -0.232583 1.816349 4.574850
v -4.376251 0.544562 2.215642
v -3.838216 0.513342 3.132450
v -3.971051 1.421797 2.565495
v -2.663363 -0.269198 4.264948
v -3.035929 -0.420342 4.048170
v -2.471451 -1.350912 4.280738
v -2.159935 -0.985727 4.451998
v -1.822019 -1.502255 4.430434
v 2.109713 3.541604 2.802248
v 1.079658 3.444279 3.538547
v 1.971227 2.467733 3.919683
v 0.219901 -2.466392 4.271605
v 1.160479 -0.990420 4.407279
v 1.521075 -0.340866 4.527883
v 1.223705 -0.357255 4.441518
v 1.387313 0.369494 4.358833
v 0.975841 -0.245292 4.270658
v 1.324002 1.214125 4.440140
v 1.639699 0.668654 4.388155
v 0.491573 1.528145 4.486317
v -2.228904 0.612180 4.417425
v -2.630847 -1.959025 3.884316
v 1.935971 -0.376024 4.543347
v -3.172195 -2.133574 3.270544
v -3.247164 -1.623381 3.565061
v -2.219905 -3.118928 3.177354
v -1.805126 -2.654077 3.821019
v -1.441234 -3.321706 3.480210
v 2.274900 -0.753602 4.422663
v 1.555665 -1.722137 4.398025
v 2.295095 -0.291799 4.459548
v 1.990951 0.846579 4.346390
v 1.383920 1.698087 4.441883
v -0.228702 3.682864 3.549521
v -0.474118 2.661675 4.309503
v 0.200576 2.689200 4.281881
v -1.805349 3.142169 3.676798
v -2.453044 2.587164 3.725923
v -1.724973 2.203869 4.352791
v -2.071381 1.628306 4.415036
v 2.334691 -1.924769 4.076760
v 1.555665 -1.722137 4.398025
v 1.858600 -2.485530 4.020667
v 2.769192 1.090597 3.944799
v -3.170070 1.948964 3.341509
v -2.836264 1.595636 3.840266
v -4.166326 -2.083519 1.738215
v -3.369290 -2.501201 2.618694
v -3.878268 -1.622418 2.715941
v -0.489138 -4.474135 1.963374
v -0.989679 -4.111862 2.576244
v -1.735381 -3.972718 2.427549
v 2.783188 -0.220626 4.231728
v 2.274900 -0.753602 4.422663
v 3.083664 -0.865016 3.930527
v 3.233138 0.397849 3.764887
v 3.384784 -0.194167 3.721914
v -0.435889 4.335894 2.697470
v -1.189829 4.132755 2.785804
v -2.082500 3.624755 2.991217
v -1.805349 3.142169 3.676798
v -2.453044 2.587164 3.725923
v -0.119742 0.130135 -3.350358
v -0.079284 0.006016 -3.393120
v -4.080346 -0.243261 2.881054
v -3.125069 -3.439550 1.420652
v -2.353007 -3.924741 1.849284
v -1.825816 -4.507337 0.835781
v 0.451752 0.268572 3.684430
v 2.977228 -1.902173 3.618047
v 3.414707 -1.661832 3.278854
v 3.374010 2.485475 2.527465
v 2.582873 2.598537 3.312769
v 3.422496 1.477910 3.229073
v -4.699902 -0.089915 1.667051
v -4.433876 -1.267954 1.880467
v 4.086732 1.836438 1.999448
v 4.060822 0.945697 2.554242
v -4.634838 0.059645 -2.148176
v -4.636322 1.209659 -1.748758
v -3.378552 3.267726 -1.907118
v 2.580441 3.915666 1.648787
v 1.243415 4.220862 2.481269
v -1.291623 4.507354 2.021125
v -4.146838 2.270216 1.369311
v -4.792714 1.006349 0.853977
v -4.131156 1.732892 2.054291
v 0.706309 4.621254 -2.031419
v 0.117457 5.050706 -0.924671
v 0.903658 4.896085 -1.083802
v -4.800463 -0.675818 1.210054
v -4.647366 -1.608311 0.837265
v -4.143025 -2.630411 0.478510
v -2.617178 -4.160295 0.291765
v 4.848425 -0.551162 -0.374826
v 4.414300 -1.964255 -0.675072
v -2.161932 -3.756461 -2.191972
v -1.497369 -3.700447 -2.612426
v -1.476216 -4.197419 -1.873379
v -2.088810 4.413331 1.297057
v -2.520906 3.849767 2.189203
v -3.668435 -2.550469 -2.109129
v -4.474013 -1.668047 -1.601651
v -3.037472 3.897607 1.197506
v -3.445096 3.089124 1.905235
v -2.520906 3.849767 2.189203
v -4.511473 -0.999906 -2.020142
v -4.906806 -0.473691 -1.305497
v -4.943304 0.438185 -1.211887
v -1.027934 4.803763 -1.354933
v -1.879995 4.698702 -0.271461
v -0.743093 5.032816 -0.587412
v 2.457816 4.152242 -1.292318
v 1.680149 4.463871 -1.651949
v 1.793606 4.662195 -0.714389
v 2.860711 3.512244 -1.932524
v 2.193987 3.837608 -2.325006
v 2.457816 4.152242 -1.292318
v 3.734589 2.464667 -1.866475
v 3.535476 3.301980 -0.895654
v 3.469297 -3.571162 0.749393
v 3.906193 -2.724009 1.527616
v 3.343810 -3.244667 1.980375
v 4.766021 0.109443 -1.099563
v 4.839892 0.644475 -0.327572
v 3.684463 -3.153572 -0.974177
v 2.914485 -3.473526 -1.881980
v 3.609551 -2.529132 -2.023157
v 4.677969 0.434230 1.428962
v 4.419872 1.899125 0.887491
v 4.086732 1.836438 1.999448
v 2.297275 -3.871420 -1.901690
v 3.243030 -3.762994 -0.589448
v 2.706266 -4.157903 -0.429021
v 1.218498 -4.109443 -2.101361
v 1.680913 -4.469967 -1.019999
v 0.616934 -4.550306 -1.259945
v -0.555374 -4.451924 -1.551354
v -0.331440 -4.068264 -2.333486
v -2.863470 -3.569221 -1.711623
v -2.157819 -4.291089 -1.061521
v -1.227340 4.942132 0.479774
v -2.890627 -3.849897 -0.806031
v -3.859481 -2.770030 -1.381406
v -2.328027 4.493904 0.364585
v -2.088810 4.413331 1.297057
v -3.000995 -2.817666 -2.582908
v -4.371623 2.185232 0.550495
v -4.474013 -1.668047 -1.601651
v -4.952308 -0.816550 0.232310
v -4.495584 -2.135354 -0.542701
v -2.769318 4.184071 -0.806099
v -2.347271 4.092885 -1.821389
v -3.291779 3.727813 -1.070189
v -1.027934 4.803763 -1.354933
v -0.743093 5.032816 -0.587412
v 3.535476 3.301980 -0.895654
v 2.680382 4.193531 -0.277748
v 4.509461 1.830644 -0.718647
v 4.116776 2.661385 -0.273453
v 3.904543 -3.099307 -0.057369
v 3.243030 -3.762994 -0.589448
v 0.002170 5.159006 0.284616
v -0.330340 4.910010 1.518687
v 0.637975 4.891547 1.360604
v -2.328027 4.493904 0.364585
v -3.442166 3.763546 0.023213
v -3.693792 3.264261 0.920992
v -1.390190 -4.550841 -0.931339
v -5.052829 -0.152992 -0.448534
v -4.952308 -0.816550 0.232310
v -4.994786 0.239961 0.530019
v -3.965202 -2.876237 -0.523859
v -4.845531 -1.306143 -0.440872
v -1.565493 -4.645687 0.220319
v -2.617178 -4.160295 0.291765
v -0.508785 -4.751739 -0.256328
v -3.867833 3.032540 -1.021087
v -4.741437 1.408263 -0.951792
v 2.719946 -4.107515 0.846609
v 2.706266 -4.157903 -0.429021
v -1.227340 4.942132 0.479774
v 4.898382 -0.282372 0.487971
v 4.468989 -1.706571 1.129355
v 4.591288 -1.604733 0.200803
v 4.736012 1.219338 0.424403
v 2.422493 4.342738 0.536285
v 1.134772 4.955670 0.118873
v 1.631796 4.616446 1.092029
v 4.509461 1.830644 -0.718647
v -3.891050 3.148304 0.067370
v 4.020716 -2.920343 0.516524
v -4.940885 0.942651 -0.290129
v 1.958608 -4.513899 0.144465
v 1.018389 -4.775039 0.311844
v 4.509461 1.830644 -0.718647
v 4.380250 2.248723 -0.027160
v 4.736012 1.219338 0.424403
v 3.366107 3.596548 0.192705
v 4.116776 2.661385 -0.273453
v -4.495584 -2.135354 -0.542701
v -4.495584 -2.135354 -0.542701
v -3.965202 -2.876237 -0.523859
v 4.419872 1.899125 0.887491
v 4.612845 -0.738557 1.548927
v 1.958608 -4.513899 0.144465
v 4.552234 1.076287 -1.337378
v -4.511473 -0.999906 -2.020142
v 3.528757 3.265144 1.078263
v 2.914485 -3.473526 -1.881980
v 4.323715 0.025131 2.369451
v 4.238257 -1.684343 1.860394
v 2.573056 -3.904303 1.934844
v 1.714883 -4.414432 1.462384
v 2.860711 3.512244 -1.932524
v 1.680149 4.463871 -1.651949
v -0.207155 -4.771081 0.859347
v 0.525950 -4.725580 1.137993
v -1.825816 -4.507337 0.835781
v -4.845531 -1.306143 -0.440872
v -4.994786 0.239961 0.530019
v -3.833385 -1.667644 -2.662995
v -2.053670 -3.130595 -2.936683
v 4.477065 0.166000 -1.856671
v 4.552234 1.076287 -1.337378
v 4.766021 0.109443 -1.099563
v 4.129190 1.797969 -1.807282
v 4.038787 -0.819322 2.800306
v -0.158994 4.572201 -2.286520
v 2.873100 -3.401161 2.447606
v -2.636929 3.586990 -2.399938
v -3.215616 2.880537 -2.564423
v 1.018389 -4.775039 0.311844
v -4.699902 -0.089915 1.667051
v -1.636712 0.542672 4.501190
v -1.954471 -0.024682 4.493973
v 4.113717 0.980577 -2.248282
v 3.593416 1.601629 -2.681768
v 0.706309 4.621254 -2.031419
v 1.466501 4.088110 -2.512647
v -0.877953 4.402605 -2.332515
v -0.962139 4.017524 -2.839931
v -2.923072 -2.324053 -3.033074
v -1.395113 -2.941685 -3.270313
v -0.695915 -3.540771 -2.927902
v 3.408369 -2.212080 -2.517995
v 3.609551 -2.529132 -2.023157
v 2.897227 -2.671218 -2.737353
v -0.158994 4.572201 -2.286520
v 0.360127 4.063019 -2.978955
v -0.448357 0.574361 -2.781602
v -0.676817 0.799096 -3.206892
v -0.962139 4.017524 -2.839931
v -3.406109 1.348815 -3.338871
v 0.425946 -2.986335 -3.339834
v 1.376082 -3.518101 -2.844723
v 2.293987 -3.172236 -2.764224
v 1.506643 -3.133286 -3.119863
v 1.215002 3.598512 -3.193203
v 2.165363 3.033914 -3.104546
v -2.370419 2.412667 -3.477441
v -2.938891 2.592371 -3.046016
v -3.126507 0.545609 -3.711212
v -3.011396 -0.882267 -3.563545
v -2.549908 -1.924887 -3.434968
v 1.734198 -2.540404 -3.423507
v 2.529399 -1.683260 -3.338132
v -1.158268 2.081667 -3.759715
v -1.643473 2.537538 -3.620369
v -0.470851 2.863718 -3.721984
v -2.700520 0.542313 -3.860738
v -2.426555 -1.345126 -3.643457
v 1.326955 2.372931 -3.729340
v 0.563084 3.243671 -3.602465
v 1.827341 2.541743 -3.520243
v -1.772013 1.297960 -3.796549
v -2.171117 0.296437 -3.885680
v -2.700520 0.542313 -3.860738
v -2.171117 0.296437 -3.885680
v -1.952757 -1.051693 -3.701396
v -1.055222 -1.825780 -3.557861
v -0.485845 -2.546664 -3.485505
v -1.547534 -2.012560 -3.570400
v -0.327299 -1.811577 -3.502080
v -0.251466 -0.390556 3.860754
v -0.146554 -0.460629 3.853187
v -0.612619 1.784170 -3.735862
v -1.241827 1.300601 -3.685506
v -1.759527 0.187035 -3.810145
v -1.434306 -0.863693 -3.576975
v -1.952757 -1.051693 -3.701396
v -0.152588 -0.003324 -3.746617
v -0.051286 0.005705 -3.817416
v 0.012419 0.005857 -3.500567
v 3.848016 2.519337 1.678501
v 2.791512 3.563223 2.007903
v 2.512102 -2.988293 3.296618
v 1.794803 -3.049575 3.657798
v 0.631240 3.333492 3.777988
v 1.573825 2.213233 4.250914
v 0.202355 0.122039 -1.829312
v 0.130397 0.080973 -2.121339
v 0.933703 -4.277226 2.442755
v 1.785513 -3.578592 3.133883
v 0.472933 -4.023993 2.993558
v 1.905946 -0.516699 -3.401020
v 1.672202 0.122060 -3.268016
v 2.179784 0.274270 -3.409210
v 1.672202 0.122060 -3.268016
v 1.678618 0.651295 -3.400951
v 2.179784 0.274270 -3.409210
v -3.991149 -0.885462 2.915631
v -3.087497 -1.305521 3.874030
v -3.506964 -0.447619 3.602575
v -3.151345 0.579860 3.841608
v -0.182244 1.163433 -3.368308
v 1.194558 1.165371 -3.524080
v -0.448649 1.445900 -3.587762
v 0.713159 1.733734 -3.788691
v -0.676817 0.799096 -3.206892
v -0.911508 1.058302 -3.499407
v 0.722539 -3.212201 3.842040
v -0.911508 1.058302 -3.499407
v -1.346704 0.567691 -3.662195
v -0.021965 2.212604 4.497367
v 0.530308 -1.663132 4.314249
v -0.021965 2.212604 4.497367
v 1.383920 1.698087 4.441883
v -0.820263 -1.238190 -3.384482
v -0.393087 -0.910000 -3.041112
v 2.857889 2.768783 -2.717404
v 0.472933 -4.023993 2.993558
v 0.722539 -3.212201 3.842040
v -0.032599 -3.415143 3.703941
v 0.599990 4.339330 2.655197
v 0.691910 -0.451542 4.057255
v 1.259954 -0.099024 -3.024291
v 1.672202 0.122060 -3.268016
v -0.332212 0.743518 -2.886576
v -0.448357 0.574361 -2.781602
v -1.150302 0.092554 -3.453201
v -2.969029 2.913409 2.919195
v 0.231569 2.448102 -3.857243
v 0.713159 1.733734 -3.788691
v 0.175774 -0.133047 -1.775035
v 0.357909 -0.127127 -1.899710
v 0.422359 -0.412947 -2.408779
v 0.121550 0.332716 3.657531
v 0.314585 0.040500 3.681210
v 0.428660 -0.013215 3.688068
v 0.539625 -0.735978 -2.980684
v -0.100791 -1.276034 -3.309803
v 0.053196 -0.786489 -2.897938
v 3.106247 -2.681200 2.963113
v -1.530678 -1.010269 4.534940
v 1.281225 0.143102 -3.020791
v 3.789981 -1.917913 2.609480
v -1.344218 0.382429 4.421507
v 0.182249 -0.091483 3.871940
v 0.157514 -0.280993 3.688039
v 0.231302 0.026136 3.741196
v -1.404884 1.961691 4.520360
v -0.502327 0.262902 -2.544409
v -0.741799 -0.304410 -2.868924
v -1.543661 1.436242 4.621267
v 2.897227 -2.671218 -2.737353
v 2.529399 -1.683260 -3.338132
v 3.265157 -1.683376 -2.877174
v 3.856805 0.379737 -2.686646
v 3.233138 0.397849 3.764887
v -0.485845 -2.546664 -3.485505
v -0.207126 0.328389 -4.649064
v -0.168260 0.303272 -4.286736
v 4.060822 0.945697 2.554242
v 3.592251 0.808386 3.281004
v -1.241970 -1.860941 4.303098
v 0.157514 -0.280993 3.688039
v 0.231302 0.026136 3.741196
v -2.379815 3.168633 -3.012461
v -0.929609 -1.490516 4.277244
v 2.131233 0.888660 -3.489572
v 2.480245 -0.583485 -3.388899
v 3.363355 -0.765922 -3.024895
v -0.175126 0.044971 -3.560302
v -0.152588 -0.003324 -3.746617
v 0.012419 0.005857 -3.500567
v -0.175126 0.044971 -3.560302
v 0.012419 0.005857 -3.500567
v -0.207155 -4.771081 0.859347
v 0.525950 -4.725580 1.137993
v 0.106803 0.206500 -2.340554
v 0.147322 0.133126 -2.602022
v 0.303885 -2.104911 -3.570244
v 0.005899 0.249191 -2.221384
v 0.044537 0.206199 -2.600128
v -0.017051 0.319022 -4.253176
v -0.073021 0.236448 -4.000494
v 0.348051 -1.260312 4.166973
v -0.232279 0.338393 -2.005973
v -0.012817 0.365829 -2.072035
v 0.012419 0.005857 -3.500567
v -0.081237 0.173217 -3.551610
v 0.054104 0.098550 -3.497090
v -0.232279 0.338393 -2.005973
v -0.019770 0.201305 -5.142832
v 0.202355 0.122039 -1.829312
v 0.271735 0.387767 -1.939908
v -0.387041 -0.915974 3.837061
v 0.175774 -0.133047 -1.775035
v 0.422359 -0.412947 -2.408779
v 0.058789 0.195742 -2.946561
v -0.105983 0.131515 -2.661782
v 0.986251 2.021345 -3.814515
v 2.131233 0.888660 -3.489572
v 1.683931 1.606368 -3.630406
v 2.588468 1.196082 -3.412850
v 1.858600 -2.485530 4.020667
v 0.298022 -2.851692 4.138758
v 2.918453 0.014188 -3.294085
v 0.078232 -0.049129 -1.740582
v 0.226534 -0.010762 -1.803748
v 0.175774 -0.133047 -1.775035
v -0.110929 0.131094 -2.892166
v -0.003132 0.060182 -2.737428
v 0.726361 -2.038218 4.340227
v -0.170250 -0.049982 -1.848477
v -0.145551 0.139795 -1.902074
v 0.130397 0.080973 -2.121339
v 0.005899 0.249191 -2.221384
v 0.007534 0.002781 -2.192550
v 2.926489 1.826553 -3.148507
v 3.379448 0.447920 -3.070737
v 1.690012 -1.786938 -3.592145
v 1.734198 -2.540404 -3.423507
v 0.008980 0.481829 -5.078775
v 0.067277 0.246324 -5.005109
v -0.019770 0.201305 -5.142832
v 0.982635 -2.245688 -3.613570
v -0.081237 0.173217 -3.551610
v 0.012419 0.005857 -3.500567
v -0.187814 0.154415 -3.837921
v -0.152588 -0.003324 -3.746617
v -1.547534 -2.012560 -3.570400
v 0.023461 0.352566 -4.545004
v -0.017051 0.319022 -4.253176
v -3.126507 0.545609 -3.711212
v 0.060497 0.265109 -4.783993
v -2.370419 2.412667 -3.477441
v -3.126507 0.545609 -3.711212
v -0.207126 0.328389 -4.649064
v 0.091986 0.381240 -2.034030
v -0.170250 -0.049982 -1.848477
v -0.285448 0.387847 -5.209295
v -0.321054 0.084413 -5.106657
v -0.389026 0.337744 -5.081895
v 0.008980 0.481829 -5.078775
v -0.221710 0.547315 -5.091003
v -0.314004 0.458210 -4.980368
v -0.389026 0.337744 -5.081895
v 4.191642 -0.672899 -2.224794
v -0.532597 3.459780 -3.446694
v 0.986251 2.021345 -3.814515
v 1.683931 1.606368 -3.630406
v 0.447980 2.820518 -3.775127
v 0.182249 -0.091483 3.871940
v -0.303416 -0.503269 3.823161
v -0.352795 -0.577538 3.669019
v -0.406266 -0.601489 3.816538
v -0.158994 4.572201 -2.286520
v -0.474118 2.661675 4.309503
v 1.403654 -0.413867 -3.240772
v -0.314004 0.458210 -4.980368
v -0.221710 0.547315 -5.091003
v -0.254791 0.063681 -1.805483
v -0.076291 -0.174605 3.892145
v -0.009119 -0.313906 3.803165
v -0.006342 -0.084425 3.857827
v 0.143525 0.012696 3.905729
v -2.379815 3.168633 -3.012461
v -0.006342 -0.084425 3.857827
v -0.320756 0.011315 3.695829
v -0.076291 -0.174605 3.892145
v -0.954677 -3.740496 3.176918
v -0.251466 -0.390556 3.860754
v 0.053196 -0.786489 -2.897938
v -0.167158 -0.325687 -2.113822
v 0.005882 0.770587 4.043843
v -0.009119 -0.313906 3.803165
v 0.428660 -0.013215 3.688068
v 0.314585 0.040500 3.681210
v 1.396672 -1.177123 4.454996
v 1.144521 -1.106525 -3.465507
v -0.532597 3.459780 -3.446694
v 1.144521 -1.106525 -3.465507
v -0.877953 4.402605 -2.332515
v 1.403654 -0.413867 -3.240772
v -0.532196 -0.608368 3.811102
v -0.270389 -0.766429 3.708791
v -0.359957 -0.708338 3.791621
v -0.387041 -0.915974 3.837061
v 4.477065 0.166000 -1.856671
v -0.271329 -1.742946 4.224729
v 4.583010 -0.804636 -1.407382
v 3.408369 -2.212080 -2.517995
v -1.510141 -0.344267 4.454135
v -1.510141 -0.344267 4.454135
v 0.804256 -0.287910 4.044576
v -0.028549 -0.121628 -1.721001
v -1.241827 1.300601 -3.685506
v -0.612619 1.784170 -3.735862
v 3.609551 -2.529132 -2.023157
v -2.969029 2.913409 2.919195
v -2.082500 3.624755 2.991217
v -1.167754 -0.819671 4.408845
v -1.201786 -0.264167 4.313382
v -1.510141 -0.344267 4.454135
v -0.285448 0.387847 -5.209295
v -1.156220 3.135182 3.878846
v -1.724973 2.203869 4.352791
v -1.404884 1.961691 4.520360
v 0.525950 -4.725580 1.137993
v 2.295095 -0.291799 4.459548
v 2.769192 1.090597 3.944799
v 2.295095 -0.291799 4.459548
v -2.082500 3.624755 2.991217
v -4.131156 1.732892 2.054291
v 3.422496 1.477910 3.229073
v -0.489138 -4.474135 1.963374
v 0.933703 -4.277226 2.442755
v -4.792714 1.006349 0.853977
v -4.376251 0.544562 2.215642
v 0.143525 0.012696 3.905729
v -0.012817 0.365829 -2.072035
v 0.360185 1.083842 4.308598
v -0.314765 -0.581520 3.901163
v -0.242370 0.064264 -4.268555
v -0.259263 0.064986 -4.582786
v -0.147665 -0.003421 -4.214137
v -0.242370 0.064264 -4.268555
v -0.147665 -0.003421 -4.214137
v -0.236768 0.064017 -3.998319
v -0.236768 0.064017 -3.998319
v -0.051286 0.005705 -3.817416
v 0.033447 0.102607 -3.711514
v 0.012419 0.005857 -3.500567
v -0.236768 0.064017 -3.998319
v -0.187814 0.154415 -3.837921
v -0.236768 0.064017 -3.998319
v -0.152588 -0.003324 -3.746617
v -0.079284 0.006016 -3.393120
v -0.119742 0.130135 -3.350358
v -0.175126 0.044971 -3.560302
v -0.107364 0.039423 -3.133333
v -0.003132 0.060182 -2.737428
v -0.110929 0.131094 -2.892166
v -0.082563 0.142648 -3.133710
v 0.102994 0.070569 -3.215834
v 0.054104 0.098550 -3.497090
v -0.022509 0.150446 -3.347831
v 0.012419 0.005857 -3.500567
v 0.054104 0.098550 -3.497090
v -0.149431 -1.211827 4.007960
v -0.103239 0.049897 -2.429574
v 0.102994 0.070569 -3.215834
v -0.082563 0.142648 -3.133710
v 0.058789 0.195742 -2.946561
v -0.532196 -0.608368 3.811102
v -0.039886 -0.491532 3.675402
v 0.379419 0.094016 -1.807674
v -0.448357 0.574361 -2.781602
v 0.691910 -0.451542 4.057255
v 0.975841 -0.245292 4.270658
v 0.804256 -0.287910 4.044576
v -0.022509 0.150446 -3.347831
v 0.102994 0.070569 -3.215834
v 0.012419 0.005857 -3.500567
v -0.744041 0.337293 -3.025371
v 0.271735 0.387767 -1.939908
v 0.128063 0.210682 -1.974317
v 0.226534 -0.010762 -1.803748
v 0.379419 0.094016 -1.807674
v 0.357909 -0.127127 -1.899710
v 0.375931 0.278741 -1.880323
v 0.226534 -0.010762 -1.803748
v 0.202355 0.122039 -1.829312
v 0.133842 -0.010762 -1.902173
v -0.285448 0.387847 -5.209295
v -0.221710 0.547315 -5.091003
v -0.131884 -0.254001 3.747836
v 0.008980 0.481829 -5.078775
v -1.167754 -0.819671 4.408845
v 0.147322 0.133126 -2.602022
v 0.878186 -0.892427 -3.256853
v 0.099734 0.082218 -2.885050
v 0.147322 0.133126 -2.602022
v -0.003132 0.060182 -2.737428
v 0.021031 -0.000360 -3.114896
vn 0.4385 -0.0965 0.8935
vn 0.6364 -0.3377 0.6935
vn 0.6958 0.0627 0.7155
vn 0.1991 -0.3662 0.9090
vn 0.5975 0.0489 0.8004
vn 0.5954 0.4940 0.6336
vn -0.1840 -0.9456 0.2683
vn -0.7982 -0.1723 0.5773
vn -0.0014 -0.4153 0.9097
vn -0.1839 -0.9456 0.2683
vn 0.5796 -0.6069 0.5439
vn 0.1645 -0.1569 -0.9738
vn -0.7430 0.0042 -0.6693
vn 0.2944 -0.4729 -0.8305
vn 0.2984 -0.5615 -0.7718
vn 0.8180 0.0658 -0.5714
vn 0.0927 0.9724 -0.2142
vn -0.0933 -0.5400 -0.8365
vn 0.3051 -0.1402 -0.9419
vn -0.7307 -0.6193 -0.2873
vn 0.3052 -0.1402 -0.9419
vn 0.4973 0.5880 -0.6379
vn 0.8281 0.2133 -0.5185
vn -0.2659 -0.1082 0.9579
vn 0.1615 0.0773 0.9838
vn -0.2803 -0.0863 0.9560
vn 0.4386 -0.0965 0.8935
vn 0.5215 0.3104 0.7948
vn -0.5394 0.4332 0.7221
vn 0.5975 0.0488 0.8004
vn 0.8016 -0.1607 -0.5758
vn 0.9215 -0.2004 -0.3326
vn 0.8454 -0.3851 -0.3703
vn -0.7250 0.6486 0.2316
vn -0.9644 0.1791 -0.1946
vn -0.6714 0.6691 0.3186
vn -0.1558 -0.1688 0.9733
vn -0.5891 -0.0185 0.8079
vn 0.2230 -0.4647 0.8569
vn -0.5510 -0.6697 -0.4979
vn 0.5387 -0.3031 -0.7861
vn 0.3550 -0.8746 -0.3303
vn -0.8228 -0.5679 0.0222
vn -0.9644 0.1790 -0.1945
vn 0.0303 -0.0437 -0.9986
vn 0.6368 0.7512 0.1740
vn 0.9717 0.2263 0.0681
vn 0.2324 0.9147 0.3308
vn 0.3550 -0.8746 -0.3304
vn 0.9613 -0.1591 -0.2251
vn 0.8842 -0.4665 0.0243
vn -0.1140 -0.9932 -0.0252
vn 0.0896 -0.9948 -0.0482
vn -0.8228 -0.5678 0.0222
vn 0.0897 -0.9948 -0.0482
vn -0.9702 0.2380 0.0456
vn -0.8766 -0.4804 0.0278
vn -0.5344 0.8273 0.1733
vn -0.7901 0.5667 0.2337
vn 0.3314 -0.9424 -0.0445
vn -0.9061 -0.4009 0.1349
vn -0.9199 -0.3382 0.1986
vn -0.8463 0.5196 0.1173
vn -0.0757 0.9938 0.0815
vn -0.5408 0.8379 -0.0741
vn -0.8481 -0.5226 0.0867
vn -0.9560 0.2619 0.1323
vn -0.4986 -0.8644 0.0644
vn 0.3379 -0.9300 0.1444
vn 0.3630 0.9317 -0.0079
vn 0.9951 0.0877 -0.0467
vn 0.6544 -0.7472 -0.1156
vn 0.4920 0.8576 -0.1495
vn 0.9357 -0.3522 -0.0208
vn 0.4350 0.0862 0.8963
vn 0.5477 0.1849 0.8160
vn 0.5311 0.0669 0.8447
vn -0.1209 -0.9916 -0.0465
vn -0.1446 0.4744 0.8683
vn -0.1548 0.0084 0.9879
vn -0.2556 -0.9460 -0.1992
vn 0.7892 -0.6141 0.0030
vn 0.1325 -0.9892 -0.0620
vn -0.1459 0.1314 0.9805
vn -0.1445 0.4744 0.8684
vn 0.0258 0.2209 0.9749
vn -0.8266 -0.5622 -0.0267
vn -0.9678 0.1878 -0.1679
vn 0.0258 0.2210 0.9749
vn 0.1105 -0.5228 0.8453
vn -0.6039 -0.1470 -0.7834
vn -0.5436 -0.3191 -0.7763
vn -0.7072 -0.3647 -0.6056
vn 0.4921 0.8576 -0.1496
vn 0.9488 0.1634 -0.2703
vn 0.8278 0.5519 0.1006
vn 0.7893 -0.6140 0.0030
vn 0.1031 0.9860 -0.1314
vn 0.9357 -0.3522 -0.0207
vn 0.9201 -0.2155 -0.3270
vn 0.1325 -0.9892 -0.0621
vn 0.8279 0.5518 0.1007
vn 0.9201 -0.2155 -0.3271
vn 0.4183 -0.8503 -0.3196
vn -0.7430 0.0043 -0.6693
vn 0.6528 -0.4634 -0.5993
vn 0.2946 -0.4727 -0.8305
vn 0.8280 0.2133 -0.5185
vn 0.3025 -0.1692 -0.9380
vn -0.5272 -0.5472 -0.6501
vn 0.2288 0.2161 -0.9492
vn 0.2481 0.8128 -0.5270
vn -0.1670 -0.6341 0.7550
vn -0.1456 -0.4712 0.8699
vn -0.6497 0.1342 -0.7482
vn -0.7663 -0.0987 -0.6349
vn -0.4278 0.5826 0.6910
vn -0.7981 -0.1722 0.5773
vn 0.0302 -0.0437 -0.9986
vn -0.5890 -0.0185 0.8079
vn 0.5796 -0.6068 0.5439
vn -0.9056 0.4155 -0.0849
vn -0.7353 0.3855 -0.5575
vn -0.8204 0.1500 -0.5518
vn 0.5601 -0.2487 -0.7902
vn -0.1415 -0.8862 -0.4411
vn 0.2075 -0.8414 -0.4989
vn -0.1073 -0.8504 -0.5151
vn 0.6832 0.1973 0.7031
vn 0.2495 0.1478 0.9570
vn 0.3551 0.1355 0.9250
vn 0.9115 -0.4113 0.0057
vn 0.4929 0.8665 0.0787
vn 0.9940 0.0659 0.0873
vn -0.6718 -0.5014 -0.5452
vn -0.8160 -0.2190 -0.5349
vn -0.4097 -0.5164 -0.7520
vn -0.4494 -0.0329 -0.8927
vn -0.8161 -0.2190 -0.5349
vn -0.7786 0.0104 -0.6275
vn 0.4245 -0.6503 0.6300
vn 0.3788 -0.4018 0.8337
vn 0.1365 -0.7532 0.6435
vn 0.2647 -0.6054 0.7506
vn 0.3788 -0.4017 0.8337
vn -0.1103 0.2108 -0.9713
vn -0.0093 0.1417 -0.9899
vn 0.0253 -0.1794 -0.9834
vn -0.6454 0.5379 -0.5424
vn -0.7245 0.3741 -0.5789
vn -0.4581 0.6078 -0.6486
vn -0.2550 0.7341 -0.6293
vn 0.7003 0.4727 -0.5349
vn 0.2920 0.7737 -0.5622
vn 0.6137 0.5504 -0.5661
vn 0.2515 0.0317 0.9673
vn 0.1842 -0.9035 -0.3870
vn 0.3327 0.4104 0.8491
vn 0.3334 0.4252 0.8414
vn -0.6389 -0.1563 -0.7532
vn -0.2975 0.5686 -0.7669
vn -0.0413 0.5055 -0.8618
vn 0.8219 0.1087 -0.5591
vn 0.6092 0.3476 -0.7128
vn 0.7974 -0.2832 -0.5328
vn 0.8618 -0.3032 -0.4067
vn 0.6968 -0.0573 -0.7150
vn 0.5178 -0.3147 0.7955
vn 0.1107 -0.0583 0.9921
vn 0.0082 -0.2052 0.9787
vn 0.5629 0.3163 0.7636
vn 0.2402 0.3555 0.9033
vn -0.0796 0.5020 0.8612
vn -0.3452 0.5014 0.7934
vn -0.0835 0.2472 0.9654
vn -0.3997 0.1666 0.9014
vn -0.0835 0.2472 0.9653
vn -0.2233 -0.5988 -0.7692
vn -0.4548 -0.4529 -0.7669
vn -0.3563 -0.7420 -0.5679
vn -0.6637 0.1040 0.7407
vn -0.5263 0.0941 0.8451
vn -0.6613 -0.0797 0.7459
vn -0.4297 -0.4972 0.7538
vn 0.1983 -0.4173 0.8869
vn -0.0362 -0.4894 0.8713
vn 0.1429 -0.2321 0.9622
vn 0.0485 -0.1200 0.9916
vn 0.3076 -0.1758 0.9351
vn -0.2585 -0.4372 0.8614
vn -0.1597 -0.4869 0.8587
vn -0.0925 -0.3016 0.9489
vn 0.0057 0.2305 0.9731
vn 0.2515 0.0316 0.9673
vn -0.0547 -0.0983 0.9936
vn -0.2996 0.3670 0.8807
vn -0.4187 0.1707 0.8919
vn -0.5609 0.3230 0.7623
vn -0.3805 -0.1809 0.9069
vn -0.2016 -0.3518 0.9141
vn 0.5209 0.0323 0.8530
vn 0.4301 0.2272 0.8737
vn 0.2450 0.1191 0.9622
vn 0.0646 0.0704 0.9954
vn -0.8888 0.1570 0.4307
vn -0.7840 0.1513 0.6020
vn -0.8117 0.2911 0.5064
vn -0.4552 0.0264 0.8900
vn -0.5967 -0.0127 0.8024
vn -0.4228 -0.2565 0.8692
vn -0.2687 -0.0847 0.9595
vn -0.1298 -0.2948 0.9467
vn 0.4800 0.6831 0.5504
vn 0.2900 0.6694 0.6839
vn 0.4585 0.4810 0.7473
vn -0.0096 -0.2455 0.9693
vn -0.2743 0.0178 0.9615
vn -0.1560 0.0539 0.9863
vn -0.3889 0.0927 0.9166
vn -0.3179 0.1279 0.9395
vn -0.6069 0.1677 0.7769
vn 0.0270 -0.0927 0.9953
vn -0.0451 0.0329 0.9984
vn 0.0417 -0.1405 0.9892
vn -0.3485 0.0355 0.9366
vn -0.4834 -0.4776 0.7337
vn 0.0991 0.0070 0.9951
vn -0.6376 -0.5169 0.5712
vn -0.6888 -0.3571 0.6309
vn -0.4934 -0.6484 0.5798
vn -0.3535 -0.5447 0.7605
vn -0.3030 -0.6664 0.6813
vn 0.3454 -0.1679 0.9233
vn 0.1375 -0.2367 0.9618
vn 0.3263 0.0451 0.9442
vn 0.2450 0.1190 0.9622
vn 0.1929 0.1374 0.9715
vn -0.0293 0.7094 0.7042
vn -0.0551 0.4888 0.8707
vn 0.0917 0.4849 0.8697
vn -0.3294 0.6315 0.7020
vn -0.5466 0.4692 0.6935
vn -0.3065 0.4215 0.8534
vn -0.4449 0.2164 0.8690
vn 0.4370 -0.3434 0.8313
vn 0.3082 -0.4526 0.8368
vn 0.5534 0.2564 0.7925
vn -0.7211 0.3330 0.6076
vn -0.6442 0.2557 0.7209
vn -0.8091 -0.4877 0.3280
vn -0.6744 -0.5856 0.4498
vn -0.7911 -0.3628 0.4924
vn -0.1095 -0.9354 0.3363
vn -0.1849 -0.8719 0.4534
vn -0.3616 -0.8202 0.4433
vn 0.6325 -0.1835 0.7525
vn 0.6594 0.1708 0.7321
vn 0.7344 0.0095 0.6786
vn -0.0748 0.8478 0.5250
vn -0.2421 0.8023 0.5456
vn -0.4246 0.7190 0.5501
vn -0.3294 0.6315 0.7019
vn -0.5466 0.4693 0.6935
vn -0.8463 0.5196 0.1174
vn -0.8461 -0.0093 0.5329
vn -0.6697 -0.6929 0.2672
vn -0.5197 -0.7805 0.3474
vn -0.3409 -0.9218 0.1848
vn -0.4675 -0.1628 0.8689
vn 0.6164 -0.3644 0.6980
vn 0.7319 -0.3036 0.6100
vn 0.6943 0.5075 0.5102
vn 0.5895 0.5142 0.6230
vn 0.7023 0.3318 0.6299
vn -0.9324 0.0140 0.3610
vn -0.8925 -0.2493 0.3760
vn 0.8439 0.3554 0.4019
vn 0.8455 0.2093 0.4912
vn -0.8985 -0.0258 -0.4382
vn -0.8894 0.3110 -0.3350
vn -0.6970 0.6037 -0.3869
vn 0.5411 0.7776 0.3203
vn 0.3471 0.8126 0.4682
vn -0.2874 0.8846 0.3672
vn -0.8591 0.4305 0.2768
vn -0.9396 0.2600 0.2227
vn -0.8500 0.3482 0.3954
vn 0.1769 0.8887 -0.4231
vn 0.0367 0.9793 -0.1989
vn 0.2256 0.9516 -0.2087
vn -0.9541 -0.1457 0.2615
vn -0.9149 -0.3641 0.1745
vn -0.7924 -0.5973 0.1237
vn -0.5681 -0.8211 0.0553
vn 0.9849 -0.1423 -0.0987
vn 0.9149 -0.3704 -0.1605
vn -0.4061 -0.7576 -0.5111
vn -0.2117 -0.7358 -0.6433
vn -0.2154 -0.8723 -0.4389
vn -0.4154 0.8739 0.2523
vn -0.5232 0.7522 0.4007
vn -0.6904 -0.5516 -0.4680
vn -0.8605 -0.3878 -0.3303
vn -0.6147 0.7503 0.2431
vn -0.7437 0.5530 0.3756
vn -0.5232 0.7522 0.4006
vn -0.8550 -0.2417 -0.4588
vn -0.9588 -0.1419 -0.2462
vn -0.9722 0.1065 -0.2086
vn -0.2500 0.9236 -0.2905
vn -0.3849 0.9185 -0.0913
vn -0.1880 0.9743 -0.1238
vn 0.5609 0.7864 -0.2588
vn 0.3819 0.8594 -0.3400
vn 0.4106 0.9035 -0.1227
vn 0.6485 0.6354 -0.4191
vn 0.4992 0.6973 -0.5145
vn 0.7605 0.4882 -0.4282
vn 0.7431 0.6359 -0.2083
vn 0.6871 -0.7153 0.1275
vn 0.8237 -0.4865 0.2911
vn 0.7020 -0.6142 0.3606
vn 0.9687 0.0221 -0.2474
vn 0.9880 0.1326 -0.0792
vn 0.7694 -0.5806 -0.2663
vn 0.5839 -0.6796 -0.4442
vn 0.7472 -0.4613 -0.4784
vn 0.9499 0.1198 0.2887
vn 0.8968 0.3910 0.2069
vn 0.4010 -0.7995 -0.4472
vn 0.6360 -0.7538 -0.1653
vn 0.4893 -0.8634 -0.1231
vn 0.1614 -0.8505 -0.5007
vn 0.2643 -0.9310 -0.2517
vn 0.0641 -0.9529 -0.2965
vn -0.0474 -0.9354 -0.3505
vn -0.0144 -0.8297 -0.5581
vn -0.5757 -0.7289 -0.3705
vn -0.4167 -0.8788 -0.2327
vn -0.2753 0.9557 0.1046
vn -0.6192 -0.7707 -0.1504
vn -0.7395 -0.6154 -0.2729
vn -0.4714 0.8785 0.0779
vn -0.5434 -0.5932 -0.5940
vn -0.8976 0.4270 0.1095
vn -0.9790 -0.1835 0.0884
vn -0.8742 -0.4782 -0.0842
vn -0.5129 0.8424 -0.1651
vn -0.4321 0.8184 -0.3787
vn -0.6639 0.7136 -0.2238
vn 0.5893 0.8056 -0.0612
vn 0.9122 0.3663 -0.1839
vn 0.8243 0.5615 -0.0720
vn 0.8186 -0.5705 -0.0672
vn 0.0159 0.9984 0.0533
vn -0.0782 0.9492 0.3049
vn 0.1952 0.9408 0.2770
vn -0.6986 0.7154 0.0140
vn -0.7927 0.5737 0.2062
vn -0.1874 -0.9581 -0.2165
vn -0.9985 -0.0372 -0.0398
vn -0.9790 -0.1835 0.0883
vn -0.9860 0.0648 0.1539
vn -0.7496 -0.6579 -0.0727
vn -0.9519 -0.2997 -0.0640
vn -0.2581 -0.9661 0.0048
vn -0.0517 -0.9929 -0.1071
vn -0.8251 0.5326 -0.1886
vn -0.9203 0.3713 -0.1237
vn 0.4999 -0.8557 0.1336
vn 0.4893 -0.8634 -0.1232
vn 0.9938 -0.0630 0.0913
vn 0.9282 -0.3206 0.1887
vn 0.9496 -0.3128 0.0175
vn 0.9661 0.2388 0.0984
vn 0.5264 0.8413 0.1230
vn 0.2869 0.9575 0.0296
vn 0.3850 0.8909 0.2409
vn -0.8473 0.5308 0.0198
vn 0.8553 -0.5113 0.0836
vn -0.9675 0.2528 0.0040
vn 0.3389 -0.9408 0.0080
vn 0.1486 -0.9889 0.0036
vn 0.9122 0.3663 -0.1838
vn 0.8876 0.4600 0.0252
vn 0.7148 0.6981 0.0419
vn -0.8742 -0.4782 -0.0841
vn -0.7496 -0.6579 -0.0726
vn 0.9437 -0.1464 0.2968
vn 0.9237 0.2110 -0.3197
vn 0.7414 0.6352 0.2166
vn 0.8861 0.0418 0.4616
vn 0.8806 -0.3109 0.3575
vn 0.4700 -0.8132 0.3432
vn 0.2950 -0.9236 0.2447
vn -0.0648 -0.9903 0.1228
vn 0.0776 -0.9757 0.2049
vn -0.3375 -0.5917 -0.7321
vn 0.8839 0.0337 -0.4664
vn 0.8304 0.3568 -0.4279
vn 0.8402 -0.1451 0.5225
vn -0.0457 0.8764 -0.4794
vn 0.5634 -0.6769 0.4738
vn -0.4816 0.7031 -0.5233
vn -0.6466 0.5154 -0.5623
vn 0.0003 -0.0992 0.9951
vn -0.1017 0.0098 0.9948
vn 0.8147 0.1822 -0.5505
vn 0.6916 0.2765 -0.6672
vn 0.1769 0.8886 -0.4231
vn 0.3278 0.7682 -0.5499
vn -0.2447 0.8359 -0.4914
vn -0.2333 0.7242 -0.6489
vn -0.4874 -0.4741 -0.7333
vn -0.1550 -0.4797 -0.8636
vn -0.0594 -0.6668 -0.7429
vn 0.7023 -0.3509 -0.6194
vn 0.5514 -0.4616 -0.6949
vn 0.0746 0.7355 -0.6734
vn 0.6206 -0.5965 -0.5090
vn 0.5302 -0.4824 -0.6973
vn -0.5421 0.3128 -0.7800
vn 0.0237 -0.4967 -0.8676
vn 0.1785 -0.7046 -0.6867
vn 0.4103 -0.6063 -0.6812
vn 0.2031 -0.5613 -0.8023
vn 0.2953 0.6021 -0.7418
vn 0.4746 0.4892 -0.7318
vn -0.3337 0.3723 -0.8660
vn -0.5527 0.4475 -0.7031
vn -0.4246 0.0644 -0.9031
vn -0.3873 -0.1965 -0.9008
vn -0.3106 -0.3620 -0.8789
vn 0.2655 -0.3706 -0.8901
vn 0.4069 -0.1759 -0.8964
vn -0.0655 0.0489 -0.9967
vn -0.2026 0.3266 -0.9232
vn -0.1096 0.2961 -0.9488
vn -0.2080 0.0489 -0.9769
vn -0.1791 -0.2107 -0.9610
vn 0.2548 0.1677 -0.9523
vn 0.1183 0.4745 -0.8723
vn 0.3678 0.2813 -0.8863
vn 0.0612 0.0644 -0.9960
vn 0.0361 -0.0403 -0.9985
vn 0.0792 -0.1029 -0.9915
vn 0.1138 0.0264 -0.9931
vn -0.0340 -0.2394 -0.9703
vn -0.0506 -0.2196 -0.9743
vn -0.0075 0.1504 -0.9886
vn -0.4278 0.5827 0.6910
vn 0.0116 -0.2222 -0.9749
vn 0.2280 -0.1438 -0.9630
vn 0.2669 -0.0657 -0.9615
vn 0.3909 0.0296 -0.9200
vn -0.5540 -0.8325 -0.0052
vn 0.7887 0.5181 0.3311
vn 0.6128 0.6664 0.4247
vn 0.5054 -0.5775 0.6412
vn 0.3112 -0.6033 0.7343
vn 0.1578 0.6323 0.7585
vn 0.3093 0.3784 0.8724
vn 0.1640 -0.8959 0.4129
vn 0.3191 -0.7506 0.5786
vn 0.0523 -0.8279 0.5584
vn -0.0965 0.1391 -0.9856
vn -0.3759 -0.0570 -0.9249
vn -0.0299 -0.0766 -0.9966
vn -0.1919 -0.2763 -0.9417
vn -0.8273 -0.1702 0.5354
vn -0.6377 -0.2392 0.7322
vn -0.7360 -0.0383 0.6759
vn -0.6489 0.1430 0.7473
vn 0.0324 -0.6872 -0.7258
vn -0.0671 -0.4045 -0.9121
vn 0.0758 -0.4718 -0.8785
vn 0.0113 -0.2769 -0.9608
vn 0.3959 -0.3636 -0.8433
vn 0.1420 -0.6310 0.7627
vn 0.4866 -0.1106 -0.8666
vn 0.0619 0.2627 0.9629
vn -0.1652 0.1099 0.9801
vn 0.2797 0.3368 -0.8991
vn 0.2004 0.6682 -0.7165
vn 0.6197 0.4715 -0.6274
vn 0.0522 -0.8279 0.5584
vn -0.0521 -0.6864 0.7254
vn 0.1603 0.8377 0.5220
vn -0.6783 0.2866 0.6766
vn -0.6228 0.2312 -0.7474
vn 0.3128 -0.7567 -0.5741
vn 0.6206 -0.5965 -0.5089
vn 0.6689 -0.1064 -0.7357
vn -0.6689 0.5308 0.5204
vn -0.0062 0.0659 -0.9978
vn -0.3356 0.5027 -0.7967
vn -0.5589 0.5302 -0.6376
vn -0.3299 0.7977 -0.5049
vn 0.2494 0.1478 0.9570
vn 0.2106 0.3992 0.8923
vn -0.3699 0.0593 0.9272
vn -0.0936 0.7686 -0.6329
vn 0.6755 -0.4864 0.5542
vn 0.1108 -0.0583 0.9921
vn 0.8006 -0.3626 0.4769
vn 0.3075 -0.1758 0.9352
vn 0.6280 -0.2797 0.7262
vn 0.3518 -0.3356 0.8738
vn 0.6832 0.1972 0.7031
vn -0.1372 0.3002 0.9440
vn 0.8219 0.1087 -0.5592
vn -0.1697 0.0815 0.9821
vn 0.4069 -0.1758 -0.8964
vn 0.6128 -0.2470 -0.7507
vn 0.7157 0.0422 -0.6971
vn -0.5344 0.8273 0.1734
vn 0.7633 0.1802 0.6204
vn 0.3519 -0.3356 0.8738
vn 0.6831 0.1972 0.7031
vn -0.3890 0.5783 -0.7171
vn 0.0763 -0.1232 -0.9894
vn 0.2121 -0.0019 -0.9772
vn 0.5628 -0.1131 -0.8188
vn -0.9199 -0.3382 0.1985
vn -0.0648 -0.9903 0.1229
vn -0.0745 0.0074 -0.9972
vn 0.5393 0.8104 0.2288
vn 0.2740 0.9349 0.2254
vn 0.1645 -0.1570 -0.9738
vn -0.0756 0.9938 0.0815
vn 0.9508 0.1446 -0.2739
vn 0.5601 -0.2486 -0.7902
vn -0.0760 -0.7643 -0.6404
vn -0.3299 0.7977 -0.5048
vn 0.4920 0.8576 -0.1496
vn 0.1279 -0.0470 -0.9907
vn 0.1774 -0.0909 -0.9799
vn 0.3416 0.0479 -0.9386
vn 0.0237 -0.4617 0.8867
vn 0.3313 -0.0345 -0.9429
vn -0.0934 -0.5400 -0.8365
vn -0.0431 -0.1570 -0.9867
vn -0.0285 -0.1325 0.9908
vn 0.3052 -0.1401 -0.9419
vn 0.5319 0.2448 -0.8107
vn 0.5465 0.0464 -0.8362
vn 0.1833 -0.0601 -0.9812
vn 0.6626 0.6456 -0.3797
vn 0.0253 -0.1794 -0.9835
vn -0.4245 0.0643 -0.9031
vn -0.3338 0.3723 -0.8660
vn -0.4245 0.0644 -0.9031
vn -0.3552 0.2670 -0.8958
vn -0.5510 -0.6697 -0.4980
vn -0.9644 0.1790 -0.1946
vn -0.2226 0.9310 -0.2892
vn -0.1354 0.5499 -0.8242
vn 0.1279 -0.0469 -0.9907
vn 0.0744 0.2810 -0.9568
vn -0.3913 0.3168 -0.8640
vn -0.2226 0.9310 -0.2891
vn -0.1557 -0.1687 0.9733
vn 0.3551 0.1354 0.9250
vn -0.1843 -0.7779 0.6008
vn -0.3699 0.0592 0.9272
vn 0.2105 0.3992 0.8923
vn -0.0923 -0.0647 0.9936
vn -0.1861 0.3640 -0.9126
vn -0.1354 0.5498 -0.8242
vn 0.3334 0.4253 0.8414
vn 0.0057 0.2305 0.9730
vn 0.2583 0.0683 0.9636
vn -0.6796 0.1240 0.7230
vn -0.6689 0.5308 0.5205
vn -0.1742 0.6291 0.7575
vn 0.3263 0.0452 0.9442
vn -0.8499 0.3482 0.3954
vn 0.1639 -0.8959 0.4129
vn 0.1991 -0.3663 0.9090
vn -0.1140 -0.9932 -0.0251
vn -0.9061 -0.4009 0.1348
vn -0.9062 -0.4009 0.1348
vn -0.4985 -0.8645 0.0645
vn -0.1209 -0.9916 -0.0464
vn -0.9560 0.2620 0.1323
vn 0.9508 0.1447 -0.2739
vn 0.3630 0.9317 -0.0080
vn 0.6206 -0.5966 -0.5089
vn -0.6796 0.1240 0.7231
vn 0.3630 0.9318 -0.0080
vn -0.5589 0.5302 -0.6375
vn -0.3552 0.2670 -0.8959
vn -0.2225 0.9311 -0.2891
vn -0.5891 -0.0186 0.8079
vn 0.6626 0.6455 -0.3797
vn 0.9488 0.1634 -0.2704
vt 0.611586 0.241545
vt 0.595097 0.237655
vt 0.590161 0.254670
vt 0.147930 0.274842
vt 0.155055 0.276490
vt 0.155055 0.269478
vt 0.109597 0.751163
vt 0.109498 0.756833
vt 0.111480 0.746602
vt 0.344078 0.552914
vt 0.343209 0.557780
vt 0.349497 0.552710
vt 0.172934 0.276490
vt 0.172934 0.269941
vt 0.165819 0.272085
vt 0.349173 0.290618
vt 0.349430 0.285116
vt 0.342831 0.282648
vt 0.342172 0.292670
vt 0.327705 0.404213
vt 0.340102 0.402267
vt 0.337720 0.394276
vt 0.549652 0.861882
vt 0.547115 0.866840
vt 0.556721 0.864567
vt 0.108618 0.765745
vt 0.116510 0.760434
vt 0.099381 0.770560
vt 0.105715 0.778693
vt 0.614773 0.326174
vt 0.629879 0.314933
vt 0.618248 0.308756
vt 0.622874 0.306350
vt 0.629667 0.309171
vt 0.675227 0.281835
vt 0.678451 0.289069
vt 0.680722 0.283340
vt 0.131425 0.279509
vt 0.122230 0.306685
vt 0.181409 0.314070
vt 0.344330 0.451610
vt 0.349566 0.458081
vt 0.349566 0.439566
vt 0.096713 0.753887
vt 0.103606 0.755608
vt 0.102262 0.748743
vt 0.334372 0.331657
vt 0.320780 0.325969
vt 0.322651 0.334530
vt 0.696103 0.326174
vt 0.696103 0.306841
vt 0.684363 0.312800
vt 0.349497 0.560237
vt 0.324880 0.522251
vt 0.319846 0.530048
vt 0.328275 0.531321
vt 0.319846 0.608687
vt 0.331584 0.610528
vt 0.329826 0.587472
vt 0.323734 0.575581
vt 0.322053 0.590785
vt 0.325731 0.360474
vt 0.331369 0.347740
vt 0.324479 0.348404
vt 0.342625 0.337354
vt 0.337390 0.331219
vt 0.337839 0.343430
vt 0.349430 0.343637
vt 0.342953 0.360474
vt 0.349566 0.420793
vt 0.343161 0.432096
vt 0.349566 0.436548
vt 0.320661 0.304099
vt 0.322622 0.313295
vt 0.327867 0.306186
vt 0.327867 0.295688
vt 0.333780 0.461723
vt 0.338631 0.461945
vt 0.334228 0.451810
vt 0.349566 0.497719
vt 0.346062 0.490660
vt 0.343162 0.500497
vt 0.693418 0.269529
vt 0.694941 0.277568
vt 0.697187 0.269343
vt 0.348495 0.603800
vt 0.342792 0.600897
vt 0.347386 0.614415
vt 0.134862 0.276490
vt 0.134862 0.264717
vt 0.130171 0.267594
vt 0.578085 0.285694
vt 0.596722 0.284239
vt 0.575791 0.265416
vt 0.347366 0.510457
vt 0.084170 0.764890
vt 0.093618 0.754317
vt 0.334323 0.377428
vt 0.326418 0.377918
vt 0.332257 0.388802
vt 0.676672 0.298224
vt 0.670261 0.305546
vt 0.678734 0.302695
vt 0.338421 0.380515
vt 0.339512 0.370679
vt 0.087579 0.773620
vt 0.082362 0.769728
vt 0.079427 0.774283
vt 0.931551 0.642465
vt 0.896695 0.611199
vt 0.865336 0.625534
vt 0.348495 0.591860
vt 0.006806 0.258827
vt 0.001509 0.268782
vt 0.009588 0.263444
vt 0.343046 0.527109
vt 0.347788 0.517228
vt 0.343999 0.513476
vt 0.100314 0.265257
vt 0.094471 0.265357
vt 0.100314 0.276490
vt 0.344144 0.397968
vt 0.349566 0.394751
vt 0.343565 0.387904
vt 0.325495 0.397621
vt 0.031617 0.275240
vt 0.023742 0.270546
vt 0.025169 0.276490
vt 0.737415 0.291649
vt 0.728672 0.296269
vt 0.735334 0.299760
vt 0.031040 0.268301
vt 0.026944 0.262514
vt 0.542050 0.861304
vt 0.548330 0.878318
vt 0.051682 0.763468
vt 0.077359 0.765220
vt 0.684233 0.279203
vt 0.968218 0.777382
vt 0.981036 0.745094
vt 0.952749 0.744316
vt 0.035126 0.270136
vt 0.041257 0.270457
vt 0.035997 0.264958
vt 0.118312 0.268989
vt 0.112358 0.275297
vt 0.118312 0.276490
vt 0.189927 0.267982
vt 0.185145 0.271164
vt 0.189927 0.276490
vt 0.331622 0.428470
vt 0.334377 0.416412
vt 0.327655 0.417660
vt 0.933244 0.805919
vt 0.934990 0.764188
vt 0.349566 0.383264
vt 0.449040 0.234079
vt 0.440374 0.222507
vt 0.419495 0.253904
vt 0.676313 0.318665
vt 0.681344 0.308059
vt 0.667688 0.317186
vt 0.324265 0.498499
vt 0.330629 0.489981
vt 0.328057 0.485629
vt 0.456165 0.261597
vt 0.466604 0.246483
vt 0.466257 0.230527
vt 0.480826 0.310762
vt 0.503565 0.317185
vt 0.523376 0.313067
vt 0.588752 0.216513
vt 0.607161 0.225483
vt 0.611755 0.209052
vt 0.593549 0.198959
vt 0.578263 0.203467
vt 0.091087 0.782006
vt 0.522263 0.956608
vt 0.489494 0.944698
vt 0.492545 0.977612
vt 0.505690 0.298813
vt 0.524297 0.301489
vt 0.534173 0.281815
vt 0.529287 0.270276
vt 0.561956 0.883170
vt 0.555493 0.894096
vt 0.566872 0.905417
vt 0.331257 0.572779
vt 0.594806 0.305226
vt 0.421688 0.235756
vt 0.162801 0.276490
vt 0.162801 0.266699
vt 0.158074 0.269312
vt 0.542510 0.321080
vt 0.521219 0.324529
vt 0.545878 0.268519
vt 0.531376 0.232286
vt 0.577784 0.896333
vt 0.577804 0.915218
vt 0.587965 0.872998
vt 0.573157 0.864954
vt 0.593880 0.914590
vt 0.572819 0.240182
vt 0.569377 0.301250
vt 0.593334 0.326174
vt 0.640357 0.311783
vt 0.652445 0.320664
vt 0.655612 0.299682
vt 0.646752 0.287255
vt 0.626364 0.278569
vt 0.621622 0.287458
vt 0.114444 0.730943
vt 0.106275 0.733652
vt 0.116862 0.740526
vt 0.424438 0.285408
vt 0.448877 0.285767
vt 0.434564 0.265758
vt 0.083520 0.725714
vt 0.058267 0.717757
vt 0.071955 0.739542
vt 0.064682 0.751313
vt 0.048610 0.796637
vt 0.058977 0.787751
vt 0.039976 0.767606
vt 0.564765 0.197912
vt 0.039061 0.806148
vt 0.052162 0.823955
vt 0.561747 0.244597
vt 0.176804 0.764905
vt 0.188671 0.711011
vt 0.170559 0.725687
vt 0.141264 0.712809
vt 0.142124 0.743066
vt 0.154247 0.699838
vt 0.117854 0.704539
vt 0.098370 0.693663
vt 0.103074 0.709124
vt 0.046394 0.727171
vt 0.036618 0.739433
vt 0.377629 0.618622
vt 0.395956 0.567740
vt 0.379018 0.570277
vt 0.019407 0.806037
vt 0.181064 0.952404
vt 0.151391 0.919817
vt 0.138506 0.957510
vt 0.130441 0.840276
vt 0.146255 0.852472
vt 0.161356 0.802922
vt 0.140815 0.799519
vt 0.152496 0.773122
vt 0.483567 0.523053
vt 0.439950 0.487845
vt 0.419029 0.540039
vt 0.155466 0.674163
vt 0.090933 0.679365
vt 0.061867 0.682784
vt 0.069073 0.694275
vt 0.045558 0.709702
vt 0.073514 0.708671
vt 0.017800 0.734483
vt 0.031482 0.708490
vt 0.019545 0.772867
vt 0.092119 0.847055
vt 0.192744 0.797012
vt 0.056215 0.666527
vt 0.221588 0.819957
vt 0.199397 0.833001
vt 0.240404 0.759116
vt 0.203586 0.748470
vt 0.227445 0.721153
vt 0.065900 0.645285
vt 0.108246 0.644722
vt 0.050064 0.656943
vt 0.021459 0.701248
vt 0.380196 0.532673
vt 0.429824 0.433817
vt 0.380589 0.444636
vt 0.388771 0.469817
vt 0.023557 0.912073
vt 0.049906 0.919468
vt 0.035533 0.874006
vt 0.057574 0.869708
vt 0.153707 0.585576
vt 0.156728 0.614415
vt 0.183404 0.593203
vt 0.407462 0.594431
vt 0.090539 0.932816
vt 0.084414 0.904213
vt 0.272711 0.877809
vt 0.252175 0.825516
vt 0.229809 0.867226
vt 0.286304 0.674559
vt 0.267579 0.694710
vt 0.278283 0.727654
vt 0.080873 0.581467
vt 0.107869 0.600206
vt 0.102460 0.563414
vt 0.054172 0.552053
vt 0.074056 0.547867
vt 0.473771 0.411799
vt 0.459824 0.386835
vt 0.435345 0.362243
vt 0.401634 0.383430
vt 0.385773 0.368488
vt 0.335797 0.469790
vt 0.340102 0.472845
vt 0.185215 0.910845
vt 0.307372 0.806375
vt 0.300388 0.759105
vt 0.335459 0.737159
vt 0.079619 0.749825
vt 0.145867 0.553345
vt 0.132364 0.530014
vt 0.493959 0.588696
vt 0.453328 0.559123
vt 0.450339 0.610304
vt 0.219530 0.953746
vt 0.247531 0.908388
vt 0.515442 0.625406
vt 0.479072 0.641669
vt 0.912786 0.735488
vt 0.884590 0.776658
vt 0.890872 0.878046
vt 0.543647 0.530750
vt 0.498155 0.477171
vt 0.497281 0.373951
vt 0.747061 0.824523
vt 0.771601 0.765194
vt 0.722766 0.805361
vt 0.695799 0.434921
vt 0.647274 0.408642
vt 0.659888 0.440802
vt 0.250787 0.947122
vt 0.287059 0.920499
vt 0.320418 0.878431
vt 0.349931 0.782808
vt 0.098886 0.345084
vt 0.161901 0.342417
vt 0.814309 0.528800
vt 0.840361 0.506741
vt 0.802090 0.493491
vt 0.519930 0.342779
vt 0.469155 0.338980
vt 0.823548 0.603116
vt 0.821036 0.642187
vt 0.755772 0.907208
vt 0.726689 0.869076
vt 0.721116 0.916455
vt 0.919150 0.700069
vt 0.877302 0.710157
vt 0.864061 0.742098
vt 0.887830 0.984279
vt 0.829137 0.961630
vt 0.856755 0.998491
vt 0.674363 0.512316
vt 0.686630 0.476058
vt 0.649323 0.480031
vt 0.481987 0.694427
vt 0.515643 0.693625
vt 0.500014 0.658765
vt 0.433756 0.729671
vt 0.443497 0.677987
vt 0.225499 0.423410
vt 0.179289 0.446963
vt 0.204407 0.477895
vt 0.082139 0.315175
vt 0.053930 0.345973
vt 0.221660 0.345399
vt 0.255098 0.322347
vt 0.209049 0.301589
vt 0.048803 0.424110
vt 0.003395 0.404599
vt 0.001509 0.458544
vt 0.875381 0.349254
vt 0.852690 0.302778
vt 0.826666 0.317515
vt 0.856603 0.390293
vt 0.818933 0.358654
vt 0.806490 0.401479
vt 0.799342 0.451304
vt 0.839578 0.453778
vt 0.793168 0.554984
vt 0.762185 0.512568
vt 0.571170 0.363812
vt 0.755411 0.545092
vt 0.790590 0.601913
vt 0.796825 0.944328
vt 0.760864 0.946374
vt 0.841478 0.577188
vt 0.779893 0.816810
vt 0.907948 0.676759
vt 0.281447 0.961693
vt 0.335095 0.918605
vt 0.843745 0.923922
vt 0.894873 0.930133
vt 0.851623 0.896225
vt 0.651619 0.367795
vt 0.623843 0.377218
vt 0.656261 0.569475
vt 0.632667 0.523426
vt 0.384686 0.727755
vt 0.406720 0.687945
vt 0.207585 0.379987
vt 0.248614 0.371143
vt 0.594634 0.406336
vt 0.534039 0.402012
vt 0.550198 0.438767
vt 0.559485 0.329192
vt 0.801733 0.893916
vt 0.763850 0.870236
vt 0.762830 0.477902
vt 0.835002 0.718251
vt 0.813361 0.696402
vt 0.789832 0.733350
vt 0.349931 0.878422
vt 0.848723 0.681333
vt 0.720482 0.474265
vt 0.715622 0.521416
vt 0.749861 0.435108
vt 0.847415 0.858682
vt 0.846658 0.781274
vt 0.257634 0.442930
vt 0.271218 0.388999
vt 0.804169 0.984375
vt 0.080224 0.380505
vt 0.135109 0.417806
vt 0.137532 0.375785
vt 0.027488 0.379389
vt 0.596480 0.513671
vt 0.610283 0.452539
vt 0.568037 0.480579
vt 0.018837 0.334589
vt 0.798895 0.862020
vt 0.193730 0.401907
vt 0.819453 0.760008
vt 0.785229 0.337724
vt 0.756389 0.370034
vt 0.638516 0.632715
vt 0.612524 0.622812
vt 0.582571 0.655704
vt 0.610859 0.561482
vt 0.626206 0.604800
vt 0.866256 0.659193
vt 0.772810 0.628416
vt 0.758382 0.597766
vt 0.568223 0.633383
vt 0.092677 0.431765
vt 0.292304 0.428548
vt 0.051847 0.308241
vt 0.854086 0.655704
vt 0.569278 0.576337
vt 0.897110 0.329930
vt 0.061768 0.471553
vt 0.131702 0.453434
vt 0.242803 0.491899
vt 0.280961 0.489312
vt 0.697843 0.536677
vt 0.537432 0.658723
vt 0.718852 0.413948
vt 0.723528 0.383396
vt 0.700862 0.481336
vt 0.311739 0.953095
vt 0.241377 0.988754
vt 0.963491 0.691035
vt 0.858834 0.538667
vt 0.374290 0.818406
vt 0.378741 0.770396
vt 0.355306 0.803939
vt 0.409099 0.752978
vt 0.094383 0.496420
vt 0.697843 0.401910
vt 0.214201 0.507237
vt 0.920327 0.905815
vt 0.925422 0.867875
vt 0.316828 0.454527
vt 0.748226 0.727593
vt 0.083158 0.822492
vt 0.106193 0.818305
vt 0.402867 0.795211
vt 0.435262 0.781953
vt 0.580494 0.666870
vt 0.548694 0.692396
vt 0.936168 0.973415
vt 0.960495 0.957893
vt 0.872117 0.584154
vt 0.886086 0.517864
vt 0.868508 0.479781
vt 0.963960 0.331957
vt 0.941909 0.315919
vt 0.948454 0.347923
vt 0.615445 0.680287
vt 0.595208 0.710712
vt 0.577506 0.856332
vt 0.593300 0.857022
vt 0.644029 0.719785
vt 0.970565 0.808916
vt 0.917065 0.446092
vt 0.900848 0.397758
vt 0.924036 0.365419
vt 0.923483 0.399825
vt 0.558181 0.727551
vt 0.513290 0.741935
vt 0.982070 0.869740
vt 0.953148 0.863688
vt 0.998491 0.786256
vt 0.931485 0.610604
vt 0.903227 0.577872
vt 0.954977 0.400996
vt 0.991581 0.380077
vt 0.634216 0.818591
vt 0.657647 0.800790
vt 0.617987 0.780577
vt 0.989531 0.619216
vt 0.929576 0.582209
vt 0.542472 0.787445
vt 0.582288 0.754919
vt 0.523567 0.772724
vt 0.647587 0.856104
vt 0.650287 0.901974
vt 0.673671 0.895346
vt 0.991581 0.595371
vt 0.948210 0.567810
vt 0.575864 0.974519
vt 0.543648 0.998491
vt 0.592366 0.986120
vt 0.547595 0.967413
vt 0.684233 0.293660
vt 0.678370 0.295206
vt 0.609055 0.826276
vt 0.626230 0.849884
vt 0.632311 0.901933
vt 0.603517 0.938181
vt 0.622060 0.952189
vt 0.349566 0.471595
vt 0.343997 0.470223
vt 0.345234 0.480313
vt 0.536222 0.603412
vt 0.525311 0.546090
vt 0.197390 0.550036
vt 0.208846 0.579638
vt 0.423604 0.473437
vt 0.397256 0.530369
vt 0.340450 0.276751
vt 0.335456 0.285425
vt 0.280541 0.546298
vt 0.233484 0.558109
vt 0.274101 0.578557
vt 0.478338 0.895537
vt 0.494636 0.868461
vt 0.478533 0.861138
vt 0.468542 0.296096
vt 0.450520 0.306153
vt 0.473336 0.317676
vt 0.203335 0.889232
vt 0.179331 0.831966
vt 0.165247 0.874737
vt 0.121400 0.887306
vt 0.390852 0.250770
vt 0.421029 0.299466
vt 0.370896 0.249768
vt 0.386588 0.296140
vt 0.392852 0.226265
vt 0.372535 0.227284
vt 0.231822 0.608837
vt 0.608545 0.853776
vt 0.620189 0.880341
vt 0.370830 0.470288
vt 0.124209 0.684727
vt 0.005507 0.810468
vt 0.001509 0.745783
vt 0.573108 0.945261
vt 0.557888 0.921942
vt 0.479504 0.740172
vt 0.232091 0.638491
vt 0.181831 0.640803
vt 0.203255 0.664407
vt 0.485811 0.451134
vt 0.089626 0.716065
vt 0.542605 0.310726
vt 0.558729 0.326174
vt 0.410841 0.231300
vt 0.415318 0.223175
vt 0.604299 0.894362
vt 0.067210 0.958022
vt 0.586723 0.795020
vt 0.557998 0.819454
vt 0.476355 0.297579
vt 0.484250 0.300514
vt 0.505090 0.285877
vt 0.083328 0.763966
vt 0.089032 0.748489
vt 0.088809 0.742756
vt 0.523864 0.906646
vt 0.544286 0.939992
vt 0.541072 0.910761
vt 0.178631 0.523780
vt 0.129880 0.774875
vt 0.464368 0.278981
vt 0.141455 0.494405
vt 0.085674 0.808455
vt 0.694329 0.300280
vt 0.688108 0.291235
vt 0.687764 0.303822
vt 0.034184 0.853399
vt 0.718622 0.278039
vt 0.737415 0.251073
vt 0.050497 0.842443
vt 0.405098 0.963851
vt 0.438148 0.937605
vt 0.405568 0.923200
vt 0.408785 0.830298
vt 0.410686 0.623547
vt 0.920016 0.488894
vt 0.333715 0.526429
vt 0.334827 0.511803
vt 0.030257 0.483615
vt 0.036965 0.523933
vt 0.158032 0.743736
vt 0.101465 0.745136
vt 0.089305 0.750317
vt 0.954654 0.896562
vt 0.664670 0.320278
vt 0.452852 0.326174
vt 0.455288 0.893752
vt 0.415517 0.887612
vt 0.086822 0.271482
vt 0.091453 0.276490
vt 0.091453 0.262892
vt 0.349566 0.483332
vt 0.340437 0.487805
vt 0.318314 0.670690
vt 0.298784 0.641630
vt 0.345624 0.537045
vt 0.348810 0.527484
vt 0.520075 0.976065
vt 0.324660 0.426387
vt 0.326622 0.442207
vt 0.328727 0.510414
vt 0.332176 0.499332
vt 0.652958 0.263839
vt 0.446429 0.213313
vt 0.449459 0.222189
vt 0.209801 0.276490
vt 0.209801 0.268775
vt 0.206281 0.274294
vt 0.720627 0.299678
vt 0.326654 0.614415
vt 0.467632 0.221618
vt 0.459140 0.229650
vt 0.667688 0.278160
vt 0.534565 0.861289
vt 0.527314 0.883195
vt 0.327718 0.456182
vt 0.333430 0.442778
vt 0.551626 0.806090
vt 0.489408 0.837802
vt 0.517542 0.814370
vt 0.475268 0.820264
vt 0.136967 0.617434
vt 0.169708 0.662341
vt 0.445608 0.864078
vt 0.539111 0.857904
vt 0.320780 0.400182
vt 0.322332 0.405215
vt 0.340102 0.363492
vt 0.334033 0.369963
vt 0.132435 0.666798
vt 0.340102 0.410732
vt 0.331827 0.412093
vt 0.348810 0.547286
vt 0.340437 0.541708
vt 0.009588 0.276490
vt 0.468276 0.786715
vt 0.431639 0.838488
vt 0.471361 0.953053
vt 0.457953 0.980432
vt 0.320979 0.285436
vt 0.326390 0.292670
vt 0.332438 0.290098
vt 0.957565 0.435966
vt 0.335547 0.480812
vt 0.329394 0.475863
vt 0.337419 0.491905
vt 0.321932 0.295953
vt 0.921438 0.538335
vt 0.339385 0.591621
vt 0.339774 0.579411
vt 0.977836 0.634834
vt 0.334247 0.601696
vt 0.682519 0.808598
vt 0.688654 0.895507
vt 0.349430 0.330030
vt 0.452555 0.225229
vt 0.031617 0.261059
vt 0.012606 0.267705
vt 0.020723 0.276490
vt 0.020304 0.268200
vt 0.322740 0.545216
vt 0.333725 0.547286
vt 0.337419 0.541717
vt 0.345260 0.315511
vt 0.377441 0.862133
vt 0.625770 0.751221
vt 0.384610 0.309774
vt 0.418100 0.323908
vt 0.582647 0.776508
vt 0.090594 0.747082
vt 0.148055 0.270326
vt 0.041602 0.260482
vt 0.034635 0.259544
vt 0.943398 0.995157
vt 0.002833 0.841913
vt 0.553756 0.298998
vt 0.020723 0.261344
vt 0.013448 0.259339
vt 0.554018 0.857012
vt 0.192945 0.270999
vt 0.196670 0.276490
vt 0.196670 0.267410
vt 0.696102 0.303730
vt 0.688654 0.768612
vt 0.073015 0.276490
vt 0.073015 0.259232
vt 0.068950 0.276338
vt 0.240618 0.695823
vt 0.110295 0.269404
vt 0.517748 0.258913
vt 0.483512 0.279809
vt 0.061813 0.775253
vt 0.696102 0.288709
vt 0.681344 0.326174
vt 0.680375 0.320906
vt 0.092044 0.664944
vt 0.500242 0.926720
vt 0.998491 0.947386
vt 0.558729 0.263492
vt 0.641190 0.693524
vt 0.497485 0.891970
vt 0.611755 0.262219
vt 0.627326 0.299333
vt 0.630170 0.304980
vt 0.635449 0.302798
vt 0.091830 0.288621
vt 0.664670 0.284645
vt 0.352950 0.848826
vt 0.389584 0.936918
vt 0.110445 0.793779
vt 0.565965 0.275638
vt 0.083024 0.716716
vt 0.332399 0.407713
vt 0.352950 0.222992
vt 0.353661 0.251709
vt 0.372941 0.938883
vt 0.691672 0.872840
vt 0.695165 0.917688
vt 0.330885 0.312213
vt 0.349430 0.312492
vt 0.349430 0.295688
vt 0.332438 0.277003
vt 0.399051 0.408988
vt 0.360367 0.404972
vt 0.352950 0.421933
vt 0.316076 0.499343
vt 0.361930 0.601976
vt 0.034696 0.568125
vt 0.089931 0.600878
vt 0.029276 0.944704
vt 0.143598 0.978790
vt 0.015350 0.524356
vt 0.316828 0.554235
vt 0.246461 0.622002
vt 0.206089 0.998491
vt 0.723361 0.757280
vt 0.087066 0.750946
vt 0.319846 0.419497
vt 0.583084 0.179851
vt 0.348285 0.564593
vt 0.103332 0.266819
vt 0.107277 0.276490
vt 0.107277 0.261661
vt 0.137881 0.276103
vt 0.144911 0.276490
vt 0.144911 0.269244
vt 0.338021 0.354060
vt 0.329666 0.561659
vt 0.336472 0.558981
vt 0.333830 0.550305
vt 0.349566 0.461099
vt 0.121330 0.271277
vt 0.127153 0.276490
vt 0.127153 0.266591
vt 0.182127 0.269361
vt 0.175952 0.270012
vt 0.182127 0.276490
vt 0.349566 0.380246
vt 0.349566 0.365994
vt 0.344738 0.372574
vt 0.697187 0.261357
vt 0.687764 0.263317
vt 0.688460 0.274352
vt 0.203263 0.276490
vt 0.203263 0.268393
vt 0.199688 0.270637
vt 0.127859 0.726074
vt 0.336071 0.434131
vt 0.057690 0.272088
vt 0.065932 0.276490
vt 0.065932 0.266327
vt 0.629879 0.314933
vt 0.692199 0.280586
vt 0.473336 0.226743
vt 0.700862 0.277541
vt 0.349566 0.417775
vt 0.349566 0.400987
vt 0.344502 0.409528
vt 0.083804 0.267625
vt 0.076033 0.269756
vt 0.083804 0.276490
vt 0.712034 0.262522
vt 0.349430 0.275183
vt 0.459723 0.222962
vt 0.049513 0.271155
vt 0.054672 0.276490
vt 0.054672 0.265299
vt 0.483270 0.317622
vt 0.478160 0.303374
vt 0.047061 0.276065
vt 0.044620 0.268634
vt 0.334372 0.319267
vt 0.323324 0.276300
vt 0.041602 0.276490
vt 0.339774 0.612384
vt 0.121334 0.768682
vt 0.326956 0.371063
vt 0.511372 0.915880
vt 0.348495 0.579110
vt 0.348495 0.567611
vt 0.343209 0.572953
vt 0.345846 0.588842
s 1
usemtl apple03_lr
f 1/1/1 2/2/2 3/3/3
f 4/4/4 5/5/5 6/6/6
f 7/7/7 8/8/8 9/9/9
f 10/10/10 11/11/11 12/12/8
f 13/13/12 14/14/13 15/15/14
f 16/16/12 17/17/15 18/18/16
f 18/18/16 19/19/17 16/16/12
f 20/20/18 21/21/19 22/22/20
f 23/23/21 24/24/22 25/25/23
f 26/26/24 27/27/25 8/8/8
f 26/26/24 28/28/26 29/29/27
f 30/30/27 31/31/28 32/32/25
f 33/33/6 31/31/28 34/34/29
f 35/35/30 36/36/4 37/37/29
f 38/38/31 39/39/32 40/40/33
f 41/41/34 42/42/35 43/43/36
f 44/44/37 45/45/38 46/46/39
f 47/47/40 48/48/41 49/49/42
f 50/50/43 51/51/44 52/52/40
f 53/53/45 12/12/8 11/11/11
f 54/54/46 55/55/47 56/56/48
f 57/57/49 58/58/50 59/59/51
f 60/60/52 61/61/53 59/59/51
f 62/62/52 63/63/54 64/64/55
f 65/65/56 66/66/54 67/67/57
f 68/68/58 65/65/56 69/69/59
f 70/70/60 71/71/61 72/72/52
f 73/73/62 74/74/63 75/75/64
f 75/75/64 76/76/59 73/73/62
f 77/77/65 78/78/66 79/79/67
f 80/80/66 81/81/68 82/82/69
f 83/83/70 84/84/64 85/85/63
f 86/86/71 87/87/69 88/88/72
f 89/89/69 90/90/73 91/91/74
f 92/92/75 93/93/76 94/94/77
f 95/95/78 80/80/66 82/82/69
f 96/96/79 28/28/26 97/97/80
f 98/98/81 99/99/82 100/100/83
f 101/101/84 102/102/85 103/103/86
f 104/104/87 105/105/88 98/98/81
f 106/106/84 107/107/89 108/108/90
f 109/109/91 110/110/92 111/111/93
f 112/112/94 87/87/69 86/86/71
f 113/113/95 114/114/96 115/115/97
f 116/116/98 117/117/99 118/118/73
f 119/119/100 120/120/101 121/121/102
f 122/122/83 123/123/103 124/124/104
f 22/22/20 125/125/104 20/20/18
f 126/126/105 127/127/106 128/128/107
f 129/129/108 130/130/106 131/131/109
f 27/27/25 9/9/9 8/8/8
f 132/132/110 133/133/109 127/127/106
f 24/24/22 134/134/111 135/135/112
f 32/32/25 31/31/28 33/33/6
f 136/136/113 108/108/90 137/137/114
f 138/138/28 35/35/30 37/37/29
f 139/139/115 140/140/91 141/141/116
f 142/142/117 143/143/118 144/144/119
f 145/145/120 146/146/121 147/147/39
f 148/148/121 149/149/10 150/150/39
f 151/151/122 152/152/20 153/153/13
f 154/154/123 139/139/115 155/155/124
f 156/156/125 124/124/104 123/123/103
f 157/157/126 158/158/127 159/159/128
f 160/160/129 161/161/130 162/162/131
f 163/163/132 164/164/133 165/165/134
f 166/166/135 167/167/136 168/168/137
f 169/169/138 170/170/139 171/171/140
f 172/172/141 173/173/142 174/174/90
f 175/175/143 176/176/144 172/172/141
f 108/108/90 177/177/145 106/106/84
f 178/178/146 179/179/147 180/180/148
f 181/181/149 182/182/150 183/183/151
f 184/184/152 181/181/149 183/183/151
f 185/185/153 186/186/154 187/187/155
f 26/26/24 29/29/27 27/27/25
f 60/60/52 59/59/51 188/188/132
f 92/92/75 189/189/156 93/93/76
f 159/159/128 158/158/127 190/190/157
f 191/191/158 192/192/159 193/193/30
f 194/194/160 171/171/140 195/195/135
f 184/184/152 196/196/161 197/197/162
f 198/198/163 187/187/155 199/199/164
f 200/200/165 201/201/166 202/202/167
f 203/203/168 94/94/77 3/3/3
f 204/204/169 189/189/156 92/92/75
f 205/205/170 189/189/156 204/204/169
f 206/206/171 207/207/76 208/208/172
f 209/209/173 210/210/174 211/211/175
f 212/212/174 213/213/176 214/214/177
f 215/215/178 216/216/179 217/217/180
f 218/218/181 219/219/182 220/220/183
f 175/175/143 172/172/141 174/174/90
f 136/136/113 137/137/114 221/221/184
f 222/222/185 223/223/144 224/224/186
f 176/176/144 225/225/185 203/203/168
f 226/226/187 227/227/188 222/222/185
f 228/228/189 94/94/77 203/203/168
f 229/229/190 230/230/191 231/231/192
f 232/232/193 233/233/194 234/234/195
f 235/235/196 236/236/197 237/237/198
f 235/235/196 237/237/198 212/212/174
f 238/238/199 220/220/183 219/219/182
f 238/238/199 221/221/184 220/220/183
f 239/239/200 136/136/113 221/221/184
f 240/240/201 241/241/202 242/242/203
f 243/243/204 227/227/188 226/226/187
f 244/244/205 245/245/206 246/246/207
f 247/247/208 248/248/209 249/249/210
f 250/250/211 249/249/210 251/251/212
f 252/252/213 253/253/214 254/254/215
f 234/234/195 230/230/191 255/255/216
f 256/256/217 257/257/218 258/258/219
f 257/257/218 259/259/220 258/258/219
f 258/258/219 219/219/182 260/260/221
f 259/259/220 238/238/199 219/219/182
f 261/261/222 239/239/200 262/262/223
f 262/262/223 239/239/200 238/238/199
f 239/239/200 263/263/224 224/224/186
f 264/264/225 248/248/209 247/247/208
f 265/265/226 229/229/190 249/249/210
f 266/266/227 262/262/223 257/257/218
f 267/267/228 265/265/226 268/268/229
f 265/265/226 269/269/230 270/270/231
f 269/269/230 271/271/232 270/270/231
f 272/272/233 266/266/227 273/273/234
f 274/274/235 275/275/236 266/266/227
f 241/241/202 276/276/237 242/242/203
f 277/277/238 278/278/239 279/279/240
f 280/280/241 281/281/242 282/282/243
f 281/281/242 283/283/244 282/282/243
f 284/284/245 285/285/234 286/286/246
f 240/240/201 287/287/247 241/241/202
f 281/281/242 288/288/248 289/289/249
f 290/290/250 291/291/251 292/292/252
f 293/293/253 294/294/254 295/295/255
f 296/296/201 297/297/233 298/298/256
f 299/299/257 296/296/201 300/300/258
f 296/296/201 298/298/256 300/300/258
f 301/301/259 302/302/260 277/277/238
f 302/302/260 303/303/261 304/304/262
f 303/303/261 305/305/263 304/304/262
f 306/306/264 307/307/68 78/78/66
f 244/244/205 308/308/265 245/245/206
f 309/309/266 310/310/267 291/291/251
f 311/311/268 293/293/253 295/295/255
f 221/221/184 137/137/114 312/312/269
f 313/313/270 314/314/271 298/298/256
f 315/315/272 316/316/273 317/317/274
f 244/244/205 318/318/275 308/308/265
f 319/319/276 290/290/250 292/292/252
f 320/320/277 317/317/274 321/321/278
f 155/155/124 141/141/116 322/322/279
f 154/154/123 155/155/124 323/323/280
f 324/324/281 154/154/123 323/323/280
f 325/325/282 326/326/283 252/252/213
f 327/327/284 302/302/260 301/301/259
f 328/328/285 329/329/286 330/330/287
f 331/331/288 332/332/289 333/333/290
f 334/334/291 319/319/276 318/318/275
f 335/335/292 290/290/250 319/319/276
f 336/336/293 309/309/266 290/290/250
f 337/337/294 311/311/268 310/310/267
f 39/39/32 338/338/295 339/339/296
f 340/340/297 341/341/298 342/342/299
f 343/343/300 344/344/301 327/327/284
f 111/111/93 345/345/302 346/346/303
f 347/347/304 348/348/305 349/349/306
f 322/322/279 350/350/307 351/351/308
f 323/323/280 322/322/279 352/352/309
f 353/353/310 354/354/311 355/355/312
f 356/356/313 357/357/314 358/358/315
f 359/359/316 360/360/317 361/361/313
f 362/362/318 359/359/316 363/363/319
f 364/364/320 365/365/321 366/366/322
f 338/338/295 367/367/323 368/368/324
f 40/40/33 339/339/296 369/369/325
f 369/369/325 370/370/326 371/371/327
f 372/372/328 373/373/329 374/374/277
f 375/375/330 376/376/331 377/377/332
f 378/378/333 379/379/334 380/380/335
f 381/381/336 382/382/337 380/380/335
f 383/383/338 340/340/297 384/384/339
f 385/385/340 343/343/300 327/327/284
f 383/383/338 386/386/341 387/387/342
f 388/388/343 347/347/304 389/389/300
f 345/345/302 390/390/344 383/383/338
f 391/391/345 329/329/286 328/328/285
f 351/351/308 350/350/307 392/392/303
f 393/393/346 335/335/292 334/334/291
f 394/394/347 336/336/293 335/335/292
f 395/395/348 396/396/349 397/397/350
f 332/332/289 398/398/310 399/399/312
f 400/400/319 356/356/313 401/401/351
f 402/402/352 363/363/319 403/403/353
f 369/369/325 404/404/354 405/405/331
f 406/406/355 407/407/356 408/408/357
f 409/409/343 343/343/300 385/385/340
f 410/410/358 411/411/359 347/347/304
f 384/384/339 342/342/299 412/412/360
f 413/413/361 414/414/362 415/415/363
f 416/416/364 337/337/294 336/336/293
f 351/351/308 392/392/303 417/417/365
f 384/384/339 418/418/366 419/419/294
f 352/352/309 351/351/308 413/413/361
f 412/412/360 420/420/367 418/418/366
f 421/421/368 323/323/280 422/422/369
f 364/364/320 423/423/370 424/424/371
f 355/355/312 354/354/311 425/425/340
f 426/426/372 427/427/373 428/428/374
f 332/332/289 399/399/312 406/406/355
f 426/426/372 429/429/375 372/372/328
f 430/430/376 358/358/315 431/431/377
f 431/431/377 408/408/357 432/432/378
f 431/431/377 406/406/355 408/408/357
f 406/406/355 385/385/340 407/407/356
f 368/368/324 433/433/352 429/429/375
f 354/354/311 395/395/348 388/388/343
f 338/338/295 426/426/372 428/428/374
f 410/410/358 421/421/368 434/434/379
f 339/339/296 428/428/374 435/435/380
f 405/405/331 364/364/320 424/424/371
f 434/434/379 422/422/369 391/391/345
f 352/352/309 413/413/361 436/436/381
f 379/379/334 437/437/382 438/438/383
f 412/412/360 381/381/336 420/420/367
f 379/379/334 438/438/383 380/380/335
f 377/377/332 437/437/382 379/379/334
f 413/413/361 417/417/365 414/414/362
f 404/404/354 364/364/320 405/405/331
f 339/339/296 435/435/380 404/404/354
f 391/391/345 422/422/369 436/436/381
f 410/410/358 434/434/379 411/411/359
f 439/439/384 440/440/385 441/441/375
f 400/400/319 401/401/351 442/442/386
f 332/332/289 406/406/355 431/431/377
f 399/399/312 385/385/340 406/406/355
f 401/401/351 358/358/315 430/430/376
f 354/354/311 388/388/343 425/425/340
f 442/442/386 401/401/351 430/430/376
f 442/442/386 443/443/353 400/400/319
f 395/395/348 397/397/350 410/410/358
f 397/397/350 324/324/281 421/421/368
f 421/421/368 410/410/358 397/397/350
f 422/422/369 352/352/309 436/436/381
f 351/351/308 417/417/365 413/413/361
f 392/392/303 444/444/387 417/417/365
f 445/445/387 387/387/342 446/446/388
f 441/441/375 440/440/385 447/447/329
f 386/386/341 446/446/388 387/387/342
f 426/426/372 368/368/324 429/429/375
f 426/426/372 372/372/328 448/448/389
f 426/426/372 448/448/389 427/427/373
f 428/428/374 427/427/373 435/435/380
f 365/365/321 435/435/380 427/427/373
f 364/364/320 404/404/354 435/435/380
f 339/339/296 404/404/354 369/369/325
f 424/424/371 423/423/370 449/449/382
f 338/338/295 428/428/374 339/339/296
f 338/338/295 368/368/324 426/426/372
f 450/450/390 433/433/352 368/368/324
f 384/384/339 412/412/360 418/418/366
f 386/386/341 384/384/339 419/419/294
f 439/439/384 443/443/353 440/440/385
f 446/446/388 386/386/341 419/419/294
f 394/394/347 416/416/364 336/336/293
f 356/356/313 358/358/315 401/401/351
f 333/333/290 431/431/377 358/358/315
f 333/333/290 332/332/289 431/431/377
f 436/436/381 413/413/361 415/415/363
f 434/434/379 421/421/368 422/422/369
f 395/395/348 410/410/358 388/388/343
f 451/451/307 111/111/93 346/346/303
f 346/346/303 345/345/302 387/387/342
f 387/387/342 445/445/387 346/346/303
f 430/430/376 431/431/377 432/432/378
f 383/383/338 384/384/339 386/386/341
f 340/340/297 342/342/299 384/384/339
f 452/452/391 430/430/376 325/325/282
f 440/440/385 443/443/353 452/452/391
f 378/378/333 380/380/335 382/382/337
f 375/375/330 377/377/332 379/379/334
f 375/375/330 453/453/326 376/376/331
f 369/369/325 405/405/331 370/370/326
f 429/429/375 373/373/329 372/372/328
f 372/372/328 454/454/392 448/448/389
f 427/427/373 448/448/389 455/455/393
f 367/367/323 450/450/390 368/368/324
f 423/423/370 364/364/320 456/456/394
f 423/423/370 456/456/394 457/457/395
f 423/423/370 457/457/395 449/449/382
f 458/458/316 356/356/313 400/400/319
f 360/360/317 459/459/314 361/361/313
f 460/460/396 438/438/383 461/461/397
f 357/357/314 333/333/290 358/358/315
f 418/418/366 420/420/367 460/460/396
f 419/419/294 418/418/366 462/462/268
f 395/395/348 354/354/311 353/353/310
f 353/353/310 396/396/349 395/395/348
f 463/463/365 394/394/347 335/335/292
f 393/393/346 463/463/365 335/335/292
f 464/464/363 393/393/346 334/334/291
f 324/324/281 397/397/350 396/396/349
f 324/324/281 323/323/280 421/421/368
f 323/323/280 352/352/309 422/422/369
f 322/322/279 351/351/308 352/352/309
f 141/141/116 350/350/307 322/322/279
f 465/465/93 350/350/307 141/141/116
f 391/391/345 411/411/359 434/434/379
f 411/411/359 391/391/345 328/328/285
f 466/466/398 340/340/297 390/390/344
f 340/340/297 383/383/338 390/390/344
f 388/388/343 410/410/358 347/347/304
f 341/341/298 382/382/337 342/342/299
f 407/407/356 385/385/340 327/327/284
f 375/375/330 379/379/334 378/378/333
f 430/430/376 432/432/378 325/325/282
f 40/40/33 369/369/325 371/371/327
f 442/442/386 430/430/376 452/452/391
f 39/39/32 339/339/296 40/40/33
f 367/367/323 338/338/295 39/39/32
f 467/467/399 468/468/390 469/469/323
f 470/470/400 402/402/352 468/468/390
f 470/470/400 362/362/318 402/402/352
f 363/363/319 402/402/352 362/362/318
f 448/448/389 454/454/392 471/471/401
f 448/448/389 471/471/401 455/455/393
f 472/472/402 332/332/289 331/331/288
f 364/364/320 435/435/380 365/365/321
f 456/456/394 366/366/322 473/473/403
f 456/456/394 364/364/320 366/366/322
f 474/474/404 475/475/405 324/324/281
f 324/324/281 396/396/349 474/474/404
f 475/475/405 154/154/123 324/324/281
f 155/155/124 322/322/279 323/323/280
f 111/111/93 390/390/344 345/345/302
f 449/449/382 457/457/395 476/476/383
f 341/341/298 340/340/297 466/466/398
f 336/336/293 337/337/294 309/309/266
f 38/38/31 40/40/33 371/371/327
f 464/464/363 334/334/291 318/318/275
f 329/329/286 415/415/363 477/477/275
f 478/478/406 264/264/225 479/479/407
f 480/480/408 470/470/400 468/468/390
f 481/481/409 362/362/318 470/470/400
f 411/411/359 328/328/285 348/348/305
f 482/482/410 459/459/314 483/483/411
f 353/353/310 484/484/412 396/396/349
f 484/484/412 485/485/413 396/396/349
f 139/139/115 141/141/116 155/155/124
f 140/140/91 465/465/93 141/141/116
f 110/110/92 486/486/414 111/111/93
f 390/390/344 486/486/414 466/466/398
f 487/487/415 488/488/416 341/341/298
f 341/341/298 466/466/398 487/487/415
f 488/488/416 382/382/337 341/341/298
f 489/489/417 490/490/327 491/491/418
f 347/347/304 411/411/359 348/348/305
f 389/389/300 347/347/304 349/349/306
f 492/492/402 482/482/410 493/493/419
f 494/494/420 200/200/165 495/495/421
f 492/492/402 493/493/419 496/496/413
f 497/497/422 154/154/123 475/475/405
f 497/497/422 139/139/115 154/154/123
f 498/498/423 499/499/424 488/488/416
f 500/500/425 499/499/424 501/501/426
f 502/502/427 360/360/317 503/503/428
f 504/504/429 497/497/422 505/505/430
f 506/506/431 139/139/115 497/497/422
f 506/506/431 140/140/91 139/139/115
f 507/507/432 110/110/92 109/109/91
f 507/507/432 508/508/433 110/110/92
f 487/487/415 466/466/398 508/508/433
f 509/509/434 501/501/426 498/498/423
f 510/510/435 491/491/418 509/509/434
f 511/511/436 512/512/437 513/513/438
f 514/514/439 515/515/440 507/507/432
f 516/516/441 517/517/442 518/518/443
f 511/511/436 519/519/444 512/512/437
f 519/519/444 520/520/445 521/521/439
f 522/522/445 523/523/446 515/515/440
f 524/524/447 525/525/448 526/526/449
f 524/524/447 527/527/450 525/525/448
f 528/528/451 36/36/4 529/529/121
f 530/530/452 531/531/453 511/511/436
f 531/531/453 532/532/454 519/519/444
f 532/532/454 533/533/455 534/534/446
f 535/535/456 536/536/60 537/537/72
f 159/159/128 217/217/180 157/157/126
f 538/538/457 452/452/391 539/539/458
f 540/540/459 286/286/246 541/541/460
f 542/542/461 279/279/240 543/543/462
f 18/18/16 544/544/125 545/545/103
f 546/546/463 547/547/464 548/548/465
f 267/267/228 291/291/251 269/269/230
f 549/549/466 550/550/467 551/551/468
f 552/552/467 553/553/469 554/554/468
f 281/281/242 289/289/249 283/283/244
f 552/552/467 216/216/179 553/553/469
f 555/555/470 268/268/229 556/556/471
f 269/269/230 295/295/255 271/271/232
f 245/245/206 557/557/472 558/558/473
f 215/215/178 559/559/474 560/560/475
f 561/561/476 562/562/477 560/560/475
f 215/215/178 159/159/128 559/559/474
f 563/563/421 564/564/478 561/561/476
f 547/547/464 541/541/460 565/565/479
f 566/566/478 567/567/480 531/531/453
f 268/268/229 265/265/226 556/556/471
f 567/567/480 533/533/455 532/532/454
f 276/276/237 543/543/462 568/568/481
f 232/232/193 234/234/195 569/569/482
f 570/570/481 263/263/224 571/571/237
f 572/572/483 199/199/164 573/573/484
f 481/481/409 574/574/485 362/362/318
f 471/471/401 454/454/392 300/300/258
f 263/263/224 226/226/187 222/222/185
f 575/575/486 576/576/479 577/577/487
f 279/279/240 542/542/461 277/277/238
f 408/408/357 407/407/356 578/578/488
f 213/213/176 579/579/489 218/218/181
f 543/543/462 276/276/237 241/241/202
f 580/580/490 194/194/160 581/581/467
f 190/190/157 582/582/491 159/159/128
f 159/159/128 582/582/491 559/559/474
f 582/582/491 563/563/421 559/559/474
f 582/582/491 583/583/492 563/563/421
f 488/488/416 499/499/424 382/382/337
f 495/495/421 200/200/165 584/584/493
f 495/495/421 584/584/493 567/567/480
f 288/288/248 585/585/494 246/246/207
f 200/200/165 202/202/167 584/584/493
f 530/530/452 586/586/495 587/587/477
f 588/588/496 589/589/497 590/590/498
f 591/591/499 592/592/500 312/312/269
f 312/312/269 592/592/500 593/593/501
f 594/594/152 595/595/162 596/596/502
f 183/183/151 196/196/161 184/184/152
f 473/473/403 597/597/503 540/540/459
f 171/171/140 194/194/160 580/580/490
f 598/598/504 479/479/407 250/250/211
f 599/599/160 166/166/135 216/216/179
f 216/216/179 166/166/135 217/217/180
f 159/159/128 215/215/178 217/217/180
f 366/366/322 600/600/505 597/597/503
f 222/222/185 227/227/188 601/601/506
f 447/447/329 538/538/457 320/320/277
f 499/499/424 500/500/425 375/375/330
f 533/533/455 584/584/493 202/202/167
f 602/602/507 603/603/508 604/604/509
f 570/570/481 605/605/510 243/243/204
f 606/606/166 129/129/108 607/607/511
f 283/283/244 264/264/225 608/608/512
f 609/609/418 610/610/513 611/611/514
f 185/185/153 187/187/155 198/198/163
f 186/186/154 573/573/484 187/187/155
f 612/612/515 481/481/409 480/480/408
f 531/531/453 567/567/480 532/532/454
f 230/230/191 229/229/190 270/270/231
f 230/230/191 271/271/232 577/577/487
f 186/186/154 135/135/112 596/596/502
f 559/559/474 563/563/421 561/561/476
f 590/590/498 181/181/149 184/184/152
f 317/317/274 287/287/247 613/613/257
f 181/181/149 169/169/138 182/182/150
f 614/614/448 498/498/423 487/487/415
f 54/54/46 615/615/36 616/616/516
f 170/170/139 195/195/135 171/171/140
f 617/617/278 618/618/517 454/454/392
f 598/598/504 251/251/212 619/619/170
f 166/166/135 168/168/137 217/217/180
f 168/168/137 157/157/126 217/217/180
f 620/620/518 593/593/501 621/621/519
f 622/622/520 475/475/405 474/474/404
f 208/208/172 207/207/76 623/623/156
f 554/554/468 553/553/469 624/624/521
f 553/553/469 216/216/179 215/215/178
f 625/625/522 626/626/523 610/610/513
f 317/317/274 254/254/215 287/287/247
f 547/547/464 565/565/479 548/548/465
f 290/290/250 309/309/266 291/291/251
f 558/558/473 248/248/209 283/283/244
f 627/627/524 628/628/456 629/629/72
f 630/630/524 631/631/72 81/81/68
f 325/325/282 539/539/458 452/452/391
f 632/632/525 633/633/397 293/293/253
f 575/575/486 294/294/254 293/293/253
f 314/314/271 600/600/505 471/471/401
f 634/634/96 635/635/95 116/116/98
f 178/178/146 180/180/148 636/636/526
f 151/151/122 637/637/17 638/638/98
f 639/639/527 640/640/528 163/163/132
f 151/151/122 153/153/13 637/637/17
f 527/527/450 572/572/483 595/595/162
f 210/210/174 209/209/173 641/641/196
f 642/642/14 158/158/127 643/643/529
f 644/644/72 645/645/530 646/646/531
f 263/263/224 261/261/222 571/571/237
f 534/534/446 533/533/455 524/524/447
f 647/647/14 130/130/106 606/606/166
f 520/520/445 532/532/454 534/534/446
f 648/648/41 58/58/50 57/57/49
f 168/168/137 649/649/532 650/650/533
f 289/289/249 245/245/206 558/558/473
f 190/190/157 158/158/127 583/583/492
f 218/218/181 220/220/183 593/593/501
f 519/519/444 532/532/454 520/520/445
f 265/265/226 249/249/210 556/556/471
f 511/511/436 531/531/453 519/519/444
f 35/35/30 138/138/28 651/651/158
f 543/543/462 279/279/240 568/568/481
f 135/135/112 652/652/496 653/653/534
f 37/37/29 36/36/4 528/528/451
f 214/214/177 9/9/9 27/27/25
f 530/530/452 511/511/436 586/586/495
f 654/654/535 79/79/67 655/655/88
f 586/586/495 656/656/536 587/587/477
f 455/455/393 365/365/321 427/427/373
f 589/589/497 169/169/138 181/181/149
f 657/657/521 658/658/537 659/659/538
f 660/660/246 273/273/234 661/661/539
f 525/525/448 527/527/450 636/636/526
f 662/662/540 657/657/521 659/659/538
f 288/288/248 245/245/206 289/289/249
f 134/134/111 663/663/541 652/652/496
f 625/625/522 662/662/540 626/626/523
f 20/20/18 664/664/542 665/665/496
f 543/543/462 253/253/214 542/542/461
f 666/666/67 667/667/78 105/105/88
f 534/534/446 524/524/447 526/526/449
f 514/514/439 522/522/445 515/515/440
f 569/569/482 234/234/195 668/668/543
f 512/512/437 519/519/444 521/521/439
f 152/152/20 669/669/544 670/670/110
f 100/100/83 125/125/104 22/22/20
f 671/671/103 634/634/96 672/672/17
f 673/673/83 115/115/97 114/114/96
f 511/511/436 513/513/438 586/586/495
f 77/77/65 79/79/67 654/654/535
f 518/518/443 503/503/428 674/674/545
f 104/104/87 100/100/83 22/22/20
f 98/98/81 100/100/83 104/104/87
f 105/105/88 667/667/78 98/98/81
f 675/675/546 659/659/538 674/674/545
f 600/600/505 314/314/271 597/597/503
f 540/540/459 541/541/460 547/547/464
f 676/676/547 610/610/513 677/677/434
f 678/678/548 679/679/50 680/680/41
f 681/681/549 509/509/434 498/498/423
f 165/165/134 682/682/64 683/683/72
f 525/525/448 636/636/526 180/180/148
f 640/640/528 684/684/59 164/164/133
f 685/685/456 73/73/62 76/76/59
f 515/515/440 686/686/449 508/508/433
f 59/59/51 687/687/46 688/688/527
f 688/688/527 188/188/132 59/59/51
f 686/686/449 487/487/415 508/508/433
f 616/616/516 684/684/59 639/639/527
f 507/507/432 515/515/440 508/508/433
f 213/213/176 593/593/501 620/620/518
f 689/689/550 514/514/439 507/507/432
f 57/57/49 59/59/51 61/61/53
f 58/58/50 690/690/47 59/59/51
f 54/54/46 56/56/48 615/615/36
f 691/691/551 521/521/439 692/692/552
f 693/693/36 65/65/56 68/68/58
f 693/693/36 66/66/54 65/65/56
f 63/63/54 47/47/40 49/49/42
f 694/694/15 157/157/126 650/650/533
f 132/132/110 695/695/21 133/133/109
f 696/696/553 697/697/554 698/698/555
f 523/523/446 686/686/449 515/515/440
f 56/56/48 55/55/47 699/699/548
f 700/700/556 56/56/48 699/699/548
f 701/701/34 615/615/36 56/56/48
f 702/702/555 66/66/54 693/693/36
f 234/234/195 255/255/216 668/668/543
f 703/703/31 611/611/514 626/626/523
f 513/513/438 512/512/437 704/704/557
f 562/562/477 705/705/558 706/706/537
f 586/586/495 513/513/438 707/707/559
f 707/707/559 513/513/438 517/517/442
f 517/517/442 493/493/419 502/502/427
f 157/157/126 168/168/137 650/650/533
f 8/8/8 45/45/38 26/26/24
f 518/518/443 502/502/427 503/503/428
f 46/46/39 708/708/507 97/97/80
f 674/674/545 503/503/428 574/574/485
f 4/4/4 6/6/6 709/709/119
f 710/710/6 711/711/29 144/144/119
f 662/662/540 659/659/538 675/675/546
f 353/353/310 712/712/402 484/484/412
f 675/675/546 612/612/515 626/626/523
f 713/713/239 605/605/510 570/570/481
f 714/714/560 580/580/490 581/581/467
f 698/698/555 715/715/34 696/696/553
f 715/715/34 716/716/561 696/696/553
f 541/541/460 286/286/246 565/565/479
f 472/472/402 398/398/310 332/332/289
f 18/18/16 545/545/103 19/19/17
f 23/23/21 25/25/23 717/717/109
f 509/509/434 491/491/418 500/500/425
f 509/509/434 500/500/425 501/501/426
f 498/498/423 501/501/426 499/499/424
f 487/487/415 498/498/423 488/488/416
f 357/357/314 331/331/288 333/333/290
f 718/718/562 719/719/39 720/720/80
f 110/110/92 508/508/433 486/486/414
f 524/524/447 533/533/455 572/572/483
f 198/198/163 199/199/164 202/202/167
f 689/689/550 507/507/432 109/109/91
f 453/453/326 491/491/418 490/490/327
f 504/504/429 506/506/431 497/497/422
f 483/483/411 459/459/314 360/360/317
f 512/512/437 521/521/439 691/691/551
f 622/622/520 504/504/429 505/505/430
f 524/524/447 572/572/483 527/527/450
f 604/604/509 721/721/563 602/602/507
f 512/512/437 691/691/551 722/722/520
f 512/512/437 722/722/520 704/704/557
f 527/527/450 595/595/162 178/178/146
f 704/704/557 496/496/413 493/493/419
f 493/493/419 517/517/442 704/704/557
f 704/704/557 517/517/442 513/513/438
f 162/162/131 161/161/130 102/102/85
f 502/502/427 493/493/419 483/483/411
f 502/502/427 483/483/411 360/360/317
f 503/503/428 360/360/317 574/574/485
f 96/96/79 106/106/84 28/28/26
f 723/723/80 724/724/26 725/725/37
f 177/177/145 29/29/27 28/28/26
f 675/675/546 674/674/545 481/481/409
f 612/612/515 675/675/546 481/481/409
f 26/26/24 45/45/38 28/28/26
f 45/45/38 44/44/37 28/28/26
f 23/23/21 134/134/111 24/24/22
f 626/626/523 612/612/515 703/703/31
f 224/224/186 263/263/224 222/222/185
f 596/596/502 595/595/162 573/573/484
f 500/500/425 491/491/418 453/453/326
f 726/726/564 577/577/487 271/271/232
f 142/142/117 144/144/119 711/711/29
f 145/145/120 727/727/451 146/146/121
f 46/46/39 7/7/7 9/9/9
f 728/728/502 729/729/112 590/590/498
f 108/108/90 136/136/113 730/730/143
f 111/111/93 486/486/414 390/390/344
f 731/731/39 603/603/508 602/602/507
f 160/160/129 732/732/565 733/733/566
f 481/481/409 674/674/545 574/574/485
f 560/560/475 559/559/474 561/561/476
f 668/668/543 273/273/234 734/734/567
f 505/505/430 497/497/422 475/475/405
f 622/622/520 505/505/430 475/475/405
f 595/595/162 735/735/568 178/178/146
f 248/248/209 558/558/473 557/557/472
f 183/183/151 580/580/490 714/714/560
f 173/173/142 172/172/141 2/2/2
f 196/196/161 183/183/151 714/714/560
f 730/730/143 136/136/113 224/224/186
f 2/2/2 1/1/1 173/173/142
f 622/622/520 474/474/404 485/485/413
f 485/485/413 736/736/569 622/622/520
f 714/714/560 737/737/568 196/196/161
f 496/496/413 738/738/412 492/492/402
f 739/739/560 549/549/466 735/735/568
f 251/251/212 229/229/190 619/619/170
f 740/740/28 1/1/1 3/3/3
f 455/455/393 600/600/505 365/365/321
f 624/624/521 560/560/475 706/706/537
f 493/493/419 482/482/410 483/483/411
f 741/741/570 33/33/6 742/742/30
f 743/743/158 209/209/173 741/741/570
f 739/739/560 550/550/467 549/549/466
f 360/360/317 359/359/316 574/574/485
f 436/436/381 415/415/363 329/329/286
f 467/467/399 612/612/515 480/480/408
f 480/480/408 481/481/409 470/470/400
f 617/617/278 372/372/328 374/374/277
f 467/467/399 480/480/408 468/468/390
f 202/202/167 199/199/164 533/533/455
f 612/612/515 467/467/399 703/703/31
f 454/454/392 372/372/328 617/617/278
f 566/566/478 495/495/421 567/567/480
f 744/744/399 367/367/323 39/39/32
f 107/107/89 137/137/114 108/108/90
f 567/567/480 584/584/493 533/533/455
f 662/662/540 551/551/468 657/657/521
f 182/182/150 580/580/490 183/183/151
f 625/625/522 551/551/468 662/662/540
f 180/180/148 179/179/147 676/676/547
f 610/610/513 626/626/523 611/611/514
f 656/656/536 586/586/495 516/516/441
f 560/560/475 562/562/477 706/706/537
f 735/735/568 549/549/466 179/179/147
f 586/586/495 707/707/559 516/516/441
f 707/707/559 517/517/442 516/516/441
f 659/659/538 658/658/537 518/518/443
f 365/365/321 600/600/505 366/366/322
f 202/202/167 201/201/166 198/198/163
f 209/209/173 743/743/158 208/208/172
f 180/180/148 676/676/547 677/677/434
f 701/701/34 56/56/48 700/700/556
f 614/614/448 681/681/549 498/498/423
f 211/211/175 741/741/570 209/209/173
f 500/500/425 453/453/326 375/375/330
f 623/623/156 745/745/571 208/208/172
f 499/499/424 375/375/330 378/378/333
f 746/746/32 703/703/31 467/467/399
f 499/499/424 378/378/333 382/382/337
f 609/609/418 611/611/514 747/747/417
f 508/508/433 466/466/398 486/486/414
f 549/549/466 551/551/468 625/625/522
f 735/735/568 179/179/147 178/178/146
f 659/659/538 518/518/443 674/674/545
f 601/601/506 478/478/406 748/748/572
f 228/228/189 749/749/572 94/94/77
f 656/656/536 516/516/441 658/658/537
f 734/734/567 569/569/482 668/668/543
f 249/249/210 229/229/190 251/251/212
f 598/598/504 250/250/211 251/251/212
f 234/234/195 233/233/194 619/619/170
f 577/577/487 661/661/539 230/230/191
f 703/703/31 747/747/417 611/611/514
f 517/517/442 502/502/427 518/518/443
f 342/342/299 382/382/337 381/381/336
f 237/237/198 236/236/197 258/258/219
f 387/387/342 345/345/302 383/383/338
f 342/342/299 381/381/336 412/412/360
f 579/579/489 750/750/573 218/218/181
f 20/20/18 751/751/111 21/21/19
f 391/391/345 436/436/381 329/329/286
f 561/561/476 564/564/478 752/752/453
f 238/238/199 239/239/200 221/221/184
f 561/561/476 752/752/453 753/753/452
f 747/747/417 703/703/31 754/754/327
f 362/362/318 574/574/485 359/359/316
f 326/326/283 408/408/357 578/578/488
f 407/407/356 301/301/259 578/578/488
f 349/349/306 755/755/574 756/756/261
f 303/303/261 327/327/284 344/344/301
f 227/227/188 608/608/512 478/478/406
f 479/479/407 748/748/572 478/478/406
f 745/745/571 209/209/173 208/208/172
f 757/757/75 758/758/77 759/759/572
f 281/281/242 585/585/494 288/288/248
f 485/485/413 474/474/404 396/396/349
f 250/250/211 247/247/208 249/249/210
f 543/543/462 254/254/215 253/253/214
f 230/230/191 234/234/195 231/231/192
f 255/255/216 230/230/191 661/661/539
f 553/553/469 560/560/475 624/624/521
f 256/256/217 258/258/219 236/236/197
f 256/256/217 734/734/567 257/257/218
f 258/258/219 260/260/221 237/237/198
f 257/257/218 262/262/223 259/259/220
f 258/258/219 259/259/220 219/219/182
f 259/259/220 262/262/223 238/238/199
f 263/263/224 570/570/481 243/243/204
f 381/381/336 380/380/335 420/420/367
f 279/279/240 278/278/239 568/568/481
f 605/605/510 282/282/243 283/283/244
f 605/605/510 283/283/244 608/608/512
f 264/264/225 250/250/211 479/479/407
f 292/292/252 267/267/228 268/268/229
f 179/179/147 549/549/466 676/676/547
f 556/556/471 249/249/210 248/248/209
f 432/432/378 408/408/357 326/326/283
f 265/265/226 270/270/231 229/229/190
f 178/178/146 636/636/526 527/527/450
f 316/316/273 254/254/215 317/317/274
f 255/255/216 661/661/539 668/668/543
f 266/266/227 257/257/218 734/734/567
f 266/266/227 275/275/236 262/262/223
f 262/262/223 275/275/236 261/261/222
f 275/275/236 571/571/237 261/261/222
f 266/266/227 734/734/567 273/273/234
f 678/678/548 680/680/41 760/760/553
f 248/248/209 264/264/225 283/283/244
f 556/556/471 248/248/209 557/557/472
f 269/269/230 310/310/267 295/295/255
f 271/271/232 295/295/255 726/726/564
f 577/577/487 576/576/479 661/661/539
f 274/274/235 266/266/227 272/272/233
f 432/432/378 326/326/283 325/325/282
f 543/543/462 241/241/202 254/254/215
f 253/253/214 578/578/488 542/542/461
f 277/277/238 761/761/575 278/278/239
f 277/277/238 304/304/262 761/761/575
f 762/762/243 763/763/510 278/278/239
f 267/267/228 269/269/230 265/265/226
f 289/289/249 558/558/473 283/283/244
f 549/549/466 625/625/522 676/676/547
f 555/555/470 556/556/471 557/557/472
f 291/291/251 310/310/267 269/269/230
f 294/294/254 726/726/564 295/295/255
f 294/294/254 575/575/486 726/726/564
f 575/575/486 577/577/487 726/726/564
f 476/476/383 457/457/395 764/764/397
f 660/660/246 661/661/539 576/576/479
f 278/278/239 761/761/575 762/762/243
f 284/284/245 297/297/233 285/285/234
f 420/420/367 438/438/383 460/460/396
f 240/240/201 242/242/203 765/765/235
f 296/296/201 299/299/257 766/766/247
f 326/326/283 578/578/488 253/253/214
f 761/761/575 304/304/262 762/762/243
f 297/297/233 296/296/201 767/767/576
f 246/246/207 245/245/206 288/288/248
f 447/447/329 440/440/385 452/452/391
f 245/245/206 308/308/265 557/557/472
f 292/292/252 268/268/229 555/555/470
f 292/292/252 291/291/251 267/267/228
f 239/239/200 261/261/222 263/263/224
f 93/93/76 740/740/28 3/3/3
f 664/664/542 20/20/18 125/125/104
f 298/298/256 297/297/233 284/284/245
f 264/264/225 247/247/208 250/250/211
f 420/420/367 380/380/335 438/438/383
f 256/256/217 569/569/482 734/734/567
f 316/316/273 252/252/213 254/254/215
f 252/252/213 326/326/283 253/253/214
f 542/542/461 578/578/488 277/277/238
f 578/578/488 301/301/259 277/277/238
f 277/277/238 302/302/260 304/304/262
f 597/597/503 313/313/270 540/540/459
f 263/263/224 243/243/204 226/226/187
f 768/768/261 585/585/494 281/281/242
f 246/246/207 585/585/494 769/769/577
f 224/224/186 136/136/113 239/239/200
f 318/318/275 555/555/470 308/308/265
f 600/600/505 455/455/393 471/471/401
f 310/310/267 311/311/268 295/295/255
f 311/311/268 632/632/525 293/293/253
f 243/243/204 608/608/512 227/227/188
f 605/605/510 608/608/512 243/243/204
f 540/540/459 313/313/270 284/284/245
f 540/540/459 284/284/245 286/286/246
f 313/313/270 298/298/256 284/284/245
f 298/298/256 314/314/271 471/471/401
f 298/298/256 471/471/401 300/300/258
f 300/300/258 454/454/392 618/618/517
f 618/618/517 299/299/257 300/300/258
f 256/256/217 236/236/197 569/569/482
f 618/618/517 770/770/274 299/299/257
f 316/316/273 315/315/272 252/252/213
f 315/315/272 539/539/458 252/252/213
f 252/252/213 539/539/458 325/325/282
f 235/235/196 569/569/482 236/236/197
f 302/302/260 327/327/284 303/303/261
f 231/231/192 234/234/195 619/619/170
f 457/457/395 456/456/394 546/546/463
f 769/769/577 244/244/205 246/246/207
f 546/546/463 764/764/397 457/457/395
f 318/318/275 319/319/276 555/555/470
f 555/555/470 319/319/276 292/292/252
f 771/771/253 764/764/397 546/546/463
f 462/462/268 418/418/366 460/460/396
f 772/772/578 575/575/486 293/293/253
f 309/309/266 337/337/294 310/310/267
f 335/335/292 336/336/293 290/290/250
f 456/456/394 547/547/464 546/546/463
f 547/547/464 456/456/394 473/473/403
f 597/597/503 473/473/403 366/366/322
f 314/314/271 313/313/270 597/597/503
f 560/560/475 553/553/469 215/215/178
f 617/617/278 770/770/274 618/618/517
f 334/334/291 335/335/292 319/319/276
f 320/320/277 315/315/272 317/317/274
f 320/320/277 538/538/457 315/315/272
f 773/773/286 318/318/275 244/244/205
f 538/538/457 539/539/458 315/315/272
f 330/330/287 329/329/286 774/774/205
f 479/479/407 598/598/504 748/748/572
f 330/330/287 755/755/574 348/348/305
f 348/348/305 328/328/285 330/330/287
f 407/407/356 327/327/284 301/301/259
f 349/349/306 348/348/305 755/755/574
f 97/97/80 708/708/507 775/775/131
f 230/230/191 270/270/231 271/271/232
f 637/637/17 153/153/13 776/776/529
f 601/601/506 227/227/188 478/478/406
f 164/164/133 682/682/64 165/165/134
f 175/175/143 777/777/186 176/176/144
f 232/232/193 569/569/482 235/235/196
f 53/53/45 11/11/11 778/778/579
f 593/593/501 220/220/183 312/312/269
f 59/59/51 690/690/47 687/687/46
f 213/213/176 218/218/181 593/593/501
f 779/779/57 780/780/54 781/781/52
f 782/782/57 783/783/580 784/784/581
f 67/67/57 785/785/582 65/65/56
f 639/639/527 684/684/59 640/640/528
f 273/273/234 668/668/543 661/661/539
f 447/447/329 452/452/391 538/538/457
f 60/60/52 188/188/132 786/786/60
f 786/786/60 787/787/134 788/788/72
f 535/535/456 789/789/582 536/536/60
f 790/790/59 791/791/582 792/792/456
f 164/164/133 684/684/59 682/682/64
f 212/212/174 237/237/198 213/213/176
f 163/163/132 640/640/528 164/164/133
f 793/793/583 794/794/63 795/795/524
f 796/796/66 797/797/584 798/798/585
f 83/83/70 85/85/63 799/799/65
f 800/800/71 83/83/70 799/799/65
f 801/801/586 84/84/64 83/83/70
f 802/802/587 803/803/72 804/804/531
f 235/235/196 805/805/173 232/232/193
f 151/151/122 806/806/87 152/152/20
f 203/203/168 3/3/3 2/2/2
f 807/807/71 808/808/65 809/809/73
f 443/443/353 442/442/386 452/452/391
f 132/132/110 127/127/106 126/126/105
f 135/135/112 25/25/23 24/24/22
f 185/185/153 25/25/23 135/135/112
f 206/206/171 743/743/158 810/810/28
f 619/619/170 229/229/190 231/231/192
f 662/662/540 675/675/546 626/626/523
f 811/811/9 603/603/508 731/731/39
f 620/620/518 9/9/9 214/214/177
f 606/606/166 130/130/106 129/129/108
f 620/620/518 214/214/177 213/213/176
f 655/655/88 151/151/122 638/638/98
f 151/151/122 655/655/88 806/806/87
f 160/160/129 733/733/566 161/161/130
f 168/168/137 812/812/138 649/649/532
f 186/186/154 596/596/502 573/573/484
f 643/643/529 158/158/127 694/694/15
f 157/157/126 694/694/15 158/158/127
f 103/103/86 102/102/85 161/161/130
f 25/25/23 185/185/153 198/198/163
f 813/813/588 647/647/14 606/606/166
f 158/158/127 642/642/14 583/583/492
f 561/561/476 753/753/452 562/562/477
f 182/182/150 171/171/140 580/580/490
f 608/608/512 264/264/225 478/478/406
f 3/3/3 94/94/77 93/93/76
f 220/220/183 221/221/184 312/312/269
f 814/814/489 815/815/221 816/816/589
f 579/579/489 237/237/198 260/260/221
f 219/219/182 218/218/181 260/260/221
f 631/631/72 82/82/69 81/81/68
f 817/817/590 818/818/71 819/819/72
f 775/775/131 96/96/79 97/97/80
f 658/658/537 516/516/441 518/518/443
f 187/187/155 573/573/484 199/199/164
f 555/555/470 557/557/472 308/308/265
f 606/606/166 820/820/165 813/813/588
f 135/135/112 134/134/111 652/652/496
f 821/821/533 18/18/16 17/17/15
f 822/822/16 650/650/533 649/649/532
f 823/823/542 824/824/138 825/825/591
f 170/170/139 169/169/138 826/826/137
f 589/589/497 588/588/496 827/827/542
f 823/823/542 828/828/532 824/824/138
f 829/829/104 828/828/532 823/823/542
f 116/116/98 672/672/17 634/634/96
f 135/135/112 186/186/154 185/185/153
f 199/199/164 572/572/483 533/533/455
f 203/203/168 172/172/141 176/176/144
f 667/667/78 99/99/82 98/98/81
f 306/306/264 78/78/66 77/77/65
f 65/65/56 785/785/582 69/69/59
f 614/614/448 487/487/415 686/686/449
f 49/49/42 64/64/55 63/63/54
f 48/48/41 47/47/40 830/830/592
f 625/625/522 610/610/513 676/676/547
f 153/153/13 152/152/20 670/670/110
f 32/32/25 741/741/570 211/211/175
f 32/32/25 33/33/6 741/741/570
f 106/106/84 177/177/145 28/28/26
f 831/831/593 678/678/548 760/760/553
f 142/142/117 832/832/594 143/143/118
f 572/572/483 573/573/484 595/595/162
f 473/473/403 540/540/459 547/547/464
f 599/599/160 216/216/179 552/552/467
f 833/833/595 690/690/47 58/58/50
f 208/208/172 743/743/158 206/206/171
f 639/639/527 54/54/46 616/616/516
f 312/312/269 137/137/114 591/591/499
f 591/591/499 137/137/114 107/107/89
f 182/182/150 169/169/138 171/171/140
f 190/190/157 583/583/492 582/582/491
f 218/218/181 750/750/573 260/260/221
f 834/834/75 748/748/572 598/598/504
f 213/213/176 237/237/198 579/579/489
f 635/635/95 117/117/99 116/116/98
f 638/638/98 654/654/535 655/655/88
f 667/667/78 835/835/95 99/99/82
f 241/241/202 287/287/247 254/254/215
f 188/188/132 787/787/134 786/786/60
f 207/207/76 206/206/171 810/810/28
f 228/228/189 203/203/168 225/225/185
f 836/836/161 735/735/568 595/595/162
f 728/728/502 590/590/498 184/184/152
f 590/590/498 589/589/497 181/181/149
f 203/203/168 2/2/2 172/172/141
f 837/837/74 838/838/596 839/839/78
f 840/840/69 837/837/74 839/839/78
