# Blender 4.0.2
# www.blender.org
mtllib axe.mtl
o Axe_Material.002_0
v -0.131973 0.406352 0.010125
v -0.162972 0.381575 0.002181
v -0.121217 0.333943 0.002167
v -0.137784 0.486229 0.010188
v -0.153848 0.549308 0.002253
v -0.175095 0.495821 0.002352
v -0.079535 0.436314 0.016453
v -0.057467 0.367733 0.010976
v -0.047315 0.406628 0.014689
v -0.137784 0.486229 -0.010014
v -0.180443 0.442755 -0.002092
v -0.175095 0.495821 -0.002178
v -0.079535 0.436314 -0.016279
v -0.047315 0.406628 -0.014515
v -0.057467 0.367733 -0.010802
v -0.153848 0.549308 -0.002079
v -0.180443 0.442755 0.002266
v -0.131973 0.406352 -0.009951
v -0.121217 0.333943 -0.001994
v -0.162972 0.381575 -0.002007
v -0.049568 0.340246 -0.006951
v -0.065083 0.303687 -0.001980
v -0.084801 0.560613 -0.009131
v -0.114527 0.585743 -0.001980
v -0.084801 0.560613 0.009305
v -0.114527 0.585743 0.002154
v -0.065083 0.303687 0.002154
v -0.049568 0.340246 0.007125
v 0.131972 0.406352 0.010125
v 0.121216 0.333943 0.002167
v 0.162971 0.381575 0.002181
v 0.137783 0.486229 0.010188
v 0.175095 0.495821 0.002352
v 0.153847 0.549308 0.002253
v 0.079534 0.436314 0.016453
v 0.047314 0.406628 0.014689
v 0.057466 0.367733 0.010976
v 0.137783 0.486229 -0.010014
v 0.175095 0.495821 -0.002178
v 0.180442 0.442755 -0.002092
v 0.079534 0.436314 -0.016279
v 0.057466 0.367733 -0.010802
v 0.047314 0.406628 -0.014515
v 0.153847 0.549308 -0.002079
v 0.180442 0.442755 0.002266
v 0.131972 0.406352 -0.009951
v 0.162971 0.381575 -0.002007
v 0.121216 0.333943 -0.001994
v 0.049567 0.340246 -0.006951
v 0.065082 0.303687 -0.001980
v 0.084800 0.560613 -0.009131
v 0.114527 0.585743 -0.001980
v 0.084800 0.560613 0.009305
v 0.114527 0.585743 0.002154
v 0.065082 0.303687 0.002154
v 0.049567 0.340246 0.007125
v -0.000000 0.370183 -0.022611
v -0.000000 0.535309 -0.028409
v 0.020149 0.535309 -0.020063
v 0.016049 0.370183 -0.015963
v 0.028495 0.535309 0.000087
v 0.022697 0.370183 0.000087
v 0.020149 0.535309 0.020237
v 0.016049 0.370183 0.016137
v -0.000000 0.535309 0.028583
v -0.000000 0.370183 0.022785
v -0.020150 0.535309 0.020237
v -0.016050 0.370183 0.016137
v -0.028496 0.535309 0.000087
v -0.022698 0.370183 0.000087
v -0.022698 0.370183 0.000087
v -0.028496 0.535309 0.000087
v -0.020150 0.535309 -0.020063
v -0.016050 0.370183 -0.015963
v -0.024901 -0.086199 0.000087
v -0.017607 -0.086199 -0.017520
v -0.015581 -0.091255 -0.015494
v -0.022036 -0.091255 0.000087
v -0.015816 0.072955 -0.015729
v -0.016050 0.205058 -0.015963
v -0.000000 0.205058 -0.022611
v -0.000000 0.072955 -0.022280
v -0.022367 0.072955 0.000087
v -0.022698 0.205058 0.000087
v -0.015816 0.072955 0.015903
v -0.016050 0.205058 0.016137
v -0.022698 0.205058 0.000087
v -0.022367 0.072955 0.000087
v -0.000000 0.072955 0.022454
v -0.000000 0.205058 0.022785
v 0.015815 0.072955 0.015903
v 0.016049 0.205058 0.016137
v 0.022366 0.072955 0.000087
v 0.022697 0.205058 0.000087
v 0.015815 0.072955 -0.015729
v 0.016049 0.205058 -0.015963
v 0.017607 -0.086199 -0.017520
v 0.024900 -0.086199 0.000087
v 0.022035 -0.091255 0.000087
v 0.015581 -0.091255 -0.015494
v -0.000000 -0.086199 0.024987
v -0.017607 -0.086199 0.017694
v -0.015581 -0.091255 0.015668
v -0.000000 -0.091255 0.022122
v -0.000000 -0.086199 -0.024813
v -0.000000 -0.091255 -0.021948
v 0.017607 -0.086199 0.017694
v 0.015581 -0.091255 0.015668
v -0.024901 -0.086199 0.000087
v -0.022036 -0.091255 0.000087
v -0.049568 0.340246 0.007125
v -0.065083 0.303687 0.002154
v -0.065083 0.303687 -0.001980
v -0.050087 0.338400 -0.006951
v -0.084801 0.560613 -0.009131
v -0.114527 0.585743 -0.001980
v -0.114527 0.585743 0.002154
v -0.084801 0.560613 0.009305
v -0.079171 0.479979 -0.016279
v -0.000000 0.437016 -0.038468
v -0.000000 0.437016 0.038642
v -0.035678 0.429757 0.016628
v -0.035678 0.429757 -0.016454
v -0.059158 0.523010 0.015023
v -0.079171 0.479979 0.016453
v -0.000000 0.454919 0.042333
v -0.042016 0.452028 0.018212
v -0.035678 0.429757 0.016628
v -0.000000 0.437016 0.038642
v -0.000000 0.498343 0.038642
v -0.035678 0.506047 0.016628
v -0.042016 0.479245 0.018212
v -0.000000 0.476798 0.042333
v -0.059158 0.523010 -0.014849
v -0.059158 0.523010 0.015023
v -0.047315 0.406628 0.014689
v -0.057467 0.367733 0.010976
v -0.057467 0.367733 -0.010802
v -0.047315 0.406628 -0.014515
v -0.121217 0.333943 0.002167
v -0.121217 0.333943 -0.001994
v -0.065083 0.303687 -0.001980
v -0.065083 0.303687 0.002154
v -0.035678 0.506047 -0.016454
v -0.000000 0.498343 -0.038468
v -0.000000 0.476798 -0.042159
v -0.042016 0.479245 -0.018038
v -0.042016 0.452028 -0.018038
v -0.000000 0.454919 -0.042159
v -0.000000 0.437016 -0.038468
v -0.035678 0.429757 -0.016454
v -0.035678 0.506047 -0.016454
v -0.035678 0.506047 0.016628
v -0.000000 0.498343 0.038642
v -0.000000 0.498343 -0.038468
v -0.180443 0.442755 0.002266
v -0.175095 0.495821 0.002352
v -0.175095 0.495821 -0.002178
v -0.180443 0.442755 -0.002092
v -0.059158 0.523010 -0.014849
v -0.153848 0.549308 0.002253
v -0.153848 0.549308 -0.002079
v -0.114527 0.585743 0.002154
v -0.114527 0.585743 -0.001980
v -0.162972 0.381575 0.002181
v -0.162972 0.381575 -0.002007
v 0.035677 0.429757 -0.016454
v 0.035677 0.429757 0.016628
v 0.035677 0.429757 0.016628
v 0.042015 0.452028 0.018212
v 0.042015 0.479245 0.018212
v 0.035677 0.506047 0.016628
v 0.035677 0.506047 -0.016454
v 0.042015 0.479245 -0.018038
v 0.042015 0.452028 -0.018038
v 0.035677 0.429757 -0.016454
v 0.035677 0.506047 -0.016454
v 0.035677 0.506047 0.016628
v -0.035678 0.506047 -0.016454
v -0.042016 0.479245 -0.018038
v -0.042016 0.452028 -0.018038
v -0.035678 0.429757 -0.016454
v -0.042016 0.452028 0.018212
v -0.042016 0.479245 0.018212
v -0.035678 0.429757 0.016628
v -0.035678 0.429757 -0.016454
v -0.035678 0.506047 -0.016454
v -0.035678 0.506047 0.016628
v -0.035678 0.429757 0.016628
v -0.035678 0.506047 0.016628
v 0.049567 0.340246 0.007125
v 0.050086 0.338400 -0.006951
v 0.065082 0.303687 -0.001980
v 0.065082 0.303687 0.002154
v 0.084800 0.560613 -0.009131
v 0.084800 0.560613 0.009305
v 0.114527 0.585743 0.002154
v 0.114527 0.585743 -0.001980
v 0.079170 0.479979 -0.016279
v 0.059157 0.523010 0.015023
v 0.079170 0.479979 0.016453
v 0.059157 0.523010 -0.014849
v 0.059157 0.523010 0.015023
v 0.047314 0.406628 0.014689
v 0.047314 0.406628 -0.014515
v 0.057466 0.367733 -0.010802
v 0.057466 0.367733 0.010976
v 0.121216 0.333943 0.002167
v 0.065082 0.303687 0.002154
v 0.065082 0.303687 -0.001980
v 0.121216 0.333943 -0.001994
v 0.180442 0.442755 0.002266
v 0.180442 0.442755 -0.002092
v 0.175095 0.495821 -0.002178
v 0.175095 0.495821 0.002352
v 0.059157 0.523010 -0.014849
v 0.153847 0.549308 0.002253
v 0.153847 0.549308 -0.002079
v 0.114527 0.585743 0.002154
v 0.114527 0.585743 -0.001980
v 0.162971 0.381575 0.002181
v 0.162971 0.381575 -0.002007
v 0.035677 0.506047 -0.016454
v 0.042015 0.479245 -0.018038
v 0.042015 0.452028 -0.018038
v 0.035677 0.429757 -0.016454
v 0.042015 0.452028 0.018212
v 0.042015 0.479245 0.018212
v 0.035677 0.429757 0.016628
v 0.035677 0.429757 -0.016454
v 0.035677 0.506047 -0.016454
v 0.035677 0.506047 0.016628
v 0.035677 0.429757 0.016628
v 0.035677 0.506047 0.016628
v -0.000000 0.070793 -0.025396
v -0.000000 0.072955 -0.022280
v 0.015815 0.072955 -0.015729
v 0.018019 0.070793 -0.017932
v 0.022366 0.072955 0.000087
v 0.025482 0.070793 0.000087
v 0.015815 0.072955 0.015903
v 0.018019 0.070793 0.018106
v -0.000000 0.072955 0.022454
v -0.000000 0.070793 0.025570
v -0.015816 0.072955 0.015903
v -0.018020 0.070793 0.018106
v -0.022367 0.072955 0.000087
v -0.025483 0.070793 0.000087
v -0.025483 0.070793 0.000087
v -0.022367 0.072955 0.000087
v -0.015816 0.072955 -0.015729
v -0.018020 0.070793 -0.017932
v -0.017357 -0.068140 -0.017269
v -0.000000 -0.068140 -0.024459
v -0.024546 -0.068140 0.000087
v -0.017357 -0.068140 0.017443
v -0.024546 -0.068140 0.000087
v -0.000000 -0.068140 0.024632
v 0.017356 -0.068140 0.017443
v 0.024545 -0.068140 0.000087
v 0.017356 -0.068140 -0.017269
v -0.017357 -0.068140 -0.017269
v -0.018741 -0.064249 -0.018653
v -0.000000 -0.064249 -0.026415
v -0.000000 -0.068140 -0.024459
v -0.024546 -0.068140 0.000087
v -0.026503 -0.064249 0.000087
v -0.017357 -0.068140 0.017443
v -0.018741 -0.064249 0.018827
v -0.026503 -0.064249 0.000087
v -0.024546 -0.068140 0.000087
v -0.000000 -0.068140 0.024632
v -0.000000 -0.064249 0.026589
v 0.017356 -0.068140 0.017443
v 0.018740 -0.064249 0.018827
v 0.024545 -0.068140 0.000087
v 0.026502 -0.064249 0.000087
v 0.017356 -0.068140 -0.017269
v 0.018740 -0.064249 -0.018653
v -0.018741 -0.064249 -0.018653
v -0.018020 0.070793 -0.017932
v -0.000000 0.070793 -0.025396
v -0.000000 -0.064249 -0.026415
v -0.026503 -0.064249 0.000087
v -0.025483 0.070793 0.000087
v -0.018741 -0.064249 0.018827
v -0.018020 0.070793 0.018106
v -0.025483 0.070793 0.000087
v -0.026503 -0.064249 0.000087
v -0.000000 -0.064249 0.026589
v -0.000000 0.070793 0.025570
v 0.018740 -0.064249 0.018827
v 0.018019 0.070793 0.018106
v 0.026502 -0.064249 0.000087
v 0.025482 0.070793 0.000087
v 0.018740 -0.064249 -0.018653
v 0.018019 0.070793 -0.017932
v 0.020149 0.535309 -0.020063
v -0.000000 0.535309 -0.028409
v -0.020150 0.535309 -0.020063
v -0.028496 0.535309 0.000087
v -0.020150 0.535309 0.020237
v -0.000000 0.535309 0.028583
v 0.020149 0.535309 0.020237
v 0.028495 0.535309 0.000087
v -0.000000 -0.091255 -0.021948
v 0.015581 -0.091255 -0.015494
v 0.022035 -0.091255 0.000087
v 0.015581 -0.091255 0.015668
v -0.000000 -0.091255 0.022122
v -0.015581 -0.091255 0.015668
v -0.022036 -0.091255 0.000087
v -0.015581 -0.091255 -0.015494
vn -0.1310 -0.0734 0.9887
vn -0.1720 -0.0991 0.9801
vn -0.0771 -0.1186 0.9899
vn -0.1454 0.0399 0.9886
vn -0.1343 0.0991 0.9860
vn -0.1936 0.0475 0.9799
vn -0.0668 -0.0485 0.9966
vn -0.0658 -0.1141 0.9913
vn -0.0223 -0.0833 0.9963
vn -0.1454 0.0399 -0.9886
vn -0.1854 -0.0163 -0.9825
vn -0.1936 0.0475 -0.9799
vn -0.0668 -0.0485 -0.9966
vn -0.0223 -0.0833 -0.9963
vn -0.0658 -0.1141 -0.9913
vn -0.1343 0.0991 -0.9860
vn -0.1854 -0.0163 0.9825
vn -0.1310 -0.0734 -0.9887
vn -0.0771 -0.1186 -0.9899
vn -0.1720 -0.0991 -0.9801
vn -0.0623 -0.1146 -0.9915
vn -0.0590 -0.1099 -0.9922
vn -0.1109 0.1010 -0.9887
vn -0.1225 0.1349 -0.9833
vn -0.1109 0.1010 0.9887
vn -0.1225 0.1349 0.9833
vn -0.0590 -0.1099 0.9922
vn -0.0623 -0.1146 0.9915
vn 0.1310 -0.0734 0.9887
vn 0.0771 -0.1186 0.9899
vn 0.1720 -0.0991 0.9801
vn 0.1454 0.0399 0.9886
vn 0.1936 0.0475 0.9799
vn 0.1343 0.0991 0.9860
vn 0.0668 -0.0485 0.9966
vn 0.0223 -0.0833 0.9963
vn 0.0658 -0.1141 0.9913
vn 0.1454 0.0399 -0.9886
vn 0.1936 0.0475 -0.9799
vn 0.1854 -0.0163 -0.9825
vn 0.0668 -0.0485 -0.9966
vn 0.0658 -0.1141 -0.9913
vn 0.0223 -0.0833 -0.9963
vn 0.1343 0.0991 -0.9860
vn 0.1854 -0.0163 0.9825
vn 0.1310 -0.0734 -0.9887
vn 0.1720 -0.0991 -0.9801
vn 0.0771 -0.1186 -0.9899
vn 0.0623 -0.1146 -0.9915
vn 0.0590 -0.1099 -0.9922
vn 0.1109 0.1010 -0.9887
vn 0.1225 0.1349 -0.9833
vn 0.1109 0.1010 0.9887
vn 0.1225 0.1349 0.9833
vn 0.0590 -0.1099 0.9922
vn 0.0623 -0.1146 0.9915
vn -0.0000 -0.0176 -0.9998
vn -0.0000 -0.0351 -0.9994
vn 0.7067 -0.0351 -0.7067
vn 0.7070 -0.0176 -0.7070
vn 0.9994 -0.0351 -0.0000
vn 0.9998 -0.0176 -0.0000
vn 0.7067 -0.0351 0.7067
vn 0.7070 -0.0176 0.7070
vn -0.0000 -0.0351 0.9994
vn -0.0000 -0.0176 0.9998
vn -0.7067 -0.0351 0.7067
vn -0.7070 -0.0176 0.7070
vn -0.9994 -0.0351 -0.0000
vn -0.9998 -0.0176 -0.0000
vn -0.7067 -0.0351 -0.7067
vn -0.7070 -0.0176 -0.7070
vn -0.9729 -0.2313 -0.0000
vn -0.6879 -0.2314 -0.6879
vn -0.6152 -0.4930 -0.6152
vn -0.8700 -0.4930 -0.0000
vn -0.7071 -0.0025 -0.7071
vn -0.7071 -0.0013 -0.7071
vn -0.0000 -0.0013 -1.0000
vn -0.0000 -0.0025 -1.0000
vn -1.0000 -0.0025 -0.0000
vn -1.0000 -0.0013 -0.0000
vn -0.7071 -0.0025 0.7071
vn -0.7071 -0.0013 0.7071
vn -1.0000 -0.0012 -0.0000
vn -0.0000 -0.0025 1.0000
vn -0.0000 -0.0013 1.0000
vn 0.7071 -0.0025 0.7071
vn 0.7071 -0.0013 0.7071
vn 1.0000 -0.0025 -0.0000
vn 1.0000 -0.0013 -0.0000
vn 0.7071 -0.0025 -0.7071
vn 0.7071 -0.0013 -0.7071
vn 0.6879 -0.2314 -0.6879
vn 0.9729 -0.2313 -0.0000
vn 0.8700 -0.4930 -0.0000
vn 0.6152 -0.4930 -0.6152
vn -0.0000 -0.2314 0.9729
vn -0.6879 -0.2314 0.6879
vn -0.6152 -0.4930 0.6152
vn -0.0000 -0.4930 0.8700
vn -0.0000 -0.2314 -0.9729
vn -0.0000 -0.4930 -0.8700
vn 0.6879 -0.2314 0.6879
vn 0.6152 -0.4930 0.6152
vn 0.9998 -0.0149 -0.0107
vn 0.9192 -0.3935 0.0137
vn 0.9975 -0.0703 -0.0072
vn 0.7517 0.6596 -0.0000
vn 0.6456 0.7637 -0.0000
vn -0.0783 0.0337 -0.9964
vn -0.0000 -1.0000 -0.0000
vn 0.1994 -0.9799 -0.0000
vn -0.0750 0.0718 0.9946
vn -0.0784 0.0337 0.9964
vn -0.0000 -0.1010 0.9949
vn -0.4929 -0.0919 0.8652
vn -0.4831 -0.1885 0.8550
vn -0.0000 -0.2153 0.9766
vn -0.0000 0.1807 0.9835
vn -0.4889 0.1577 0.8580
vn -0.4950 0.0772 0.8654
vn -0.0000 0.0855 0.9963
vn 0.7094 0.7048 -0.0000
vn 0.9336 -0.3582 -0.0000
vn 0.9998 -0.0157 -0.0131
vn 0.9998 -0.0150 -0.0132
vn -0.6231 -0.7821 -0.0000
vn -0.4745 -0.8803 -0.0000
vn -0.4889 0.1577 -0.8580
vn -0.0000 0.1808 -0.9835
vn -0.0000 0.0855 -0.9963
vn -0.4950 0.0772 -0.8654
vn -0.4929 -0.0919 -0.8652
vn -0.0000 -0.1010 -0.9949
vn -0.0000 -0.2153 -0.9766
vn -0.4831 -0.1885 -0.8550
vn 0.2111 0.9775 -0.0000
vn -0.0000 1.0000 -0.0000
vn -0.9961 -0.0886 -0.0000
vn -0.9715 0.2370 -0.0000
vn -0.0750 0.0718 -0.9946
vn -0.8250 0.5651 -0.0000
vn -0.6797 0.7335 -0.0000
vn -0.8781 -0.4784 -0.0000
vn -0.1994 -0.9799 -0.0000
vn 0.4831 -0.1885 0.8550
vn 0.4929 -0.0919 0.8652
vn 0.4950 0.0772 0.8654
vn 0.4889 0.1577 0.8580
vn 0.4889 0.1577 -0.8580
vn 0.4950 0.0772 -0.8654
vn 0.4929 -0.0919 -0.8652
vn 0.4831 -0.1885 -0.8550
vn -0.2111 0.9775 -0.0000
vn -0.0385 0.0575 -0.9976
vn -0.0426 0.0305 -0.9986
vn -0.0337 -0.0320 -0.9989
vn -0.0154 -0.0756 -0.9970
vn -0.0337 -0.0320 0.9989
vn -0.0426 0.0305 0.9986
vn 0.8933 -0.4495 -0.0000
vn 0.5856 0.8106 -0.0000
vn -0.0154 -0.0756 0.9970
vn -0.0385 0.0576 0.9976
vn -0.9998 -0.0149 -0.0107
vn -0.9975 -0.0703 -0.0072
vn -0.9192 -0.3935 0.0137
vn -0.7517 0.6596 -0.0000
vn -0.6456 0.7637 -0.0000
vn 0.0784 0.0337 -0.9964
vn 0.0750 0.0718 0.9946
vn 0.0784 0.0337 0.9964
vn -0.7094 0.7048 -0.0000
vn -0.9336 -0.3582 -0.0000
vn -0.9998 -0.0150 -0.0132
vn -0.9998 -0.0157 -0.0131
vn 0.6231 -0.7821 -0.0000
vn 0.4745 -0.8803 -0.0000
vn 0.9961 -0.0886 -0.0000
vn 0.9715 0.2370 -0.0000
vn 0.0750 0.0718 -0.9946
vn 0.8250 0.5651 -0.0000
vn 0.6797 0.7335 -0.0000
vn 0.8781 -0.4784 -0.0000
vn 0.0385 0.0575 -0.9976
vn 0.0426 0.0305 -0.9986
vn 0.0337 -0.0320 -0.9989
vn 0.0154 -0.0756 -0.9970
vn 0.0337 -0.0320 0.9989
vn 0.0426 0.0305 0.9986
vn -0.8933 -0.4495 -0.0000
vn -0.5856 0.8106 -0.0000
vn 0.0153 -0.0756 0.9970
vn 0.0385 0.0576 0.9976
vn -0.0000 0.8216 -0.5700
vn 0.4031 0.8216 -0.4031
vn 0.5701 0.8216 -0.0000
vn 0.4031 0.8216 0.4031
vn -0.0000 0.8216 0.5700
vn -0.4031 0.8216 0.4031
vn -0.5701 0.8216 -0.0000
vn -0.4031 0.8216 -0.4031
vn -0.7070 0.0196 -0.7070
vn -0.0000 0.0196 -0.9998
vn -0.9998 0.0197 -0.0000
vn -0.7070 0.0196 0.7070
vn -0.9998 0.0196 -0.0000
vn -0.0000 0.0196 0.9998
vn 0.7070 0.0196 0.7070
vn 0.9998 0.0196 -0.0000
vn 0.7070 0.0196 -0.7070
vn -0.6317 -0.4493 -0.6317
vn -0.0000 -0.4493 -0.8934
vn -0.8934 -0.4493 -0.0000
vn -0.6317 -0.4493 0.6317
vn -0.0000 -0.4493 0.8934
vn 0.6317 -0.4493 0.6317
vn 0.8934 -0.4493 -0.0000
vn 0.6317 -0.4493 -0.6317
vn -0.7071 0.0075 -0.7071
vn -0.0000 0.0075 -1.0000
vn -1.0000 0.0075 -0.0000
vn -0.7071 0.0075 0.7071
vn -0.0000 0.0075 1.0000
vn 0.7071 0.0075 0.7071
vn 1.0000 0.0075 -0.0000
vn 0.7071 0.0075 -0.7071
vt 0.064127 0.073820
vt 0.052040 0.050072
vt 0.092259 0.026570
vt 0.039016 0.122496
vt 0.009992 0.157147
vt 0.012495 0.117625
vt 0.089878 0.108073
vt 0.107730 0.076735
vt 0.109563 0.099017
vt 0.024453 0.083226
vt 0.122950 0.041323
vt 0.135147 0.014723
vt 0.046764 0.180061
vt 0.023364 0.191640
vt 0.862925 0.382917
vt 0.977098 0.388297
vt 0.977592 0.373302
vt 0.863133 0.370822
vt 0.977712 0.358301
vt 0.863180 0.358696
vt 0.977460 0.343309
vt 0.863065 0.346570
vt 0.976835 0.328336
vt 0.862789 0.334480
vt 0.975832 0.313395
vt 0.862353 0.322460
vt 0.974442 0.298501
vt 0.861758 0.310544
vt 0.862025 0.406872
vt 0.974927 0.418210
vt 0.976223 0.403275
vt 0.862555 0.394945
vt 0.551975 0.418210
vt 0.551457 0.403466
vt 0.547360 0.403517
vt 0.547727 0.417420
vt 0.650217 0.399095
vt 0.748978 0.394723
vt 0.748765 0.382830
vt 0.649852 0.385836
vt 0.650622 0.412389
vt 0.749269 0.406568
vt 0.649952 0.319391
vt 0.748797 0.323191
vt 0.749028 0.311344
vt 0.650271 0.306080
vt 0.649675 0.332662
vt 0.748644 0.335088
vt 0.649519 0.345953
vt 0.748566 0.347016
vt 0.649496 0.359253
vt 0.748560 0.358960
vt 0.649608 0.372551
vt 0.748627 0.370903
vt 0.550589 0.374199
vt 0.550432 0.359546
vt 0.546240 0.359524
vt 0.546399 0.374235
vt 0.550706 0.330236
vt 0.551107 0.315591
vt 0.547011 0.315506
vt 0.546533 0.330102
vt 0.550940 0.388841
vt 0.546767 0.388932
vt 0.550472 0.344889
vt 0.546281 0.344810
vt 0.551514 0.300816
vt 0.547232 0.301633
vt 0.137882 0.015259
vt 0.133238 0.041949
vt 0.049639 0.192544
vt 0.023872 0.194391
vt 0.077669 0.135519
vt 0.552048 0.143088
vt 0.554659 0.193318
vt 0.528474 0.183425
vt 0.527740 0.159647
vt 0.078752 0.168778
vt 0.555178 0.203316
vt 0.522654 0.200514
vt 0.556470 0.228163
vt 0.531144 0.241588
vt 0.522610 0.221455
vt 0.555827 0.215802
vt 0.083079 0.188878
vt 0.123992 0.074352
vt 0.128798 0.096021
vt 0.091161 0.023981
vt 0.134393 0.012006
vt 0.397615 0.603878
vt 0.403814 0.574819
vt 0.418602 0.574819
vt 0.416472 0.607646
vt 0.435328 0.607609
vt 0.433015 0.574819
vt 0.445347 0.574819
vt 0.451133 0.603978
vt 0.532307 0.265212
vt 0.559145 0.279649
vt 0.009436 0.117012
vt 0.021885 0.081772
vt 0.007094 0.157592
vt 0.020653 0.192682
vt 0.050213 0.047913
vt 0.577942 0.157038
vt 0.579677 0.180765
vt 0.587237 0.197158
vt 0.589452 0.217981
vt 0.583050 0.238890
vt 0.397615 0.545760
vt 0.416472 0.541991
vt 0.435328 0.542028
vt 0.451133 0.545660
vt 0.584342 0.262507
vt 0.097284 0.164155
vt 0.101069 0.145741
vt 0.108678 0.128669
vt 0.114736 0.117029
vt 0.137882 0.111813
vt 0.101702 0.186275
vt 0.646210 0.385946
vt 0.645962 0.372612
vt 0.645849 0.359264
vt 0.645872 0.345913
vt 0.646031 0.332572
vt 0.646313 0.319251
vt 0.646635 0.305886
vt 0.646990 0.412603
vt 0.646581 0.399256
vt 0.565283 0.402854
vt 0.564787 0.388420
vt 0.565785 0.417395
vt 0.564945 0.316123
vt 0.565340 0.301553
vt 0.564562 0.330575
vt 0.564339 0.345038
vt 0.564301 0.359505
vt 0.564452 0.373968
vt 0.570880 0.402606
vt 0.570392 0.388250
vt 0.571375 0.417065
vt 0.570547 0.316339
vt 0.570936 0.301852
vt 0.570170 0.330713
vt 0.569951 0.345098
vt 0.569915 0.359488
vt 0.570063 0.373875
vt 0.564174 0.105922
vt 0.538673 0.116485
vt 0.553611 0.116485
vt 0.564174 0.090983
vt 0.528110 0.105922
vt 0.553611 0.080420
vt 0.528110 0.090983
vt 0.538673 0.080420
vt 0.394612 0.051328
vt 0.372045 0.041981
vt 0.381393 0.051328
vt 0.403960 0.041981
vt 0.372045 0.028761
vt 0.403960 0.028761
vt 0.381393 0.019413
vt 0.394612 0.019413
s 1
usemtl Material.006
f 1/1/1 2/2/2 3/3/3
f 4/4/4 5/5/5 6/6/6
f 7/7/7 8/8/8 9/9/9
f 10/4/10 11/10/11 12/6/12
f 13/7/13 14/9/14 15/8/15
f 10/4/10 12/6/12 16/5/16
f 4/4/4 6/6/6 17/10/17
f 18/1/18 19/3/19 20/2/20
f 20/2/20 11/10/11 18/1/18
f 18/1/18 11/10/11 10/4/10
f 21/11/21 19/3/19 18/1/18
f 22/12/22 19/3/19 21/11/21
f 23/13/23 16/5/16 24/14/24
f 10/4/10 16/5/16 23/13/23
f 4/4/4 25/13/25 5/5/5
f 25/13/25 26/14/26 5/5/5
f 27/12/27 28/11/28 3/3/3
f 28/11/28 1/1/1 3/3/3
f 1/1/1 4/4/4 17/10/17
f 2/2/2 1/1/1 17/10/17
f 29/1/29 30/3/30 31/2/31
f 32/4/32 33/6/33 34/5/34
f 35/7/35 36/9/36 37/8/37
f 38/4/38 39/6/39 40/10/40
f 41/7/41 42/8/42 43/9/43
f 38/4/38 44/5/44 39/6/39
f 32/4/32 45/10/45 33/6/33
f 46/1/46 47/2/47 48/3/48
f 47/2/47 46/1/46 40/10/40
f 46/1/46 38/4/38 40/10/40
f 49/11/49 46/1/46 48/3/48
f 50/12/50 49/11/49 48/3/48
f 51/13/51 52/14/52 44/5/44
f 38/4/38 51/13/51 44/5/44
f 32/4/32 34/5/34 53/13/53
f 53/13/53 34/5/34 54/14/54
f 55/12/55 30/3/30 56/11/56
f 56/11/56 30/3/30 29/1/29
f 29/1/29 45/10/45 32/4/32
f 31/2/31 45/10/45 29/1/29
f 57/15/57 58/16/58 59/17/59
f 57/15/57 59/17/59 60/18/60
f 60/18/60 59/17/59 61/19/61
f 60/18/60 61/19/61 62/20/62
f 62/20/62 61/19/61 63/21/63
f 62/20/62 63/21/63 64/22/64
f 64/22/64 63/21/63 65/23/65
f 64/22/64 65/23/65 66/24/66
f 66/24/66 65/23/65 67/25/67
f 66/24/66 67/25/67 68/26/68
f 68/26/68 67/25/67 69/27/69
f 68/26/68 69/27/69 70/28/70
f 71/29/70 72/30/69 73/31/71
f 71/29/70 73/31/71 74/32/72
f 74/32/72 73/31/71 58/16/58
f 74/32/72 58/16/58 57/15/57
f 75/33/73 76/34/74 77/35/75
f 75/33/73 77/35/75 78/36/76
f 79/37/77 80/38/78 81/39/79
f 79/37/77 81/39/79 82/40/80
f 80/38/78 74/32/72 57/15/57
f 80/38/78 57/15/57 81/39/79
f 83/41/81 84/42/82 80/38/78
f 83/41/81 80/38/78 79/37/77
f 84/42/82 71/29/70 74/32/72
f 84/42/82 74/32/72 80/38/78
f 85/43/83 86/44/84 87/45/85
f 85/43/83 87/45/85 88/46/81
f 86/44/84 68/26/68 70/28/70
f 86/44/84 70/28/70 87/45/85
f 89/47/86 90/48/87 86/44/84
f 89/47/86 86/44/84 85/43/83
f 90/48/87 66/24/66 68/26/68
f 90/48/87 68/26/68 86/44/84
f 91/49/88 92/50/89 90/48/87
f 91/49/88 90/48/87 89/47/86
f 92/50/89 64/22/64 66/24/66
f 92/50/89 66/24/66 90/48/87
f 93/51/90 94/52/91 92/50/89
f 93/51/90 92/50/89 91/49/88
f 94/52/91 62/20/62 64/22/64
f 94/52/91 64/22/64 92/50/89
f 95/53/92 96/54/93 94/52/91
f 95/53/92 94/52/91 93/51/90
f 96/54/93 60/18/60 62/20/62
f 96/54/93 62/20/62 94/52/91
f 82/40/80 81/39/79 96/54/93
f 82/40/80 96/54/93 95/53/92
f 81/39/79 57/15/57 60/18/60
f 81/39/79 60/18/60 96/54/93
f 97/55/94 98/56/95 99/57/96
f 97/55/94 99/57/96 100/58/97
f 101/59/98 102/60/99 103/61/100
f 101/59/98 103/61/100 104/62/101
f 76/34/74 105/63/102 106/64/103
f 76/34/74 106/64/103 77/35/75
f 105/63/102 97/55/94 100/58/97
f 105/63/102 100/58/97 106/64/103
f 98/56/95 107/65/104 108/66/105
f 98/56/95 108/66/105 99/57/96
f 102/60/99 109/67/73 110/68/76
f 102/60/99 110/68/76 103/61/100
f 107/65/104 101/59/98 104/62/101
f 107/65/104 104/62/101 108/66/105
f 111/11/106 112/12/107 113/69/107
f 111/11/106 113/69/107 114/70/108
f 115/71/109 116/72/110 117/14/110
f 115/71/109 117/14/110 118/13/109
f 13/7/13 18/1/18 10/4/10
f 13/7/13 10/4/10 119/73/111
f 120/74/112 121/75/112 122/76/113
f 120/74/112 122/76/113 123/77/113
f 124/78/114 25/13/25 4/4/4
f 124/78/114 4/4/4 125/73/115
f 126/79/116 127/80/117 128/76/118
f 126/79/116 128/76/118 129/75/119
f 130/81/120 131/82/121 132/83/122
f 130/81/120 132/83/122 133/84/123
f 134/85/124 115/71/109 118/13/109
f 134/85/124 118/13/109 135/78/124
f 136/9/125 137/8/126 138/86/127
f 136/9/125 138/86/127 139/87/125
f 140/3/128 141/88/128 142/89/129
f 140/3/128 142/89/129 143/12/129
f 144/90/130 145/91/131 146/92/132
f 144/90/130 146/92/132 147/93/133
f 148/94/134 149/95/135 150/96/136
f 148/94/134 150/96/136 151/97/137
f 152/98/138 153/82/138 154/81/139
f 152/98/138 154/81/139 155/99/139
f 126/79/116 133/84/123 132/83/122
f 126/79/116 132/83/122 127/80/117
f 156/10/140 157/6/141 158/100/141
f 156/10/140 158/100/141 159/101/140
f 7/7/7 125/73/115 4/4/4
f 7/7/7 4/4/4 1/1/1
f 160/78/142 119/73/111 10/4/10
f 160/78/142 10/4/10 23/13/23
f 148/94/134 147/93/133 146/92/132
f 148/94/134 146/92/132 149/95/135
f 161/5/143 162/102/143 158/100/141
f 161/5/143 158/100/141 157/6/141
f 163/14/144 164/103/144 162/102/143
f 163/14/144 162/102/143 161/5/143
f 165/2/145 156/10/140 159/101/140
f 165/2/145 159/101/140 166/104/145
f 165/2/145 166/104/145 141/88/128
f 165/2/145 141/88/128 140/3/128
f 120/74/112 167/105/146 168/106/146
f 120/74/112 168/106/146 121/75/112
f 126/79/116 129/75/119 169/106/147
f 126/79/116 169/106/147 170/107/148
f 130/81/120 133/84/123 171/108/149
f 130/81/120 171/108/149 172/109/150
f 173/110/151 174/111/152 146/92/132
f 173/110/151 146/92/132 145/91/131
f 175/112/153 176/113/154 150/96/136
f 175/112/153 150/96/136 149/95/135
f 177/114/155 155/99/139 154/81/139
f 177/114/155 154/81/139 178/109/155
f 126/79/116 170/107/148 171/108/149
f 126/79/116 171/108/149 133/84/123
f 175/112/153 149/95/135 146/92/132
f 175/112/153 146/92/132 174/111/152
f 15/8/15 21/11/21 18/1/18
f 15/8/15 18/1/18 13/7/13
f 179/115/156 180/116/157 119/73/111
f 179/115/156 119/73/111 160/78/142
f 181/117/158 182/118/159 14/9/14
f 181/117/158 14/9/14 13/7/13
f 181/117/158 13/7/13 119/73/111
f 181/117/158 119/73/111 180/116/157
f 183/117/160 184/116/161 125/73/115
f 183/117/160 125/73/115 7/7/7
f 185/118/162 136/9/125 139/87/125
f 185/118/162 139/87/125 186/119/162
f 187/120/163 134/85/124 135/78/124
f 187/120/163 135/78/124 188/115/163
f 183/117/160 7/7/7 9/9/9
f 183/117/160 9/9/9 189/118/164
f 190/115/165 124/78/114 125/73/115
f 190/115/165 125/73/115 184/116/161
f 8/8/8 7/7/7 1/1/1
f 8/8/8 1/1/1 28/11/28
f 138/86/127 137/8/126 111/11/106
f 138/86/127 111/11/106 114/70/108
f 191/11/166 192/70/167 193/69/168
f 191/11/166 193/69/168 194/12/168
f 195/71/169 196/13/169 197/14/170
f 195/71/169 197/14/170 198/72/170
f 41/7/41 199/73/171 38/4/38
f 41/7/41 38/4/38 46/1/46
f 200/78/172 201/73/173 32/4/32
f 200/78/172 32/4/32 53/13/53
f 202/85/174 203/78/174 196/13/169
f 202/85/174 196/13/169 195/71/169
f 204/9/175 205/87/175 206/86/176
f 204/9/175 206/86/176 207/8/177
f 208/3/178 209/12/179 210/89/179
f 208/3/178 210/89/179 211/88/178
f 212/10/180 213/101/180 214/100/181
f 212/10/180 214/100/181 215/6/181
f 35/7/35 29/1/29 32/4/32
f 35/7/35 32/4/32 201/73/173
f 216/78/182 51/13/51 38/4/38
f 216/78/182 38/4/38 199/73/171
f 217/5/183 215/6/181 214/100/181
f 217/5/183 214/100/181 218/102/183
f 219/14/184 217/5/183 218/102/183
f 219/14/184 218/102/183 220/103/184
f 221/2/185 222/104/185 213/101/180
f 221/2/185 213/101/180 212/10/180
f 221/2/185 208/3/178 211/88/178
f 221/2/185 211/88/178 222/104/185
f 42/8/42 41/7/41 46/1/46
f 42/8/42 46/1/46 49/11/49
f 223/115/186 216/78/182 199/73/171
f 223/115/186 199/73/171 224/116/187
f 225/117/188 41/7/41 43/9/43
f 225/117/188 43/9/43 226/118/189
f 225/117/188 224/116/187 199/73/171
f 225/117/188 199/73/171 41/7/41
f 227/117/190 35/7/35 201/73/173
f 227/117/190 201/73/173 228/116/191
f 229/118/192 230/119/192 205/87/175
f 229/118/192 205/87/175 204/9/175
f 231/120/193 232/115/193 203/78/174
f 231/120/193 203/78/174 202/85/174
f 227/117/190 233/118/194 36/9/36
f 227/117/190 36/9/36 35/7/35
f 234/115/195 228/116/191 201/73/173
f 234/115/195 201/73/173 200/78/172
f 37/8/37 56/11/56 29/1/29
f 37/8/37 29/1/29 35/7/35
f 206/86/176 192/70/167 191/11/166
f 206/86/176 191/11/166 207/8/177
f 235/121/196 236/40/196 237/53/197
f 235/121/196 237/53/197 238/122/197
f 238/122/197 237/53/197 239/51/198
f 238/122/197 239/51/198 240/123/198
f 240/123/198 239/51/198 241/49/199
f 240/123/198 241/49/199 242/124/199
f 242/124/199 241/49/199 243/47/200
f 242/124/199 243/47/200 244/125/200
f 244/125/200 243/47/200 245/43/201
f 244/125/200 245/43/201 246/126/201
f 246/126/201 245/43/201 247/46/202
f 246/126/201 247/46/202 248/127/202
f 249/128/202 250/41/202 251/37/203
f 249/128/202 251/37/203 252/129/203
f 252/129/203 251/37/203 236/40/196
f 252/129/203 236/40/196 235/121/196
f 76/34/74 253/130/204 254/131/205
f 76/34/74 254/131/205 105/63/102
f 75/33/73 255/132/206 253/130/204
f 75/33/73 253/130/204 76/34/74
f 102/60/99 256/133/207 257/134/208
f 102/60/99 257/134/208 109/67/73
f 101/59/98 258/135/209 256/133/207
f 101/59/98 256/133/207 102/60/99
f 107/65/104 259/136/210 258/135/209
f 107/65/104 258/135/209 101/59/98
f 98/56/95 260/137/211 259/136/210
f 98/56/95 259/136/210 107/65/104
f 97/55/94 261/138/212 260/137/211
f 97/55/94 260/137/211 98/56/95
f 105/63/102 254/131/205 261/138/212
f 105/63/102 261/138/212 97/55/94
f 262/130/213 263/139/213 264/140/214
f 262/130/213 264/140/214 265/131/214
f 266/132/215 267/141/215 263/139/213
f 266/132/215 263/139/213 262/130/213
f 268/133/216 269/142/216 270/143/215
f 268/133/216 270/143/215 271/134/215
f 272/135/217 273/144/217 269/142/216
f 272/135/217 269/142/216 268/133/216
f 274/136/218 275/145/218 273/144/217
f 274/136/218 273/144/217 272/135/217
f 276/137/219 277/146/219 275/145/218
f 276/137/219 275/145/218 274/136/218
f 278/138/220 279/147/220 277/146/219
f 278/138/220 277/146/219 276/137/219
f 265/131/214 264/140/214 279/147/220
f 265/131/214 279/147/220 278/138/220
f 280/139/221 281/129/221 282/121/222
f 280/139/221 282/121/222 283/140/222
f 284/141/223 285/128/223 281/129/221
f 284/141/223 281/129/221 280/139/221
f 286/142/224 287/126/224 288/127/223
f 286/142/224 288/127/223 289/143/223
f 290/144/225 291/125/225 287/126/224
f 290/144/225 287/126/224 286/142/224
f 292/145/226 293/124/226 291/125/225
f 292/145/226 291/125/225 290/144/225
f 294/146/227 295/123/227 293/124/226
f 294/146/227 293/124/226 292/145/226
f 296/147/228 297/122/228 295/123/227
f 296/147/228 295/123/227 294/146/227
f 283/140/222 282/121/222 297/122/228
f 283/140/222 297/122/228 296/147/228
s 0
f 302/148/139 300/149/139 301/150/139
f 300/149/139 302/148/139 303/151/139
f 300/149/139 303/151/139 299/152/139
f 299/152/139 303/151/139 304/153/139
f 299/152/139 304/153/139 298/154/139
f 298/154/139 304/153/139 305/155/139
f 313/156/112 311/157/112 312/158/112
f 311/157/112 313/156/112 306/159/112
f 311/157/112 306/159/112 310/160/112
f 310/160/112 306/159/112 307/161/112
f 310/160/112 307/161/112 309/162/112
f 309/162/112 307/161/112 308/163/112
