# Blender 4.0.2
# www.blender.org
mtllib banana.mtl
o banana02_lr_banana02_lr_0
v -4.679056 -0.052522 -1.046366
v -4.364851 -0.293025 -1.151836
v -4.472623 -0.165424 -0.817017
v -4.472623 -0.165424 -0.817017
v -4.364851 -0.293025 -1.151836
v -4.182226 -0.314228 -0.802167
v -3.803128 -0.339208 -0.757737
v -4.051404 -0.347441 -0.525953
v -3.974749 -0.194601 -1.120209
v 3.874483 -0.035082 -0.803687
v 3.889958 0.320796 -0.760309
v 4.174750 0.259276 -0.865961
v -4.090311 0.313982 -0.921123
v -4.189996 0.273951 -1.199878
v -4.351290 0.300406 -0.996867
v -4.001675 0.340238 -0.604156
v -4.165365 0.250386 -0.405087
v -4.009732 0.347867 -0.283090
v -4.165365 0.250386 -0.405087
v -4.147304 0.097971 -0.255262
v -4.009732 0.347867 -0.283090
v -4.265491 0.240542 -0.558726
v -4.277833 0.078156 -0.459248
v 4.034626 0.549235 -0.708930
v -4.265491 0.240542 -0.558726
v -3.941475 0.166376 -1.122597
v -3.703851 -0.029924 -0.939127
v -3.974749 -0.194601 -1.120209
v -4.099078 0.054539 -1.341222
v -4.500466 0.147018 -0.864425
v -4.572195 0.209860 -1.046531
v -4.296022 -0.175316 -0.564081
v -4.390604 0.067155 -0.632438
v -4.182226 -0.314228 -0.802167
v -4.051404 -0.347441 -0.525953
v -4.189996 0.273951 -1.199878
v -4.302445 0.220569 -1.433661
v -3.792235 0.284141 -0.896196
v -3.792235 0.284141 -0.896196
v -3.628546 0.397138 -0.695957
v -3.569161 0.212569 -0.851987
v -3.792235 0.284141 -0.896196
v -3.941475 0.166376 -1.122597
v -4.090311 0.313982 -0.921123
v 0.683665 -0.585458 -0.035780
v 0.923304 -0.519083 -0.067166
v 0.885296 -0.844726 0.094406
v -4.604238 -0.260505 -1.311465
v 0.705724 -0.253308 -0.105167
v 1.118132 -0.307580 -0.133316
v 0.923304 -0.519083 -0.067166
v -4.931654 0.053961 -1.783028
v -4.816274 0.032358 -1.912395
v -4.860389 -0.076430 -1.850367
v 0.361739 -0.531467 -0.045090
v 0.683665 -0.585458 -0.035780
v 0.361739 -0.531467 -0.045090
v 0.559286 -0.812271 0.065415
v -3.596285 0.606373 -0.083224
v -3.839831 0.477601 -0.046724
v -3.708141 0.605227 0.198487
v -3.672819 0.487946 -0.352692
v -4.001675 0.340238 -0.604156
v -3.422876 0.535967 -0.552277
v -3.322157 0.671299 -0.264727
v -3.848839 0.355228 0.209325
v -3.989553 0.163254 0.024369
v -3.812089 0.097036 0.346157
v -3.839831 0.477601 -0.046724
v -3.672819 0.487946 -0.352692
v -3.518069 -0.234219 -0.833400
v -3.703851 -0.029924 -0.939127
v -3.703851 -0.029924 -0.939127
v -3.389406 0.001121 -0.837127
v -3.518069 -0.234219 -0.833400
v -4.825831 -0.216499 -1.797320
v -4.693574 -0.248608 -1.682065
v -4.877452 -0.214577 -1.572434
v -4.013728 -0.348718 -0.206962
v -3.771874 -0.430645 -0.415409
v -4.729300 -0.251044 -1.496490
v -3.928472 -0.187928 0.111468
v -4.071477 -0.082668 -0.123251
v -4.013728 -0.348718 -0.206962
v -3.839831 0.477601 -0.046724
v 0.101035 -0.952428 0.302391
v 0.385882 -0.925402 0.237188
v 0.396887 -0.961447 0.464299
v 0.653130 -0.934638 0.313276
v 0.656209 -0.967703 0.655421
v -0.130029 0.963705 0.465714
v 0.248534 0.970631 0.749294
v 0.329462 0.952839 0.376725
v -2.613745 0.890361 -0.145199
v -2.970794 0.769309 -0.357062
v -3.044095 0.818680 0.007995
v 0.952286 0.964429 0.783065
v 1.039974 0.958866 1.103816
v 1.353364 0.959509 0.740853
v -2.970794 0.769309 -0.357062
v -2.658814 0.621896 -0.611661
v -3.121633 0.601617 -0.616239
v -3.144013 0.808019 0.390677
v -3.417529 0.719802 0.118023
v -3.494693 0.679393 0.468125
v 0.074769 0.866425 0.138493
v -0.130029 0.963705 0.465714
v 0.329462 0.952839 0.376725
v 0.438798 0.507073 -0.055602
v 0.404844 0.784128 0.051044
v 0.698679 0.596854 -0.059770
v 0.718489 0.905684 0.202769
v -2.059164 0.852666 1.131057
v -2.639780 0.686155 1.091982
v -2.373049 0.373042 1.426493
v -2.587174 -0.897362 -0.182067
v -2.163842 -0.906978 -0.275882
v -2.319627 -0.958934 0.149414
v -1.930702 0.480265 1.531227
v 2.891757 -0.946443 0.702902
v 2.631846 -0.926453 1.078430
v 2.350275 -0.954851 0.693036
v -3.257514 -0.789935 0.486413
v -3.071482 -0.832861 0.199183
v -2.922141 -0.868899 0.459896
v -3.492392 -0.692986 0.126569
v -3.769644 -0.509264 -0.088660
v -3.476766 -0.622665 -0.249233
v -3.556130 -0.575983 0.525642
v -3.257514 -0.789935 0.486413
v -3.283063 -0.607343 0.799341
v -3.095382 0.573424 0.938972
v -2.891074 0.244910 1.213613
v -3.572485 0.112462 0.672589
v -3.713707 -0.194301 0.486026
v -3.259098 0.134121 0.973257
v -3.095382 0.573424 0.938972
v -3.421283 0.480505 0.748905
v -2.905666 0.804011 0.713055
v -3.215216 0.714881 0.683427
v -3.421283 0.480505 0.748905
v -2.440953 0.918216 0.677452
v -1.958823 0.985399 0.594545
v -1.725626 -0.860143 -0.272142
v -1.595392 -0.513763 -0.375336
v -1.381291 -0.800129 -0.211025
v -1.555848 -0.959834 -0.007500
v -1.671636 0.936364 -0.086952
v -2.090889 0.939237 -0.130774
v -1.924208 0.988462 0.206693
v -2.058730 -0.561808 1.469121
v -2.583834 -0.671908 1.159063
v -2.077640 -0.877360 0.998677
v -2.058730 -0.561808 1.469121
v -2.077640 -0.877360 0.998677
v -1.569944 -0.803501 1.304303
v -1.126905 -0.967183 0.581601
v -0.955037 -0.949754 0.197702
v -0.625963 -0.966498 0.471524
v -2.295906 0.970620 0.252659
v -1.569944 -0.803501 1.304303
v -1.132242 -0.896678 1.090952
v -1.113341 -0.659976 1.576145
v -1.559017 -0.945957 0.824652
v -1.546772 -0.983287 0.370546
v -1.861155 0.722399 -0.371776
v -1.997086 0.471344 -0.499805
v -2.244049 0.725880 -0.471325
v -0.938907 0.303279 1.793673
v -0.487869 0.156094 1.868287
v -0.685979 0.616975 1.632306
v -1.041275 0.890018 1.176266
v -1.524551 0.751175 1.395115
v -1.148971 0.606425 1.590019
v -1.671636 0.936364 -0.086952
v -2.090889 0.939237 -0.130774
v -3.678521 0.416652 0.497599
v -3.708141 0.605227 0.198487
v -2.914737 0.351440 -0.743197
v -2.339886 0.280946 -0.630247
v -2.613745 0.890361 -0.145199
v -1.930702 0.480265 1.531227
v -2.373049 0.373042 1.426493
v -2.046794 0.012378 1.614726
v 2.828965 -0.850688 -0.206392
v 3.174128 -0.781872 -0.360781
v 3.161052 -0.925498 0.037506
v 2.733225 -0.944842 0.217580
v 2.284347 -0.948127 0.253956
v 2.380749 -0.843829 -0.112527
v -2.645709 0.327783 -0.702267
v 0.965289 0.009106 -0.146105
v 0.587583 0.210714 -0.107779
v 1.038878 0.383676 -0.128080
v 1.351112 0.087794 -0.198469
v -1.885079 -0.983015 0.063878
v -1.989454 -0.975882 0.540800
v 1.135324 0.810177 0.013959
v 1.092115 0.955449 0.425946
v -2.480153 -0.914091 0.640339
v -2.077640 -0.877360 0.998677
v -2.583834 -0.671908 1.159063
v 0.092078 0.635507 -0.016830
v 0.147067 0.281662 -0.091861
v -2.238680 -0.574531 -0.532599
v -1.917602 -0.642482 -0.430870
v 0.236900 -0.104256 -0.109491
v -2.470814 -0.767579 -0.482257
v 0.657397 0.963278 0.566722
v 1.092115 0.955449 0.425946
v 0.718489 0.905684 0.202769
v 0.711347 0.885691 1.425214
v 0.618276 0.965121 0.981112
v -1.036293 -0.128054 1.826491
v -0.487869 0.156094 1.868287
v -0.938907 0.303279 1.793673
v -0.144843 0.664787 1.639675
v 0.410928 0.635354 1.714756
v 0.208372 0.930095 1.240784
v -4.856096 -0.092224 -1.341583
v -4.877452 -0.214577 -1.572434
v -4.729300 -0.251044 -1.496490
v 0.321843 -0.964451 0.792984
v -0.969569 0.836295 -0.020907
v -0.567052 0.634559 -0.085015
v -0.997844 0.428669 -0.232085
v 0.741937 -0.906156 1.399339
v 0.642602 -0.665506 1.718114
v 0.375143 -0.903226 1.404603
v -3.770253 -0.483859 0.245780
v -3.211572 -0.750549 -0.097813
v 0.969420 -0.967090 0.801794
v 0.660840 -0.960619 1.039592
v -3.161457 -0.679768 -0.440322
v 2.094990 -0.925470 1.205226
v 2.631846 -0.926453 1.078430
v 2.490584 -0.772059 1.517232
v -3.708141 0.605227 0.198487
v -3.596285 0.606373 -0.083224
v -3.322157 0.671299 -0.264727
v 5.089939 -0.456275 -1.113881
v 4.682386 -0.276227 -1.047564
v 5.006396 -0.030369 -1.220221
v 4.313106 -0.158479 -0.949089
v 4.592581 0.193746 -1.035627
v -1.461845 0.262282 1.726614
v 6.314701 0.041831 -1.039286
v 6.220629 -0.139980 -1.286538
v 6.237181 0.174378 -1.249984
v -1.461845 0.262282 1.726614
v -1.595489 -0.326556 1.693460
v -4.559953 -0.262601 -1.580127
v 2.966967 -0.768694 1.375782
v -2.336284 -0.133647 -0.647588
v -2.238680 -0.574531 -0.532599
v -2.601541 -0.490559 -0.642981
v -2.627814 -0.213370 -0.717099
v -2.601541 -0.490559 -0.642981
v -2.677345 0.065569 -0.743601
v -2.893585 -0.289225 -0.753853
v -1.555316 0.986237 0.383334
v -1.532364 0.972453 0.862679
v 2.586900 -0.259318 -0.410130
v 2.543685 -0.597126 -0.308580
v 2.055860 -0.402207 -0.262367
v -2.732655 0.903016 0.326609
v -4.959665 -0.113063 -1.746875
v 6.095654 -0.056334 -1.503434
v 6.164134 -0.242277 -1.456719
v 5.840590 -0.204795 -1.501088
v 1.212627 0.783588 1.601188
v -4.860389 -0.076430 -1.850367
v -4.959665 -0.113063 -1.746875
v 0.153666 0.245354 1.877925
v 0.775993 0.323207 1.902592
v -2.713289 -0.903523 0.159926
v -2.936702 -0.776947 0.826710
v 2.543685 -0.597126 -0.308580
v -3.492392 -0.692986 0.126569
v -2.918136 -0.830690 -0.149819
v -2.787855 -0.745364 -0.465800
v -2.891074 0.244910 1.213613
v 6.164572 0.295240 -0.747140
v 6.005813 0.436643 -0.682504
v 6.044516 0.278776 -0.517225
v 6.044516 0.278776 -0.517225
v 6.161033 0.067338 -0.642786
v 6.164572 0.295240 -0.747140
v 6.276344 0.139316 -0.823742
v 5.810406 0.525154 -0.485944
v 5.695679 0.394194 -0.088416
v 5.888722 0.257240 -0.284511
v 4.849092 0.396796 0.746675
v 5.053570 0.601944 0.407565
v 4.571566 0.811707 0.397113
v -1.215416 0.081664 -0.322286
v -1.086446 -0.384310 -0.258244
v -1.518798 -0.128525 -0.402975
v -4.701063 -0.111207 -1.864271
v -4.674641 0.095595 -1.917214
v 4.608695 0.122353 0.983568
v 4.849092 0.396796 0.746675
v 4.368817 0.517363 0.975165
v -3.072283 -0.298580 1.090028
v -2.936702 -0.776947 0.826710
v 6.095654 -0.056334 -1.503434
v 5.840590 -0.204795 -1.501088
v 5.916026 0.009106 -1.579401
v 5.534554 -0.061294 -1.422313
v 5.588095 -0.319172 -1.367689
v 5.342855 -0.221593 -1.311436
v 5.305286 0.020203 -1.334905
v -1.927178 -0.332403 -0.504903
v -1.595392 -0.513763 -0.375336
v -0.232437 0.418946 -0.092504
v -0.191060 0.796073 0.044240
v -1.917602 -0.642482 -0.430870
v 5.342855 -0.221593 -1.311436
v 5.588095 -0.319172 -1.367689
v 5.520755 -0.493540 -1.174712
v 4.785355 -0.574273 -0.926574
v 4.682386 -0.276227 -1.047564
v 5.089939 -0.456275 -1.113881
v -4.181351 -0.157468 -1.317561
v -1.132242 -0.896678 1.090952
v 4.173156 0.085850 1.229531
v 3.850479 0.545813 1.238719
v -1.063946 0.971415 0.546620
v -1.333080 0.945875 0.094619
v -0.393310 0.913803 1.191783
v -0.575586 0.965314 0.759793
v -3.792235 0.284141 -0.896196
v -1.244483 -0.959615 0.137376
v -0.995073 -0.814923 -0.100866
v 3.366838 0.918593 0.902447
v 3.181938 0.464234 1.538615
v 3.850479 0.545813 1.238719
v -2.921996 -0.571830 -0.637227
v -3.803128 -0.339208 -0.757737
v 1.434705 -0.959185 0.647043
v 1.946204 -0.955047 0.433783
v 1.900942 -0.962256 0.814568
v 0.786902 0.698638 1.690653
v -4.390604 0.067155 -0.632438
v -4.274494 0.251416 -0.757117
v 2.773654 0.956274 0.754498
v 2.287155 0.951564 1.070025
v 2.851180 0.852776 1.244332
v -4.274494 0.251416 -0.757117
v -4.172964 -0.152876 -0.333883
v 2.825015 -0.407345 1.669149
v 2.727287 0.100275 1.760997
v 2.292588 -0.348714 1.800800
v 3.171754 -0.052806 1.643541
v -0.587979 0.942503 0.275332
v -4.259468 -0.033347 -1.521343
v 5.976520 0.424294 -1.016264
v 6.193459 0.327434 -0.990727
v 6.027964 0.378872 -1.217560
v -0.544490 0.240090 -0.164082
v -0.174123 0.039420 -0.130966
v 2.053481 0.494181 -0.285252
v 2.478019 0.454809 -0.374280
v 2.263038 0.079389 -0.371043
v -0.587979 0.942503 0.275332
v -0.969569 0.836295 -0.020907
v 1.269821 -0.643527 -0.072334
v -0.304920 -0.923748 0.178585
v -0.194684 -0.983321 0.547322
v -4.725916 0.191871 -1.841901
v -0.386879 -0.954183 0.892841
v -0.005583 -0.965270 0.862065
v -0.119876 -0.899162 1.319066
v 4.373120 0.554345 -0.803124
v -0.078198 -0.355946 -0.098745
v 0.287587 -0.827897 0.075477
v -0.002308 -0.733789 0.010453
v -0.673606 -0.860043 1.277739
v -0.119876 -0.899162 1.319066
v -0.526241 -0.562067 1.721063
v 1.269821 -0.643527 -0.072334
v -1.036293 -0.128054 1.826491
v -0.487869 0.156094 1.868287
v 2.790261 0.945997 0.213322
v 2.343603 0.965913 0.484230
v 0.113578 -0.636617 1.727766
v 0.425014 -0.223377 1.899068
v -0.058629 -0.201641 1.885020
v -3.769644 -0.509264 -0.088660
v 4.159042 -0.880040 0.225540
v 3.627952 -0.926014 0.229880
v 3.872524 -0.891551 -0.097956
v 3.139418 0.953494 0.457520
v 3.534282 0.935500 0.305141
v -3.770253 -0.483859 0.245780
v 2.809028 0.164317 -0.480914
v 3.028774 -0.244414 -0.521754
v 2.705957 0.827913 -0.212951
v 3.043244 0.900491 -0.100488
v 0.248296 -0.955945 1.097311
v 6.268997 -0.098949 -0.803723
v 6.164537 -0.344242 -0.858157
v 6.314404 -0.210745 -1.017156
v 5.997046 0.027925 -0.398648
v 5.911374 -0.311239 -0.347663
v 6.119862 -0.182319 -0.593458
v -3.425751 -0.244576 0.812700
v 4.481404 -0.272950 1.021400
v 4.889284 -0.171714 0.793397
v 1.964005 -0.738144 1.648352
v -2.583834 -0.671908 1.159063
v -2.058730 -0.561808 1.469121
v -2.519288 -0.154526 1.424452
v 4.659469 -0.566500 0.788615
v 5.258178 -0.311124 0.457902
v 5.517879 -0.131418 0.227083
v 5.261632 0.180337 0.483397
v -1.590255 0.725529 -0.285397
v -1.546509 0.381208 -0.386701
v 2.263596 0.748775 -0.232915
v 1.870337 0.850457 -0.064181
v 2.355660 0.921389 0.046873
v 3.107363 0.705893 -0.385684
v 2.705957 0.827913 -0.212951
v 3.043244 0.900491 -0.100488
v -1.333588 0.744567 -0.202939
v 5.353680 -0.585184 0.181986
v 5.653521 -0.421141 -0.048454
v -3.295567 0.326672 -0.776384
v 5.888722 0.257240 -0.284511
v 5.773180 0.030021 -0.083275
v 4.661880 -0.828204 0.151612
v 4.504301 -0.821717 0.538348
v 4.934307 -0.680847 0.479206
v 4.504301 -0.821717 0.538348
v 4.934307 -0.680847 0.479206
v 4.025831 -0.404497 1.214204
v 4.249765 -0.716502 0.883209
v 1.244751 -0.918520 0.233855
v 1.874460 0.715711 1.630229
v 1.592921 0.951973 1.145594
v 5.044553 -0.769394 0.007093
v 1.661415 -0.632068 -0.121359
v 1.606672 -0.916456 0.155509
v 5.044553 -0.769394 0.007093
v 4.368817 0.517363 0.975165
v 3.930860 -0.892081 0.619349
v 4.218598 -0.863688 0.574542
v 4.393815 -0.803623 -0.477877
v 4.773438 -0.740070 -0.644528
v 4.731956 -0.808884 -0.259948
v 4.449983 -0.567556 -0.824403
v 5.053356 -0.740292 -0.431740
v 5.095205 -0.663787 -0.800217
v 4.408124 -0.849851 -0.109052
v 4.157973 -0.861941 -0.173533
v 5.222698 0.712619 -0.287599
v 4.910707 0.772875 -0.299909
v 4.998378 0.762418 0.054846
v 4.012139 0.901396 0.254716
v 3.988103 0.855911 0.705026
v 5.652044 -0.572106 -0.461814
v 5.615911 -0.546754 -0.810262
v 5.921745 -0.460257 -0.680319
v -3.448142 -0.487124 -0.636864
v 4.679443 0.824430 -0.070316
v 4.279930 0.863988 -0.148641
v 5.382195 -0.669060 -0.200548
v 4.586456 0.784712 -0.499597
v 3.522830 0.235731 -0.660201
v 3.469462 -0.211274 -0.656585
v 4.586456 0.784712 -0.499597
v 4.745575 0.574972 -0.900856
v 5.652044 -0.572106 -0.461814
v 5.354852 -0.652451 -0.586401
v 5.776648 -0.417550 -1.294642
v 5.869775 -0.450703 -1.015898
v 6.156479 -0.365015 -1.095422
v 6.314404 -0.210745 -1.017156
v 5.341243 -0.599801 -0.908294
v 6.024670 -0.368478 -1.282320
v 6.164134 -0.242277 -1.456719
v 6.220629 -0.139980 -1.286538
v 2.091531 0.168859 1.870731
v 2.467054 0.610980 1.625756
v 5.528965 0.623872 -0.265082
v 5.473034 0.616209 -0.624563
v 6.024670 -0.368478 -1.282320
v 5.840590 -0.204795 -1.501088
v 5.921745 -0.460257 -0.680319
v -4.529555 0.034929 -1.815210
v -4.701063 -0.111207 -1.864271
v -4.674641 0.095595 -1.917214
v -4.565316 -0.162296 -1.731509
v 6.193459 0.327434 -0.990727
v 6.276344 0.139316 -0.823742
v -4.417037 -0.113496 -1.641033
v -4.389500 0.118859 -1.625654
v 5.813615 0.492934 -0.825096
v 6.164572 0.295240 -0.747140
v 6.036326 0.414472 -0.843468
v 6.005813 0.436643 -0.682504
v -2.893585 -0.289225 -0.753853
v -3.127816 -0.491544 -0.704917
v 6.164572 0.295240 -0.747140
v 5.549904 0.546538 -0.974419
v 5.752005 0.458585 -1.154020
v -4.572195 0.209860 -1.046531
v -4.500466 0.147018 -0.864425
v 5.905459 0.351585 -1.421820
v 5.651771 0.367102 -1.376768
v 5.752005 0.458585 -1.154020
v 5.905459 0.351585 -1.421820
v -4.978737 0.022269 -1.570107
v -4.822324 0.136401 -1.434360
v -4.809532 0.225058 -1.629532
v -4.589749 0.262022 -1.481272
v -4.361429 -0.251297 -1.438308
v -4.565316 -0.162296 -1.731509
v -4.417037 -0.113496 -1.641033
v 5.217714 0.594275 -0.982877
v -4.598431 0.203983 -1.695379
v -4.389500 0.118859 -1.625654
v 5.217714 0.594275 -0.982877
v 4.960051 0.352918 -1.117781
v 5.034971 0.718814 -0.593749
v -4.302445 0.220569 -1.433661
v -4.389500 0.118859 -1.625654
v -4.589749 0.262022 -1.481272
v -4.302445 0.220569 -1.433661
v -4.461790 0.283901 -1.229535
v 5.730989 0.137706 -1.491255
v 5.466713 0.199296 -1.378402
v 6.156479 -0.365015 -1.095422
v 3.186094 0.942928 0.142399
v 5.034971 0.718814 -0.593749
v -1.918442 0.064683 -0.525036
v 5.373051 0.579990 0.110013
v 3.426194 0.876231 -0.197063
v 3.835716 0.894026 -0.073209
v 3.860918 0.775040 -0.474145
v 3.185162 0.081479 -0.579913
v 3.118476 0.367642 -0.527912
v 3.466092 0.606776 -0.553067
v 6.036326 0.414472 -0.843468
v 3.397501 -0.925145 0.769134
v 3.143923 -0.940543 0.410010
v 6.027964 0.378872 -1.217560
v 6.180425 0.097847 -1.419816
v 6.094322 0.281096 -1.393985
v -1.333080 0.945875 0.094619
v 5.261632 0.180337 0.483397
v 3.515159 -0.887385 -0.208169
v 5.554405 0.222542 0.159813
v 3.527808 -0.637434 -0.552798
v 3.835716 0.894026 -0.073209
v 0.118365 -0.969909 0.581839
v -4.822324 0.136401 -1.434360
v -4.978737 0.022269 -1.570107
v 1.422742 -0.719631 1.695180
v 1.675197 -0.915427 1.347010
v 5.231750 0.291056 -1.251968
v -4.701063 -0.111207 -1.864271
v 4.153447 -0.629576 -0.714364
v 3.919431 -0.808766 -0.459799
v 5.476015 0.462531 -1.227195
v 1.844575 0.960384 0.645885
v -0.673606 -0.860043 1.277739
v -0.786894 -0.943572 0.866810
v -1.569944 -0.803501 1.304303
v 5.549904 0.546538 -0.974419
v -1.569944 -0.803501 1.304303
v -1.113341 -0.659976 1.576145
v -1.595489 -0.326556 1.693460
v 3.652601 -0.514463 1.327611
v 3.314352 -0.464914 1.489711
v 3.406036 -0.773105 1.204292
v -1.595489 -0.326556 1.693460
v -2.058730 -0.561808 1.469121
v -1.569944 -0.803501 1.304303
v 4.117698 -0.395246 -0.826308
v -1.595489 -0.326556 1.693460
v 3.820941 -0.447859 -0.713231
v 3.820941 -0.447859 -0.713231
v 4.117698 -0.395246 -0.826308
v 1.577748 -0.307862 -0.200628
v 1.661415 -0.632068 -0.121359
v 3.205842 -0.501771 -0.514996
v 1.677220 -0.950086 1.045766
v -4.725916 0.191871 -1.841901
v -0.590403 -0.251511 -0.174999
v -0.753439 -0.602611 -0.149369
v 3.059785 -0.911987 1.032417
v 2.877828 -0.536195 -0.415849
v 3.655428 -0.054562 1.468356
v 6.156479 -0.365015 -1.095422
v 3.397501 -0.925145 0.769134
v 3.779295 -0.755905 1.069454
v 3.724233 0.491870 -0.664116
v 4.227190 0.744101 -0.575292
v 1.499686 0.508154 -0.177180
v 6.094322 0.281096 -1.393985
v 6.002886 0.147302 -1.519351
v -0.657085 -0.862653 0.021360
v 2.094990 -0.925470 1.205226
v 1.004834 -0.771205 1.636719
v 1.106642 -0.335227 1.890007
v 0.775993 0.323207 1.902592
v 0.153666 0.245354 1.877925
v 2.855513 0.516089 -0.434399
v -0.127993 0.964587 0.888867
v 5.916026 0.009106 -1.579401
v 5.840590 -0.204795 -1.501088
v 3.426194 0.876231 -0.197063
v 0.985512 -0.957235 0.464941
v 3.930860 -0.892081 0.619349
v 3.059785 -0.911987 1.032417
v 1.181274 -0.936194 1.211152
v 1.675197 -0.915427 1.347010
v -0.377424 -0.644018 -0.070738
v -0.002308 -0.733789 0.010453
v -0.377424 -0.644018 -0.070738
v -4.717204 0.174332 -1.243239
v 4.279930 0.863988 -0.148641
v 2.877828 -0.536195 -0.415849
v 3.205842 -0.501771 -0.514996
v -4.717204 0.174332 -1.243239
v 1.779830 0.071491 -0.276112
v 6.002886 0.147302 -1.519351
v 1.973989 -0.857960 -0.005881
v 2.055860 -0.402207 -0.262367
v 2.790261 0.945997 0.213322
v 4.313106 -0.158479 -0.949089
v -0.487869 0.156094 1.868287
v -0.526241 -0.562067 1.721063
v -0.058629 -0.201641 1.885020
v -0.890812 0.018466 -0.244254
v 0.375143 -0.903226 1.404603
v 3.181938 0.464234 1.538615
v 2.727287 0.100275 1.760997
v 2.091531 0.168859 1.870731
v 1.726506 -0.338004 1.872127
v 1.508736 0.942780 0.288311
v 1.976652 0.950352 0.273243
v 1.508736 0.942780 0.288311
v -3.219751 -0.264902 -0.799677
v -3.941475 0.166376 -1.122597
v -4.099078 0.054539 -1.341222
v -4.189996 0.273951 -1.199878
v -4.189996 0.273951 -1.199878
v -4.090311 0.313982 -0.921123
v -3.941475 0.166376 -1.122597
v 1.508025 0.824330 -0.035545
v -1.086446 -0.384310 -0.258244
v -0.753439 -0.602611 -0.149369
v 2.355660 0.921389 0.046873
v 1.181274 -0.936194 1.211152
v 6.024670 -0.368478 -1.282320
v 4.218598 -0.863688 0.574542
v 3.527808 -0.637434 -0.552798
v -4.809532 0.225058 -1.629532
v 5.382195 -0.669060 -0.200548
v 6.268997 -0.098949 -0.803723
v 1.976652 0.950352 0.273243
v -4.181351 -0.157468 -1.317561
v 0.741937 -0.906156 1.399339
v -4.598431 0.203983 -1.695379
v -4.389500 0.118859 -1.625654
v -4.529555 0.034929 -1.815210
v -4.725916 0.191871 -1.841901
v 5.695679 0.394194 -0.088416
v 5.554405 0.222542 0.159813
v 6.027964 0.378872 -1.217560
v -3.079304 0.034674 -0.804235
v -3.219751 -0.264902 -0.799677
v 6.095654 -0.056334 -1.503434
v -1.381291 -0.800129 -0.211025
v -1.086446 -0.384310 -0.258244
v -0.995073 -0.814923 -0.100866
v 1.476574 0.253571 1.913495
v 6.164134 -0.242277 -1.456719
v -4.931654 0.053961 -1.783028
v -4.959665 -0.113063 -1.746875
v -4.816274 0.032358 -1.912395
v -3.494693 0.679393 0.468125
v -4.809532 0.225058 -1.629532
v 1.476574 0.253571 1.913495
v 6.164134 -0.242277 -1.456719
v 6.095654 -0.056334 -1.503434
v -4.604238 -0.260505 -1.311465
v -4.361429 -0.251297 -1.438308
v 6.164537 -0.344242 -0.858157
v -4.598431 0.203983 -1.695379
vn -0.8106 -0.2439 0.5324
vn -0.0784 -0.9969 -0.0078
vn -0.7316 -0.5451 0.4094
vn -0.7316 -0.5451 0.4093
vn -0.2322 -0.9727 -0.0067
vn 0.0031 -0.8738 -0.4864
vn -0.4158 -0.9084 0.0428
vn 0.5166 -0.6250 -0.5852
vn -0.3156 -0.0119 -0.9488
vn -0.2733 0.2351 -0.9327
vn -0.3014 0.2332 -0.9245
vn 0.0374 0.9893 -0.1411
vn 0.3114 0.8868 -0.3415
vn -0.2379 0.9610 0.1410
vn -0.2761 0.9577 -0.0811
vn -0.6679 0.6616 0.3409
vn -0.6433 0.7504 0.1517
vn -0.8517 0.1949 0.4864
vn -0.6572 0.7070 0.2612
vn -0.8444 0.1191 0.5223
vn -0.2159 0.5198 -0.8265
vn 0.6041 0.4603 -0.6505
vn 0.4594 -0.1273 -0.8791
vn 0.5166 -0.6251 -0.5852
vn 0.7377 0.1384 -0.6608
vn -0.7212 0.4686 0.5102
vn -0.6232 0.6931 0.3621
vn -0.7330 -0.5271 0.4300
vn -0.8524 0.1980 0.4839
vn -0.4158 -0.9084 0.0429
vn 0.3115 0.8868 -0.3415
vn 0.4474 0.7537 -0.4814
vn 0.2542 0.7497 -0.6110
vn -0.1093 0.8481 -0.5185
vn 0.2164 0.3791 -0.8997
vn -0.0157 -0.3289 -0.9442
vn -0.0877 -0.3034 -0.9488
vn -0.0107 -0.7624 -0.6470
vn -0.3061 -0.9245 0.2271
vn -0.0577 -0.1205 -0.9910
vn -0.1120 -0.1578 -0.9811
vn -0.8185 0.3723 -0.4375
vn -0.3976 0.0816 -0.9139
vn -0.4989 -0.2870 -0.8177
vn 0.0059 -0.2685 -0.9633
vn 0.0111 -0.6617 -0.7497
vn -0.4191 0.8823 -0.2143
vn -0.6922 0.7216 0.0159
vn -0.6464 0.7525 0.1262
vn -0.3802 0.8959 -0.2298
vn -0.2844 0.8354 -0.4704
vn -0.3354 0.9053 -0.2607
vn -0.8686 0.3384 0.3619
vn -0.8809 0.2150 0.4217
vn -0.8505 0.0373 0.5246
vn -0.6922 0.7216 0.0160
vn 0.0844 -0.4170 -0.9050
vn 0.1860 0.0215 -0.9823
vn -0.2515 -0.7947 -0.5525
vn 0.0718 -0.9459 -0.3163
vn -0.6147 -0.7720 0.1617
vn -0.6950 -0.6809 0.2309
vn -0.3501 -0.9156 -0.1978
vn -0.2917 -0.9438 0.1558
vn -0.8695 -0.2476 0.4274
vn -0.8698 -0.1430 0.4722
vn -0.6950 -0.6809 0.2308
vn 0.0097 -0.9503 -0.3112
vn 0.0325 -0.9309 -0.3638
vn 0.0222 -0.9963 -0.0828
vn 0.0271 -0.9637 -0.2655
vn 0.0013 -0.9995 -0.0300
vn -0.0028 0.9873 -0.1588
vn -0.0013 0.9999 0.0128
vn 0.0054 0.9725 -0.2330
vn -0.1156 0.9533 -0.2790
vn -0.1773 0.9138 -0.3655
vn -0.2529 0.9604 -0.1168
vn 0.0093 1.0000 -0.0028
vn 0.0117 0.9877 0.1558
vn 0.0076 0.9999 -0.0075
vn 0.0875 0.6075 -0.7895
vn -0.1517 0.7305 -0.6659
vn -0.2683 0.9590 0.0911
vn -0.3382 0.9370 -0.0879
vn -0.5226 0.7873 0.3272
vn -0.0040 0.8244 -0.5660
vn -0.0028 0.9873 -0.1589
vn -0.0464 0.2409 -0.9694
vn -0.0038 0.6562 -0.7546
vn -0.0647 0.3785 -0.9234
vn -0.0216 0.8880 -0.4593
vn -0.1827 0.8511 0.4921
vn -0.3221 0.7023 0.6349
vn -0.3546 0.3693 0.8590
vn -0.1393 -0.9594 -0.2451
vn 0.0403 -0.8648 -0.5005
vn -0.0982 -0.9944 -0.0401
vn -0.2465 0.4821 0.8407
vn 0.0260 -0.9990 0.0370
vn 0.0556 -0.9748 0.2162
vn 0.0156 -0.9996 0.0225
vn -0.3890 -0.9006 0.1942
vn -0.2503 -0.9658 -0.0678
vn -0.1874 -0.9770 0.1013
vn -0.4521 -0.8916 -0.0262
vn -0.6031 -0.7976 -0.0117
vn -0.3798 -0.8917 -0.2461
vn -0.6859 -0.5794 0.4403
vn -0.3890 -0.9005 0.1942
vn -0.5265 -0.5595 0.6401
vn -0.4597 0.5469 0.6997
vn -0.4887 0.2107 0.8466
vn -0.7446 0.0489 0.6658
vn -0.8097 -0.1374 0.5706
vn -0.6158 0.0954 0.7821
vn -0.6239 0.3903 0.6771
vn -0.2623 0.9018 0.3435
vn -0.3900 0.8058 0.4457
vn -0.1783 0.9591 0.2200
vn -0.0629 0.9926 0.1036
vn 0.1657 -0.7175 -0.6765
vn 0.2718 -0.2426 -0.9313
vn 0.2380 -0.6123 -0.7539
vn 0.1096 -0.9502 -0.2918
vn 0.1206 0.8971 -0.4250
vn 0.0032 0.9309 -0.3653
vn -0.0044 0.9972 -0.0742
vn -0.2499 -0.5534 0.7945
vn -0.3290 -0.6739 0.6615
vn -0.1385 -0.9188 0.3696
vn -0.1384 -0.9188 0.3696
vn -0.1015 -0.8433 0.5278
vn 0.0103 -0.9987 0.0497
vn 0.0641 -0.9723 -0.2248
vn -0.0030 -0.9977 -0.0677
vn -0.1067 0.9940 -0.0255
vn -0.0301 -0.9587 0.2829
vn -0.1037 -0.6913 0.7151
vn -0.0193 -0.9833 0.1811
vn 0.0216 -0.9997 0.0093
vn 0.2155 0.5614 -0.7990
vn 0.2565 0.2346 -0.9376
vn 0.1162 0.6360 -0.7629
vn -0.1012 0.3223 0.9412
vn -0.0639 0.1519 0.9863
vn -0.0572 0.6706 0.7396
vn -0.0263 0.9331 0.3586
vn -0.1026 0.7703 0.6294
vn -0.1073 0.6583 0.7450
vn 0.0032 0.9309 -0.3654
vn -0.7778 0.3187 0.5418
vn 0.0897 0.2850 -0.9543
vn 0.2607 0.1613 -0.9519
vn -0.3017 0.0109 0.9533
vn -0.1189 -0.8191 -0.5613
vn -0.1450 -0.7355 -0.6618
vn -0.0092 -0.9851 -0.1718
vn -0.0113 -0.9927 -0.1200
vn -0.0254 -0.9876 -0.1552
vn -0.1446 -0.7816 -0.6068
vn 0.2121 0.2142 -0.9535
vn -0.1061 -0.0158 -0.9942
vn -0.0523 0.0734 -0.9959
vn -0.1056 0.1849 -0.9771
vn -0.1513 0.0103 -0.9884
vn -0.0012 -0.9904 -0.1383
vn -0.0547 -0.9937 0.0977
vn -0.0924 0.7112 -0.6969
vn -0.0007 0.9876 -0.1569
vn -0.1458 -0.9686 0.2014
vn 0.0180 0.3778 -0.9257
vn 0.0213 0.1299 -0.9913
vn 0.2233 -0.3701 -0.9018
vn 0.2019 -0.3958 -0.8959
vn 0.0188 -0.0456 -0.9988
vn 0.0409 -0.6982 -0.7147
vn 0.0082 0.9976 -0.0684
vn -0.0336 0.9121 0.4087
vn -0.0041 0.9968 0.0798
vn -0.1137 -0.1451 0.9829
vn -0.1012 0.3222 0.9412
vn -0.0690 0.6848 0.7255
vn -0.0817 0.6404 0.7637
vn -0.0385 0.9479 0.3162
vn -0.8202 -0.2903 0.4929
vn -0.2917 -0.9437 0.1558
vn 0.0032 -0.9999 0.0141
vn 0.1640 0.7748 -0.6105
vn 0.1368 0.4745 -0.8695
vn 0.2237 0.2458 -0.9431
vn 0.0019 -0.9286 0.3711
vn -0.0271 -0.6134 0.7893
vn -0.0313 -0.9126 0.4077
vn -0.7876 -0.5558 0.2661
vn -0.3032 -0.9356 -0.1809
vn 0.0171 -0.9997 0.0188
vn 0.0020 -0.9964 0.0844
vn -0.2381 -0.8777 -0.4158
vn 0.0512 -0.9707 0.2350
vn 0.1428 -0.7587 0.6356
vn -0.6463 0.7525 0.1262
vn -0.2103 -0.6090 -0.7648
vn -0.3300 -0.2681 -0.9051
vn -0.3692 -0.0418 -0.9284
vn -0.3073 -0.1299 -0.9427
vn -0.3370 0.2012 -0.9198
vn -0.1903 0.2667 0.9448
vn 0.9876 0.1325 -0.0836
vn 0.9036 -0.2510 -0.3471
vn 0.8811 0.3708 -0.2936
vn -0.1945 -0.3203 0.9271
vn 0.2124 -0.9338 -0.2880
vn 0.1895 -0.7657 0.6146
vn 0.2692 -0.0780 -0.9599
vn 0.2232 -0.3701 -0.9018
vn 0.1518 -0.3782 -0.9132
vn 0.2219 -0.1431 -0.9645
vn 0.2025 0.0357 -0.9786
vn 0.1397 -0.2221 -0.9650
vn 0.0323 0.9987 -0.0398
vn -0.0136 0.9802 0.1977
vn -0.2233 -0.1534 -0.9626
vn -0.2179 -0.4128 -0.8844
vn -0.1829 -0.2843 -0.9411
vn -0.1914 0.9809 0.0339
vn -0.8823 -0.3464 -0.3186
vn 0.5330 -0.0692 -0.8433
vn 0.6519 -0.4809 -0.5864
vn -0.1002 -0.4476 -0.8886
vn 0.0374 0.7749 0.6310
vn -0.0605 0.2400 0.9689
vn -0.0084 0.2635 0.9646
vn -0.1642 -0.9859 -0.0328
vn -0.3061 -0.8113 0.4982
vn -0.2319 -0.9505 -0.2070
vn -0.1030 -0.8112 -0.5756
vn -0.4888 0.2107 0.8466
vn 0.7825 0.5301 0.3265
vn 0.5721 0.8056 0.1539
vn 0.7806 0.3714 0.5027
vn 0.7806 0.3714 0.5028
vn 0.8298 0.0827 0.5518
vn 0.9202 0.2459 0.3045
vn 0.5257 0.8284 0.1933
vn 0.7160 0.4663 0.5196
vn 0.7849 0.3033 0.5403
vn 0.5302 0.4347 0.7280
vn 0.4834 0.6837 0.5467
vn 0.2652 0.9148 0.3047
vn 0.2520 0.0228 -0.9675
vn 0.2243 -0.1730 -0.9591
vn 0.2754 -0.0439 -0.9603
vn 0.2274 -0.4972 -0.8373
vn 0.3007 0.3039 -0.9040
vn 0.5226 0.1156 0.8447
vn 0.4225 0.5687 0.7057
vn -0.5226 -0.2514 0.8147
vn -0.0268 -0.0044 -0.9996
vn -0.3440 -0.1003 -0.9336
vn -0.2639 -0.5315 -0.8049
vn -0.3367 -0.3371 -0.8792
vn -0.3740 0.0179 -0.9272
vn 0.2692 -0.1422 -0.9525
vn 0.0995 0.2141 -0.9717
vn 0.0338 0.6880 -0.7249
vn -0.0262 -0.8610 -0.5080
vn -0.1848 -0.7011 -0.6887
vn -0.2103 -0.6091 -0.7647
vn 0.5843 -0.6311 -0.5102
vn 0.4419 0.0795 0.8935
vn 0.3340 0.5582 0.7595
vn 0.0358 0.9990 -0.0267
vn 0.1345 0.9458 -0.2955
vn -0.0514 0.9418 0.3323
vn -0.0192 0.9984 0.0529
vn 0.2542 0.7497 -0.6109
vn 0.0889 -0.9681 -0.2344
vn 0.1505 -0.6658 -0.7308
vn 0.1501 0.9334 0.3259
vn 0.2871 0.4740 0.8324
vn 0.0140 -0.6183 -0.7858
vn 0.0031 -0.8737 -0.4864
vn -0.0000 -0.9996 -0.0277
vn -0.0082 -0.9955 -0.0943
vn 0.0124 -0.9994 0.0311
vn -0.0135 0.6587 0.7523
vn -0.4599 0.8634 0.2074
vn 0.0361 0.9962 0.0798
vn 0.0442 0.9677 0.2483
vn 0.1459 0.8667 0.4770
vn -0.4599 0.8634 0.2073
vn -0.8347 -0.3573 0.4191
vn 0.2313 -0.3550 0.9058
vn 0.2174 0.1064 0.9703
vn 0.1606 -0.2830 0.9456
vn 0.3078 -0.0287 0.9510
vn 0.0322 0.9444 -0.3271
vn 0.7361 -0.1306 -0.6642
vn 0.3254 0.9388 -0.1129
vn 0.7179 0.6945 -0.0472
vn 0.4257 0.8764 -0.2252
vn 0.1638 0.1065 -0.9807
vn 0.0891 0.0278 -0.9956
vn -0.1991 0.2567 -0.9458
vn -0.1704 0.2609 -0.9502
vn -0.2043 -0.0057 -0.9789
vn 0.0322 0.9444 -0.3272
vn -0.0919 -0.4877 -0.8682
vn 0.0408 -0.8877 -0.4586
vn -0.0077 -0.9993 -0.0364
vn -0.0448 0.8314 -0.5539
vn -0.0413 -0.9920 0.1192
vn -0.0126 -0.9972 0.0739
vn -0.0806 -0.9254 0.3703
vn -0.2017 0.6021 -0.7725
vn 0.0824 -0.1589 -0.9839
vn -0.0144 -0.6761 -0.7366
vn 0.0448 -0.5448 -0.8374
vn -0.0586 -0.9200 0.3876
vn -0.0848 -0.5563 0.8267
vn -0.0919 -0.4876 -0.8682
vn -0.1138 -0.1451 0.9829
vn -0.0099 0.9925 -0.1219
vn 0.0035 0.9995 -0.0324
vn -0.0599 -0.6090 0.7909
vn -0.0262 -0.1799 0.9833
vn -0.0704 -0.1699 0.9829
vn 0.0978 -0.9952 0.0001
vn 0.0519 -0.9983 -0.0278
vn 0.0587 -0.9905 -0.1241
vn 0.0301 0.9995 0.0075
vn 0.0656 0.9977 -0.0155
vn -0.2240 0.0559 -0.9730
vn -0.2617 -0.1269 -0.9568
vn -0.0936 0.7836 -0.6142
vn -0.0417 0.9347 -0.3529
vn -0.0226 -0.9935 0.1119
vn 0.9022 -0.1644 0.3988
vn 0.6404 -0.7314 0.2346
vn 0.9299 -0.3666 -0.0314
vn 0.8162 0.0039 0.5777
vn 0.7591 -0.4469 0.4733
vn 0.8032 -0.3108 0.5082
vn -0.6900 -0.1539 0.7073
vn 0.4673 -0.2559 0.8462
vn 0.5891 -0.1435 0.7952
vn 0.0924 -0.7059 0.7022
vn -0.4130 -0.1384 0.9002
vn 0.4657 -0.5323 0.7069
vn 0.6520 -0.2698 0.7086
vn 0.7450 -0.1203 0.6562
vn 0.6657 0.1922 0.7211
vn 0.2402 0.5188 -0.8205
vn 0.2695 0.1827 -0.9455
vn -0.1263 0.6072 -0.7845
vn -0.1135 0.7757 -0.6208
vn -0.0290 0.9540 -0.2984
vn -0.1409 0.6346 -0.7599
vn -0.0417 0.9348 -0.3528
vn 0.2321 0.5773 -0.7828
vn 0.5919 -0.6647 0.4560
vn 0.7186 -0.5050 0.4781
vn 0.0117 0.4237 -0.9057
vn 0.7961 0.0037 0.6051
vn 0.1780 -0.9814 0.0716
vn 0.2612 -0.9172 0.3009
vn 0.4552 -0.7329 0.5056
vn 0.4552 -0.7330 0.5056
vn 0.4115 -0.3670 0.8342
vn 0.3231 -0.7246 0.6087
vn -0.0220 -0.9254 -0.3784
vn 0.0870 0.7161 0.6926
vn 0.0233 0.9760 0.2164
vn 0.2743 -0.9559 0.1050
vn -0.1187 -0.4794 -0.8695
vn -0.0684 -0.9038 -0.4226
vn 0.1306 -0.9729 0.1907
vn 0.1496 -0.9640 0.2198
vn 0.0088 -0.9377 -0.3472
vn 0.0075 -0.9341 -0.3569
vn 0.1205 -0.9882 -0.0943
vn -0.1947 -0.6265 -0.7547
vn 0.1877 -0.9751 -0.1182
vn 0.0726 -0.9271 -0.3677
vn 0.0849 -0.9941 -0.0669
vn 0.0554 -0.9909 -0.1223
vn 0.2615 0.9652 0.0103
vn 0.1580 0.9842 -0.0800
vn 0.2995 0.9412 0.1564
vn 0.1000 0.9946 0.0291
vn 0.2183 0.9173 0.3329
vn 0.4543 -0.8848 0.1038
vn 0.2690 -0.9528 -0.1407
vn 0.5151 -0.8446 0.1464
vn -0.2081 -0.7876 -0.5800
vn 0.1355 0.9906 -0.0175
vn 0.0637 0.9900 -0.1259
vn 0.4085 -0.9069 0.1034
vn 0.0237 0.9450 -0.3263
vn -0.2856 0.1352 -0.9488
vn -0.2866 -0.1210 -0.9504
vn -0.1849 0.7164 -0.6727
vn 0.2433 -0.9626 -0.1189
vn 0.0931 -0.8598 -0.5020
vn 0.2641 -0.9572 -0.1185
vn 0.5507 -0.8143 -0.1835
vn 0.1004 -0.9420 -0.3202
vn 0.3459 -0.8568 -0.3824
vn 0.9036 -0.2510 -0.3472
vn 0.1280 0.1721 0.9767
vn 0.1451 0.6194 0.7716
vn 0.4181 0.8911 0.1766
vn 0.2439 0.9623 -0.1204
vn 0.3458 -0.8568 -0.3824
vn 0.6567 0.0945 -0.7482
vn 0.2275 -0.4973 -0.8373
vn 0.4675 -0.6231 -0.6271
vn 0.6418 -0.4136 -0.6457
vn 0.6302 0.4664 -0.6207
vn 0.2940 0.9499 -0.1063
vn 0.4752 0.8799 -0.0053
vn 0.5721 0.8056 0.1538
vn -0.0460 -0.5854 -0.8094
vn 0.1901 0.9556 -0.2252
vn 0.1701 0.9478 -0.2696
vn -0.6232 0.6932 0.3621
vn -0.7211 0.4686 0.5102
vn 0.1143 0.7392 -0.6637
vn -0.1621 0.6673 -0.7269
vn 0.1701 0.9478 -0.2697
vn -0.9592 0.1940 0.2056
vn -0.6869 0.6306 0.3613
vn -0.4494 0.8930 -0.0244
vn -0.0611 0.9927 -0.1038
vn 0.4089 -0.8489 -0.3349
vn 0.4675 -0.6231 -0.6270
vn -0.0379 0.8753 -0.4822
vn 0.3305 0.8624 -0.3834
vn -0.0380 0.8753 -0.4822
vn -0.2919 0.4327 -0.8530
vn 0.1101 0.9658 -0.2347
vn -0.0612 0.9927 -0.1039
vn -0.1560 0.9874 -0.0254
vn -0.2669 0.2063 -0.9414
vn -0.3576 0.2624 -0.8963
vn 0.5507 -0.8143 -0.1834
vn 0.0250 0.9940 -0.1065
vn 0.1101 0.9658 -0.2348
vn 0.2858 0.0306 -0.9578
vn 0.5444 0.7074 0.4507
vn -0.0373 0.9260 -0.3756
vn 0.0351 0.9858 -0.1644
vn -0.0877 0.8329 -0.5464
vn -0.2618 0.0343 -0.9645
vn -0.2381 0.2256 -0.9447
vn -0.2087 0.5257 -0.8247
vn 0.1030 -0.9810 0.1647
vn 0.0272 -0.9996 -0.0097
vn 0.7831 0.1575 -0.6016
vn 0.5647 0.6413 -0.5194
vn -0.0373 -0.9443 -0.3270
vn 0.7242 0.2305 0.6499
vn -0.1886 -0.5507 -0.8131
vn 0.0266 -0.9995 -0.0169
vn 0.0019 -0.6964 0.7176
vn 0.0135 -0.9472 0.3203
vn -0.3450 0.3985 -0.8498
vn 0.2274 -0.4973 -0.8373
vn -0.1721 -0.6533 -0.7372
vn -0.0819 -0.8589 -0.5055
vn -0.1203 0.7791 -0.6153
vn -0.0076 0.9999 -0.0069
vn -0.0586 -0.9199 0.3876
vn -0.0206 -0.9911 0.1315
vn 0.3448 -0.4677 0.8139
vn 0.3075 -0.4233 0.8522
vn 0.2351 -0.7955 0.5584
vn -0.2675 -0.3182 -0.9095
vn -0.2684 -0.3656 -0.8913
vn -0.2683 -0.3656 -0.8913
vn -0.1526 -0.1756 -0.9726
vn -0.2533 -0.3192 -0.9132
vn 0.0026 -0.9973 0.0738
vn 0.1645 -0.0874 -0.9825
vn 0.1726 -0.3184 -0.9321
vn 0.1016 -0.9596 0.2622
vn -0.2350 -0.3632 -0.9016
vn 0.3797 -0.0267 0.9247
vn 0.1030 -0.9809 0.1647
vn 0.2680 -0.7855 0.5578
vn -0.2284 0.3993 -0.8879
vn -0.0671 0.8467 -0.5279
vn -0.1580 0.2716 -0.9494
vn 0.2613 0.3538 -0.8981
vn 0.1231 -0.7919 -0.5982
vn 0.0512 -0.9707 0.2349
vn 0.0127 -0.7586 0.6514
vn -0.0036 -0.2618 0.9651
vn -0.0085 0.2635 0.9646
vn -0.1955 0.3444 -0.9183
vn -0.0156 0.9974 0.0702
vn 0.0024 -0.9906 -0.1367
vn 0.1307 -0.9729 0.1908
vn 0.0167 -0.9770 0.2125
vn 0.1344 -0.4080 -0.9030
vn -0.6899 0.6482 0.3222
vn -0.1804 -0.0082 -0.9836
vn 0.2612 0.3538 -0.8981
vn -0.0996 -0.7972 -0.5955
vn -0.0099 0.9925 -0.1218
vn -0.0848 -0.5562 0.8267
vn -0.0703 -0.1699 0.9829
vn 0.2102 0.0062 -0.9776
vn 0.2175 0.1064 0.9703
vn 0.0677 -0.2562 0.9642
vn -0.0409 0.9797 -0.1964
vn -0.0280 0.9891 -0.1442
vn 0.0499 -0.2797 -0.9588
vn 0.6041 0.4603 -0.6506
vn -0.1120 0.7233 -0.6814
vn 0.2243 -0.1730 -0.9590
vn 0.1726 -0.3185 -0.9321
vn -0.4494 0.8930 -0.0245
vn 0.4085 -0.9069 0.1035
vn 0.6567 0.0946 -0.7482
vn -0.0448 0.8314 -0.5538
vn 0.7160 0.4662 0.5196
vn 0.1173 0.0376 -0.9924
vn 0.0425 0.2358 0.9709
vn -0.3060 -0.9245 0.2271
vn 0.6403 -0.7314 0.2345
vt 0.902605 0.573495
vt 0.877110 0.586800
vt 0.896877 0.602285
vt 0.192350 0.954000
vt 0.214476 0.944710
vt 0.186058 0.927957
vt 0.182952 0.894665
vt 0.162861 0.915823
vt 0.217649 0.911035
vt 0.653649 0.796201
vt 0.622173 0.798354
vt 0.630989 0.824279
vt 0.749104 0.217027
vt 0.758448 0.197577
vt 0.736167 0.195391
vt 0.736109 0.238145
vt 0.709414 0.240057
vt 0.715782 0.253381
vt 0.942590 0.641075
vt 0.932272 0.654794
vt 0.953534 0.656441
vt 0.938561 0.625159
vt 0.926304 0.633895
vt 0.600838 0.811275
vt 0.712068 0.225689
vt 0.782268 0.232007
vt 0.798357 0.257447
vt 0.815262 0.235168
vt 0.795185 0.210053
vt 0.712136 0.197423
vt 0.721252 0.180835
vt 0.901107 0.629524
vt 0.921771 0.615956
vt 0.882549 0.621255
vt 0.885422 0.648000
vt 0.772779 0.215804
vt 0.780678 0.193535
vt 0.768673 0.254230
vt 0.642680 0.126647
vt 0.625161 0.139134
vt 0.646588 0.145434
vt 0.889145 0.368078
vt 0.889145 0.345520
vt 0.865680 0.355677
vt 0.132422 0.500457
vt 0.138728 0.479901
vt 0.111793 0.481432
vt 0.877366 0.562310
vt 0.649655 0.509869
vt 0.654640 0.546126
vt 0.670054 0.527542
vt 0.866158 0.384070
vt 0.880200 0.380458
vt 0.876616 0.372541
vt 0.671115 0.478044
vt 0.674758 0.505950
vt 0.134143 0.528816
vt 0.114181 0.510092
vt 0.583710 0.135791
vt 0.593439 0.113573
vt 0.572992 0.122802
vt 0.604246 0.131703
vt 0.626927 0.105197
vt 0.607621 0.156033
vt 0.584928 0.162097
vt 0.964968 0.699200
vt 0.943979 0.681716
vt 0.944736 0.714648
vt 0.717179 0.272203
vt 0.747703 0.268217
vt 0.194648 0.870408
vt 0.211049 0.887754
vt 0.670478 0.133740
vt 0.663406 0.160251
vt 0.683144 0.148084
vt 0.268008 0.986612
vt 0.257875 0.974688
vt 0.249701 0.990665
vt 0.137175 0.911875
vt 0.151554 0.890826
vt 0.242627 0.977415
vt 0.914105 0.696448
vt 0.918744 0.670822
vt 0.892574 0.672205
vt 0.969986 0.680025
vt 0.087260 0.548977
vt 0.094826 0.524369
vt 0.074993 0.522781
vt 0.089370 0.500845
vt 0.060332 0.499727
vt 0.453139 0.431068
vt 0.429494 0.462185
vt 0.456266 0.472180
vt 0.512115 0.217267
vt 0.524241 0.187490
vt 0.499632 0.178224
vt 0.421938 0.523840
vt 0.396757 0.529080
vt 0.422217 0.559453
vt 0.579779 0.194281
vt 0.601545 0.223962
vt 0.604151 0.183388
vt 0.470738 0.166479
vt 0.488626 0.144521
vt 0.460502 0.135030
vt 0.547512 0.455882
vt 0.526936 0.434591
vt 0.530590 0.475818
vt 0.584559 0.488672
vt 0.557284 0.485494
vt 0.576803 0.511815
vt 0.540705 0.511700
vt 0.409747 0.256210
vt 0.407897 0.205431
vt 0.364475 0.226319
vt 0.117835 0.784856
vt 0.126731 0.748055
vt 0.089531 0.760548
vt 0.359181 0.264428
vt 0.066460 0.304596
vt 0.035892 0.326601
vt 0.064707 0.351842
vt 0.065604 0.842475
vt 0.087769 0.826634
vt 0.065781 0.812903
vt 0.097824 0.864147
vt 0.121838 0.889610
vt 0.131228 0.863869
vt 0.887172 0.751241
vt 0.865680 0.767898
vt 0.889531 0.785451
vt 0.416650 0.166529
vt 0.377379 0.182388
vt 0.952685 0.749998
vt 0.921320 0.734137
vt 0.960273 0.787441
vt 0.998333 0.787142
vt 0.986957 0.757800
vt 0.444515 0.184961
vt 0.444176 0.157956
vt 0.428382 0.139324
vt 0.450072 0.226120
vt 0.456650 0.269177
vt 0.130180 0.710007
vt 0.153644 0.700400
vt 0.129165 0.680095
vt 0.105276 0.694200
vt 0.503838 0.299703
vt 0.510093 0.263156
vt 0.485973 0.275215
vt 0.901048 0.146571
vt 0.863031 0.164933
vt 0.901048 0.200868
vt 0.902111 0.504388
vt 0.902111 0.448947
vt 0.865680 0.491421
vt 0.059086 0.655518
vt 0.091551 0.641382
vt 0.070046 0.612023
vt 0.484030 0.242159
vt 0.848973 0.986706
vt 0.862985 0.945416
vt 0.822582 0.962940
vt 0.038580 0.692831
vt 0.073765 0.692527
vt 0.582522 0.291504
vt 0.608725 0.280133
vt 0.586720 0.259093
vt 0.323492 0.349662
vt 0.307180 0.388770
vt 0.350371 0.373156
vt 0.401505 0.345414
vt 0.380901 0.301208
vt 0.356101 0.332749
vt 0.553219 0.305664
vt 0.555351 0.269435
vt 0.976473 0.727460
vt 0.986621 0.702195
vt 0.629697 0.202046
vt 0.630277 0.250883
vt 0.560827 0.223609
vt 0.998653 0.892489
vt 0.988486 0.863016
vt 0.958956 0.899212
vt 0.143743 0.312370
vt 0.160523 0.282867
vt 0.122223 0.282550
vt 0.105116 0.319436
vt 0.100216 0.358527
vt 0.134626 0.351331
vt 0.629654 0.225070
vt 0.628898 0.534024
vt 0.611142 0.501226
vt 0.596757 0.541624
vt 0.623752 0.568707
vt 0.097194 0.722686
vt 0.058518 0.730850
vt 0.555398 0.550012
vt 0.527246 0.542094
vt 0.051084 0.773752
vt 0.025298 0.738048
vt 0.018936 0.782820
vt 0.572854 0.458319
vt 0.605284 0.462705
vt 0.161186 0.756600
vt 0.151402 0.728062
vt 0.638101 0.469379
vt 0.148041 0.775895
vt 0.440232 0.499566
vt 0.447607 0.538898
vt 0.464411 0.507750
vt 0.370773 0.497688
vt 0.409183 0.492926
vt 0.946826 0.970547
vt 0.971001 0.998653
vt 0.984492 0.966897
vt 0.348707 0.420708
vt 0.337794 0.469025
vt 0.390403 0.454859
vt 0.892923 0.544058
vt 0.876616 0.528752
vt 0.874453 0.542573
vt 0.047992 0.528644
vt 0.557901 0.366071
vt 0.576635 0.401334
vt 0.600270 0.364505
vt 0.839021 0.820027
vt 0.805980 0.838377
vt 0.840881 0.847683
vt 0.095871 0.889090
vt 0.114676 0.839839
vt 0.049797 0.472091
vt 0.029594 0.498566
vt 0.145549 0.836484
vt 0.840170 0.709808
vt 0.842138 0.663577
vt 0.811654 0.692352
vt 0.478494 0.118333
vt 0.499161 0.130348
vt 0.514475 0.155866
vt 0.699051 0.904681
vt 0.682052 0.868873
vt 0.667716 0.900105
vt 0.668947 0.835830
vt 0.642428 0.862570
vt 0.329913 0.304172
vt 0.876374 0.240556
vt 0.853603 0.223158
vt 0.856321 0.251984
vt 0.981520 0.934679
vt 0.928287 0.934211
vt 0.249588 0.962754
vt 0.814249 0.649869
vt 0.665617 0.249895
vt 0.697845 0.255552
vt 0.695702 0.225309
vt 0.675456 0.224848
vt 0.172174 0.788874
vt 0.653243 0.221817
vt 0.683653 0.201702
vt 0.470021 0.306307
vt 0.432823 0.304627
vt 0.659082 0.678123
vt 0.683437 0.671966
vt 0.666105 0.629406
vt 0.477807 0.203164
vt 0.865680 0.370773
vt 0.884550 0.335033
vt 0.898729 0.340511
vt 0.898729 0.311298
vt 0.348793 0.540433
vt 0.278058 0.990363
vt 0.267745 0.998653
vt 0.306835 0.445136
vt 0.304885 0.499697
vt 0.089418 0.795134
vt 0.039945 0.813832
vt 0.161530 0.338614
vt 0.867055 0.728757
vt 0.116694 0.813975
vt 0.146360 0.803633
vt 0.974246 0.822272
vt 0.468456 0.994232
vt 0.471972 0.979764
vt 0.450972 0.981895
vt 0.785079 0.310205
vt 0.807474 0.299278
vt 0.792520 0.289933
vt 0.808203 0.280705
vt 0.462981 0.961054
vt 0.426799 0.947894
vt 0.433249 0.966393
vt 0.369268 0.866967
vt 0.404289 0.887571
vt 0.419201 0.845243
vt 0.633150 0.345206
vt 0.669414 0.354097
vt 0.654354 0.318776
vt 0.892444 0.372990
vt 0.892444 0.388964
vt 0.744790 0.492226
vt 0.729926 0.457980
vt 0.713233 0.502688
vt 0.923198 0.812263
vt 0.873377 0.808627
vt 0.735318 0.108897
vt 0.717526 0.126397
vt 0.735318 0.128144
vt 0.677351 0.948554
vt 0.696700 0.951695
vt 0.686733 0.929924
vt 0.667489 0.927773
vt 0.676025 0.283408
vt 0.685611 0.310358
vt 0.594428 0.429957
vt 0.557492 0.433401
vt 0.699051 0.282289
vt 0.269776 0.098026
vt 0.271207 0.076300
vt 0.247988 0.081002
vt 0.221544 0.144321
vt 0.243464 0.154889
vt 0.242892 0.118647
vt 0.234328 0.929639
vt 0.020861 0.655254
vt 0.740378 0.537241
vt 0.703115 0.553576
vt 0.453611 0.348278
vt 0.488325 0.328088
vt 0.397264 0.402301
vt 0.433895 0.389598
vt 0.765978 0.240393
vt 0.094837 0.666726
vt 0.121204 0.646092
vt 0.394469 0.735351
vt 0.323832 0.714179
vt 0.346367 0.775310
vt 0.166985 0.816469
vt 0.823873 0.272203
vt 0.064527 0.431831
vt 0.084016 0.387642
vt 0.052747 0.390779
vt 0.340418 0.502288
vt 0.701746 0.219847
vt 0.724313 0.214693
vt 0.411582 0.684304
vt 0.390655 0.639067
vt 0.368557 0.687346
vt 0.934957 0.610728
vt 0.907955 0.651800
vt 0.772325 0.668028
vt 0.726151 0.670618
vt 0.765247 0.713124
vt 0.741188 0.634481
vt 0.536860 0.396541
vt 0.805348 0.190845
vt 0.496818 0.979763
vt 0.488401 0.998653
vt 0.509368 0.985842
vt 0.612670 0.402777
vt 0.627574 0.434128
vt 0.592044 0.632699
vt 0.598139 0.670761
vt 0.629745 0.650530
vt 0.469505 0.392247
vt 0.488961 0.360962
vt 0.135309 0.449110
vt 0.096830 0.584793
vt 0.064960 0.574148
vt 0.884281 0.398418
vt 0.037477 0.590345
vt 0.041045 0.557078
vt 0.006425 0.566411
vt 0.603550 0.842017
vt 0.659226 0.440739
vt 0.111607 0.533716
vt 0.119652 0.559573
vt 0.849178 0.919352
vt 0.847249 0.880579
vt 0.804521 0.924158
vt 0.680114 0.557512
vt 0.766628 0.959586
vt 0.737355 0.915426
vt 0.451951 0.689942
vt 0.435422 0.648554
vt 0.806490 0.877921
vt 0.762391 0.855374
vt 0.764207 0.890518
vt 0.879802 0.696043
vt 0.112988 0.195258
vt 0.108545 0.241399
vt 0.137490 0.220879
vt 0.431515 0.718776
vt 0.439504 0.754692
vt 0.889885 0.718848
vt 0.626067 0.699919
vt 0.661492 0.718156
vt 0.478669 0.685816
vt 0.471684 0.714621
vt 0.023452 0.534477
vt 0.827579 0.286490
vt 0.851273 0.296113
vt 0.845660 0.274898
vt 0.801661 0.323930
vt 0.828780 0.338870
vt 0.826805 0.309201
vt 0.923145 0.773119
vt 0.777474 0.510661
vt 0.775834 0.467413
vt 0.806653 0.737428
vt 0.889042 0.849119
vt 0.903891 0.897269
vt 0.941551 0.863088
vt 0.810903 0.491477
vt 0.799293 0.426267
vt 0.792071 0.392567
vt 0.756615 0.418402
vt 0.578462 0.314276
vt 0.611138 0.318008
vt 0.568381 0.651439
vt 0.553917 0.615442
vt 0.542886 0.656967
vt 0.576593 0.726942
vt 0.560285 0.690259
vt 0.549296 0.718804
vt 0.573248 0.335901
vt 0.833397 0.410852
vt 0.827229 0.374447
vt 0.633665 0.168964
vt 0.778177 0.333376
vt 0.789741 0.355723
vt 0.123188 0.151751
vt 0.091560 0.164741
vt 0.104021 0.127959
vt 0.843932 0.495714
vt 0.831750 0.458169
vt 0.783451 0.556342
vt 0.822250 0.529361
vt 0.098870 0.449441
vt 0.338663 0.598437
vt 0.389560 0.577405
vt 0.138901 0.118909
vt 0.141343 0.415082
vt 0.106758 0.418021
vt 0.858248 0.428942
vt 0.361417 0.822948
vt 0.850146 0.543776
vt 0.847787 0.519585
vt 0.174021 0.176550
vt 0.191711 0.144041
vt 0.157555 0.146565
vt 0.212207 0.173414
vt 0.175636 0.119171
vt 0.208816 0.116617
vt 0.142318 0.174338
vt 0.146006 0.196251
vt 0.461611 0.907815
vt 0.467752 0.880460
vt 0.439740 0.885436
vt 0.438377 0.797123
vt 0.402042 0.791534
vt 0.187583 0.067729
vt 0.216671 0.071711
vt 0.211053 0.045136
vt 0.168390 0.862771
vt 0.454572 0.858341
vt 0.465220 0.823797
vt 0.856281 0.391940
vt 0.485655 0.853474
vt 0.625962 0.764747
vt 0.663284 0.758413
vt 0.572108 0.858112
vt 0.605050 0.875831
vt 0.857267 0.357512
vt 0.193063 0.093566
vt 0.261922 0.059253
vt 0.238371 0.050404
vt 0.867465 0.204080
vt 0.878805 0.217600
vt 0.221246 0.095649
vt 0.714832 0.100236
vt 0.701746 0.118267
vt 0.714832 0.128144
vt 0.290529 0.615685
vt 0.329615 0.650609
vt 0.453250 0.934587
vt 0.480467 0.932441
vt 0.264000 0.037798
vt 0.287834 0.055046
vt 0.855210 0.324871
vt 0.802482 0.156791
vt 0.816096 0.148478
vt 0.797948 0.142747
vt 0.819287 0.164576
vt 0.875429 0.267710
vt 0.892268 0.250923
vt 0.813950 0.176544
vt 0.792489 0.176095
vt 0.486986 0.963954
vt 0.290529 0.104370
vt 0.305784 0.115638
vt 0.305784 0.101051
vt 0.188435 0.815492
vt 0.175004 0.834932
vt 0.894250 0.266324
vt 0.502844 0.941905
vt 0.510535 0.961073
vt 0.925771 0.575217
vt 0.924040 0.592696
vt 0.524241 0.976641
vt 0.639566 0.959860
vt 0.623068 0.966455
vt 0.642220 0.982541
vt 0.720038 0.133188
vt 0.726241 0.146616
vt 0.742729 0.134329
vt 0.749325 0.155805
vt 0.239405 0.945185
vt 0.266029 0.963981
vt 0.261373 0.951071
vt 0.508176 0.912743
vt 0.759907 0.146688
vt 0.765978 0.168150
vt 0.605889 0.918197
vt 0.631742 0.896272
vt 0.580583 0.898237
vt 0.850782 0.128906
vt 0.850782 0.110991
vt 0.826568 0.120664
vt 0.763622 0.179995
vt 0.742827 0.176587
vt 0.663090 0.967265
vt 0.653955 0.943056
vt 0.862985 0.285749
vt 0.454537 0.725314
vt 0.486382 0.893661
vt 0.643591 0.285838
vt 0.423575 0.917976
vt 0.554486 0.753361
vt 0.547519 0.787908
vt 0.573071 0.794218
vt 0.636262 0.733695
vt 0.610409 0.728299
vt 0.590844 0.759907
vt 0.482814 0.983691
vt 0.064056 0.260412
vt 0.091408 0.283213
vt 0.851270 0.272203
vt 0.840824 0.244402
vt 0.839502 0.261848
vt 0.544805 0.333310
vt 0.375214 0.905296
vt 0.145125 0.252316
vt 0.764691 0.380262
vt 0.183566 0.253036
vt 0.464017 0.784132
vt 0.064005 0.546813
vt 0.911210 0.535926
vt 0.898449 0.519819
vt 0.806567 0.779852
vt 0.836067 0.747829
vt 0.641720 0.921372
vt 0.278363 0.976330
vt 0.199496 0.198794
vt 0.170419 0.217897
vt 0.626029 0.943114
vt 0.426198 0.603402
vt 0.009167 0.615003
vt 0.038406 0.625361
vt 0.005765 0.693437
vt 0.609026 0.947035
vt 0.768673 0.129217
vt 0.814885 0.140052
vt 0.814885 0.094996
vt 0.790393 0.591676
vt 0.781580 0.623855
vt 0.818993 0.608884
vt 0.863031 0.134761
vt 0.906501 0.143877
vt 0.906501 0.096584
vt 0.684265 0.816464
vt 0.792528 0.998653
vt 0.684723 0.788994
vt 0.205711 0.228626
vt 0.218273 0.203191
vt 0.656563 0.587157
vt 0.680449 0.592419
vt 0.682469 0.732663
vt 0.033663 0.409886
vt 0.760230 0.130839
vt 0.654278 0.397099
vt 0.682895 0.381254
vt 0.840118 0.629084
vt 0.681998 0.702677
vt 0.745579 0.589933
vt 0.249573 0.025925
vt 0.850077 0.591455
vt 0.820797 0.574189
vt 0.604377 0.783365
vt 0.579025 0.827342
vt 0.587535 0.583005
vt 0.646730 0.998519
vt 0.662954 0.991441
vt 0.110684 0.616127
vt 0.023505 0.373204
vt 0.816024 0.809268
vt 0.767909 0.805924
vt 0.713759 0.819454
vt 0.725327 0.866260
vt 0.594763 0.704738
vt 0.421102 0.427981
vt 0.676990 0.984009
vt 0.691941 0.975740
vt 0.475197 0.749059
vt 0.077507 0.471421
vt 0.079721 0.214313
vt 0.041957 0.289408
vt 0.018867 0.452897
vt 0.010764 0.409600
vt 0.128475 0.592883
vt 0.686442 0.444786
vt 0.682696 0.413162
vt 0.722657 0.162136
vt 0.552272 0.827574
vt 0.174124 0.309941
vt 0.184920 0.281667
vt 0.918621 0.554284
vt 0.627466 0.607090
vt 0.826568 0.249506
vt 0.123760 0.386552
vt 0.164027 0.381969
vt 0.533648 0.693254
vt 0.238966 0.187445
vt 0.860336 0.200868
vt 0.860336 0.131601
vt 0.826568 0.167138
vt 0.634878 0.372537
vt 0.001347 0.523010
vt 0.701746 0.619420
vt 0.291053 0.672467
vt 0.719802 0.722223
vt 0.764956 0.758717
vt 0.533017 0.580108
vt 0.532232 0.621305
vt 0.454611 0.576615
vt 0.191840 0.844164
vt 0.887418 0.286274
vt 0.865680 0.293621
vt 0.887418 0.308604
vt 0.881855 0.342825
vt 0.881855 0.311298
vt 0.865680 0.327144
vt 0.555557 0.583278
vt 0.151698 0.656315
vt 0.135050 0.626050
vt 0.466170 0.652990
vt 0.846629 0.778683
vt 0.847833 0.203563
vt 0.085707 0.189417
vt 0.694780 0.760810
vt 0.871167 0.406705
vt 0.161283 0.090313
vt 0.894250 0.229309
vt 0.453039 0.617898
vt 0.814066 0.211513
vt 0.003138 0.490993
vt 0.765978 0.128144
vt 0.765978 0.108850
vt 0.748810 0.117266
vt 0.787895 0.145949
vt 0.759627 0.354740
vt 0.399989 0.933551
vt 0.631776 0.991064
vt 0.658827 0.187171
vt 0.683922 0.173730
vt 0.831551 0.230388
vt 0.899544 0.409400
vt 0.865680 0.444472
vt 0.899544 0.446253
vt 0.714751 0.768781
vt 0.283981 0.026547
vt 0.896137 0.507083
vt 0.882056 0.510647
vt 0.287834 0.987126
vt 0.998653 0.731290
vt 0.914593 0.521700
vt 0.295782 0.561251
vt 0.838153 0.213217
vt 0.679215 0.998653
vt 0.227779 0.966077
vt 0.823873 0.196494
vt 0.231301 0.024828
vt 0.785068 0.162148
s 1
usemtl banana02_lr
f 1/1/1 2/2/2 3/3/3
f 4/4/4 5/5/2 6/6/5
f 7/7/6 8/8/7 6/6/5
f 6/6/5 9/9/8 7/7/6
f 10/10/9 11/11/10 12/12/11
f 13/13/12 14/14/13 15/15/14
f 16/16/15 17/17/16 18/18/17
f 19/19/16 20/20/18 21/21/17
f 19/19/16 22/22/19 23/23/20
f 11/11/10 24/24/21 12/12/11
f 25/25/19 17/17/16 16/16/15
f 26/26/22 27/27/23 28/28/24
f 28/28/24 29/29/25 26/26/22
f 30/30/26 15/15/14 31/31/27
f 32/32/28 23/23/20 33/33/29
f 32/32/28 34/34/5 35/35/30
f 36/36/31 29/29/25 37/37/32
f 27/27/23 26/26/22 38/38/33
f 39/39/33 40/40/34 41/41/35
f 42/42/33 43/43/22 44/44/12
f 45/45/36 46/46/37 47/47/38
f 1/1/1 48/48/39 2/2/2
f 49/49/40 50/50/41 51/51/37
f 52/52/42 53/53/43 54/54/44
f 55/55/45 49/49/40 56/56/36
f 57/57/45 45/45/36 58/58/46
f 59/59/47 60/60/48 61/61/49
f 62/62/50 40/40/34 63/63/15
f 64/64/51 62/62/50 65/65/52
f 40/40/34 62/62/50 64/64/51
f 66/66/53 67/67/54 68/68/55
f 18/18/17 69/69/56 70/70/50
f 71/71/57 7/7/6 72/72/23
f 73/73/23 74/74/58 75/75/57
f 76/76/59 77/77/60 78/78/61
f 79/79/62 8/8/7 80/80/63
f 77/77/60 81/81/64 78/78/61
f 82/82/65 83/83/66 84/84/67
f 85/85/56 67/67/54 66/66/53
f 86/86/68 87/87/69 88/88/70
f 89/89/71 90/90/72 88/88/70
f 89/89/71 58/58/46 47/47/38
f 91/91/73 92/92/74 93/93/75
f 94/94/76 95/95/77 96/96/78
f 97/97/79 98/98/80 99/99/81
f 100/100/77 101/101/82 102/102/83
f 100/100/77 102/102/83 65/65/52
f 103/103/84 104/104/85 105/105/86
f 106/106/87 107/107/88 108/108/75
f 109/109/89 110/110/90 111/111/91
f 110/110/90 112/112/92 111/111/91
f 113/113/93 114/114/94 115/115/95
f 116/116/96 117/117/97 118/118/98
f 113/113/93 115/115/95 119/119/99
f 67/67/54 20/20/18 83/83/66
f 120/120/100 121/121/101 122/122/102
f 123/123/103 124/124/104 125/125/105
f 126/126/106 127/127/107 128/128/108
f 129/129/109 130/130/110 131/131/111
f 132/132/112 133/133/113 114/114/94
f 134/134/114 68/68/55 135/135/115
f 136/136/116 137/137/112 138/138/117
f 132/132/112 139/139/118 140/140/119
f 140/140/119 141/141/117 132/132/112
f 140/140/119 105/105/86 141/141/117
f 142/142/120 113/113/93 143/143/121
f 144/144/122 145/145/123 146/146/124
f 144/144/122 146/146/124 147/147/125
f 148/148/126 149/149/127 150/150/128
f 151/151/129 152/152/130 153/153/131
f 154/154/129 155/155/132 156/156/133
f 157/157/134 158/158/135 159/159/136
f 160/160/137 150/150/128 149/149/127
f 161/161/133 162/162/138 163/163/139
f 157/157/134 164/164/140 165/165/141
f 114/114/94 113/113/93 142/142/120
f 166/166/142 167/167/143 168/168/144
f 150/150/128 160/160/137 143/143/121
f 169/169/145 170/170/146 171/171/147
f 172/172/148 173/173/149 174/174/150
f 171/171/147 172/172/148 174/174/150
f 175/175/126 166/166/142 176/176/151
f 68/68/55 134/134/114 177/177/152
f 177/177/152 178/178/49 66/66/53
f 66/66/53 68/68/55 177/177/152
f 102/102/83 101/101/82 179/179/153
f 180/180/154 101/101/82 168/168/144
f 101/101/82 181/181/76 168/168/144
f 182/182/99 183/183/95 184/184/155
f 185/185/156 186/186/157 187/187/158
f 188/188/159 189/189/160 190/190/161
f 101/101/82 180/180/154 191/191/162
f 188/188/159 122/122/102 189/189/160
f 192/192/163 193/193/164 194/194/165
f 194/194/165 195/195/166 192/192/163
f 193/193/164 111/111/91 194/194/165
f 196/196/167 197/197/168 118/118/98
f 198/198/169 112/112/92 199/199/170
f 193/193/164 109/109/89 111/111/91
f 200/200/171 197/197/168 201/201/132
f 201/201/132 202/202/130 200/200/171
f 110/110/90 106/106/87 108/108/75
f 110/110/90 109/109/89 203/203/172
f 203/203/172 106/106/87 110/110/90
f 109/109/89 193/193/164 204/204/173
f 110/110/90 108/108/75 112/112/92
f 117/117/97 196/196/167 118/118/98
f 205/205/174 206/206/175 117/117/97
f 193/193/164 49/49/40 207/207/176
f 204/204/173 203/203/172 109/109/89
f 144/144/122 147/147/125 196/196/167
f 117/117/97 208/208/177 205/205/174
f 209/209/178 210/210/170 211/211/92
f 212/212/179 98/98/80 213/213/180
f 97/97/79 99/99/81 210/210/170
f 214/214/181 215/215/146 216/216/182
f 217/217/183 218/218/184 219/219/185
f 213/213/180 209/209/178 92/92/74
f 93/93/75 92/92/74 209/209/178
f 209/209/178 211/211/92 93/93/75
f 220/220/186 221/221/61 222/222/187
f 223/223/188 88/88/70 90/90/72
f 224/224/189 225/225/190 226/226/191
f 227/227/192 228/228/193 229/229/194
f 230/230/195 127/127/107 126/126/106
f 126/126/106 231/231/196 124/124/104
f 89/89/71 87/87/69 58/58/46
f 90/90/72 232/232/197 233/233/198
f 79/79/62 80/80/63 127/127/107
f 128/128/108 234/234/199 231/231/196
f 235/235/200 236/236/101 237/237/201
f 89/89/71 88/88/70 87/87/69
f 238/238/202 105/105/86 104/104/85
f 104/104/85 239/239/47 238/238/202
f 65/65/52 102/102/83 64/64/51
f 240/240/52 239/239/47 104/104/85
f 70/70/50 16/16/15 18/18/17
f 67/67/54 85/85/56 21/21/17
f 241/241/203 242/242/204 243/243/205
f 242/242/204 244/244/206 245/245/207
f 196/196/167 165/165/141 197/197/168
f 174/174/150 246/246/208 169/169/145
f 247/247/209 248/248/210 249/249/211
f 250/250/208 251/251/212 214/214/181
f 250/250/208 214/214/181 216/216/182
f 173/173/149 246/246/208 174/174/150
f 81/81/64 77/77/60 252/252/213
f 184/184/155 251/251/212 250/250/208
f 237/237/201 236/236/101 253/253/214
f 254/254/215 255/255/216 256/256/217
f 256/256/217 257/257/218 254/254/215
f 205/205/174 208/208/177 258/258/217
f 127/127/107 80/80/63 128/128/108
f 259/259/219 257/257/218 260/260/220
f 261/261/221 150/150/128 143/143/121
f 262/262/222 143/143/121 113/113/93
f 114/114/94 142/142/120 139/139/118
f 181/181/76 101/101/82 100/100/77
f 263/263/223 264/264/224 265/265/225
f 103/103/84 266/266/226 96/96/78
f 267/267/227 52/52/42 54/54/44
f 96/96/78 95/95/77 240/240/52
f 240/240/52 104/104/85 96/96/78
f 268/268/228 269/269/229 270/270/230
f 266/266/226 103/103/84 139/139/118
f 271/271/231 98/98/80 212/212/179
f 96/96/78 104/104/85 103/103/84
f 139/139/118 103/103/84 140/140/119
f 103/103/84 105/105/86 140/140/119
f 272/272/44 76/76/59 273/273/227
f 218/218/184 274/274/232 275/275/233
f 76/76/59 78/78/61 273/273/227
f 116/116/96 118/118/98 276/276/234
f 125/125/105 200/200/171 277/277/235
f 190/190/161 278/278/224 185/185/156
f 126/126/106 124/124/104 123/123/103
f 130/130/110 129/129/109 279/279/106
f 280/280/236 281/281/237 116/116/96
f 280/280/236 124/124/104 231/231/196
f 137/137/112 136/136/116 282/282/238
f 133/133/113 115/115/95 114/114/94
f 283/283/239 284/284/240 285/285/241
f 286/286/242 287/287/243 288/288/239
f 288/288/239 287/287/243 289/289/244
f 132/132/112 114/114/94 139/139/118
f 144/144/122 196/196/167 117/117/97
f 290/290/245 291/291/246 292/292/247
f 136/136/116 138/138/117 134/134/114
f 138/138/117 177/177/152 134/134/114
f 293/293/248 294/294/249 295/295/250
f 296/296/251 297/297/252 298/298/253
f 299/299/254 53/53/43 300/300/255
f 301/301/256 302/302/248 303/303/257
f 304/304/258 131/131/111 305/305/235
f 306/306/228 307/307/230 308/308/259
f 309/309/260 310/310/261 311/311/262
f 311/311/262 312/312/263 309/309/260
f 313/313/264 298/298/253 314/314/123
f 203/203/172 315/315/265 316/316/266
f 313/313/264 317/317/175 255/255/216
f 318/318/262 319/319/261 320/320/267
f 321/321/268 322/322/204 323/323/269
f 5/5/2 324/324/270 9/9/8
f 9/9/8 6/6/5 5/5/2
f 157/157/134 325/325/138 164/164/140
f 326/326/271 303/303/257 327/327/272
f 201/201/132 197/197/168 164/164/140
f 165/165/141 164/164/140 197/197/168
f 196/196/167 147/147/125 165/165/141
f 328/328/273 329/329/274 261/261/221
f 8/8/7 7/7/6 80/80/63
f 172/172/148 328/328/273 262/262/222
f 172/172/148 330/330/275 331/331/276
f 172/172/148 171/171/147 330/330/275
f 246/246/208 173/173/149 119/119/99
f 113/113/93 173/173/149 262/262/222
f 173/173/149 113/113/93 119/119/99
f 63/63/15 40/40/34 39/39/33
f 332/332/277 13/13/12 16/16/15
f 184/184/155 250/250/208 182/182/99
f 333/333/278 146/146/124 334/334/279
f 173/173/149 172/172/148 262/262/222
f 335/335/280 336/336/281 337/337/272
f 261/261/221 262/262/222 328/328/273
f 261/261/221 329/329/274 148/148/126
f 148/148/126 150/150/128 261/261/221
f 281/281/237 234/234/199 338/338/282
f 28/28/24 27/27/23 339/339/283
f 12/12/11 244/244/206 10/10/9
f 340/340/284 341/341/285 342/342/286
f 244/244/206 12/12/11 245/245/207
f 212/212/179 218/218/184 343/343/287
f 30/30/26 344/344/29 345/345/288
f 20/20/18 67/67/54 21/21/17
f 346/346/289 347/347/290 348/348/291
f 349/349/292 33/33/29 22/22/19
f 350/350/293 20/20/18 23/23/20
f 351/351/294 352/352/295 353/353/296
f 3/3/3 34/34/5 32/32/28
f 352/352/295 351/351/294 354/354/297
f 35/35/30 84/84/67 350/350/293
f 353/353/296 237/237/201 351/351/294
f 32/32/28 35/35/30 350/350/293
f 355/355/298 316/316/266 225/225/190
f 167/167/143 180/180/154 168/168/144
f 29/29/25 356/356/299 37/37/32
f 357/357/300 358/358/301 359/359/302
f 225/225/190 315/315/265 360/360/303
f 107/107/88 106/106/87 316/316/266
f 316/316/266 106/106/87 203/203/172
f 361/361/304 360/360/303 315/315/265
f 203/203/172 204/204/173 315/315/265
f 362/362/305 363/363/306 364/364/307
f 41/41/35 73/73/23 39/39/33
f 331/331/276 365/365/308 328/328/273
f 366/366/189 329/329/274 328/328/273
f 331/331/276 328/328/273 172/172/148
f 46/46/37 367/367/309 47/47/38
f 330/330/275 171/171/147 217/217/183
f 91/91/73 365/365/308 331/331/276
f 316/316/266 355/355/298 107/107/88
f 159/159/136 368/368/310 369/369/311
f 370/370/312 300/300/255 53/53/43
f 371/371/313 159/159/136 369/369/311
f 372/372/314 373/373/315 371/371/313
f 45/45/36 47/47/38 58/58/46
f 49/49/40 51/51/37 56/56/36
f 361/361/304 315/315/265 204/204/173
f 374/374/316 12/12/11 24/24/21
f 207/207/176 55/55/45 375/375/317
f 207/207/176 49/49/40 55/55/45
f 376/376/318 87/87/69 86/86/68
f 87/87/69 376/376/318 58/58/46
f 57/57/45 376/376/318 377/377/319
f 58/58/46 376/376/318 57/57/45
f 378/378/320 379/379/315 380/380/321
f 381/381/322 51/51/37 50/50/41
f 382/382/323 380/380/321 383/383/146
f 346/346/289 384/384/324 385/385/325
f 385/385/325 347/347/290 346/346/289
f 386/386/326 387/387/327 388/388/328
f 386/386/326 229/229/194 228/228/193
f 386/386/326 380/380/321 379/379/315
f 388/388/328 380/380/321 386/386/326
f 84/84/67 389/389/107 82/82/65
f 390/390/329 391/391/330 392/392/331
f 393/393/332 335/335/280 394/394/333
f 82/82/65 389/389/107 395/395/195
f 346/346/289 348/348/291 335/335/280
f 396/396/334 397/397/335 263/263/223
f 398/398/336 384/384/324 399/399/337
f 373/373/315 372/372/314 400/400/338
f 401/401/339 402/402/340 403/403/341
f 404/404/342 405/405/343 406/406/344
f 406/406/344 287/287/243 404/404/342
f 135/135/115 129/129/109 407/407/345
f 301/301/256 408/408/346 409/409/347
f 353/353/296 410/410/348 237/237/201
f 411/411/130 412/412/129 413/413/349
f 184/184/155 183/183/95 413/413/349
f 412/412/129 251/251/212 184/184/155
f 184/184/155 413/413/349 412/412/129
f 414/414/350 409/409/347 408/408/346
f 415/415/351 416/416/352 417/417/353
f 176/176/151 166/166/142 168/168/144
f 418/418/354 419/419/355 166/166/142
f 363/363/306 362/362/305 420/420/356
f 421/421/357 422/422/358 420/420/356
f 218/218/184 212/212/179 219/219/185
f 423/423/359 424/424/336 425/425/360
f 396/396/334 263/263/223 364/364/307
f 167/167/143 166/166/142 419/419/355
f 175/175/126 426/426/361 418/418/354
f 416/416/352 427/427/362 428/428/363
f 41/41/35 40/40/34 429/429/364
f 404/404/342 430/430/247 431/431/365
f 405/405/343 404/404/342 431/431/365
f 431/431/365 416/416/352 428/428/363
f 41/41/35 74/74/58 73/73/23
f 41/41/35 429/429/364 74/74/58
f 432/432/366 433/433/367 390/390/329
f 15/15/14 345/345/288 13/13/12
f 432/432/366 434/434/368 433/433/367
f 414/414/350 435/435/367 436/436/369
f 437/437/370 408/408/346 326/326/271
f 408/408/346 437/437/370 438/438/371
f 367/367/309 439/439/372 47/47/38
f 409/409/347 414/414/350 436/436/369
f 427/427/362 415/415/351 436/436/369
f 440/440/373 347/347/290 441/441/374
f 432/432/366 442/442/375 434/434/368
f 443/443/376 444/444/377 367/367/309
f 445/445/375 427/427/362 436/436/369
f 415/415/351 409/409/347 436/436/369
f 427/427/362 416/416/352 415/415/351
f 295/295/250 446/446/257 293/293/248
f 447/447/378 448/448/379 438/438/371
f 449/449/380 450/450/381 451/451/382
f 450/450/381 449/449/380 452/452/383
f 453/453/384 450/450/381 454/454/385
f 454/454/385 450/450/381 321/321/268
f 455/455/386 390/390/329 456/456/387
f 457/457/388 458/458/389 459/459/390
f 460/460/391 461/461/392 295/295/250
f 462/462/393 463/463/394 464/464/395
f 461/461/392 446/446/257 295/295/250
f 465/465/396 234/234/199 128/128/108
f 466/466/397 467/467/398 295/295/250
f 428/428/363 427/427/362 468/468/399
f 469/469/400 467/467/398 466/466/397
f 470/470/401 10/10/9 471/471/402
f 472/472/400 473/473/403 374/374/316
f 428/428/363 468/468/399 474/474/393
f 463/463/394 462/462/393 475/475/404
f 320/320/267 476/476/405 477/477/406
f 478/478/407 248/248/210 479/479/341
f 454/454/385 323/323/269 480/480/408
f 476/476/405 320/320/267 319/319/261
f 305/305/235 131/131/111 130/130/110
f 320/320/267 463/463/394 480/480/408
f 481/481/409 482/482/229 483/483/410
f 440/440/373 484/484/411 485/485/412
f 136/136/116 134/134/114 407/407/345
f 407/407/345 131/131/111 304/304/258
f 486/486/413 487/487/414 457/457/388
f 129/129/109 131/131/111 407/407/345
f 488/488/415 476/476/405 489/489/230
f 135/135/115 407/407/345 134/134/114
f 405/405/343 490/490/395 406/406/344
f 491/491/416 492/492/417 493/493/255
f 491/491/416 494/494/418 492/492/417
f 495/495/301 496/496/244 247/247/209
f 497/497/419 498/498/420 356/356/299
f 284/284/240 499/499/421 290/290/245
f 500/500/239 501/501/422 502/502/423
f 503/503/220 338/338/282 504/504/424
f 496/496/244 495/495/301 505/505/239
f 506/506/425 499/499/421 507/507/426
f 508/508/427 1/1/1 509/509/428
f 1/1/1 3/3/3 509/509/428
f 507/507/426 357/357/300 359/359/302
f 279/279/106 129/129/109 395/395/195
f 359/359/302 510/510/429 507/507/426
f 511/511/430 512/512/431 513/513/429
f 514/514/432 515/515/433 516/516/434
f 516/516/434 515/515/433 517/517/435
f 324/324/270 5/5/2 518/518/436
f 252/252/213 519/519/437 520/520/419
f 521/521/438 487/487/414 506/506/425
f 374/374/316 245/245/207 12/12/11
f 522/522/439 517/517/435 523/523/420
f 524/524/440 525/525/441 473/473/403
f 473/473/403 526/526/442 524/524/440
f 102/102/83 179/179/153 429/429/364
f 527/527/32 528/528/420 529/529/443
f 530/530/32 531/531/444 14/14/13
f 530/530/32 517/517/435 531/531/444
f 511/511/430 532/532/445 533/533/446
f 309/309/260 533/533/446 532/532/445
f 298/298/253 419/419/355 296/296/251
f 402/402/340 534/534/447 403/403/341
f 282/282/238 304/304/258 413/413/349
f 402/402/340 406/406/344 490/490/395
f 384/384/324 535/535/448 399/399/337
f 473/473/403 472/472/400 526/526/442
f 499/499/421 506/506/425 487/487/414
f 457/457/388 487/487/414 536/536/449
f 457/457/388 536/536/449 458/458/389
f 537/537/450 298/298/253 313/313/264
f 457/457/388 459/459/390 538/538/451
f 539/539/452 540/540/453 541/541/454
f 52/52/42 370/370/312 53/53/43
f 542/542/455 396/396/334 543/543/456
f 160/160/137 266/266/226 142/142/120
f 541/541/454 544/544/457 539/539/452
f 284/284/240 545/545/422 499/499/421
f 283/283/239 358/358/301 545/545/422
f 546/546/458 120/120/100 547/547/459
f 357/357/300 499/499/421 545/545/422
f 204/204/173 193/193/164 207/207/176
f 507/507/426 499/499/421 357/357/300
f 548/548/302 495/495/301 249/249/211
f 549/549/460 550/550/461 249/249/211
f 551/551/274 224/224/189 426/426/361
f 223/223/188 90/90/72 233/233/198
f 294/294/249 552/552/353 538/538/451
f 547/547/459 188/188/159 187/187/158
f 187/187/158 553/553/462 391/391/330
f 135/135/115 68/68/55 82/82/65
f 416/416/352 554/554/463 417/417/353
f 186/186/157 555/555/464 553/553/462
f 467/467/398 556/556/453 460/460/391
f 401/401/339 289/289/244 287/287/243
f 557/557/465 86/86/68 88/88/70
f 426/426/361 175/175/126 551/551/274
f 260/260/220 257/257/218 256/256/217
f 220/220/186 558/558/433 559/559/432
f 101/101/82 191/191/162 179/179/153
f 560/560/466 561/561/467 410/410/348
f 243/243/205 525/525/441 562/562/468
f 247/247/209 479/479/341 248/248/210
f 77/77/60 76/76/59 563/563/469
f 276/276/234 118/118/98 200/200/171
f 564/564/470 449/449/380 565/565/471
f 524/524/440 562/562/468 525/525/441
f 562/562/468 524/524/440 566/566/472
f 187/187/158 391/391/330 547/547/459
f 441/441/374 567/567/473 99/99/81
f 99/99/81 98/98/80 441/441/374
f 266/266/226 94/94/76 96/96/78
f 371/371/313 568/568/474 569/569/475
f 521/521/438 536/536/449 487/487/414
f 570/570/133 201/201/132 164/164/140
f 566/566/472 524/524/440 571/571/425
f 572/572/133 573/573/139 574/574/212
f 575/575/476 576/576/477 577/577/478
f 578/578/212 579/579/129 580/580/133
f 581/581/479 10/10/9 244/244/206
f 582/582/212 163/163/139 382/382/323
f 581/581/479 583/583/480 10/10/9
f 378/378/320 163/163/139 162/162/138
f 537/537/450 167/167/143 419/419/355
f 325/325/138 570/570/133 164/164/140
f 380/380/321 382/382/323 163/163/139
f 564/564/470 584/584/481 585/585/479
f 586/586/482 265/265/225 587/587/376
f 397/397/335 471/471/402 588/588/483
f 372/372/314 369/369/311 557/557/465
f 589/589/484 340/340/284 342/342/286
f 516/516/434 522/522/439 590/590/312
f 297/297/252 591/591/485 592/592/486
f 253/253/214 236/236/101 593/593/487
f 263/263/223 397/397/335 594/594/488
f 437/437/370 595/595/489 575/575/476
f 192/192/163 195/195/166 50/50/41
f 190/190/161 185/185/156 188/188/159
f 477/477/406 488/488/415 596/596/447
f 597/597/490 447/447/378 598/598/491
f 599/599/492 541/541/454 24/24/21
f 24/24/21 11/11/10 599/599/492
f 600/600/493 472/472/400 374/374/316
f 195/195/166 194/194/165 601/601/494
f 602/602/461 603/603/495 513/513/429
f 604/604/496 159/159/136 158/158/135
f 121/121/101 605/605/497 122/122/102
f 228/228/193 606/606/498 607/607/499
f 608/608/500 609/609/232 387/387/327
f 610/610/501 396/396/334 363/363/306
f 387/387/327 609/609/232 388/388/328
f 219/219/185 611/611/502 330/330/275
f 122/122/102 605/605/497 342/342/286
f 612/612/259 613/613/230 532/532/445
f 471/471/402 542/542/455 470/470/401
f 535/535/448 394/394/333 614/614/452
f 615/615/503 89/89/71 47/47/38
f 228/228/193 387/387/327 386/386/326
f 595/595/489 326/326/271 327/327/272
f 212/212/179 343/343/287 271/271/231
f 616/616/504 546/546/458 391/391/330
f 387/387/327 607/607/499 608/608/500
f 533/533/446 562/562/468 566/566/472
f 456/456/387 392/392/331 565/565/471
f 357/357/300 545/545/422 358/358/301
f 120/120/100 617/617/487 121/121/101
f 566/566/472 571/571/425 512/512/431
f 539/539/452 544/544/457 423/423/359
f 610/610/501 423/423/359 543/543/456
f 610/610/501 424/424/336 423/423/359
f 618/618/505 589/589/484 619/619/467
f 419/419/355 226/226/191 296/296/251
f 368/368/310 620/620/506 377/377/319
f 621/621/319 622/622/506 375/375/317
f 235/235/200 237/237/201 410/410/348
f 533/533/446 312/312/263 562/562/468
f 361/361/304 591/591/485 360/360/303
f 599/599/492 470/470/401 544/544/457
f 577/577/478 593/593/487 597/597/490
f 531/531/444 517/517/435 623/623/507
f 497/497/419 494/494/418 491/491/416
f 458/458/389 536/536/449 469/469/400
f 491/491/416 498/498/420 497/497/419
f 487/487/414 486/486/413 290/290/245
f 511/511/430 533/533/446 566/566/472
f 122/122/102 342/342/286 341/341/285
f 477/477/406 476/476/405 488/488/415
f 427/427/362 445/445/375 468/468/399
f 604/604/496 158/158/135 334/334/279
f 475/475/404 453/453/384 454/454/385
f 397/397/335 542/542/455 471/471/402
f 454/454/385 480/480/408 475/475/404
f 463/463/394 475/475/404 480/480/408
f 393/393/332 394/394/333 535/535/448
f 453/453/384 451/451/382 450/450/381
f 541/541/454 600/600/493 24/24/21
f 472/472/400 600/600/493 624/624/398
f 428/428/363 474/474/393 405/405/343
f 625/625/488 626/626/483 186/186/157
f 469/469/400 466/466/397 458/458/389
f 442/442/375 451/451/382 453/453/384
f 458/458/389 466/466/397 459/459/390
f 24/24/21 600/600/493 374/374/316
f 198/198/169 194/194/165 111/111/91
f 440/440/373 485/485/412 347/347/290
f 586/586/482 381/381/322 50/50/41
f 408/408/346 438/438/371 414/414/350
f 451/451/382 442/442/375 432/432/366
f 556/556/453 394/394/333 460/460/391
f 473/473/403 525/525/441 245/245/207
f 220/220/186 627/627/507 558/558/433
f 429/429/364 64/64/51 102/102/83
f 610/610/501 363/363/306 424/424/336
f 362/362/305 628/628/508 601/601/494
f 136/136/116 304/304/258 282/282/238
f 611/611/502 92/92/74 91/91/73
f 304/304/258 411/411/130 413/413/349
f 303/303/257 326/326/271 301/301/256
f 601/601/494 421/421/357 362/362/305
f 628/628/508 195/195/166 601/601/494
f 326/326/271 408/408/346 301/301/256
f 395/395/195 129/129/109 135/135/115
f 620/620/506 368/368/310 604/604/496
f 591/591/485 375/375/317 622/622/506
f 549/549/460 629/629/509 550/550/461
f 630/630/510 631/631/225 190/190/161
f 321/321/268 450/450/381 452/452/383
f 207/207/176 361/361/304 204/204/173
f 420/420/356 422/422/358 424/424/336
f 422/422/358 632/632/511 424/424/336
f 309/309/260 312/312/263 533/533/446
f 532/532/445 613/613/230 309/309/260
f 532/532/445 511/511/430 513/513/429
f 363/363/306 396/396/334 364/364/307
f 557/557/465 369/369/311 86/86/68
f 242/242/204 245/245/207 243/243/205
f 452/452/383 633/633/206 322/322/204
f 634/634/146 635/635/512 636/636/513
f 340/340/284 439/439/372 444/444/377
f 126/126/106 128/128/108 231/231/196
f 383/383/146 388/388/328 609/609/232
f 586/586/482 50/50/41 195/195/166
f 449/449/380 456/456/387 565/565/471
f 451/451/382 432/432/366 455/455/386
f 625/625/488 186/186/157 185/185/156
f 452/452/383 449/449/380 564/564/470
f 585/585/479 452/452/383 564/564/470
f 296/296/251 226/226/191 637/637/514
f 361/361/304 207/207/176 375/375/317
f 553/553/462 392/392/331 391/391/330
f 419/419/355 418/418/354 426/426/361
f 163/163/139 378/378/320 380/380/321
f 371/371/313 373/373/315 568/568/474
f 400/400/338 638/638/194 373/373/315
f 325/325/138 569/569/475 568/568/474
f 348/348/291 336/336/281 335/335/280
f 120/120/100 122/122/102 188/188/159
f 336/336/281 348/348/291 485/485/412
f 352/352/295 354/354/297 639/639/281
f 223/223/188 372/372/314 557/557/465
f 465/465/396 80/80/63 7/7/6
f 369/369/311 368/368/310 86/86/68
f 640/640/515 485/485/412 484/484/411
f 641/641/411 642/642/516 353/353/296
f 336/336/281 485/485/412 640/640/515
f 348/348/291 347/347/290 485/485/412
f 643/643/517 644/644/518 421/421/357
f 591/591/485 297/297/252 637/637/514
f 97/97/79 210/210/170 209/209/178
f 225/225/190 316/316/266 315/315/265
f 365/365/308 366/366/189 328/328/273
f 225/225/190 224/224/189 355/355/298
f 253/253/214 577/577/478 576/576/477
f 351/351/294 253/253/214 576/576/477
f 643/643/517 198/198/169 199/199/170
f 210/210/170 99/99/81 645/645/517
f 331/331/276 611/611/502 91/91/73
f 297/297/252 296/296/251 637/637/514
f 504/504/424 646/646/519 503/503/220
f 470/470/401 11/11/10 10/10/9
f 593/593/487 577/577/478 253/253/214
f 30/30/26 345/345/288 15/15/14
f 564/564/470 565/565/471 584/584/481
f 347/347/290 567/567/473 441/441/374
f 647/647/520 648/648/25 649/649/13
f 278/278/224 625/625/488 185/185/156
f 650/650/13 651/651/12 652/652/22
f 368/368/310 159/159/136 604/604/496
f 553/553/462 565/565/471 392/392/331
f 565/565/471 555/555/464 584/584/481
f 587/587/376 381/381/322 586/586/482
f 333/333/278 157/157/134 165/165/141
f 158/158/135 333/333/278 334/334/279
f 569/569/475 325/325/138 157/157/134
f 165/165/141 147/147/125 333/333/278
f 653/653/521 643/643/517 421/421/357
f 384/384/324 393/393/332 535/535/448
f 298/298/253 297/297/252 314/314/123
f 334/334/279 654/654/522 655/655/523
f 656/656/358 385/385/325 384/384/324
f 145/145/123 654/654/522 146/146/124
f 290/290/245 486/486/413 291/291/246
f 604/604/496 655/655/523 620/620/506
f 643/643/517 653/653/521 198/198/169
f 265/265/225 586/586/482 628/628/508
f 183/183/95 282/282/238 413/413/349
f 637/637/514 360/360/303 591/591/485
f 258/258/217 208/208/177 281/281/237
f 263/263/223 265/265/225 364/364/307
f 234/234/199 280/280/236 231/231/196
f 630/630/510 190/190/161 189/189/160
f 657/657/505 561/561/467 560/560/466
f 658/658/415 248/248/210 478/478/407
f 168/168/144 181/181/76 176/176/151
f 393/393/332 384/384/324 346/346/289
f 258/258/217 281/281/237 338/338/282
f 423/423/359 425/425/360 539/539/452
f 122/122/102 341/341/285 189/189/160
f 495/495/301 247/247/209 249/249/211
f 659/659/379 390/390/329 433/433/367
f 487/487/414 290/290/245 499/499/421
f 266/266/226 139/139/118 142/142/120
f 471/471/402 583/583/480 660/660/464
f 661/661/524 370/370/312 52/52/42
f 546/546/458 617/617/487 120/120/100
f 390/390/329 392/392/331 456/456/387
f 465/465/396 71/71/57 646/646/519
f 234/234/199 504/504/424 338/338/282
f 589/589/484 342/342/286 605/605/497
f 662/662/525 475/475/404 462/462/393
f 341/341/285 444/444/377 630/630/510
f 295/295/250 459/459/390 466/466/397
f 662/662/525 442/442/375 453/453/384
f 444/444/377 341/341/285 340/340/284
f 630/630/510 189/189/160 341/341/285
f 258/258/217 338/338/282 503/503/220
f 449/449/380 451/451/382 455/455/386
f 235/235/200 410/410/348 561/561/467
f 619/619/467 589/589/484 605/605/497
f 549/549/460 249/249/211 248/248/210
f 263/263/223 594/594/488 264/264/224
f 313/313/264 255/255/216 254/254/215
f 160/160/137 94/94/76 266/266/226
f 217/217/183 274/274/232 218/218/184
f 444/444/377 439/439/372 367/367/309
f 496/496/244 663/663/339 247/247/209
f 271/271/231 343/343/287 275/275/233
f 504/504/424 234/234/199 465/465/396
f 618/618/505 340/340/284 589/589/484
f 610/610/501 543/543/456 396/396/334
f 15/15/14 14/14/13 531/531/444
f 394/394/333 335/335/280 461/461/392
f 285/285/241 290/290/245 292/292/247
f 284/284/240 290/290/245 285/285/241
f 592/592/486 591/591/485 622/622/506
f 226/226/191 225/225/190 360/360/303
f 600/600/493 541/541/454 624/624/398
f 237/237/201 253/253/214 351/351/294
f 465/465/396 128/128/108 80/80/63
f 401/401/339 287/287/243 406/406/344
f 516/516/434 517/517/435 522/522/439
f 664/664/518 385/385/325 656/656/358
f 376/376/318 86/86/68 377/377/319
f 665/665/270 29/29/25 28/28/24
f 618/618/505 666/666/192 233/233/198
f 313/313/264 254/254/215 537/537/450
f 645/645/517 99/99/81 567/567/473
f 567/567/473 664/664/518 645/645/517
f 227/227/192 657/657/505 606/606/498
f 667/667/439 668/668/420 669/669/526
f 491/491/416 493/493/255 670/670/527
f 404/404/342 287/287/243 286/286/242
f 286/286/242 430/430/247 404/404/342
f 219/219/185 92/92/74 611/611/502
f 431/431/365 671/671/528 554/554/463
f 671/671/528 431/431/365 430/430/247
f 672/672/463 538/538/451 552/552/353
f 347/347/290 385/385/325 567/567/473
f 82/82/65 68/68/55 67/67/54
f 213/213/180 92/92/74 219/219/185
f 400/400/338 233/233/198 638/638/194
f 513/513/429 673/673/302 602/602/461
f 441/441/374 98/98/80 271/271/231
f 486/486/413 457/457/388 538/538/451
f 538/538/451 291/291/246 486/486/413
f 206/206/175 145/145/123 144/144/122
f 217/217/183 219/219/185 330/330/275
f 294/294/249 459/459/390 295/295/250
f 674/674/529 259/259/219 260/260/220
f 112/112/92 198/198/169 111/111/91
f 674/674/529 675/675/519 74/74/58
f 352/352/295 641/641/411 353/353/296
f 351/351/294 576/576/477 354/354/297
f 313/313/264 314/314/123 317/317/175
f 618/618/505 232/232/197 340/340/284
f 676/676/228 629/629/509 549/549/460
f 147/147/125 146/146/124 333/333/278
f 417/417/353 302/302/248 409/409/347
f 677/677/124 678/678/252 679/679/279
f 293/293/248 552/552/353 294/294/249
f 641/641/411 680/680/530 642/642/516
f 257/257/218 259/259/219 254/254/215
f 550/550/461 548/548/302 249/249/211
f 410/410/348 353/353/296 642/642/516
f 409/409/347 415/415/351 417/417/353
f 569/569/475 159/159/136 371/371/313
f 448/448/379 435/435/367 438/438/371
f 192/192/163 50/50/41 49/49/40
f 252/252/213 77/77/60 519/519/437
f 346/346/289 335/335/280 393/393/332
f 261/261/221 143/143/121 262/262/222
f 621/621/319 375/375/317 55/55/45
f 681/681/229 488/488/415 489/489/230
f 519/519/437 77/77/60 563/563/469
f 232/232/197 618/618/505 233/233/198
f 559/559/432 682/682/42 683/683/227
f 49/49/40 193/193/164 192/192/163
f 272/272/44 684/684/43 563/563/469
f 473/473/403 245/245/207 374/374/316
f 302/302/248 301/301/256 409/409/347
f 439/439/372 615/615/503 47/47/38
f 642/642/516 607/607/499 560/560/466
f 467/467/398 460/460/391 295/295/250
f 607/607/499 606/606/498 560/560/466
f 655/655/523 604/604/496 334/334/279
f 234/234/199 281/281/237 280/280/236
f 259/259/219 674/674/529 179/179/153
f 187/187/158 186/186/157 553/553/462
f 553/553/462 555/555/464 565/565/471
f 379/379/315 229/229/194 386/386/326
f 538/538/451 459/459/390 294/294/249
f 607/607/499 642/642/516 680/680/530
f 547/547/459 120/120/100 188/188/159
f 223/223/188 233/233/198 400/400/338
f 508/508/427 627/627/507 1/1/1
f 291/291/246 538/538/451 672/672/463
f 606/606/498 657/657/505 560/560/466
f 138/138/117 685/685/86 177/177/152
f 31/31/27 531/531/444 623/623/507
f 390/390/329 616/616/504 391/391/330
f 178/178/49 177/177/152 685/685/86
f 371/371/313 369/369/311 372/372/314
f 187/187/158 188/188/159 185/185/156
f 546/546/458 547/547/459 391/391/330
f 198/198/169 601/601/494 194/194/165
f 567/567/473 385/385/325 664/664/518
f 175/175/126 418/418/354 166/166/142
f 613/613/230 310/310/261 309/309/260
f 40/40/34 64/64/51 429/429/364
f 631/631/225 278/278/224 190/190/161
f 191/191/162 259/259/219 179/179/153
f 259/259/219 180/180/154 254/254/215
f 612/612/259 532/532/445 603/603/495
f 75/75/57 74/74/58 675/675/519
f 254/254/215 180/180/154 537/537/450
f 174/174/150 169/169/145 171/171/147
f 438/438/371 435/435/367 414/414/350
f 489/489/230 476/476/405 319/319/261
f 421/421/357 420/420/356 362/362/305
f 67/67/54 83/83/66 82/82/65
f 343/343/287 218/218/184 275/275/233
f 304/304/258 136/136/116 407/407/345
f 537/537/450 419/419/355 298/298/253
f 118/118/98 197/197/168 200/200/171
f 628/628/508 362/362/305 364/364/307
f 431/431/365 428/428/363 405/405/343
f 394/394/333 461/461/392 460/460/391
f 586/586/482 195/195/166 628/628/508
f 615/615/503 439/439/372 340/340/284
f 662/662/525 453/453/384 475/475/404
f 243/243/205 245/245/207 525/525/441
f 615/615/503 232/232/197 90/90/72
f 624/624/398 541/541/454 540/540/453
f 603/603/495 532/532/445 513/513/429
f 198/198/169 653/653/521 601/601/494
f 206/206/175 144/144/122 117/117/97
f 426/426/361 226/226/191 419/419/355
f 48/48/39 1/1/1 220/220/186
f 474/474/393 490/490/395 405/405/343
f 429/429/364 674/674/529 74/74/58
f 170/170/146 274/274/232 217/217/183
f 449/449/380 455/455/386 456/456/387
f 220/220/186 1/1/1 627/627/507
f 76/76/59 272/272/44 563/563/469
f 557/557/465 88/88/70 223/223/188
f 311/311/262 243/243/205 312/312/263
f 160/160/137 142/142/120 143/143/121
f 224/224/189 226/226/191 426/426/361
f 226/226/191 360/360/303 637/637/514
f 158/158/135 157/157/134 333/333/278
f 265/265/225 628/628/508 364/364/307
f 321/321/268 323/323/269 454/454/385
f 411/411/130 304/304/258 305/305/235
f 535/535/448 614/614/452 399/399/337
f 323/323/269 320/320/267 480/480/408
f 598/598/491 447/447/378 438/438/371
f 321/321/268 452/452/383 322/322/204
f 537/537/450 180/180/154 167/167/143
f 559/559/432 686/686/524 682/682/42
f 531/531/444 31/31/27 15/15/14
f 674/674/529 260/260/220 675/675/519
f 421/421/357 601/601/494 653/653/521
f 241/241/203 243/243/205 311/311/262
f 544/544/457 541/541/454 599/599/492
f 318/318/262 320/320/267 323/323/269
f 397/397/335 588/588/483 594/594/488
f 644/644/518 422/422/358 421/421/357
f 221/221/61 220/220/186 559/559/432
f 559/559/432 683/683/227 221/221/61
f 616/616/504 390/390/329 659/659/379
f 157/157/134 159/159/136 569/569/475
f 171/171/147 170/170/146 217/217/183
f 446/446/257 461/461/392 337/337/272
f 512/512/431 511/511/430 566/566/472
f 368/368/310 377/377/319 86/86/68
f 125/125/105 276/276/234 200/200/171
f 576/576/477 575/575/476 595/595/489
f 543/543/456 423/423/359 544/544/457
f 124/124/104 276/276/234 125/125/105
f 470/470/401 543/543/456 544/544/457
f 595/595/489 639/639/281 354/354/297
f 83/83/66 350/350/293 84/84/67
f 330/330/275 611/611/502 331/331/276
f 124/124/104 280/280/236 276/276/234
f 397/397/335 396/396/334 542/542/455
f 356/356/299 498/498/420 37/37/32
f 606/606/498 228/228/193 227/227/192
f 461/461/392 335/335/280 337/337/272
f 639/639/281 595/595/489 327/327/272
f 123/123/103 125/125/105 277/277/235
f 208/208/177 116/116/96 281/281/237
f 633/633/206 452/452/383 585/585/479
f 562/562/468 312/312/263 243/243/205
f 213/213/180 97/97/79 209/209/178
f 437/437/370 326/326/271 595/595/489
f 595/595/489 354/354/297 576/576/477
f 437/437/370 598/598/491 438/438/371
f 607/607/499 387/387/327 228/228/193
f 363/363/306 420/420/356 424/424/336
f 471/471/402 10/10/9 583/583/480
f 598/598/491 437/437/370 575/575/476
f 213/213/180 219/219/185 212/212/179
f 597/597/490 598/598/491 577/577/478
f 577/577/478 598/598/491 575/575/476
f 471/471/402 660/660/464 588/588/483
f 213/213/180 98/98/80 97/97/79
f 149/149/127 94/94/76 160/160/137
f 350/350/293 83/83/66 20/20/18
f 180/180/154 259/259/219 191/191/162
f 666/666/192 638/638/194 233/233/198
f 431/431/365 554/554/463 416/416/352
f 626/626/483 555/555/464 186/186/157
f 271/271/231 687/687/530 440/440/373
f 208/208/177 117/117/97 116/116/96
f 515/515/433 623/623/507 517/517/435
f 65/65/52 62/62/50 59/59/47
f 615/615/503 90/90/72 89/89/71
f 62/62/50 60/60/48 59/59/47
f 85/85/56 66/66/53 178/178/49
f 440/440/373 441/441/374 271/271/231
f 82/82/65 395/395/195 135/135/115
f 631/631/225 630/630/510 443/443/376
f 248/248/210 676/676/228 549/549/460
f 375/375/317 591/591/485 361/361/304
f 275/275/233 687/687/530 271/271/231
f 440/440/373 687/687/530 484/484/411
f 443/443/376 630/630/510 444/444/377
f 680/680/530 608/608/500 607/607/499
f 248/248/210 688/688/229 676/676/228
f 642/642/516 560/560/466 410/410/348
f 465/465/396 7/7/6 71/71/57
f 614/614/452 394/394/333 556/556/453
f 465/465/396 646/646/519 504/504/424
f 202/202/130 277/277/235 200/200/171
f 232/232/197 615/615/503 340/340/284
f 689/689/228 612/612/259 603/603/495
f 280/280/236 116/116/96 276/276/234
f 543/543/456 470/470/401 542/542/455
f 690/690/531 518/518/436 5/5/2
f 222/222/187 48/48/39 220/220/186
f 23/23/20 32/32/28 350/350/293
f 690/690/531 252/252/213 518/518/436
f 509/509/428 3/3/3 33/33/29
f 23/23/20 20/20/18 19/19/16
f 23/23/20 22/22/19 33/33/29
f 690/690/531 81/81/64 252/252/213
f 320/320/267 477/477/406 463/463/394
f 663/663/339 479/479/341 247/247/209
f 29/29/25 665/665/270 356/356/299
f 497/497/419 356/356/299 691/691/436
f 470/470/401 599/599/492 11/11/10
f 401/401/339 406/406/344 402/402/340
f 477/477/406 464/464/395 463/463/394
f 477/477/406 596/596/447 692/692/532
f 477/477/406 692/692/532 464/464/395
f 520/520/419 518/518/436 252/252/213
f 33/33/29 3/3/3 32/32/28
f 693/693/439 491/491/416 670/670/527
f 16/16/15 345/345/288 25/25/19
f 16/16/15 13/13/12 345/345/288
f 432/432/366 390/390/329 455/455/386
f 429/429/364 179/179/153 674/674/529
f 223/223/188 400/400/338 372/372/314
f 356/356/299 665/665/270 691/691/436
