# Blender 4.0.2
# www.blender.org
mtllib dagger.mtl
o Dagger_Material.002_0
v 0.017471 0.428954 -0.003287
v 0.017471 0.428954 0.003496
v 0.058980 0.345762 0.000105
v -0.053265 0.322476 0.000105
v 0.017471 0.428954 0.003496
v 0.017471 0.428954 -0.003287
v 0.007175 0.333366 0.011407
v 0.017471 0.428954 0.003496
v -0.053265 0.322476 0.000105
v 0.058980 0.345762 0.000105
v -0.000711 0.063077 -0.037794
v -0.000711 0.063077 0.038004
v -0.044180 0.063077 0.000105
v 0.042757 0.063077 0.000105
v -0.000711 0.331201 -0.014912
v -0.053265 0.322476 0.000105
v 0.017471 0.428954 -0.003287
v 0.058980 0.345762 0.000105
v -0.000711 0.331201 -0.014912
v 0.017471 0.428954 -0.003287
v -0.000711 0.021768 -0.018765
v -0.014054 0.021768 -0.013238
v -0.015670 0.063879 -0.014854
v -0.000711 0.063879 -0.021050
v -0.019582 0.021768 0.000105
v -0.021866 0.063879 0.000105
v -0.014054 0.021768 0.013448
v -0.015670 0.063879 0.015064
v -0.000711 0.021768 0.018975
v -0.000711 0.063879 0.021260
v 0.012632 0.021768 0.013448
v 0.014248 0.063879 0.015064
v 0.018159 0.021768 0.000105
v 0.020443 0.063879 0.000105
v 0.018159 0.021768 0.000105
v 0.012632 0.021768 -0.013238
v 0.014248 0.063879 -0.014854
v 0.020443 0.063879 0.000105
v -0.015670 -0.060451 -0.014854
v -0.021155 -0.061903 -0.020339
v -0.029624 -0.061903 0.000105
v -0.021866 -0.060451 0.000105
v -0.000711 -0.060451 0.021260
v -0.000711 -0.061903 0.029017
v 0.019733 -0.061903 0.020549
v 0.014248 -0.060451 0.015064
v 0.014248 -0.060451 -0.014854
v 0.019733 -0.061903 -0.020339
v -0.000711 -0.061903 -0.028807
v -0.000711 -0.060451 -0.021050
v -0.021155 -0.061903 0.020549
v -0.015670 -0.060451 0.015064
v 0.028201 -0.061903 0.000105
v 0.020443 -0.060451 0.000105
v 0.020443 -0.060451 0.000105
v 0.028201 -0.061903 0.000105
v -0.000711 -0.061903 0.029017
v -0.000711 -0.089246 0.038683
v 0.026567 -0.089246 0.027384
v 0.019733 -0.061903 0.020549
v -0.029624 -0.061903 0.000105
v -0.039289 -0.089246 0.000105
v -0.027990 -0.089246 0.027384
v -0.021155 -0.061903 0.020549
v -0.000711 -0.061903 -0.028807
v -0.000711 -0.089246 -0.038473
v -0.027990 -0.089246 -0.027174
v -0.021155 -0.061903 -0.020339
v 0.019733 -0.061903 -0.020339
v 0.026567 -0.089246 -0.027174
v 0.037866 -0.089246 0.000105
v 0.028201 -0.061903 0.000105
v 0.014248 -0.060451 -0.014854
v -0.000711 -0.060451 -0.021050
v -0.000711 -0.019342 -0.018765
v 0.012632 -0.019342 -0.013238
v 0.020443 -0.060451 0.000105
v 0.018159 -0.019342 0.000105
v 0.014248 -0.060451 0.015064
v 0.020443 -0.060451 0.000105
v 0.018159 -0.019342 0.000105
v 0.012632 -0.019342 0.013448
v -0.000711 -0.060451 0.021260
v -0.000711 -0.019342 0.018975
v -0.015670 -0.060451 0.015064
v -0.014054 -0.019342 0.013448
v -0.021866 -0.060451 0.000105
v -0.019582 -0.019342 0.000105
v -0.015670 -0.060451 -0.014854
v -0.014054 -0.019342 -0.013238
v 0.028201 -0.061903 0.000105
v 0.037866 -0.089246 0.000105
v 0.002520 0.291660 0.010532
v 0.044557 0.291757 0.000105
v -0.047911 0.291768 0.000105
v 0.002520 0.291660 0.010532
v -0.000711 0.082701 0.011751
v -0.000711 0.082701 0.038004
v 0.042757 0.082701 0.000105
v 0.031799 0.082701 0.000105
v -0.033221 0.082701 0.000105
v -0.044180 0.082701 0.000105
v -0.044180 0.082701 0.000105
v -0.044180 0.063077 0.000105
v -0.000711 0.063077 0.038004
v -0.000711 0.082701 0.038004
v -0.000711 0.082701 0.038004
v -0.000711 0.063077 0.038004
v 0.042757 0.063077 0.000105
v 0.042757 0.082701 0.000105
v -0.033221 0.082701 0.000105
v -0.000711 0.082701 0.011751
v -0.000711 0.206951 0.013436
v -0.037927 0.206951 0.000105
v -0.000711 0.082701 0.011751
v 0.031799 0.082701 0.000105
v 0.036504 0.206951 0.000105
v -0.000711 0.206951 0.013436
v -0.000711 0.291757 -0.014377
v 0.044557 0.291757 0.000105
v -0.047911 0.291768 0.000105
v -0.000711 0.291757 -0.014377
v -0.000711 0.082701 -0.011541
v -0.000711 0.082701 -0.037794
v -0.044180 0.082701 0.000105
v -0.000711 0.082701 -0.037794
v -0.000711 0.063077 -0.037794
v -0.044180 0.063077 0.000105
v -0.000711 0.082701 -0.037794
v 0.042757 0.082701 0.000105
v 0.042757 0.063077 0.000105
v -0.000711 0.063077 -0.037794
v -0.033221 0.082701 0.000105
v -0.037927 0.206951 0.000105
v -0.000711 0.206951 -0.013226
v -0.000711 0.082701 -0.011541
v -0.000711 0.082701 -0.011541
v -0.000711 0.206951 -0.013226
v 0.036504 0.206951 0.000105
v 0.031799 0.082701 0.000105
v -0.000711 -0.089246 -0.038473
v 0.026567 -0.089246 -0.027174
v 0.037866 -0.089246 0.000105
v 0.026567 -0.089246 0.027384
v -0.000711 -0.089246 0.038683
v -0.027990 -0.089246 0.027384
v -0.039289 -0.089246 0.000105
v -0.027990 -0.089246 -0.027174
vn 0.8948 0.4465 -0.0000
vn -0.8330 0.5533 -0.0000
vn 0.0118 0.0226 0.9997
vn 0.0166 0.0807 0.9966
vn -0.1946 0.0259 0.9805
vn 0.2143 0.0082 0.9767
vn -0.0000 -1.0000 -0.0000
vn -0.2912 0.0833 -0.9530
vn -0.2878 0.0401 -0.9569
vn -0.2964 0.1670 -0.9403
vn 0.2493 0.0191 -0.9682
vn 0.2577 -0.0012 -0.9662
vn 0.2264 0.0734 -0.9713
vn -0.0000 -0.0273 -0.9996
vn -0.7068 -0.0273 -0.7068
vn -0.7061 -0.0542 -0.7061
vn -0.0000 -0.0542 -0.9985
vn -0.9996 -0.0273 -0.0000
vn -0.9985 -0.0542 -0.0000
vn -0.7068 -0.0273 0.7068
vn -0.7061 -0.0542 0.7061
vn -0.0000 -0.0273 0.9996
vn -0.0000 -0.0542 0.9985
vn 0.7068 -0.0273 0.7068
vn 0.7061 -0.0542 0.7061
vn 0.9996 -0.0273 -0.0000
vn 0.9985 -0.0541 -0.0000
vn 0.7068 -0.0273 -0.7068
vn 0.7061 -0.0542 -0.7061
vn -0.1300 0.9829 -0.1300
vn -0.1839 0.9829 -0.0000
vn -0.0000 0.9829 0.1839
vn 0.1300 0.9829 0.1300
vn 0.1300 0.9829 -0.1300
vn -0.0000 0.9829 -0.1839
vn -0.1300 0.9829 0.1300
vn 0.1839 0.9829 -0.0000
vn -0.0000 0.3333 0.9428
vn 0.6667 0.3333 0.6667
vn -0.9428 0.3333 -0.0000
vn -0.6667 0.3333 0.6667
vn -0.0000 0.3333 -0.9428
vn -0.6667 0.3333 -0.6667
vn 0.6667 0.3333 -0.6667
vn 0.9428 0.3333 -0.0000
vn 0.7060 0.0555 -0.7060
vn -0.0000 0.0555 -0.9985
vn -0.0000 0.0279 -0.9996
vn 0.7068 0.0279 -0.7068
vn 0.9985 0.0555 -0.0000
vn 0.9996 0.0279 -0.0000
vn 0.7060 0.0555 0.7060
vn 0.7068 0.0279 0.7068
vn -0.0000 0.0555 0.9985
vn -0.0000 0.0279 0.9996
vn -0.7060 0.0555 0.7060
vn -0.7068 0.0279 0.7068
vn -0.9985 0.0555 -0.0000
vn -0.9996 0.0279 -0.0000
vn -0.7060 0.0555 -0.7060
vn -0.7068 0.0279 -0.7068
vn 0.2612 -0.0277 0.9649
vn 0.2570 -0.0317 0.9659
vn -0.2233 -0.0047 0.9747
vn -0.2250 -0.0042 0.9744
vn -0.0000 1.0000 -0.0000
vn -0.6572 -0.0000 0.7537
vn 0.6572 -0.0000 0.7537
vn -0.3372 -0.0128 0.9413
vn -0.2993 -0.0032 0.9541
vn -0.2979 -0.0029 0.9546
vn 0.3372 -0.0128 0.9413
vn 0.3113 -0.0075 0.9503
vn 0.3127 -0.0078 0.9498
vn 0.2980 -0.0349 -0.9539
vn 0.2958 -0.0363 -0.9545
vn -0.2956 -0.0270 -0.9549
vn -0.2970 -0.0268 -0.9545
vn -0.6572 -0.0000 -0.7537
vn 0.6572 -0.0000 -0.7537
vn -0.3372 -0.0128 -0.9413
vn -0.3245 -0.0191 -0.9457
vn -0.3250 -0.0188 -0.9455
vn 0.3372 -0.0128 -0.9413
vn 0.3284 -0.0172 -0.9444
vn 0.3280 -0.0174 -0.9445
vt 0.933942 0.017185
vt 0.938076 0.019002
vt 0.911107 0.074753
vt 0.990981 0.088217
vt 0.941732 0.016351
vt 0.946614 0.082370
vt 0.700030 0.078902
vt 0.661873 0.112169
vt 0.661873 0.073653
vt 0.700030 0.117418
vt 0.951999 0.083814
vt 0.484861 0.043229
vt 0.475942 0.043092
vt 0.476508 0.014867
vt 0.486067 0.015177
vt 0.466963 0.043050
vt 0.466934 0.014758
vt 0.457984 0.043102
vt 0.457361 0.014878
vt 0.449066 0.043248
vt 0.447808 0.015199
vt 0.440274 0.043500
vt 0.438282 0.015747
vt 0.431685 0.043872
vt 0.428793 0.016573
vt 0.502242 0.043835
vt 0.493653 0.043471
vt 0.495603 0.015716
vt 0.505106 0.016532
vt 0.491420 0.596114
vt 0.485866 0.593313
vt 0.493347 0.582454
vt 0.497941 0.587180
vt 0.519827 0.577137
vt 0.518726 0.569961
vt 0.534219 0.570473
vt 0.532579 0.577702
vt 0.489079 0.616230
vt 0.483480 0.617648
vt 0.482552 0.605427
vt 0.488462 0.606178
vt 0.504643 0.574198
vt 0.507720 0.580420
vt 0.549900 0.576495
vt 0.544141 0.582353
vt 0.493103 0.624624
vt 0.488872 0.629300
vt 0.515293 0.549622
vt 0.537585 0.549173
vt 0.479281 0.569947
vt 0.495178 0.556924
vt 0.465468 0.604092
vt 0.469502 0.586358
vt 0.467026 0.621703
vt 0.559862 0.556036
vt 0.495629 0.098021
vt 0.486112 0.098571
vt 0.484879 0.071200
vt 0.493671 0.070946
vt 0.505106 0.097190
vt 0.502257 0.070570
vt 0.438369 0.098053
vt 0.428876 0.097231
vt 0.431698 0.070607
vt 0.440285 0.070974
vt 0.447895 0.098592
vt 0.449077 0.071219
vt 0.457444 0.098902
vt 0.457997 0.071358
vt 0.467008 0.099011
vt 0.466978 0.071401
vt 0.476569 0.098892
vt 0.475959 0.071349
vt 0.473761 0.637963
vt 0.950568 0.109863
vt 0.921081 0.110718
vt 0.987134 0.109125
vt 0.410717 0.157771
vt 0.394497 0.157771
vt 0.411275 0.125129
vt 0.413201 0.132842
vt 0.413201 0.182700
vt 0.411275 0.190414
vt 0.398384 0.196854
vt 0.382982 0.157771
vt 0.398384 0.118689
vt 0.980787 0.249158
vt 0.957599 0.249837
vt 0.954776 0.166437
vt 0.981305 0.165636
vt 0.934419 0.250724
vt 0.928254 0.167433
vt 0.952861 0.109752
vt 0.478532 0.120578
vt 0.444869 0.134521
vt 0.458813 0.120578
vt 0.492476 0.134521
vt 0.444869 0.154241
vt 0.492476 0.154241
vt 0.458813 0.168184
vt 0.478532 0.168184
s 0
usemtl Material.006
f 1/1/1 2/2/1 3/3/1
f 4/4/2 5/2/2 6/5/2
s 1
f 7/6/3 8/2/4 9/4/5
f 10/3/6 8/2/4 7/6/3
s 0
f 11/7/7 12/8/7 13/9/7
f 14/10/7 12/8/7 11/7/7
s 1
f 15/11/8 16/4/9 17/2/10
f 18/3/11 19/11/12 20/2/13
f 21/12/14 22/13/15 23/14/16
f 21/12/14 23/14/16 24/15/17
f 22/13/15 25/16/18 26/17/19
f 22/13/15 26/17/19 23/14/16
f 25/16/18 27/18/20 28/19/21
f 25/16/18 28/19/21 26/17/19
f 27/18/20 29/20/22 30/21/23
f 27/18/20 30/21/23 28/19/21
f 29/20/22 31/22/24 32/23/25
f 29/20/22 32/23/25 30/21/23
f 31/22/24 33/24/26 34/25/27
f 31/22/24 34/25/27 32/23/25
f 35/26/26 36/27/28 37/28/29
f 35/26/26 37/28/29 38/29/27
f 36/27/28 21/12/14 24/15/17
f 36/27/28 24/15/17 37/28/29
f 39/30/30 40/31/30 41/32/31
f 39/30/30 41/32/31 42/33/31
f 43/34/32 44/35/32 45/36/33
f 43/34/32 45/36/33 46/37/33
f 47/38/34 48/39/34 49/40/35
f 47/38/34 49/40/35 50/41/35
f 50/41/35 49/40/35 40/31/30
f 50/41/35 40/31/30 39/30/30
f 42/33/31 41/32/31 51/42/36
f 42/33/31 51/42/36 52/43/36
f 46/37/33 45/36/33 53/44/37
f 46/37/33 53/44/37 54/45/37
f 52/43/36 51/42/36 44/35/32
f 52/43/36 44/35/32 43/34/32
f 55/46/37 56/47/37 48/39/34
f 55/46/37 48/39/34 47/38/34
f 57/35/38 58/48/38 59/49/39
f 57/35/38 59/49/39 60/36/39
f 61/32/40 62/50/40 63/51/41
f 61/32/40 63/51/41 64/42/41
f 65/40/42 66/52/42 67/53/43
f 65/40/42 67/53/43 68/31/43
f 69/39/44 70/54/44 66/52/42
f 69/39/44 66/52/42 65/40/42
f 60/36/39 59/49/39 71/55/45
f 60/36/39 71/55/45 72/44/45
f 64/42/41 63/51/41 58/48/38
f 64/42/41 58/48/38 57/35/38
f 68/31/43 67/53/43 62/50/40
f 68/31/43 62/50/40 61/32/40
f 73/56/46 74/57/47 75/58/48
f 73/56/46 75/58/48 76/59/49
f 76/59/49 75/58/48 21/12/14
f 76/59/49 21/12/14 36/27/28
f 77/60/50 73/56/46 76/59/49
f 77/60/50 76/59/49 78/61/51
f 78/61/51 76/59/49 36/27/28
f 78/61/51 36/27/28 35/26/26
f 79/62/52 80/63/50 81/64/51
f 79/62/52 81/64/51 82/65/53
f 82/65/53 81/64/51 33/24/26
f 82/65/53 33/24/26 31/22/24
f 83/66/54 79/62/52 82/65/53
f 83/66/54 82/65/53 84/67/55
f 84/67/55 82/65/53 31/22/24
f 84/67/55 31/22/24 29/20/22
f 85/68/56 83/66/54 84/67/55
f 85/68/56 84/67/55 86/69/57
f 86/69/57 84/67/55 29/20/22
f 86/69/57 29/20/22 27/18/20
f 87/70/58 85/68/56 86/69/57
f 87/70/58 86/69/57 88/71/59
f 88/71/59 86/69/57 27/18/20
f 88/71/59 27/18/20 25/16/18
f 89/72/60 87/70/58 88/71/59
f 89/72/60 88/71/59 90/73/61
f 90/73/61 88/71/59 25/16/18
f 90/73/61 25/16/18 22/13/15
f 74/57/47 89/72/60 90/73/61
f 74/57/47 90/73/61 75/58/48
f 75/58/48 90/73/61 22/13/15
f 75/58/48 22/13/15 21/12/14
f 91/47/45 92/74/45 70/54/44
f 91/47/45 70/54/44 69/39/44
f 93/75/62 94/76/63 10/3/6
f 93/75/62 10/3/6 7/6/3
f 95/77/64 96/75/65 7/6/3
f 95/77/64 7/6/3 9/4/5
s 0
f 97/78/66 98/79/66 99/80/66
f 97/78/66 99/80/66 100/81/66
f 101/82/66 102/83/66 98/79/66
f 101/82/66 98/79/66 97/78/66
f 103/83/67 104/84/67 105/85/67
f 103/83/67 105/85/67 106/79/67
f 107/79/68 108/85/68 109/86/68
f 107/79/68 109/86/68 110/80/68
s 1
f 111/87/69 112/88/69 113/89/70
f 111/87/69 113/89/70 114/90/71
f 115/88/72 116/91/72 117/92/73
f 115/88/72 117/92/73 118/89/74
f 114/90/71 113/89/70 96/75/65
f 114/90/71 96/75/65 95/77/64
f 118/89/74 117/92/73 94/76/63
f 118/89/74 94/76/63 93/75/62
f 119/93/75 19/11/12 18/3/11
f 119/93/75 18/3/11 120/76/76
f 121/77/77 16/4/9 15/11/8
f 121/77/77 15/11/8 122/93/78
s 0
f 123/78/66 100/81/66 99/80/66
f 123/78/66 99/80/66 124/79/66
f 101/82/66 123/78/66 124/79/66
f 101/82/66 124/79/66 102/83/66
f 125/83/79 126/79/79 127/85/79
f 125/83/79 127/85/79 128/84/79
f 129/79/80 130/80/80 131/86/80
f 129/79/80 131/86/80 132/85/80
s 1
f 133/87/81 134/90/82 135/89/83
f 133/87/81 135/89/83 136/88/81
f 137/88/84 138/89/85 139/92/86
f 137/88/84 139/92/86 140/91/84
f 134/90/82 121/77/77 122/93/78
f 134/90/82 122/93/78 135/89/83
f 138/89/85 119/93/75 120/76/76
f 138/89/85 120/76/76 139/92/86
s 0
f 148/94/7 146/95/7 147/96/7
f 146/95/7 148/94/7 141/97/7
f 146/95/7 141/97/7 145/98/7
f 145/98/7 141/97/7 142/99/7
f 145/98/7 142/99/7 144/100/7
f 144/100/7 142/99/7 143/101/7
