# Blender 4.0.2
# www.blender.org
mtllib mango.mtl
o 01_mango_01_mango_0
v -0.037077 2.173845 -3.933307
v 0.469062 2.391434 -3.809741
v 0.090444 1.905886 -4.124561
v 2.655612 3.311030 0.685751
v 3.220811 3.095330 -0.287480
v 2.554028 3.462605 0.093719
v 2.247627 2.750744 2.097770
v 2.633106 2.910896 1.641979
v 1.961982 3.184364 1.756454
v 4.160683 0.639397 0.529614
v 4.016741 0.766940 0.836026
v 4.146313 0.569697 0.750489
v 2.390798 3.574228 -0.749266
v 1.875127 3.753580 0.264026
v 2.554028 3.462605 0.093719
v -1.622512 3.710674 0.622732
v -0.504319 4.000872 0.356819
v -1.423725 3.865172 -0.002341
v 4.274104 1.777556 -0.335879
v 4.394317 1.423807 -0.481073
v 4.293993 1.796377 -0.898024
v 3.989602 2.349313 -0.516690
v 4.111594 2.108530 -0.261792
v 1.902055 -2.490213 0.012337
v 2.051566 -2.386767 0.575861
v 1.471246 -2.569602 0.417946
v 0.387765 3.949304 -1.197191
v -0.707877 3.856903 -1.282409
v -0.225823 4.032338 -0.593911
v 1.249261 2.453489 -3.705669
v 0.813713 2.761983 -3.431805
v 1.606011 2.811065 -3.265335
v 4.431519 0.104330 0.681396
v 4.372385 0.057205 0.817339
v 4.210364 0.018196 0.679736
v 2.064863 -0.356140 3.041054
v 1.363682 -0.332099 3.284889
v 1.616279 -0.746011 3.090183
v 4.055451 -0.076693 0.752392
v 4.087653 -0.052756 0.592189
v 4.130029 0.111929 0.945394
v 4.170414 0.022795 0.802931
v 3.083007 2.194911 1.881478
v 3.125037 2.629787 1.430096
v 2.887365 2.555956 1.792520
v 0.814553 2.211170 2.883100
v 0.076002 1.990073 3.045229
v 0.382375 1.528042 3.233355
v 2.203502 3.268905 1.440055
v 1.961982 3.184364 1.756454
v 2.633106 2.910896 1.641979
v 0.151668 0.984641 -4.382045
v -2.260708 0.520925 -3.995284
v -0.657271 1.431304 -4.151490
v 3.984053 1.815748 -2.113764
v 4.184040 1.625520 -1.812500
v 4.136733 1.231909 -2.140043
v -0.262871 -1.349776 2.865161
v -1.358739 -1.238502 2.709185
v -0.462901 -1.630275 2.556434
v 1.198537 -0.770944 3.186339
v -3.688189 2.669248 -1.549796
v -4.076380 2.238429 -1.921791
v -4.303408 2.181812 -1.412106
v -3.157755 -1.712745 -1.900356
v -3.955739 -1.150877 -2.108061
v -3.524076 -1.206130 -2.471534
v -4.230246 -0.527867 1.288507
v -4.726936 -0.465317 0.430982
v -4.230514 -0.870136 0.870772
v -3.176604 0.627616 2.587547
v -3.177032 1.335844 2.405807
v -3.757236 0.738658 2.150006
v -3.924020 -0.667018 -2.771372
v -3.955739 -1.150877 -2.108061
v -4.382667 -0.590296 -2.351691
v 4.446228 0.116188 0.834145
v 4.390001 0.214504 0.943671
v 0.767193 -0.281341 -4.307419
v 1.015942 -0.933644 -4.013454
v 0.345090 -0.546617 -4.180824
v 4.431519 0.301434 0.905481
v 4.391766 0.426708 0.786649
v 4.071049 0.524612 0.901381
v 4.099549 -0.886120 -0.476657
v 3.834433 -1.263826 -0.265033
v 3.913698 -1.281195 -0.835812
v -2.165576 2.437493 2.277076
v -1.573422 1.774545 2.920301
v -1.053245 2.566722 2.550365
v -2.506683 -2.174721 0.177917
v -2.654502 -2.183372 -0.620382
v -1.597334 -2.489294 -0.294181
v -2.300176 -2.042830 -1.976550
v -2.227308 -2.281276 -1.087700
v -2.902194 -2.015551 -1.254918
v -3.499191 0.327681 -3.583613
v -3.112665 0.291474 -3.763248
v -3.157921 -0.011471 -3.677820
v -4.316493 -1.194565 -0.973265
v -3.497875 -1.742607 -1.111207
v -4.051043 -1.414150 -0.523405
v -0.028940 0.045186 -4.315623
v 4.281838 1.373840 -1.666672
v 4.139788 1.967471 -1.571145
v 2.633106 2.910896 1.641979
v 2.777519 3.109306 1.051773
v 3.532427 2.183903 1.280534
v 3.784541 1.620569 1.136435
v 4.075040 1.967548 0.129443
v -0.667785 0.083175 3.415198
v -1.455856 -0.126936 3.224004
v -0.745106 -0.493446 3.285873
v -0.181699 -2.303867 -2.367877
v -0.153205 -2.045393 -2.833366
v 0.758283 -2.317132 -2.360374
v 2.781505 1.905344 -3.477039
v 2.580366 2.397256 -3.219748
v 3.243962 2.387812 -2.648466
v -0.379781 -0.690309 3.265059
v -0.151777 -1.140396 3.033322
v 0.671521 -0.969944 3.150326
v 4.430411 0.224843 0.594380
v 4.431519 0.104330 0.681396
v 4.221912 0.266412 0.422562
v 0.602458 3.867298 0.962850
v 1.173425 3.874751 0.660347
v 0.550360 4.023339 0.266770
v -5.082199 0.846433 -1.826277
v -4.775965 1.586819 -1.632315
v -4.877097 1.096702 -2.135581
v 2.885606 -0.467700 -3.617047
v 3.041296 -0.999182 -3.142036
v 2.661114 -0.968500 -3.462574
v -3.161616 3.161125 -0.901650
v -3.641328 2.820688 -0.971530
v -3.490875 2.973115 -0.453820
v -5.013183 0.494337 -2.155574
v -4.786803 0.089214 -2.445002
v -5.095878 0.100904 -1.842074
v 0.469062 2.391434 -3.809741
v -3.503967 2.902802 0.301871
v -3.697763 2.684443 0.614209
v -2.855647 3.161735 0.813757
v -3.651858 2.505194 -2.004053
v -4.694805 -0.645656 0.166546
v -4.978587 -0.307027 -0.254261
v 2.480835 1.751485 -3.778848
v 1.842455 2.103080 -3.829092
v 2.153828 2.322584 -3.543300
v 1.090118 2.012800 -4.052722
v 1.249261 2.453489 -3.705669
v 4.130029 0.111929 0.945394
v 3.991682 0.070680 1.015364
v 4.021260 -0.016816 0.931780
v 2.814305 2.871442 -2.488465
v 3.469650 2.456990 1.024761
v 3.919517 2.250120 -1.708980
v 2.058484 0.955475 -4.220860
v 1.830409 1.374696 -4.202534
v 2.439469 1.374339 -3.975672
v 1.635038 -2.083235 -2.614880
v 1.613233 -2.316110 -2.073088
v -2.160365 0.854158 3.034618
v -1.709629 1.496224 2.996818
v -2.675631 1.135189 2.752019
v -5.099195 -0.177736 -1.333003
v -5.220230 0.165560 -1.222033
v 4.353905 1.196815 -1.403242
v 4.330359 1.552637 -1.317401
v -5.225864 0.487485 -1.460043
v -5.250740 0.433596 -0.944678
v -4.526511 1.789538 -1.890093
v -4.529073 1.602061 -2.225994
v -2.515098 3.455202 -1.010987
v -2.743459 3.403312 -0.312007
v 4.493296 0.169470 0.779427
v 4.431519 0.104330 0.681396
v 4.513320 0.276407 0.705621
v -1.042283 1.872701 -3.867046
v 3.699074 -1.146962 -2.062075
v 3.454079 -1.632095 -1.639121
v 2.896906 -1.378233 -2.879898
v 2.693279 0.749009 2.688047
v 3.053034 0.391010 2.445317
v 3.361121 0.894274 2.124493
v 3.613117 2.093810 -2.459679
v 3.574128 1.631917 -2.887976
v -1.650224 -0.583630 3.016614
v 2.772078 -1.585761 1.734380
v 3.235568 -1.069140 1.804062
v 2.800663 -1.194035 2.187835
v 3.715254 0.722702 1.643658
v 3.574113 -0.208404 1.773866
v 3.991682 0.070680 1.015364
v 4.221912 0.266412 0.422562
v 4.185768 0.490874 0.387540
v 4.291105 0.389029 0.518640
v 4.099549 -0.886120 -0.476657
v 4.246557 -0.373588 -0.702773
v 4.165501 -0.523750 -0.221993
v 4.430411 0.224843 0.594380
v -0.027647 3.379386 -2.694578
v 4.493296 0.169470 0.779427
v 2.108140 -1.408930 -3.393486
v 1.632612 -1.271866 -3.681626
v 2.116839 -0.866278 -3.813539
v -4.813659 0.318518 0.827737
v -4.847929 0.851118 0.705097
v -5.056229 0.665341 0.183244
v 2.247696 -2.310593 -1.394417
v 2.605941 -2.161625 -1.505496
v 2.409684 -2.297687 -0.796232
v -1.656715 -2.337045 0.708100
v -0.817855 -2.570813 0.411076
v 4.262750 0.485397 0.600793
v 4.445293 0.334321 0.621218
v -4.557542 -0.206178 -2.547734
v -4.936203 -0.248945 -1.847163
v 1.046440 -0.030930 -4.359449
v 1.426648 0.608843 -4.403384
v 1.871078 0.016065 -4.261982
v 0.286057 -2.690694 -0.862455
v -0.624169 -2.496948 -1.743798
v 0.620486 -2.519553 -1.771652
v 3.338284 2.865608 0.430533
v 3.725284 2.606707 -0.075271
v -4.560984 0.031098 1.139101
v -4.671160 -0.210213 0.819729
v -0.248162 -1.212018 -3.758649
v -0.099211 -0.940263 -3.951321
v 0.674051 -1.154868 -3.879754
v 0.484639 1.474570 -4.330151
v 3.865435 0.952222 -2.758717
v 3.962710 0.447404 -2.583174
v 3.673270 0.238116 -3.063343
v -3.667845 -0.962645 1.527996
v -4.042340 -0.732227 1.339423
v -3.922049 -1.201460 0.809301
v 0.972977 2.728905 2.496940
v 1.108690 3.355723 1.821668
v 0.720408 3.190223 2.058077
v -4.049997 1.932693 -2.445402
v 1.553770 3.326414 -2.583966
v 1.235247 3.646585 -2.086495
v 2.237730 3.395294 -2.073138
v 3.369259 1.090386 -3.353595
v 2.963810 1.490472 -3.580605
v -5.179919 0.829643 -0.798976
v -5.158550 0.915146 -1.387554
v -3.828423 1.320101 -3.141302
v -3.616233 1.618261 -3.093231
v -3.714925 1.024400 -3.335064
v 3.689464 2.734526 -0.533347
v -4.775965 1.586819 -1.632315
v 3.991497 0.353420 1.047928
v 4.062022 0.326961 1.002882
v 1.784096 3.615268 0.943904
v 2.655612 3.311030 0.685751
v 4.140697 -0.571034 -1.577064
v 3.871223 -1.180687 -1.550153
v 3.931470 -0.821575 -1.951606
v -4.841131 -0.593543 -1.355082
v -4.564043 -0.721652 -1.862184
v 4.150928 0.087585 0.285149
v 4.191643 0.091063 0.452880
v -4.615008 -0.899927 -1.120607
v 4.446228 0.116188 0.834145
v 4.431519 0.301434 0.905481
v 4.390001 0.214504 0.943671
v 4.226532 0.596259 -1.915161
v 4.493945 0.358563 0.727123
v 3.550441 0.509208 1.908853
v 2.500997 -1.481814 2.123363
v 2.963810 1.490472 -3.580605
v 2.935561 3.195955 -1.660922
v 3.413433 2.904956 -1.370333
v 3.372221 2.692142 -1.990549
v 2.628601 2.179576 2.275493
v 2.887365 2.555956 1.792520
v -2.473456 1.798167 2.578608
v 4.251658 1.608209 -0.025010
v 0.753307 -0.357890 3.380302
v 3.890679 -0.262576 -2.508461
v 2.988410 -1.911283 -1.725670
v 3.439811 -1.727406 -1.288937
v 3.017234 -2.024307 -0.942876
v -5.104040 -0.208134 -0.895894
v -4.152711 2.107483 0.819837
v -3.683392 2.353535 1.221074
v -3.726361 2.499037 0.956632
v 1.429538 2.229068 2.743407
v 1.717603 2.789952 2.289563
v 2.406398 -0.480613 2.842376
v 2.081018 -0.954866 2.804363
v 2.660776 -0.859071 2.515209
v 2.822328 0.012140 -3.861276
v 2.330503 -0.513785 -3.923616
v 2.172493 -0.203422 -4.105730
v 4.021260 -0.016816 0.931780
v 1.530932 -2.337709 1.301431
v 0.695378 -2.181795 1.882944
v 0.859409 -2.508102 1.077970
v -4.106760 0.140537 1.763537
v -4.617116 0.508703 1.175373
v 1.982172 1.742777 -4.005824
v 0.934030 0.384217 -4.433361
v -3.234928 -1.348327 1.470661
v -3.922049 -1.201460 0.809301
v -2.969820 -1.642681 1.207965
v -3.944355 1.995586 1.276862
v -4.152711 2.107483 0.819837
v -4.384342 1.510592 1.099910
v 0.406179 -1.775677 2.460459
v -0.524963 -1.996009 2.077390
v 4.253170 -0.247605 -1.294060
v 4.164088 -0.794606 -0.969435
v 4.066764 2.215484 -1.159298
v -0.463702 -2.672981 -0.474105
v 3.173137 0.368080 -3.637792
v 2.945020 1.051774 -3.752425
v 3.438139 0.576298 -3.375691
v 4.391766 0.426708 0.786649
v 4.391766 0.426708 0.786649
v 4.146313 0.569697 0.750489
v 4.071049 0.524612 0.901381
v -4.930452 1.424297 -0.486541
v -4.982759 1.098967 0.064517
v -4.784360 1.462304 0.201319
v 2.777519 3.109306 1.051773
v -2.813639 0.689673 -3.817601
v -3.036605 1.279813 -3.524686
v 2.821067 3.369994 -0.917806
v 2.888548 3.313368 -1.236509
v 2.347005 3.549794 -1.362082
v 1.429226 3.906845 -0.474943
v 0.900513 1.398420 3.220832
v -2.693061 1.926205 -3.308950
v -3.323632 2.024904 -2.935715
v 3.913698 -1.281195 -0.835812
v -0.548959 3.119678 -2.984815
v 3.699074 -1.146962 -2.062075
v 3.562307 -0.873403 -2.622499
v 0.351280 3.577877 1.545771
v -0.151919 3.549869 1.544132
v -0.430899 2.963655 2.289104
v 3.237496 -0.373917 2.187694
v 3.143745 -0.884995 2.076764
v 3.411851 -0.635078 1.850788
v -2.408558 2.327864 -3.124557
v -3.323632 2.024904 -2.935715
v -2.982270 2.510242 -2.637157
v 1.196775 3.787834 -1.681381
v 0.326413 3.750915 -1.926727
v 3.409855 -0.645424 -3.036351
v 2.588580 -2.133136 0.706322
v 2.987042 -1.902699 0.598508
v 2.953403 -1.716350 1.175204
v -1.655613 3.570302 0.997998
v -2.145435 3.037551 1.664758
v -1.190194 3.171967 1.886854
v 2.237730 3.395294 -2.073138
v -0.019499 -0.183275 3.434994
v -1.496194 3.216788 -2.529915
v -0.548959 3.119678 -2.984815
v -1.300363 2.828755 -3.101880
v -4.755702 0.802667 -2.506187
v -4.597608 0.602237 -2.757566
v -4.773403 0.416201 -2.565024
v 1.510090 -0.675653 -4.075691
v 3.132779 -0.023045 2.358723
v 3.000638 -0.664563 2.340007
v -0.757801 -0.908534 3.091316
v 1.033761 1.099831 -4.408234
v -3.170917 -0.119556 2.469260
v -2.790819 0.185287 2.757226
v 1.253553 3.946949 0.002042
v 0.325890 4.065637 -0.419232
v 2.799749 1.443594 2.491056
v 3.229859 1.400287 2.126812
v 3.509766 1.930516 1.503097
v -0.766921 -2.382820 1.206624
v 0.103515 -2.331342 1.570564
v 0.637333 -1.514087 2.743318
v -0.151777 -1.140396 3.033322
v 3.256455 -0.015155 -3.506188
v 3.506807 0.079108 -3.256373
v 3.409855 -0.645424 -3.036351
v -2.481885 -1.126496 2.318140
v -3.127441 -1.150505 1.840051
v -2.181992 -1.461380 2.141306
v -0.649946 -2.445833 -1.906667
v -4.343530 0.371120 -3.030309
v -4.326081 1.100317 -2.874606
v -3.972272 0.590479 -3.292435
v -1.323478 -1.496276 -3.252734
v -1.136567 -2.024314 -2.637043
v -2.595127 -1.510036 -2.738035
v 3.586054 -1.641543 -0.712846
v 3.711054 -1.517659 -1.048127
v -2.216470 -1.691217 1.814209
v -1.360963 -1.660460 2.282440
v -0.626620 1.089295 3.320950
v -0.735901 0.481390 3.398516
v -0.100373 0.887013 3.398913
v -4.125846 -0.423341 -2.811397
v -4.557542 -0.206178 -2.547734
v -4.370474 0.077538 -2.936140
v 3.333308 2.001855 -2.889405
v 3.377794 -1.558193 0.572504
v 1.893054 0.490771 3.150009
v 2.550820 -0.139915 2.826667
v -2.615936 -1.986000 0.753535
v -1.960274 -2.029599 1.318544
v -3.468367 -0.343228 2.163900
v -3.301303 -0.884276 1.957218
v -2.937357 -0.562353 2.428852
v 2.083358 -1.920981 -2.672708
v 1.910179 -1.599522 -3.273349
v 2.479939 -1.728140 -2.723203
v -3.068463 2.057741 2.065370
v -2.670113 2.523999 1.928641
v -3.164358 2.549804 1.509115
v -3.955739 -1.150877 -2.108061
v -4.221305 -1.145794 -1.595766
v -1.312087 1.134913 3.210474
v 3.256455 -0.015155 -3.506188
v -3.954751 1.374017 1.740538
v -4.032566 0.681774 1.894374
v -3.757236 0.738658 2.150006
v -2.165576 2.437493 2.277076
v -1.716439 2.890098 2.045147
v -1.580544 0.397439 3.241756
v -3.008713 3.055087 -1.640289
v -2.294133 3.418996 -1.474864
v -5.147229 0.463222 -1.836081
v 0.116483 -1.816680 -3.204571
v 1.103356 -1.539459 -3.514257
v 1.238225 -1.851968 -3.120542
v 2.224006 -1.810754 1.894968
v 2.216604 -2.032846 1.490699
v 3.871223 -1.180687 -1.550153
v 0.022770 2.441737 2.757404
v 2.101648 1.232316 2.935347
v 2.354425 1.723078 2.659338
v 1.755195 1.835844 2.870769
v 1.103356 -1.539459 -3.514257
v 0.850969 -2.628670 0.625633
v -3.720262 -0.079366 -3.326441
v -2.664201 0.321942 -3.912554
v -1.862692 -0.033274 -4.043921
v -2.653281 0.038121 -3.875446
v 2.030232 2.465239 2.414701
v -3.127441 -1.150505 1.840051
v 2.661114 -0.968500 -3.462574
v 3.041296 -0.999182 -3.142036
v 2.284923 -1.241779 2.505958
v 2.800663 -1.194035 2.187835
v -3.671732 -1.621889 -0.010408
v -0.641523 3.701349 1.182937
v -0.310526 3.940802 0.728548
v 0.967103 -1.288681 2.928465
v 1.743573 -1.507608 2.537174
v 1.434432 -1.099900 2.958524
v -2.088629 -0.806354 -3.614174
v -3.191307 -0.436680 -3.404757
v -2.388175 -0.349901 -3.806978
v -3.006115 2.871256 1.241267
v 2.935561 3.195955 -1.660922
v 3.266252 -1.279972 1.456918
v 3.573143 -0.892004 1.256628
v -2.756453 3.319056 0.341495
v -1.502340 -1.071528 2.795753
v -1.358739 -1.238502 2.709185
v -4.611512 1.498405 0.691212
v -3.728010 2.103611 -2.573912
v -4.484965 1.358530 -2.527415
v -4.047441 1.682478 -2.725930
v -3.713285 0.468497 2.200029
v 1.910179 -1.599522 -3.273349
v 2.080003 3.591820 -1.635715
v 4.080175 -0.104693 0.400069
v 4.087653 -0.052756 0.592189
v 4.055451 -0.076693 0.752392
v 2.593102 0.312325 -4.038637
v 2.546632 0.959758 -4.021428
v 2.945020 1.051774 -3.752425
v -1.221944 -0.516412 -3.989789
v -1.056453 3.561942 -2.072539
v 4.394162 1.017408 -0.870137
v -0.149258 -2.595536 0.757750
v -0.044169 -2.735354 -0.174118
v 0.357581 -2.714051 0.314877
v -0.114574 4.058789 0.141226
v -0.757273 4.009722 -0.263409
v 3.550441 0.509208 1.908853
v 3.361121 0.894274 2.124493
v -2.546286 -0.828537 2.504545
v 1.899380 -2.370175 -1.678782
v 0.932579 -2.631945 -0.923526
v 1.095585 3.899025 -1.196465
v -1.358564 -2.086132 1.598938
v -4.114251 2.455068 -0.386324
v 2.888548 3.313368 -1.236509
v 2.821067 3.369994 -0.917806
v 3.504765 2.901965 -0.877830
v -4.899835 -0.566928 -0.631422
v -3.637518 -1.564352 -1.533926
v 2.480835 1.751485 -3.778848
v 0.450367 0.871996 3.377865
v 1.118636 0.178715 3.386375
v 1.223938 1.469388 -4.293773
v -2.087766 3.654259 -0.029954
v 4.214268 0.708486 0.179773
v -2.514258 -1.792192 -2.370938
v 2.191310 0.357711 -4.208629
v 2.187369 -2.130585 -2.131800
v -1.834522 3.216213 -2.338898
v -3.046862 -0.919953 -3.097606
v 0.957306 -2.688365 -0.168528
v -5.022489 0.016548 0.105992
v 2.814305 2.871442 -2.488465
v 2.156964 3.068628 -2.713680
v -1.723196 3.798208 -0.510604
v -1.370803 3.737695 -1.313578
v -4.484965 1.358530 -2.527415
v 1.583848 -0.074010 3.254741
v -1.716439 2.890098 2.045147
v 0.910723 -2.096478 -2.774396
v -5.152929 0.126823 -0.394878
v 4.390001 0.214504 0.943671
v 1.743573 -1.507608 2.537174
v 1.434432 -1.099900 2.958524
v 4.445293 0.334321 0.621218
v 4.430411 0.224843 0.594380
v 4.291105 0.389029 0.518640
v 4.080175 -0.104693 0.400069
v 4.191643 0.091063 0.452880
v 3.886640 -0.252789 1.010983
v 4.080175 -0.104693 0.400069
v 4.055451 -0.076693 0.752392
v 0.967103 -1.288681 2.928465
v -2.670113 2.523999 1.928641
v -4.786803 0.089214 -2.445002
v -4.316493 -1.194565 -0.973265
v -4.621515 -0.888459 -0.360297
v -3.524076 -1.206130 -2.471534
v 1.656588 -2.061297 1.827748
v 2.580366 2.397256 -3.219748
v -2.375538 0.379900 2.977454
v -2.293568 -0.205080 2.899921
v -0.732579 2.205665 2.857907
v -0.392309 1.581347 3.211119
v 4.080175 -0.104693 0.400069
v -3.931826 -0.416699 1.712230
v 0.988048 3.250163 -2.826544
v -2.502205 3.206630 1.126484
v 3.801139 1.363408 -2.735985
v -4.323065 -1.034677 0.286711
v -3.986940 -1.364070 0.160165
v 1.108690 3.355723 1.821668
v 1.598574 3.467140 1.473983
v -4.047441 1.682478 -2.725930
v -5.196611 0.481318 -0.442879
v 4.345016 1.166270 -0.195983
v 3.991497 0.353420 1.047928
v 4.016741 0.766940 0.836026
v -3.170917 -0.119556 2.469260
v -0.171625 0.223450 3.458393
v -4.773403 0.416201 -2.565024
v 3.411851 -0.635078 1.850788
v 3.235568 -1.069140 1.804062
v 3.664961 -0.393266 1.528191
v 1.471363 1.764381 -4.130705
v 1.193515 -1.648270 2.534122
v -4.803129 1.656011 -1.077789
v 4.071049 0.524612 0.901381
v -4.338647 2.075109 0.403609
v -3.603789 0.103774 2.232030
v -3.234928 -1.348327 1.470661
v -4.512099 1.971197 -0.097080
v -4.803129 1.656011 -1.077789
v -4.512099 1.971197 -0.097080
v -2.937357 -0.562353 2.428852
v 3.562307 -0.873403 -2.622499
v 3.409855 -0.645424 -3.036351
v -4.382667 -0.590296 -2.351691
v 3.886640 -0.252789 1.010983
v 3.229859 1.400287 2.126812
v 3.083007 2.194911 1.881478
v 0.689735 0.170525 3.436403
v -2.344873 -1.258337 -3.130845
v 0.805792 3.541060 -2.394008
v -1.790985 2.900712 -2.824399
v 1.483845 1.479401 3.072955
v -2.408558 2.327864 -3.124557
v -1.300363 2.828755 -3.101880
v -0.430899 2.963655 2.289104
v 0.720408 3.190223 2.058077
v 3.237496 -0.373917 2.187694
v 3.574113 -0.208404 1.773866
v -3.616233 1.618261 -3.093231
v -4.755702 0.802667 -2.506187
v -2.481885 -1.126496 2.318140
v -2.546286 -0.828537 2.504545
v 3.968503 -0.988870 -0.135423
v -4.527048 0.872536 1.247539
v -3.603789 0.103774 2.232030
v 3.143745 -0.884995 2.076764
v 4.021260 -0.016816 0.931780
v -2.595127 -1.510036 -2.738035
v -1.323478 -1.496276 -3.252734
v 2.229106 -2.196837 1.032771
v -3.954751 1.374017 1.740538
v -3.675079 1.921483 1.659804
v -4.529073 1.602061 -2.225994
v -4.484965 1.358530 -2.527415
v -3.675079 1.921483 1.659804
v -4.338647 2.075109 0.403609
v 2.284923 -1.241779 2.505958
v 3.173137 0.368080 -3.637792
v -0.028614 -1.538504 -3.505290
v 0.116483 -1.816680 -3.204571
v -3.068463 2.057741 2.065370
v 2.108140 -1.408930 -3.393486
v -3.986940 -1.364070 0.160165
v 3.573143 -0.892004 1.256628
v 3.143745 -0.884995 2.076764
v -0.262871 -1.349776 2.865161
v -2.481885 -1.126496 2.318140
v -3.713285 0.468497 2.200029
v 2.153828 2.322584 -3.543300
v -1.502340 -1.071528 2.795753
v -4.051043 -1.414150 -0.523405
v 4.055451 -0.076693 0.752392
v 3.968503 -0.988870 -0.135423
v -1.190194 3.171967 1.886854
v -4.221305 -1.145794 -1.595766
v -3.675079 1.921483 1.659804
v -3.944355 1.995586 1.276862
v -0.028614 -1.538504 -3.505290
v 2.153828 2.322584 -3.543300
v 2.156964 3.068628 -2.713680
v 1.606011 2.811065 -3.265335
vn -0.1379 0.5859 -0.7985
vn -0.0206 0.6452 -0.7637
vn -0.1051 0.4469 -0.8884
vn 0.4891 0.8444 0.2187
vn 0.5812 0.8093 0.0851
vn 0.4621 0.8817 0.0956
vn 0.3921 0.6234 0.6765
vn 0.4962 0.7074 0.5033
vn 0.2961 0.7722 0.5621
vn 0.8961 0.4266 0.1223
vn 0.9070 0.1997 0.3707
vn 0.7049 0.6409 0.3041
vn 0.3785 0.9254 -0.0165
vn 0.3377 0.9330 0.1243
vn -0.2724 0.9316 0.2408
vn -0.1351 0.9777 0.1607
vn -0.2417 0.9664 0.0875
vn 0.9286 0.3444 0.1379
vn 0.9892 0.1160 0.0900
vn 0.9342 0.3555 -0.0288
vn 0.8274 0.5595 0.0483
vn 0.8639 0.4794 0.1545
vn 0.3019 -0.9532 0.0180
vn 0.3313 -0.9300 0.1592
vn 0.1986 -0.9706 0.1362
vn 0.0062 0.9788 -0.2046
vn -0.1226 0.9657 -0.2290
vn -0.0703 0.9905 -0.1181
vn 0.1281 0.6541 -0.7455
vn 0.0270 0.7392 -0.6730
vn 0.2019 0.7327 -0.6499
vn 0.6540 -0.6703 -0.3507
vn 0.3759 -0.8699 0.3193
vn 0.4382 -0.8931 -0.1013
vn 0.3883 -0.1822 0.9033
vn 0.2294 -0.1926 0.9541
vn 0.2951 -0.3581 0.8858
vn 0.7102 -0.6811 0.1781
vn 0.7699 -0.6381 -0.0014
vn 0.3739 -0.4497 0.8111
vn 0.3858 -0.8482 0.3629
vn 0.6625 0.4141 0.6242
vn 0.6635 0.6103 0.4327
vn 0.5768 0.5550 0.5994
vn 0.1096 0.4953 0.8618
vn -0.0034 0.4635 0.8861
vn 0.0561 0.3201 0.9457
vn 0.3879 0.8308 0.3992
vn 0.2961 0.7722 0.5622
vn -0.1200 0.0809 -0.9895
vn -0.2057 0.0990 -0.9736
vn -0.2055 0.2796 -0.9379
vn 0.8229 0.3771 -0.4249
vn 0.9121 0.2636 -0.3139
vn 0.9149 0.1225 -0.3846
vn -0.0928 -0.6506 0.7537
vn -0.2300 -0.6403 0.7329
vn -0.1194 -0.7361 0.6663
vn 0.1605 -0.3856 0.9086
vn -0.5660 0.7898 -0.2364
vn -0.6183 0.7148 -0.3268
vn -0.6988 0.7018 -0.1387
vn -0.4252 -0.8421 -0.3318
vn -0.5485 -0.7357 -0.3972
vn -0.4477 -0.7263 -0.5215
vn -0.7404 -0.4225 0.5228
vn -0.8309 -0.4567 0.3179
vn -0.7016 -0.6033 0.3792
vn -0.5192 0.0481 0.8533
vn -0.5297 0.3248 0.7835
vn -0.6398 0.1503 0.7537
vn -0.5067 -0.6025 -0.6166
vn -0.5486 -0.7357 -0.3972
vn -0.6483 -0.5990 -0.4700
vn 0.6885 -0.5817 0.4332
vn 0.4601 -0.1882 0.8677
vn -0.0015 -0.2978 -0.9546
vn 0.0646 -0.4974 -0.8651
vn -0.0762 -0.3762 -0.9234
vn 0.6633 0.3043 0.6837
vn 0.5403 0.7951 0.2755
vn 0.5676 0.4573 0.6846
vn 0.9150 -0.3816 0.1308
vn 0.7948 -0.5793 0.1809
vn 0.8274 -0.5615 0.0087
vn -0.3275 0.5938 0.7349
vn -0.2355 0.4407 0.8662
vn -0.1732 0.6184 0.7665
vn -0.3613 -0.9207 0.1478
vn -0.3708 -0.9287 -0.0032
vn -0.2181 -0.9758 0.0139
vn -0.2786 -0.9045 -0.3229
vn -0.2609 -0.9546 -0.1440
vn -0.3892 -0.9046 -0.1740
vn -0.4700 -0.0333 -0.8820
vn -0.3827 -0.0179 -0.9237
vn -0.3956 -0.3373 -0.8543
vn -0.6370 -0.7677 -0.0693
vn -0.4935 -0.8635 -0.1040
vn -0.5925 -0.8049 0.0320
vn -0.1178 -0.1653 -0.9792
vn 0.9558 0.1296 -0.2641
vn 0.8787 0.4165 -0.2333
vn 0.5480 0.7743 0.3164
vn 0.8041 0.4194 0.4214
vn 0.8923 0.2146 0.3971
vn 0.8674 0.4012 0.2944
vn -0.1383 -0.0873 0.9865
vn -0.2617 -0.1954 0.9452
vn -0.1746 -0.3077 0.9353
vn -0.0588 -0.9084 -0.4140
vn -0.0788 -0.8429 -0.5323
vn 0.0477 -0.9196 -0.3899
vn 0.5329 0.4924 -0.6881
vn 0.4461 0.6263 -0.6393
vn 0.6115 0.5937 -0.5230
vn -0.0806 -0.3852 0.9193
vn -0.0585 -0.5515 0.8321
vn 0.0396 -0.4627 0.8856
vn 0.6839 -0.2126 -0.6979
vn 0.6541 -0.6702 -0.3507
vn 0.8055 -0.0393 -0.5914
vn 0.0656 0.9354 0.3474
vn 0.1940 0.9516 0.2383
vn 0.0791 0.9890 0.1253
vn -0.9176 0.2774 -0.2848
vn -0.8176 0.5409 -0.1974
vn -0.8431 0.3652 -0.3947
vn 0.5481 -0.3858 -0.7421
vn 0.5806 -0.5397 -0.6096
vn 0.4600 -0.5416 -0.7036
vn -0.4930 0.8618 -0.1192
vn -0.6083 0.7864 -0.1073
vn -0.5749 0.8182 0.0090
vn -0.8955 0.0267 -0.4443
vn -0.8054 -0.2893 -0.5174
vn -0.9148 -0.2594 -0.3096
vn -0.5680 0.8112 0.1391
vn -0.6244 0.7416 0.2453
vn -0.4503 0.8464 0.2845
vn -0.4970 0.7700 -0.4001
vn -0.7970 -0.5607 0.2246
vn -0.8964 -0.4094 0.1701
vn 0.4389 0.4506 -0.7774
vn 0.2542 0.5609 -0.7879
vn 0.3372 0.6243 -0.7047
vn 0.0844 0.5160 -0.8524
vn 0.1280 0.6541 -0.7455
vn 0.7520 -0.2288 0.6181
vn 0.7248 -0.4696 0.5041
vn 0.4925 0.7265 -0.4791
vn 0.7601 0.5676 0.3165
vn 0.7613 0.5780 -0.2938
vn 0.3003 0.1292 -0.9451
vn 0.2520 0.2658 -0.9305
vn 0.4279 0.2941 -0.8546
vn 0.1920 -0.8746 -0.4452
vn 0.1770 -0.9321 -0.3161
vn -0.3337 0.1554 0.9298
vn -0.2729 0.3277 0.9045
vn -0.4165 0.2484 0.8745
vn -0.9021 -0.4145 -0.1198
vn -0.9788 -0.1986 -0.0509
vn 0.9889 0.0207 -0.1472
vn 0.9675 0.2103 -0.1406
vn -0.9900 0.0327 -0.1371
vn -0.9993 -0.0074 0.0376
vn -0.7231 0.6300 -0.2834
vn -0.7183 0.5519 -0.4237
vn -0.3695 0.9154 -0.1596
vn -0.4329 0.9011 0.0254
vn 0.9376 -0.3147 0.1481
vn 0.9879 0.0142 -0.1547
vn -0.2413 0.4655 -0.8515
vn 0.7320 -0.5649 -0.3808
vn 0.6282 -0.7252 -0.2817
vn 0.5222 -0.6823 -0.5116
vn 0.5473 0.1026 0.8306
vn 0.6574 0.0253 0.7531
vn 0.7436 0.1201 0.6578
vn 0.7219 0.5043 -0.4739
vn 0.7175 0.3667 -0.5922
vn -0.2956 -0.3847 0.8744
vn 0.5438 -0.7151 0.4393
vn 0.7339 -0.4980 0.4619
vn 0.5596 -0.5530 0.6173
vn 0.8773 0.0806 0.4731
vn 0.8399 -0.1365 0.5253
vn 0.7521 -0.2288 0.6181
vn 0.8054 -0.0393 -0.5914
vn 0.9840 0.0944 -0.1510
vn 0.7337 0.3409 -0.5878
vn 0.9863 -0.1525 0.0623
vn 0.9565 -0.2217 0.1898
vn -0.0484 0.8428 -0.5360
vn 0.3407 -0.6675 -0.6620
vn 0.1816 -0.6191 -0.7641
vn 0.3029 -0.5070 -0.8070
vn -0.8972 -0.1033 0.4294
vn -0.8972 0.1873 0.3998
vn -0.9619 0.0807 0.2613
vn 0.2983 -0.9474 -0.1161
vn 0.3973 -0.8990 -0.1843
vn 0.3597 -0.9328 -0.0200
vn -0.2538 -0.9385 0.2342
vn -0.1655 -0.9749 0.1489
vn 0.7191 0.6742 -0.1683
vn 0.7018 0.3584 -0.6156
vn -0.6994 -0.4716 -0.5370
vn -0.8125 -0.4819 -0.3280
vn 0.0766 -0.2262 -0.9711
vn 0.1569 0.0061 -0.9876
vn 0.2226 -0.2110 -0.9518
vn 0.0049 -0.9930 -0.1183
vn -0.1190 -0.9693 -0.2152
vn 0.0479 -0.9687 -0.2435
vn 0.6646 0.7137 0.2214
vn 0.7569 0.6256 0.1891
vn -0.8037 -0.2298 0.5489
vn -0.8376 -0.3414 0.4264
vn -0.1341 -0.5960 -0.7917
vn -0.1052 -0.4778 -0.8721
vn -0.0073 -0.5855 -0.8106
vn -0.0439 0.2943 -0.9547
vn 0.8500 0.0876 -0.5194
vn 0.9034 -0.0619 -0.4244
vn 0.8294 -0.0947 -0.5505
vn -0.5919 -0.6096 0.5273
vn -0.6523 -0.5567 0.5144
vn -0.5847 -0.7384 0.3360
vn 0.0998 0.6408 0.7612
vn 0.1200 0.8058 0.5799
vn 0.0334 0.7478 0.6631
vn -0.5963 0.6395 -0.4853
vn 0.1885 0.8393 -0.5100
vn 0.1432 0.9141 -0.3792
vn 0.3420 0.8637 -0.3703
vn 0.7115 0.2017 -0.6731
vn 0.5990 0.3467 -0.7218
vn -0.9643 0.2573 0.0624
vn -0.9437 0.3138 -0.1047
vn -0.4928 0.4008 -0.7723
vn -0.4308 0.5021 -0.7498
vn -0.4529 0.2887 -0.8435
vn 0.7209 0.6919 0.0400
vn 0.7964 0.0838 0.5990
vn 0.4306 0.1468 0.8905
vn 0.3127 0.9047 0.2894
vn 0.9358 -0.2698 -0.2269
vn 0.8204 -0.5289 -0.2171
vn 0.8635 -0.3798 -0.3318
vn -0.7901 -0.5940 -0.1515
vn -0.6974 -0.6373 -0.3278
vn 0.9831 -0.1829 -0.0072
vn 0.8168 -0.4743 -0.3283
vn -0.7217 -0.6853 -0.0970
vn 0.6885 -0.5816 0.4333
vn 0.9601 -0.0644 -0.2722
vn 0.8529 0.5220 0.0028
vn 0.8110 -0.0175 0.5848
vn 0.4397 -0.6830 0.5833
vn 0.5179 0.8108 -0.2726
vn 0.6594 0.7284 -0.1860
vn 0.6442 0.6748 -0.3600
vn 0.5069 0.4385 0.7421
vn -0.3796 0.4448 0.8112
vn 0.9330 0.2081 0.2938
vn 0.0790 -0.2275 0.9706
vn 0.8756 -0.2373 -0.4208
vn 0.4819 -0.8296 -0.2821
vn 0.5947 -0.7943 -0.1245
vn 0.4833 -0.8751 -0.0249
vn -0.9230 -0.3838 0.0278
vn -0.7324 0.5756 0.3636
vn -0.6009 0.6200 0.5045
vn -0.6211 0.6786 0.3919
vn 0.2049 0.5013 0.8407
vn 0.2233 0.6466 0.7294
vn 0.4852 -0.2653 0.8332
vn 0.3778 -0.4508 0.8088
vn 0.5291 -0.3987 0.7491
vn 0.5278 -0.2076 -0.8236
vn 0.3718 -0.3974 -0.8389
vn 0.3204 -0.2908 -0.9016
vn 0.2031 -0.9192 0.3375
vn 0.0537 -0.8667 0.4959
vn 0.0770 -0.9482 0.3082
vn -0.7337 -0.1771 0.6560
vn -0.8285 -0.0108 0.5599
vn 0.3019 0.4371 -0.8472
vn 0.0085 -0.0774 -0.9970
vn -0.4948 -0.7411 0.4539
vn -0.4411 -0.8219 0.3605
vn -0.6895 0.5084 0.5158
vn -0.7725 0.3956 0.4967
vn -0.0030 -0.7773 0.6291
vn -0.1228 -0.8368 0.5335
vn 0.9827 -0.1450 -0.1151
vn 0.9396 -0.3389 -0.0473
vn 0.8291 0.5511 -0.0941
vn -0.1381 -0.9890 -0.0530
vn 0.6460 -0.0175 -0.7632
vn 0.5926 0.1734 -0.7866
vn 0.7420 0.0464 -0.6688
vn 0.5403 0.7951 0.2754
vn 0.7049 0.6408 0.3041
vn 0.5676 0.4574 0.6846
vn -0.8833 0.4623 0.0780
vn -0.9264 0.3132 0.2089
vn -0.8604 0.4605 0.2181
vn -0.3122 0.2316 -0.9214
vn -0.3256 0.3810 -0.8653
vn 0.4855 0.8741 -0.0165
vn 0.5035 0.8566 -0.1129
vn 0.3612 0.9208 -0.1472
vn 0.2350 0.9709 -0.0453
vn 0.1558 0.2749 0.9488
vn -0.3091 0.5117 -0.8017
vn -0.3995 0.6107 -0.6837
vn -0.1190 0.7682 -0.6291
vn 0.7382 -0.4819 -0.4720
vn -0.0021 0.8529 0.5220
vn -0.0693 0.8461 0.5284
vn -0.0752 0.7182 0.6917
vn 0.7448 -0.1682 0.6458
vn 0.6967 -0.3931 0.6001
vn 0.8140 -0.3059 0.4938
vn -0.2999 0.6186 -0.7262
vn -0.3874 0.7360 -0.5553
vn 0.1399 0.9567 -0.2553
vn -0.0244 0.9410 -0.3376
vn 0.7119 -0.3932 -0.5818
vn 0.4647 -0.8640 0.1936
vn 0.5817 -0.7919 0.1856
vn 0.5866 -0.7434 0.3214
vn -0.2556 0.8838 0.3919
vn -0.3220 0.7674 0.5544
vn -0.1779 0.7901 0.5867
vn -0.0213 -0.1805 0.9833
vn -0.2301 0.8247 -0.5167
vn -0.2194 0.6775 -0.7020
vn -0.7995 0.2322 -0.5540
vn -0.7242 0.1245 -0.6783
vn -0.8111 -0.0406 -0.5835
vn 0.1651 -0.4199 -0.8924
vn 0.7015 -0.0794 0.7083
vn 0.6445 -0.2865 0.7089
vn -0.1891 -0.4941 0.8486
vn 0.0654 0.1453 -0.9872
vn -0.5139 -0.2521 0.8200
vn -0.4585 -0.1523 0.8755
vn 0.1989 0.9787 0.0518
vn 0.0446 0.9975 -0.0540
vn 0.5711 0.2428 0.7842
vn 0.7178 0.2411 0.6532
vn 0.8032 0.3023 0.5133
vn -0.1586 -0.9277 0.3379
vn -0.0477 -0.9113 0.4090
vn 0.0226 -0.6976 0.7161
vn 0.6737 -0.2192 -0.7057
vn 0.7687 -0.1722 -0.6160
vn -0.3939 -0.6120 0.6858
vn -0.4754 -0.6636 0.5776
vn -0.3392 -0.7081 0.6193
vn -0.1321 -0.9350 -0.3291
vn -0.6436 -0.0393 -0.7644
vn -0.6429 0.3229 -0.6945
vn -0.5494 0.1065 -0.8288
vn -0.2002 -0.7067 -0.6786
vn -0.1845 -0.8413 -0.5081
vn -0.3288 -0.7422 -0.5840
vn 0.6561 -0.7519 0.0650
vn 0.7310 -0.6772 -0.0839
vn -0.3471 -0.7997 0.4900
vn -0.2305 -0.7589 0.6090
vn -0.1083 0.2095 0.9718
vn -0.1345 0.0789 0.9878
vn -0.0135 0.1640 0.9864
vn -0.5632 -0.5182 -0.6437
vn -0.6994 -0.4716 -0.5371
vn -0.6403 -0.2998 -0.7072
vn 0.6400 0.4743 -0.6046
vn 0.7321 -0.6400 0.2334
vn 0.3565 0.0865 0.9303
vn 0.5386 -0.0790 0.8389
vn -0.3939 -0.8760 0.2785
vn -0.3090 -0.8773 0.3671
vn -0.5831 -0.3651 0.7257
vn -0.5394 -0.5294 0.6548
vn -0.4780 -0.4049 0.7795
vn 0.2972 -0.8395 -0.4549
vn 0.2517 -0.7570 -0.6030
vn 0.4076 -0.7854 -0.4657
vn -0.4964 0.5163 0.6979
vn -0.4160 0.6373 0.6487
vn -0.5111 0.6486 0.5640
vn -0.6137 -0.7556 -0.2290
vn -0.1978 0.2293 0.9530
vn -0.6806 0.3375 0.6503
vn -0.7319 0.0830 0.6763
vn -0.2578 0.7056 0.6601
vn -0.2533 0.0063 0.9674
vn -0.4311 0.8391 -0.3317
vn -0.3225 0.8997 -0.2943
vn -0.9556 0.0119 -0.2945
vn -0.0532 -0.7908 -0.6098
vn 0.0674 -0.7167 -0.6941
vn 0.1043 -0.8112 -0.5754
vn 0.3683 -0.7761 0.5118
vn 0.3851 -0.8417 0.3786
vn -0.0209 0.5986 0.8008
vn 0.3924 0.2084 0.8959
vn 0.4346 0.3415 0.8333
vn 0.2850 0.3874 0.8768
vn 0.0967 -0.9758 0.1963
vn -0.5020 -0.3750 -0.7793
vn -0.2671 -0.0072 -0.9636
vn -0.1776 -0.1954 -0.9645
vn -0.2759 -0.2436 -0.9298
vn 0.3324 0.5128 0.7915
vn 0.4078 -0.5753 0.7091
vn -0.5082 -0.8494 0.1422
vn -0.1375 0.8866 0.4417
vn -0.0764 0.9490 0.3058
vn 0.1037 -0.6021 0.7917
vn 0.2700 -0.6839 0.6777
vn 0.2276 -0.5304 0.8166
vn -0.2506 -0.5669 -0.7847
vn -0.3933 -0.5268 -0.7535
vn -0.2702 -0.4380 -0.8574
vn -0.4801 0.7450 0.4630
vn 0.7324 -0.5842 0.3498
vn 0.8534 -0.4159 0.3144
vn -0.4279 0.8895 0.1606
vn -0.2745 -0.5447 0.7924
vn -0.8336 0.4211 0.3573
vn -0.4923 0.6766 -0.5477
vn -0.7022 0.4461 -0.5548
vn -0.5723 0.5422 -0.6152
vn -0.6397 -0.0482 0.7671
vn 0.2924 0.9290 -0.2269
vn 0.9333 -0.3186 0.1657
vn 0.4618 -0.0601 -0.8850
vn 0.4598 0.1315 -0.8783
vn -0.1598 -0.4074 -0.8992
vn -0.1719 0.9065 -0.3856
vn 0.9990 -0.0451 -0.0016
vn -0.0805 -0.9674 0.2401
vn -0.0658 -0.9977 0.0141
vn 0.0064 -0.9914 0.1305
vn -0.0281 0.9958 0.0876
vn -0.1475 0.9885 -0.0345
vn -0.4088 -0.4737 0.7801
vn 0.2333 -0.9518 -0.1990
vn 0.1360 -0.9843 -0.1127
vn 0.1495 0.9775 -0.1488
vn -0.2255 -0.8731 0.4322
vn -0.6991 0.7145 0.0274
vn 0.6622 0.7472 -0.0570
vn -0.8357 -0.5463 0.0556
vn -0.5102 -0.8291 -0.2287
vn 0.0796 0.1576 0.9843
vn 0.1852 0.0291 0.9823
vn 0.1176 0.3179 -0.9408
vn -0.3496 0.9322 0.0932
vn 0.9814 -0.0422 0.1872
vn -0.3189 -0.8278 -0.4616
vn 0.3312 -0.0575 -0.9418
vn 0.3321 -0.8788 -0.3427
vn -0.3099 0.8384 -0.4484
vn -0.3805 -0.6223 -0.6840
vn 0.1355 -0.9907 -0.0109
vn -0.9356 -0.2323 0.2660
vn 0.3220 0.7721 -0.5479
vn -0.2740 0.9588 -0.0751
vn -0.2179 0.9476 -0.2337
vn 0.3084 -0.0681 0.9488
vn 0.0521 -0.8661 -0.4972
vn -0.9671 -0.2025 0.1541
vn 0.4600 -0.1882 0.8677
vn 0.7019 0.3584 -0.6156
vn 0.8169 -0.4743 -0.3283
vn 0.8954 -0.3320 0.2968
vn -0.7370 -0.6684 0.1003
vn 0.2203 -0.8413 0.4936
vn -0.3802 -0.0489 0.9236
vn -0.3827 -0.2720 0.8829
vn -0.1231 0.5211 0.8446
vn -0.0799 0.3480 0.9341
vn -0.6658 -0.3803 0.6420
vn 0.0779 0.8064 -0.5862
vn -0.3698 0.8397 0.3977
vn 0.8087 0.2480 -0.5334
vn -0.6915 -0.6855 0.2279
vn -0.5997 -0.7772 0.1907
vn 0.2235 0.8702 0.4390
vn -0.9863 0.0384 0.1607
vn 0.9775 -0.0397 0.2074
vn -0.0269 0.0134 0.9995
vn 0.8785 -0.2647 0.3977
vn 0.1752 0.4420 -0.8797
vn 0.1367 -0.7526 0.6441
vn -0.8249 0.5636 -0.0441
vn -0.7650 0.6077 0.2131
vn -0.6101 -0.1981 0.7672
vn -0.7890 0.6055 0.1041
vn 0.8954 -0.3320 0.2967
vn 0.0785 0.0089 0.9969
vn -0.2884 -0.6699 -0.6841
vn 0.0511 0.8835 -0.4655
vn -0.2935 0.7366 -0.6093
vn 0.2326 0.2745 0.9330
vn -0.2998 0.6186 -0.7262
vn -0.2194 0.6776 -0.7020
vn -0.4308 0.5021 -0.7499
vn 0.8677 -0.4331 0.2440
vn -0.8054 0.1931 0.5604
vn 0.3616 -0.8860 0.2902
vn -0.6072 0.4895 0.6258
vn -0.6072 0.4896 0.6258
vn -0.0891 -0.7072 -0.7014
vn -0.4964 0.5162 0.6979
vn -0.5996 -0.7772 0.1907
vn 0.8534 -0.4158 0.3144
vn -0.0928 -0.6507 0.7537
vn -0.1779 0.7900 0.5867
vn 0.3219 0.7721 -0.5479
vt 0.044123 0.464048
vt 0.030617 0.488359
vt 0.056654 0.473321
vt 0.923512 0.575831
vt 0.874828 0.555481
vt 0.892051 0.585019
vt 0.644942 0.526300
vt 0.654767 0.549573
vt 0.670626 0.515094
vt 0.918377 0.418546
vt 0.933994 0.427301
vt 0.929813 0.415370
vt 0.556316 0.967356
vt 0.509103 0.934266
vt 0.512714 0.966980
vt 0.520432 0.754751
vt 0.523759 0.816271
vt 0.549907 0.771839
vt 0.875452 0.472555
vt 0.867790 0.453086
vt 0.845967 0.473127
vt 0.865461 0.505565
vt 0.879100 0.491630
vt 0.127918 0.847813
vt 0.126034 0.878288
vt 0.154911 0.863243
vt 0.594771 0.874367
vt 0.608476 0.819085
vt 0.569289 0.839008
vt 0.717705 0.924792
vt 0.706790 0.903578
vt 0.691635 0.942447
vt 0.281373 0.638245
vt 0.284161 0.645562
vt 0.293447 0.638966
vt 0.481469 0.500341
vt 0.483875 0.462656
vt 0.463277 0.475476
vt 0.301823 0.643243
vt 0.300707 0.634692
vt 0.295714 0.653808
vt 0.294922 0.645711
vt 0.986750 0.513613
vt 0.963982 0.534269
vt 0.981685 0.534733
vt 0.617939 0.445495
vt 0.608694 0.405523
vt 0.582612 0.418633
vt 0.448236 0.935482
vt 0.434513 0.919682
vt 0.435331 0.951687
vt 0.102876 0.483267
vt 0.140594 0.358392
vt 0.084908 0.437366
vt 0.780290 0.479383
vt 0.796879 0.466594
vt 0.778646 0.448041
vt 0.263725 0.975158
vt 0.317184 0.956525
vt 0.272088 0.955939
vt 0.463085 0.453187
vt 0.649844 0.659573
vt 0.672910 0.638992
vt 0.649251 0.622493
vt 0.359778 0.703373
vt 0.394831 0.687847
vt 0.369057 0.673768
vt 0.872157 0.799466
vt 0.859411 0.847699
vt 0.886918 0.823939
vt 0.556925 0.235257
vt 0.594123 0.238794
vt 0.568240 0.208252
vt 0.213876 0.271616
vt 0.240760 0.268829
vt 0.213568 0.244899
vt 0.279835 0.646299
vt 0.281528 0.652771
vt 0.164787 0.522003
vt 0.197776 0.536909
vt 0.181004 0.500857
vt 0.252165 0.631508
vt 0.254304 0.638684
vt 0.271515 0.641194
vt 0.000997 0.855419
vt 0.019106 0.861110
vt 0.008741 0.833153
vt 0.646544 0.295738
vt 0.605721 0.320176
vt 0.646340 0.352089
vt 0.352688 0.811944
vt 0.351287 0.770235
vt 0.302857 0.795896
vt 0.317134 0.706591
vt 0.324821 0.750644
vt 0.355789 0.736730
vt 0.158263 0.292775
vt 0.157557 0.314105
vt 0.173587 0.312981
vt 0.426253 0.740857
vt 0.386176 0.739309
vt 0.419071 0.764969
vt 0.152238 0.478856
vt 0.804622 0.452537
vt 0.809990 0.484179
vt 0.973053 0.556558
vt 0.943079 0.563821
vt 0.957445 0.505330
vt 0.950157 0.473285
vt 0.899266 0.485333
vt 0.512587 0.358173
vt 0.506711 0.317823
vt 0.484674 0.352959
vt 0.206258 0.707529
vt 0.198052 0.685924
vt 0.158501 0.717639
vt 0.702230 0.504437
vt 0.715623 0.532095
vt 0.749232 0.520233
vt 0.473305 0.371309
vt 0.451253 0.382956
vt 0.455517 0.425443
vt 0.320051 0.649079
vt 0.325556 0.653808
vt 0.325556 0.639155
vt 0.484252 0.865223
vt 0.494702 0.896691
vt 0.519406 0.870338
vt 0.774101 0.957423
vt 0.739681 0.938803
vt 0.760700 0.969759
vt 0.165052 0.628990
vt 0.192849 0.637311
vt 0.192385 0.619283
vt 0.611544 0.685286
vt 0.619921 0.658342
vt 0.592182 0.662866
vt 0.790486 0.976797
vt 0.811050 0.993206
vt 0.812192 0.964369
vt 0.729643 0.885848
vt 0.554357 0.654811
vt 0.540767 0.640096
vt 0.522478 0.685501
vt 0.672847 0.663764
vt 0.867132 0.862627
vt 0.844755 0.884149
vt 0.052855 0.596273
vt 0.038061 0.561420
vt 0.025953 0.574654
vt 0.046058 0.524190
vt 0.023582 0.527899
vt 0.266511 0.620119
vt 0.273577 0.616786
vt 0.271232 0.613174
vt 0.756270 0.551411
vt 0.944133 0.519836
vt 0.802074 0.501865
vt 0.094696 0.581483
vt 0.074446 0.567143
vt 0.071871 0.597433
vt 0.109571 0.715347
vt 0.118145 0.741004
vt 0.560777 0.285916
vt 0.591646 0.311697
vt 0.579280 0.261942
vt 0.829920 0.940185
vt 0.812121 0.932665
vt 0.818562 0.442597
vt 0.823613 0.460504
vt 0.793932 0.942488
vt 0.799993 0.916345
vt 0.676184 0.611542
vt 0.693602 0.612493
vt 0.610919 0.721738
vt 0.577713 0.703544
vt 0.932446 0.389719
vt 0.926833 0.387575
vt 0.928858 0.394633
vt 0.065109 0.413188
vt 0.005091 0.770064
vt 0.025182 0.785965
vt 0.038132 0.719261
vt 0.537349 0.538837
vt 0.519480 0.557689
vt 0.546012 0.577327
vt 0.760601 0.499429
vt 0.736978 0.477372
vt 0.485943 0.307442
vt 0.097657 0.948644
vt 0.071790 0.959961
vt 0.099012 0.973988
vt 0.974876 0.430327
vt 0.979283 0.386961
vt 0.942037 0.393491
vt 0.912377 0.399146
vt 0.910751 0.410806
vt 0.918032 0.403989
vt 0.862229 0.344544
vt 0.852032 0.367220
vt 0.876663 0.361238
vt 0.922462 0.393520
vt 0.675154 0.860972
vt 0.277259 0.643368
vt 0.218123 0.592679
vt 0.212798 0.568903
vt 0.189035 0.592506
vt 0.821167 0.821487
vt 0.792718 0.823854
vt 0.797169 0.854223
vt 0.093409 0.781762
vt 0.073023 0.780777
vt 0.091810 0.813587
vt 0.316276 0.846522
vt 0.271537 0.839002
vt 0.922387 0.409218
vt 0.924156 0.398649
vt 0.827260 0.999003
vt 0.831334 0.966114
vt 0.150304 0.535379
vt 0.115325 0.551729
vt 0.143786 0.577351
vt 0.201625 0.785832
vt 0.236971 0.733160
vt 0.173338 0.744619
vt 0.912869 0.542179
vt 0.887793 0.522779
vt 0.839940 0.805501
vt 0.849350 0.824970
vt 0.219504 0.471369
vt 0.204219 0.478686
vt 0.211326 0.519634
vt 0.076110 0.497455
vt 0.744091 0.438936
vt 0.752933 0.412438
vt 0.725710 0.407111
vt 0.900349 0.785805
vt 0.884416 0.796891
vt 0.905849 0.827217
vt 0.646322 0.457834
vt 0.682453 0.471134
vt 0.673986 0.449030
vt 0.699841 0.641866
vt 0.656453 0.938993
vt 0.633253 0.921803
vt 0.624794 0.969566
vt 0.710361 0.454251
vt 0.696980 0.480895
vt 0.781164 0.904986
vt 0.772958 0.934707
vt 0.110338 0.267423
vt 0.094045 0.276457
vt 0.124360 0.276141
vt 0.863696 0.529672
vt 0.665772 0.594669
vt 0.275264 0.630890
vt 0.271363 0.630253
vt 0.475922 0.922275
vt 0.482380 0.965320
vt 0.805034 0.359309
vt 0.803906 0.333958
vt 0.783727 0.350576
vt 0.853077 0.942519
vt 0.858322 0.967583
vt 0.904431 0.391568
vt 0.913493 0.391043
vt 0.872105 0.930905
vt 0.934982 0.387909
vt 0.939003 0.397275
vt 0.940636 0.393714
vt 0.789809 0.415238
vt 0.930039 0.399007
vt 0.527298 0.587100
vt 0.115247 0.965962
vt 0.064246 0.621670
vt 0.801119 0.565305
vt 0.818435 0.542782
vt 0.785142 0.533010
vt 0.613093 0.542956
vt 0.634605 0.560586
vt 0.613264 0.275757
vt 0.891406 0.464619
vt 0.484464 0.430399
vt 0.755188 0.378759
vt 0.049581 0.775147
vt 0.030410 0.802865
vt 0.057586 0.814134
vt 0.834397 0.917752
vt 0.535623 0.609572
vt 0.510855 0.632108
vt 0.524194 0.633756
vt 0.617257 0.478231
vt 0.647771 0.497841
vt 0.475177 0.518791
vt 0.452830 0.500540
vt 0.457342 0.532632
vt 0.140069 0.624405
vt 0.169497 0.602236
vt 0.153892 0.593333
vt 0.302342 0.653148
vt 0.160457 0.909600
vt 0.208687 0.931002
vt 0.193172 0.890381
vt 0.841956 0.768353
vt 0.815225 0.800236
vt 0.055308 0.571767
vt 0.129386 0.527610
vt 0.399530 0.874073
vt 0.426253 0.834513
vt 0.384780 0.861941
vt 0.744591 0.777329
vt 0.734186 0.801928
vt 0.764997 0.794128
vt 0.227554 0.959347
vt 0.272000 0.929110
vt 0.821137 0.373289
vt 0.836770 0.347924
vt 0.831760 0.497642
vt 0.244115 0.797626
vt 0.693021 0.422090
vt 0.687022 0.459637
vt 0.708621 0.427781
vt 0.932759 0.404117
vt 0.318057 0.635518
vt 0.311860 0.646172
vt 0.318057 0.653808
vt 0.754603 0.881860
vt 0.774644 0.856281
vt 0.758396 0.844577
vt 0.463396 0.966176
vt 0.135377 0.327679
vt 0.107108 0.311016
vt 0.561709 0.988426
vt 0.577353 0.994068
vt 0.587645 0.970330
vt 0.549727 0.919926
vt 0.573936 0.445074
vt 0.072722 0.323898
vt 0.072068 0.288403
vt 0.841592 0.328300
vt 0.000997 0.426503
vt 0.776076 0.338566
vt 0.746318 0.354360
vt 0.457672 0.844511
vt 0.462040 0.818935
vt 0.428248 0.792395
vt 0.481863 0.566149
vt 0.457203 0.560200
vt 0.470380 0.576314
vt 0.719364 0.734418
vt 0.718252 0.683667
vt 0.699148 0.703093
vt 0.612802 0.917709
vt 0.632558 0.875735
vt 0.173035 0.653808
vt 0.098642 0.891911
vt 0.075766 0.891979
vt 0.082883 0.921683
vt 0.502130 0.748349
vt 0.473919 0.712436
vt 0.454385 0.759870
vt 0.776058 0.587100
vt 0.496192 0.390679
vt 0.679556 0.784015
vt 0.694794 0.834700
vt 0.707707 0.795009
vt 0.143625 0.218498
vt 0.152357 0.229326
vt 0.163385 0.220128
vt 0.181732 0.561459
vt 0.498814 0.560907
vt 0.467034 0.551959
vt 0.465144 0.352046
vt 0.092202 0.528560
vt 0.519942 0.233680
vt 0.531638 0.252657
vt 0.527049 0.907275
vt 0.555776 0.865546
vt 0.573514 0.547952
vt 0.572174 0.572273
vt 0.968589 0.493262
vt 0.276796 0.880596
vt 0.236218 0.908266
vt 0.217423 0.977482
vt 0.258729 0.985975
vt 0.699697 0.401812
vt 0.714363 0.402149
vt 0.724117 0.368185
vt 0.369383 0.925799
vt 0.397051 0.894898
vt 0.354064 0.918111
vt 0.236152 0.725001
vt 0.162093 0.245439
vt 0.125019 0.241271
vt 0.148117 0.265004
vt 0.249776 0.655802
vt 0.250270 0.685649
vt 0.320479 0.668317
vt 0.028937 0.833836
vt 0.018065 0.819006
vt 0.353484 0.899989
vt 0.314963 0.932624
vt 0.564047 0.364364
vt 0.533162 0.356130
vt 0.550991 0.390422
vt 0.202329 0.259983
vt 0.194227 0.234783
vt 0.177570 0.245160
vt 0.736302 0.499708
vt 0.053537 0.896736
vt 0.524278 0.493723
vt 0.491928 0.527541
vt 0.363633 0.840819
vt 0.336824 0.875803
vt 0.874323 0.746087
vt 0.901982 0.759789
vt 0.891371 0.729627
vt 0.085115 0.718055
vt 0.085300 0.687917
vt 0.063201 0.720767
vt 0.463852 0.652578
vt 0.466267 0.678529
vt 0.491500 0.657645
vt 0.883297 0.978717
vt 0.884494 0.954279
vt 0.570087 0.329720
vt 0.140171 0.645012
vt 0.779576 0.758328
vt 0.815593 0.756566
vt 0.816471 0.740511
vt 0.444680 0.699947
vt 0.451503 0.729157
vt 0.533660 0.313081
vt 0.647768 0.698442
vt 0.632547 0.736590
vt 0.793232 0.961567
vt 0.178786 0.671402
vt 0.123367 0.667737
vt 0.122754 0.687128
vt 0.128722 0.949698
vt 0.125848 0.928024
vt 0.002276 0.797392
vt 0.633908 0.406082
vt 0.562516 0.508392
vt 0.588321 0.524852
vt 0.595023 0.492947
vt 0.229819 0.541967
vt 0.189216 0.866866
vt 0.181058 0.282107
vt 0.153185 0.338092
vt 0.166782 0.382503
vt 0.167798 0.340059
vt 0.629078 0.512134
vt 0.916179 0.766566
vt 0.041194 0.689882
vt 0.025601 0.709780
vt 0.439633 0.511911
vt 0.442198 0.540699
vt 0.406725 0.793509
vt 0.483985 0.799037
vt 0.503538 0.822122
vt 0.201377 0.991527
vt 0.158670 0.978704
vt 0.176787 0.999003
vt 0.208878 0.372654
vt 0.196362 0.312067
vt 0.186497 0.355633
vt 0.502893 0.671218
vt 0.598648 0.999003
vt 0.067551 0.941621
vt 0.047381 0.936995
vt 0.545076 0.696257
vt 0.462237 0.314746
vt 0.453809 0.322125
vt 0.761152 0.817374
vt 0.703204 0.660923
vt 0.709028 0.614920
vt 0.714578 0.641951
vt 0.554006 0.209286
vt 0.229298 0.582782
vt 0.603577 0.959747
vt 0.335345 0.632641
vt 0.333729 0.644551
vt 0.335345 0.653808
vt 0.125378 0.611835
vt 0.092448 0.605629
vt 0.086372 0.624207
vt 0.188325 0.418205
vt 0.651962 0.805568
vt 0.846542 0.433092
vt 0.241500 0.863258
vt 0.226470 0.816720
vt 0.211370 0.845609
vt 0.531222 0.838365
vt 0.557133 0.809127
vt 0.987586 0.422666
vt 0.998650 0.444865
vt 0.481127 0.263333
vt 0.108313 0.763493
vt 0.167634 0.789849
vt 0.588925 0.909452
vt 0.309637 0.895847
vt 0.595271 0.625688
vt 0.823450 0.571898
vt 0.839992 0.575850
vt 0.844869 0.541075
vt 0.856154 0.905186
vt 0.387493 0.717636
vt 0.684448 0.502033
vt 0.548042 0.419000
vt 0.510034 0.451128
vt 0.072550 0.535653
vt 0.557381 0.736558
vt 0.900351 0.421015
vt 0.322141 0.685983
vt 0.124702 0.591715
vt 0.087129 0.745114
vt 0.672761 0.765304
vt 0.221268 0.320516
vt 0.175204 0.827723
vt 0.830234 0.863185
vt 0.642188 0.996951
vt 0.658570 0.967875
vt 0.578210 0.760600
vt 0.615895 0.784817
vt 0.113598 0.229509
vt 0.496228 0.475127
vt 0.669256 0.321959
vt 0.144777 0.699696
vt 0.820203 0.889423
vt 0.253961 0.626573
vt 0.428248 0.482784
vt 0.447103 0.465639
vt 0.327550 0.649365
vt 0.331734 0.653808
vt 0.331734 0.641815
vt 0.302342 0.624360
vt 0.294906 0.627342
vt 0.309865 0.653808
vt 0.309865 0.617500
vt 0.304337 0.636976
vt 0.439755 0.440982
vt 0.655637 0.272045
vt 0.180578 0.220591
vt 0.890486 0.923118
vt 0.876601 0.891351
vt 0.240269 0.293691
vt 0.158358 0.938954
vt 0.682185 0.986870
vt 0.538102 0.273484
vt 0.508706 0.276170
vt 0.624430 0.365563
vt 0.588771 0.378862
vt 0.909760 0.383330
vt 0.871555 0.774044
vt 0.673613 0.911918
vt 0.503637 0.700963
vt 0.745700 0.460266
vt 0.890731 0.856398
vt 0.909331 0.862810
vt 0.437956 0.877920
vt 0.451110 0.906759
vt 0.094084 0.251544
vt 0.801338 0.889426
vt 0.882081 0.441274
vt 0.944270 0.407401
vt 0.275264 0.653808
vt 0.867135 0.725917
vt 0.517260 0.384074
vt 0.793542 0.996695
vt 0.981695 0.368767
vt 0.977502 0.350449
vt 0.966480 0.376301
vt 0.056559 0.545858
vt 0.187500 0.972000
vt 0.637868 0.589094
vt 0.937283 0.414450
vt 0.731637 0.825382
vt 0.850798 0.740079
vt 0.923038 0.788261
vt 0.585205 0.598235
vt 0.739666 0.909652
vt 0.732288 0.853698
vt 0.496826 0.244477
vt 0.004153 0.742051
vt 0.005931 0.720977
vt 0.849635 0.990443
vt 0.940657 0.379387
vt 0.999003 0.472010
vt 0.614838 0.568919
vt 0.511076 0.428600
vt 0.234808 0.359087
vt 0.652617 0.901860
vt 0.697650 0.768605
vt 0.576642 0.476441
vt 0.051120 0.335294
vt 0.019589 0.389839
vt 0.665713 0.387259
vt 0.429694 0.854629
vt 0.999003 0.384618
vt 0.491858 0.586658
vt 0.729643 0.666240
vt 0.774218 0.990373
vt 0.923038 0.736107
vt 0.908503 0.724557
vt 0.012121 0.870607
vt 0.797699 0.792796
vt 0.534838 0.213494
vt 0.991724 0.361091
vt 0.937629 0.388677
vt 0.250171 0.345220
vt 0.241244 0.414188
vt 0.121016 0.904197
vt 0.604265 0.202721
vt 0.631388 0.219582
vt 0.736749 0.967464
vt 0.747557 0.984723
vt 0.489720 0.624283
vt 0.558249 0.603577
vt 0.129165 0.984318
vt 0.120573 0.639274
vt 0.235812 0.483140
vt 0.250171 0.490491
vt 0.632718 0.248983
vt 0.072740 0.685044
vt 0.423205 0.800278
vt 0.950768 0.353344
vt 0.078463 0.973768
vt 0.442363 0.377503
vt 0.467140 0.266766
vt 0.831019 0.739720
vt 0.696172 0.535750
vt 0.324502 0.960339
vt 0.906805 0.899279
vt 0.928247 0.385140
vt 0.879328 0.341751
vt 0.682453 0.351131
vt 0.414107 0.710849
vt 0.753012 0.755763
vt 0.511106 0.614877
vt 0.181169 0.656380
vt 0.702257 0.967527
vt 0.741275 0.572408
vt 0.004585 0.541793
s 1
usemtl 01_mango
f 1/1/1 2/2/2 3/3/3
f 4/4/4 5/5/5 6/6/6
f 7/7/7 8/8/8 9/9/9
f 10/10/10 11/11/11 12/12/12
f 13/13/13 14/14/14 15/15/6
f 16/16/15 17/17/16 18/18/17
f 19/19/18 20/20/19 21/21/20
f 22/22/21 23/23/22 21/21/20
f 24/24/23 25/25/24 26/26/25
f 27/27/26 28/28/27 29/29/28
f 30/30/29 31/31/30 32/32/31
f 33/33/32 34/34/33 35/35/34
f 36/36/35 37/37/36 38/38/37
f 39/39/38 40/40/39 35/35/34
f 34/34/33 41/41/40 42/42/41
f 43/43/42 44/44/43 45/45/44
f 46/46/45 47/47/46 48/48/47
f 19/19/18 21/21/20 23/23/22
f 49/49/48 50/50/49 51/51/8
f 52/52/50 53/53/51 54/54/52
f 55/55/53 56/56/54 57/57/55
f 58/58/56 59/59/57 60/60/58
f 38/38/37 37/37/36 61/61/59
f 62/62/60 63/63/61 64/64/62
f 65/65/63 66/66/64 67/67/65
f 68/68/66 69/69/67 70/70/68
f 71/71/69 72/72/70 73/73/71
f 74/74/72 75/75/73 76/76/74
f 34/34/33 77/77/75 78/78/76
f 79/79/77 80/80/78 81/81/79
f 82/82/80 83/83/81 84/84/82
f 85/85/83 86/86/84 87/87/85
f 88/88/86 89/89/87 90/90/88
f 91/91/89 92/92/90 93/93/91
f 94/94/92 95/95/93 96/96/94
f 97/97/95 98/98/96 99/99/97
f 100/100/98 101/101/99 102/102/100
f 103/103/101 79/79/77 81/81/79
f 104/104/102 56/56/54 105/105/103
f 106/106/8 44/44/43 107/107/104
f 108/108/105 109/109/106 110/110/107
f 111/111/108 112/112/109 113/113/110
f 114/114/111 115/115/112 116/116/113
f 117/117/114 118/118/115 119/119/116
f 120/120/117 121/121/118 122/122/119
f 123/123/120 124/124/121 125/125/122
f 126/126/123 127/127/124 128/128/125
f 129/129/126 130/130/127 131/131/128
f 132/132/129 133/133/130 134/134/131
f 135/135/132 136/136/133 137/137/134
f 129/129/126 131/131/128 138/138/135
f 139/139/136 140/140/137 138/138/135
f 141/141/2 31/31/30 30/30/29
f 142/142/138 143/143/139 144/144/140
f 145/145/141 63/63/61 62/62/60
f 146/146/142 69/69/67 147/147/143
f 148/148/144 149/149/145 150/150/146
f 149/149/145 151/151/147 152/152/148
f 153/153/40 154/154/149 155/155/150
f 119/119/116 118/118/115 156/156/151
f 110/110/107 23/23/22 157/157/152
f 55/55/53 158/158/153 105/105/103
f 159/159/154 160/160/155 161/161/156
f 116/116/113 162/162/157 163/163/158
f 164/164/159 165/165/160 166/166/161
f 140/140/137 167/167/162 168/168/163
f 169/169/164 104/104/102 170/170/165
f 171/171/166 168/168/163 172/172/167
f 173/173/168 63/63/61 174/174/169
f 175/175/170 135/135/132 176/176/171
f 177/177/172 178/178/32 179/179/173
f 180/180/174 3/3/3 54/54/52
f 181/181/175 182/182/176 183/183/177
f 184/184/178 185/185/179 186/186/180
f 187/187/181 55/55/53 188/188/182
f 189/189/183 113/113/110 112/112/109
f 190/190/184 191/191/185 192/192/186
f 193/193/187 194/194/188 195/195/189
f 196/196/190 197/197/191 198/198/192
f 199/199/83 200/200/193 201/201/194
f 178/178/32 202/202/120 179/179/173
f 31/31/30 141/141/2 203/203/195
f 77/77/75 34/34/33 33/33/32
f 77/77/75 33/33/32 204/204/172
f 205/205/196 206/206/197 207/207/198
f 208/208/199 209/209/200 210/210/201
f 211/211/202 212/212/203 213/213/204
f 214/214/205 93/93/91 215/215/206
f 198/198/192 216/216/207 217/217/208
f 218/218/209 219/219/210 139/139/136
f 220/220/211 221/221/212 222/222/213
f 223/223/214 224/224/215 225/225/216
f 226/226/217 157/157/152 227/227/218
f 68/68/66 228/228/219 229/229/220
f 230/230/221 231/231/222 232/232/223
f 233/233/224 54/54/52 3/3/3
f 234/234/225 235/235/226 236/236/227
f 237/237/228 238/238/229 239/239/230
f 240/240/231 241/241/232 242/242/233
f 174/174/169 63/63/61 243/243/234
f 244/244/235 245/245/236 246/246/237
f 23/23/22 110/110/107 19/19/18
f 247/247/238 248/248/239 188/188/182
f 172/172/167 249/249/240 250/250/241
f 251/251/242 252/252/243 253/253/244
f 22/22/21 254/254/245 227/227/218
f 174/174/169 255/255/127 173/173/168
f 256/256/246 153/153/40 257/257/247
f 258/258/248 49/49/48 259/259/4
f 260/260/249 261/261/250 262/262/251
f 263/263/252 219/219/210 264/264/253
f 265/265/254 196/196/190 266/266/255
f 263/263/252 264/264/253 267/267/256
f 268/268/257 269/269/80 270/270/76
f 104/104/102 169/169/164 271/271/258
f 179/179/173 217/217/208 272/272/259
f 273/273/260 186/186/180 185/185/179
f 158/158/153 55/55/53 187/187/181
f 274/274/261 190/190/184 192/192/186
f 275/275/239 161/161/156 148/148/144
f 276/276/262 277/277/263 278/278/264
f 7/7/7 279/279/265 280/280/44
f 166/166/161 281/281/266 72/72/70
f 19/19/18 282/282/267 20/20/19
f 122/122/119 61/61/59 283/283/268
f 284/284/269 271/271/258 260/260/249
f 285/285/270 286/286/271 287/287/272
f 263/263/252 288/288/273 167/167/162
f 289/289/274 290/290/275 291/291/276
f 240/240/231 292/292/277 293/293/278
f 264/264/253 219/219/210 218/218/209
f 294/294/279 295/295/280 296/296/281
f 297/297/282 298/298/283 299/299/284
f 42/42/41 41/41/40 300/300/150
f 265/265/254 197/197/191 196/196/190
f 301/301/285 302/302/286 303/303/287
f 228/228/219 304/304/288 305/305/289
f 306/306/290 161/161/156 160/160/155
f 307/307/291 103/103/101 52/52/50
f 308/308/292 309/309/230 310/310/293
f 311/311/294 312/312/274 313/313/295
f 137/137/134 176/176/171 135/135/132
f 314/314/296 315/315/297 302/302/286
f 316/316/298 200/200/193 317/317/299
f 21/21/20 105/105/103 318/318/300
f 215/215/206 93/93/91 319/319/301
f 320/320/302 321/321/303 322/322/304
f 272/272/259 216/216/207 323/323/81
f 324/324/305 325/325/306 326/326/307
f 327/327/308 328/328/309 329/329/310
f 49/49/48 51/51/8 330/330/104
f 331/331/311 253/253/244 332/332/312
f 333/333/313 334/334/314 335/335/315
f 13/13/13 336/336/316 14/14/14
f 221/221/212 160/160/155 159/159/154
f 21/21/20 170/170/165 105/105/103
f 46/46/45 48/48/47 337/337/317
f 338/338/318 252/252/243 339/339/319
f 317/317/299 340/340/85 261/261/250
f 341/341/320 2/2/2 1/1/1
f 262/262/251 342/342/175 343/343/321
f 344/344/322 345/345/323 346/346/324
f 347/347/325 348/348/326 349/349/327
f 350/350/328 351/351/319 352/352/329
f 353/353/330 354/354/331 27/27/26
f 315/315/297 314/314/296 60/60/58
f 133/133/130 132/132/129 355/355/332
f 356/356/333 357/357/334 358/358/335
f 359/359/336 360/360/337 361/361/338
f 276/276/262 156/156/151 362/362/237
f 363/363/339 120/120/117 283/283/268
f 364/364/340 365/365/320 366/366/341
f 367/367/342 368/368/343 369/369/344
f 207/207/198 370/370/345 298/298/283
f 371/371/346 372/372/347 347/347/325
f 121/121/118 120/120/117 373/373/348
f 52/52/50 233/233/224 374/374/349
f 375/375/350 376/376/351 71/71/69
f 377/377/352 336/336/316 378/378/353
f 293/293/278 7/7/7 9/9/9
f 379/379/354 186/186/180 380/380/355
f 62/62/60 136/136/133 135/135/132
f 234/234/225 322/322/304 247/247/238
f 108/108/105 43/43/42 381/381/356
f 382/382/357 383/383/358 315/315/297
f 58/58/56 384/384/359 385/385/118
f 386/386/360 387/387/361 388/388/332
f 389/389/362 390/390/363 391/391/364
f 225/225/216 224/224/215 392/392/365
f 393/393/366 394/394/367 395/395/368
f 396/396/369 397/397/370 398/398/371
f 87/87/85 399/399/372 400/400/373
f 92/92/90 101/101/99 96/96/94
f 171/171/166 140/140/137 168/168/163
f 391/391/364 401/401/374 402/402/375
f 403/403/376 404/404/377 405/405/378
f 406/406/379 407/407/380 408/408/381
f 188/188/182 248/248/239 409/409/382
f 96/96/94 65/65/63 94/94/92
f 358/358/335 357/357/334 410/410/383
f 411/411/384 36/36/35 412/412/385
f 413/413/386 214/214/205 414/414/387
f 373/373/348 120/120/117 113/113/110
f 415/415/388 416/416/389 417/417/390
f 272/272/259 177/177/172 179/179/173
f 418/418/391 419/419/392 420/420/393
f 421/421/394 422/422/395 423/423/396
f 226/226/217 5/5/5 4/4/4
f 424/424/73 425/425/397 264/264/253
f 89/89/87 165/165/160 426/426/398
f 427/427/360 132/132/129 297/297/282
f 428/428/399 429/429/400 430/430/71
f 360/360/337 431/431/86 432/432/401
f 164/164/159 433/433/402 426/426/398
f 434/434/403 175/175/170 435/435/404
f 400/400/373 286/286/271 182/182/176
f 129/129/126 436/436/405 171/171/166
f 284/284/269 387/387/361 236/236/227
f 228/228/219 208/208/199 229/229/220
f 437/437/406 438/438/407 439/439/408
f 263/263/252 167/167/162 219/219/210
f 440/440/409 441/441/410 190/190/184
f 442/442/250 182/182/176 181/181/175
f 271/271/258 235/235/226 57/57/55
f 443/443/411 47/47/46 46/46/45
f 444/444/412 445/445/413 446/446/414
f 232/232/223 206/206/197 447/447/407
f 303/303/287 448/448/415 26/26/25
f 449/449/416 97/97/95 99/99/97
f 450/450/417 451/451/418 452/452/419
f 453/453/420 446/446/414 445/445/413
f 454/454/363 416/416/389 237/237/228
f 183/183/177 455/455/131 456/456/130
f 390/390/363 308/308/292 401/401/374
f 296/296/281 457/457/421 458/458/186
f 91/91/89 413/413/386 459/459/422
f 460/460/423 345/345/323 461/461/424
f 462/462/425 463/463/426 464/464/427
f 465/465/428 466/466/429 467/467/430
f 468/468/431 291/291/276 423/423/396
f 452/452/419 99/99/97 98/98/96
f 246/246/237 335/335/315 469/469/262
f 470/470/432 410/410/383 471/471/433
f 468/468/431 144/144/140 143/143/139
f 176/176/171 142/142/138 472/472/434
f 373/373/348 473/473/435 474/474/57
f 475/475/436 328/328/309 209/209/200
f 476/476/437 63/63/61 145/145/141
f 449/449/416 393/393/366 97/97/95
f 477/477/438 243/243/234 478/478/439
f 71/71/69 73/73/71 479/479/440
f 224/224/215 93/93/91 95/95/93
f 480/480/392 206/206/197 205/205/196
f 22/22/21 227/227/218 23/23/22
f 245/245/236 481/481/441 246/246/237
f 266/266/255 196/196/190 178/178/32
f 482/482/442 483/483/39 484/484/38
f 485/485/443 486/486/444 487/487/303
f 231/231/222 488/488/445 81/81/79
f 393/393/366 369/369/344 368/368/343
f 203/203/195 489/489/446 354/354/331
f 316/316/298 490/490/447 200/200/193
f 491/491/448 492/492/449 493/493/450
f 371/371/346 185/185/179 412/412/385
f 81/81/79 232/232/223 231/231/222
f 116/116/113 163/163/158 225/225/216
f 17/17/16 494/494/451 495/495/452
f 224/224/215 95/95/93 94/94/92
f 496/496/260 193/193/187 497/497/180
f 498/498/453 473/473/435 189/189/183
f 215/215/206 491/491/448 382/382/357
f 499/499/454 500/500/455 225/225/216
f 501/501/456 336/336/316 481/481/441
f 402/402/375 401/401/374 502/502/457
f 503/503/458 142/142/138 137/137/134
f 504/504/314 505/505/313 506/506/459
f 267/267/256 507/507/460 263/263/252
f 508/508/461 66/66/64 65/65/63
f 286/286/271 400/400/373 399/399/372
f 248/248/239 509/509/144 117/117/114
f 510/510/462 511/511/463 337/337/317
f 233/233/224 151/151/147 512/512/464
f 16/16/15 513/513/465 472/472/434
f 293/293/278 9/9/9 241/241/232
f 201/201/194 200/200/193 514/514/466
f 140/140/137 139/139/136 219/219/210
f 63/63/61 173/173/168 64/64/62
f 271/271/258 169/169/164 316/316/298
f 368/368/343 367/367/342 394/394/367
f 286/286/271 285/285/270 182/182/176
f 94/94/92 65/65/63 515/515/467
f 318/318/300 105/105/103 158/158/153
f 222/222/213 516/516/468 485/485/443
f 303/303/287 493/493/450 448/448/415
f 112/112/109 111/111/108 433/433/402
f 84/84/82 256/256/246 257/257/247
f 162/162/157 419/419/392 418/418/391
f 285/285/270 212/212/203 517/517/469
f 518/518/470 489/489/446 364/364/340
f 12/12/12 323/323/81 216/216/207
f 256/256/246 154/154/149 153/153/40
f 466/466/429 465/465/428 519/519/471
f 449/449/416 466/466/429 74/74/72
f 492/492/449 223/223/214 520/520/472
f 412/412/385 184/184/178 411/411/384
f 56/56/54 55/55/53 105/105/103
f 433/433/402 111/111/108 404/404/377
f 210/210/201 521/521/473 208/208/199
f 399/399/372 86/86/84 410/410/383
f 246/246/237 522/522/151 523/523/474
f 253/253/244 331/331/311 98/98/96
f 435/435/404 524/524/475 525/525/476
f 367/367/342 526/526/438 394/394/367
f 260/260/249 262/262/251 284/284/269
f 445/445/413 379/379/354 279/279/265
f 511/511/463 37/37/36 527/527/477
f 528/528/401 88/88/86 90/90/88
f 413/413/386 401/401/374 310/310/293
f 529/529/478 115/115/112 437/437/406
f 286/286/271 399/399/372 287/287/272
f 147/147/143 530/530/479 288/288/273
f 257/257/247 531/531/480 82/82/80
f 370/370/345 79/79/77 220/220/211
f 165/165/160 89/89/87 281/281/266
f 119/119/116 187/187/181 409/409/382
f 502/502/457 414/414/387 214/214/205
f 532/532/426 295/295/280 533/533/427
f 512/512/464 374/374/349 233/233/224
f 170/170/165 21/21/20 20/20/19
f 534/534/481 535/535/120 536/536/192
f 202/202/120 196/196/190 198/198/192
f 272/272/259 217/217/208 216/216/207
f 40/40/39 537/537/442 538/538/482
f 28/28/27 525/525/476 524/524/475
f 539/539/483 540/540/442 541/541/38
f 122/122/119 542/542/425 533/533/427
f 281/281/266 88/88/86 543/543/395
f 206/206/197 480/480/392 447/447/407
f 408/408/381 407/407/380 544/544/136
f 426/426/398 404/404/377 403/403/376
f 397/397/370 392/392/365 94/94/92
f 545/545/98 546/546/484 267/267/256
f 74/74/72 519/519/471 547/547/65
f 18/18/17 495/495/452 524/524/475
f 352/352/329 434/434/403 518/518/470
f 322/322/304 387/387/361 320/320/302
f 301/301/285 441/441/410 548/548/485
f 523/523/474 549/549/115 32/32/31
f 283/283/268 37/37/36 511/511/463
f 419/419/392 183/183/177 420/420/393
f 150/150/146 149/149/145 152/152/148
f 172/172/167 168/168/163 288/288/273
f 1/1/1 3/3/3 180/180/174
f 550/550/486 551/551/487 112/112/109
f 552/552/488 553/553/489 47/47/46
f 554/554/442 265/265/254 266/266/255
f 206/206/197 80/80/78 370/370/345
f 393/393/366 449/449/416 408/408/381
f 10/10/10 514/514/466 11/11/11
f 219/219/210 167/167/162 140/140/137
f 488/488/445 230/230/221 465/465/428
f 555/555/490 238/238/229 237/237/228
f 295/295/280 457/457/421 296/296/281
f 151/151/147 3/3/3 2/2/2
f 5/5/5 506/506/459 505/505/313
f 505/505/313 6/6/6 5/5/5
f 15/15/6 333/333/313 13/13/13
f 16/16/15 461/461/424 17/17/16
f 17/17/16 495/495/452 18/18/17
f 102/102/100 101/101/99 459/459/422
f 101/101/99 92/92/90 459/459/422
f 476/476/437 352/352/329 351/351/319
f 434/434/403 145/145/141 62/62/60
f 318/318/300 22/22/21 21/21/20
f 449/449/416 99/99/97 466/466/429
f 99/99/97 467/467/430 466/466/429
f 29/29/28 378/378/353 27/27/26
f 27/27/26 354/354/331 28/28/27
f 249/249/240 328/328/309 327/327/308
f 327/327/308 250/250/241 249/249/240
f 38/38/37 295/295/280 36/36/35
f 36/36/35 295/295/280 294/294/279
f 244/244/235 523/523/474 32/32/31
f 32/32/31 556/556/491 244/244/235
f 283/283/268 120/120/117 122/122/119
f 222/222/213 221/221/212 516/516/468
f 374/374/349 307/307/291 52/52/50
f 14/14/14 336/336/316 377/377/352
f 144/144/140 557/557/492 16/16/15
f 557/557/492 359/359/336 16/16/15
f 331/331/311 54/54/52 53/53/51
f 54/54/52 233/233/224 52/52/50
f 234/234/225 558/558/493 57/57/55
f 558/558/493 55/55/53 57/57/55
f 67/67/65 515/515/467 65/65/63
f 157/157/152 44/44/43 108/108/105
f 40/40/39 538/538/482 35/35/34
f 239/239/230 559/559/494 560/560/495
f 344/344/322 561/561/232 126/126/123
f 561/561/232 562/562/496 126/126/123
f 563/563/439 394/394/367 526/526/438
f 249/249/240 172/172/167 564/564/497
f 564/564/497 210/210/201 249/249/240
f 533/533/427 38/38/37 61/61/59
f 88/88/86 281/281/266 89/89/87
f 81/81/79 488/488/445 103/103/101
f 488/488/445 451/451/418 103/103/101
f 105/105/103 170/170/165 104/104/102
f 381/381/356 109/109/106 108/108/105
f 109/109/106 282/282/267 110/110/107
f 363/363/339 111/111/108 113/113/110
f 115/115/112 529/529/478 116/116/113
f 119/119/116 409/409/382 117/117/114
f 486/486/444 485/485/443 516/516/468
f 516/516/468 159/159/154 486/486/444
f 11/11/11 565/565/498 282/282/267
f 282/282/267 109/109/106 11/11/11
f 109/109/106 193/193/187 11/11/11
f 193/193/187 566/566/246 11/11/11
f 256/256/246 84/84/82 567/567/11
f 568/568/350 415/415/388 417/417/390
f 128/128/125 494/494/451 461/461/424
f 494/494/451 17/17/16 461/461/424
f 461/461/424 126/126/123 128/128/125
f 129/129/126 250/250/241 130/130/127
f 134/134/131 298/298/283 132/132/129
f 436/436/405 129/129/126 138/138/135
f 405/405/378 404/404/377 569/569/499
f 138/138/135 570/570/344 139/139/136
f 152/152/148 151/151/147 2/2/2
f 144/144/140 472/472/434 142/142/138
f 571/571/327 572/572/185 573/573/500
f 383/383/358 302/302/286 315/315/297
f 306/306/290 149/149/145 148/148/144
f 306/306/290 574/574/501 149/149/145
f 414/414/387 502/502/457 401/401/374
f 518/518/470 435/435/404 489/489/446
f 435/435/404 525/525/476 489/489/446
f 121/121/118 542/542/425 122/122/119
f 159/159/154 516/516/468 221/221/212
f 157/157/152 108/108/105 110/110/107
f 269/269/80 268/268/257 177/177/172
f 68/68/66 70/70/68 238/238/229
f 317/317/299 199/199/83 340/340/85
f 161/161/156 486/486/444 159/159/154
f 550/550/486 71/71/69 376/376/351
f 165/165/160 281/281/266 166/166/161
f 565/565/498 11/11/11 514/514/466
f 487/487/303 486/486/444 161/161/156
f 251/251/242 253/253/244 394/394/367
f 49/49/48 562/562/496 50/50/49
f 524/524/475 175/175/170 176/176/171
f 54/54/52 331/331/311 180/180/174
f 331/331/311 332/332/312 180/180/174
f 114/114/111 397/397/370 115/115/112
f 397/397/370 437/437/406 115/115/112
f 412/412/385 36/36/35 294/294/279
f 186/186/180 379/379/354 184/184/178
f 184/184/178 412/412/385 185/185/179
f 302/302/286 548/548/485 575/575/502
f 548/548/485 463/463/426 575/575/502
f 575/575/502 314/314/296 302/302/286
f 188/188/182 409/409/382 187/187/181
f 55/55/53 558/558/493 188/188/182
f 112/112/109 551/551/487 189/189/183
f 50/50/49 562/562/496 561/561/232
f 190/190/184 470/470/432 191/191/185
f 255/255/127 576/576/503 64/64/62
f 576/576/503 503/503/458 64/64/62
f 62/62/60 64/64/62 136/136/133
f 64/64/62 503/503/458 136/136/133
f 503/503/458 137/137/134 136/136/133
f 566/566/246 193/193/187 195/195/189
f 193/193/187 496/496/260 194/194/188
f 386/386/360 320/320/302 387/387/361
f 199/199/83 317/317/299 200/200/193
f 577/577/82 12/12/12 11/11/11
f 365/365/320 203/203/195 141/141/2
f 203/203/195 556/556/491 31/31/30
f 556/556/491 32/32/31 31/31/30
f 377/377/352 128/128/125 127/127/124
f 312/312/274 578/578/504 475/475/436
f 578/578/504 329/329/310 475/475/436
f 208/208/199 305/305/289 209/209/200
f 228/228/219 68/68/66 304/304/288
f 68/68/66 555/555/490 304/304/288
f 44/44/43 43/43/42 108/108/105
f 460/460/423 461/461/424 359/359/336
f 212/212/203 287/287/272 213/213/204
f 146/146/142 70/70/68 69/69/67
f 568/568/350 579/579/505 415/415/388
f 394/394/367 253/253/244 395/395/368
f 406/406/379 408/408/381 449/449/416
f 214/214/205 91/91/89 93/93/91
f 220/220/211 307/307/291 221/221/212
f 157/157/152 23/23/22 227/227/218
f 146/146/142 559/559/494 70/70/68
f 559/559/494 239/239/230 70/70/68
f 415/415/388 579/579/505 555/555/490
f 579/579/505 304/304/288 555/555/490
f 236/236/227 322/322/304 234/234/225
f 462/462/425 384/384/359 575/575/502
f 384/384/359 314/314/296 575/575/502
f 515/515/467 67/67/65 398/398/371
f 70/70/68 239/239/230 238/238/229
f 580/580/292 454/454/363 237/237/228
f 239/239/230 580/580/292 237/237/228
f 240/240/231 293/293/278 241/241/232
f 7/7/7 280/280/44 8/8/8
f 581/581/506 503/503/458 576/576/503
f 582/582/503 327/327/308 583/583/506
f 246/246/237 523/523/474 244/244/235
f 374/374/349 221/221/212 307/307/291
f 142/142/138 176/176/171 137/137/134
f 250/250/241 171/171/166 172/172/167
f 252/252/243 332/332/312 253/253/244
f 558/558/493 247/247/238 188/188/182
f 551/551/487 375/375/350 584/584/390
f 584/584/390 498/498/453 551/551/487
f 498/498/453 189/189/183 551/551/487
f 582/582/503 130/130/127 250/250/241
f 330/330/104 259/259/4 49/49/48
f 259/259/4 14/14/14 258/258/248
f 14/14/14 377/377/352 127/127/124
f 317/317/299 261/261/250 260/260/249
f 10/10/10 12/12/12 216/216/207
f 16/16/15 359/359/336 461/461/424
f 392/392/365 397/397/370 114/114/111
f 35/35/34 34/34/33 42/42/41
f 264/264/253 425/425/397 267/267/256
f 371/371/346 273/273/260 185/185/179
f 176/176/171 513/513/465 524/524/475
f 513/513/465 18/18/17 524/524/475
f 36/36/35 527/527/477 37/37/36
f 187/187/181 119/119/116 158/158/153
f 104/104/102 57/57/55 56/56/54
f 361/361/338 360/360/337 432/432/401
f 229/229/220 521/521/473 69/69/67
f 275/275/239 487/487/303 161/161/156
f 181/181/175 183/183/177 585/585/321
f 183/183/177 456/456/130 585/585/321
f 456/456/130 586/586/332 585/585/321
f 327/327/308 329/329/310 583/583/506
f 329/329/310 578/578/504 583/583/506
f 296/296/281 458/458/186 372/372/347
f 458/458/186 348/348/326 372/372/347
f 278/278/264 156/156/151 276/276/262
f 453/453/420 279/279/265 7/7/7
f 295/295/280 38/38/37 533/533/427
f 369/369/344 408/408/381 544/544/136
f 284/284/269 235/235/226 271/271/258
f 212/212/203 285/285/270 287/287/272
f 263/263/252 507/507/460 288/288/273
f 391/391/364 402/402/375 59/59/57
f 57/57/55 235/235/226 234/234/225
f 240/240/231 46/46/45 292/292/277
f 587/587/74 264/264/253 218/218/209
f 501/501/456 378/378/353 336/336/316
f 179/179/173 202/202/120 217/217/208
f 297/297/282 132/132/129 298/298/283
f 554/554/442 588/588/507 201/201/194
f 201/201/194 265/265/254 554/554/442
f 548/548/485 302/302/286 301/301/285
f 305/305/289 208/208/199 228/228/219
f 267/267/256 425/425/397 545/545/98
f 589/589/355 381/381/356 43/43/42
f 590/590/42 379/379/354 380/380/355
f 574/574/501 306/306/290 160/160/155
f 411/411/384 511/511/463 527/527/477
f 307/307/291 79/79/77 103/103/101
f 103/103/101 451/451/418 52/52/50
f 451/451/418 450/450/417 53/53/51
f 52/52/50 451/451/418 53/53/51
f 312/312/274 475/475/436 313/313/295
f 313/313/295 428/428/399 311/311/294
f 463/463/426 462/462/425 575/575/502
f 562/562/496 49/49/48 258/258/248
f 111/111/108 363/363/339 569/569/499
f 363/363/339 591/591/508 569/569/499
f 215/215/206 319/319/301 492/492/449
f 592/592/509 519/519/471 465/465/428
f 252/252/243 251/251/242 563/563/439
f 251/251/242 394/394/367 563/563/439
f 45/45/44 44/44/43 106/106/8
f 468/468/431 360/360/337 557/557/492
f 335/335/315 13/13/13 333/333/313
f 13/13/13 335/335/315 336/336/316
f 400/400/373 442/442/250 87/87/85
f 221/221/212 374/374/349 160/160/155
f 285/285/270 420/420/393 183/183/177
f 183/183/177 182/182/176 285/285/270
f 345/345/323 460/460/423 361/361/338
f 593/593/510 354/354/331 245/245/236
f 352/352/329 518/518/470 594/594/511
f 518/518/470 364/364/340 594/594/511
f 595/595/512 446/446/414 337/337/317
f 446/446/414 46/46/45 337/337/317
f 339/339/319 596/596/513 338/338/318
f 277/277/263 158/158/153 278/278/264
f 254/254/245 226/226/217 227/227/218
f 538/538/482 33/33/32 35/35/34
f 565/565/498 20/20/19 282/282/267
f 1/1/1 597/597/514 341/341/320
f 388/388/332 284/284/269 343/343/321
f 284/284/269 262/262/251 343/343/321
f 598/598/324 240/240/231 242/242/233
f 345/345/323 361/361/338 346/346/324
f 346/346/324 599/599/233 344/344/322
f 344/344/322 599/599/233 561/561/232
f 571/571/327 194/194/188 600/600/325
f 347/347/325 372/372/347 348/348/326
f 352/352/329 594/594/511 350/350/328
f 366/366/341 350/350/328 594/594/511
f 245/245/236 354/354/331 353/353/330
f 402/402/375 315/315/297 60/60/58
f 451/451/418 488/488/445 467/467/430
f 467/467/430 99/99/97 452/452/419
f 452/452/419 451/451/418 467/467/430
f 273/273/260 371/371/346 601/601/188
f 371/371/346 347/347/325 601/601/188
f 358/358/335 190/190/184 441/441/410
f 441/441/410 356/356/333 358/358/335
f 460/460/423 359/359/336 361/361/338
f 363/363/339 113/113/110 120/120/117
f 327/327/308 582/582/503 250/250/241
f 243/243/234 476/476/437 478/478/439
f 476/476/437 351/351/319 602/602/515
f 478/478/439 476/476/437 602/602/515
f 126/126/123 562/562/496 127/127/124
f 127/127/124 562/562/496 258/258/248
f 401/401/374 308/308/292 310/310/293
f 366/366/341 594/594/511 364/364/340
f 570/570/344 138/138/135 603/603/342
f 138/138/135 131/131/128 603/603/342
f 272/272/259 323/323/81 269/269/80
f 604/604/362 605/605/453 416/416/389
f 605/605/453 417/417/390 416/416/389
f 74/74/72 76/76/74 406/406/379
f 76/76/74 407/407/380 406/406/379
f 262/262/251 261/261/250 342/342/175
f 370/370/345 299/299/284 298/298/283
f 410/410/383 86/86/84 606/606/516
f 86/86/84 85/85/83 606/606/516
f 606/606/516 471/471/433 410/410/383
f 371/371/346 412/412/385 372/372/347
f 224/224/215 223/223/214 319/319/301
f 223/223/214 492/492/449 319/319/301
f 305/305/289 429/429/400 607/607/517
f 479/479/440 608/608/505 71/71/69
f 608/608/505 375/375/350 71/71/69
f 128/128/125 377/377/352 378/378/353
f 135/135/132 434/434/403 62/62/60
f 572/572/185 571/571/327 609/609/326
f 247/247/238 558/558/493 234/234/225
f 315/315/297 502/502/457 382/382/357
f 588/588/507 610/610/150 195/195/189
f 462/462/425 385/385/118 384/384/359
f 41/41/40 34/34/33 78/78/76
f 14/14/14 127/127/124 258/258/248
f 284/284/269 388/388/332 387/387/361
f 151/151/147 149/149/145 574/574/501
f 604/604/362 416/416/389 454/454/363
f 392/392/365 114/114/111 225/225/216
f 114/114/111 116/116/113 225/225/216
f 393/393/366 368/368/343 394/394/367
f 313/313/295 475/475/436 209/209/200
f 515/515/467 398/398/371 397/397/370
f 611/611/371 592/592/509 612/612/369
f 434/434/403 435/435/404 518/518/470
f 574/574/501 160/160/155 512/512/464
f 316/316/298 317/317/299 260/260/249
f 198/198/192 197/197/191 10/10/10
f 10/10/10 216/216/207 198/198/192
f 95/95/93 92/92/90 96/96/94
f 171/171/166 436/436/405 140/140/137
f 613/613/518 356/356/333 441/441/410
f 547/547/65 75/75/73 74/74/72
f 383/383/358 303/303/287 302/302/286
f 614/614/399 72/72/70 615/615/519
f 463/463/426 548/548/485 440/440/409
f 117/117/114 409/409/382 248/248/239
f 53/53/51 450/450/417 331/331/311
f 450/450/417 98/98/96 331/331/311
f 616/616/169 131/131/128 130/130/127
f 90/90/88 552/552/488 598/598/324
f 552/552/488 443/443/411 598/598/324
f 494/494/451 128/128/125 378/378/353
f 470/470/432 358/358/335 410/410/383
f 418/418/391 517/517/469 162/162/157
f 411/411/384 527/527/477 36/36/35
f 189/189/183 473/473/435 113/113/110
f 473/473/435 373/373/348 113/113/110
f 617/617/438 131/131/128 616/616/169
f 415/415/388 555/555/490 416/416/389
f 272/272/259 269/269/80 177/177/172
f 210/210/201 564/564/497 521/521/473
f 564/564/497 530/530/479 521/521/473
f 290/290/275 618/618/520 423/423/396
f 618/618/520 421/421/394 423/423/396
f 226/226/217 254/254/245 5/5/5
f 80/80/78 79/79/77 370/370/345
f 446/446/414 453/453/420 292/292/277
f 292/292/277 453/453/420 293/293/278
f 434/434/403 352/352/329 145/145/141
f 352/352/329 476/476/437 145/145/141
f 426/426/398 553/553/489 89/89/87
f 553/553/489 552/552/488 89/89/87
f 355/355/332 132/132/129 427/427/360
f 72/72/70 614/614/399 73/73/71
f 360/360/337 422/422/395 431/431/86
f 571/571/327 573/573/500 194/194/188
f 512/512/464 160/160/155 374/374/349
f 211/211/202 24/24/23 499/499/454
f 24/24/23 26/26/25 520/520/472
f 499/499/454 24/24/23 500/500/455
f 520/520/472 500/500/455 24/24/23
f 434/434/403 135/135/132 175/175/170
f 360/360/337 359/359/336 557/557/492
f 569/569/499 404/404/377 111/111/108
f 581/581/506 619/619/504 503/503/458
f 619/619/504 143/143/139 503/503/458
f 238/238/229 555/555/490 68/68/66
f 463/463/426 440/440/409 274/274/261
f 274/274/261 620/620/421 463/463/426
f 587/587/74 424/424/73 264/264/253
f 250/250/241 129/129/126 171/171/166
f 321/321/303 247/247/238 322/322/304
f 134/134/131 205/205/196 207/207/198
f 297/297/282 621/621/302 427/427/360
f 622/622/521 447/447/407 623/623/406
f 10/10/10 197/197/191 514/514/466
f 147/147/143 507/507/460 146/146/142
f 507/507/460 546/546/484 146/146/142
f 147/147/143 288/288/273 507/507/460
f 281/281/266 624/624/522 72/72/70
f 104/104/102 271/271/258 57/57/55
f 595/595/512 444/444/412 446/446/414
f 80/80/78 206/206/197 232/232/223
f 26/26/25 25/25/24 301/301/285
f 301/301/285 303/303/287 26/26/25
f 428/428/399 607/607/517 429/429/400
f 44/44/43 157/157/152 226/226/217
f 497/497/180 193/193/187 589/589/355
f 193/193/187 381/381/356 589/589/355
f 209/209/200 328/328/309 210/210/201
f 452/452/419 98/98/96 450/450/417
f 445/445/413 279/279/265 453/453/420
f 89/89/87 552/552/488 90/90/88
f 183/183/177 625/625/196 455/455/131
f 310/310/293 309/309/230 459/459/422
f 309/309/230 626/626/523 459/459/422
f 459/459/422 413/413/386 310/310/293
f 615/615/519 72/72/70 624/624/522
f 428/428/399 313/313/295 607/607/517
f 313/313/295 209/209/200 607/607/517
f 391/391/364 390/390/363 401/401/374
f 71/71/69 164/164/159 166/166/161
f 402/402/375 60/60/58 59/59/57
f 444/444/412 595/595/512 411/411/384
f 595/595/512 337/337/317 411/411/384
f 337/337/317 511/511/463 411/411/384
f 142/142/138 503/503/458 143/143/139
f 48/48/47 47/47/46 553/553/489
f 345/345/323 344/344/322 461/461/424
f 344/344/322 126/126/123 461/461/424
f 290/290/275 423/423/396 291/291/276
f 613/613/518 441/441/410 301/301/285
f 301/301/285 25/25/24 613/613/518
f 167/167/162 288/288/273 168/168/163
f 192/192/186 620/620/421 274/274/261
f 353/353/330 27/27/26 501/501/456
f 501/501/456 27/27/26 378/378/353
f 283/283/268 61/61/59 37/37/36
f 246/246/237 481/481/441 335/335/315
f 335/335/315 334/334/314 469/469/262
f 573/573/500 572/572/185 627/627/524
f 471/471/433 191/191/185 470/470/432
f 192/192/186 191/191/185 628/628/326
f 143/143/139 291/291/276 468/468/431
f 468/468/431 557/557/492 144/144/140
f 153/153/40 531/531/480 257/257/247
f 513/513/465 176/176/171 472/472/434
f 474/474/57 629/629/525 373/373/348
f 629/629/525 121/121/118 373/373/348
f 247/247/238 321/321/303 248/248/239
f 405/405/378 569/569/499 510/510/462
f 569/569/499 591/591/508 510/510/462
f 236/236/227 235/235/226 284/284/269
f 529/529/478 439/439/408 162/162/157
f 162/162/157 116/116/113 529/529/478
f 476/476/437 243/243/234 63/63/61
f 607/607/517 209/209/200 305/305/289
f 630/630/362 473/473/435 498/498/453
f 399/399/372 357/357/334 287/287/272
f 357/357/334 356/356/333 287/287/272
f 164/164/159 426/426/398 165/165/160
f 64/64/62 173/173/168 255/255/127
f 156/156/151 278/278/264 119/119/116
f 477/477/438 174/174/169 243/243/234
f 289/289/274 291/291/276 143/143/139
f 619/619/504 289/289/274 143/143/139
f 400/400/373 182/182/176 442/442/250
f 224/224/215 319/319/301 93/93/91
f 24/24/23 211/211/202 213/213/204
f 353/353/330 481/481/441 245/245/236
f 631/631/440 429/429/400 304/304/288
f 429/429/400 305/305/289 304/304/288
f 379/379/354 590/590/42 279/279/265
f 590/590/42 280/280/44 279/279/265
f 598/598/324 443/443/411 240/240/231
f 443/443/411 46/46/45 240/240/231
f 509/509/144 632/632/146 117/117/114
f 632/632/146 118/118/115 117/117/114
f 147/147/143 69/69/67 521/521/473
f 169/169/164 170/170/165 490/490/447
f 170/170/165 20/20/19 490/490/447
f 161/161/156 306/306/290 148/148/144
f 487/487/303 621/621/302 485/485/443
f 621/621/302 297/297/282 485/485/443
f 389/389/362 391/391/364 633/633/435
f 391/391/364 59/59/57 633/633/435
f 559/559/494 546/546/484 560/560/495
f 546/546/484 545/545/98 634/634/100
f 560/560/495 546/546/484 634/634/100
f 354/354/331 593/593/510 203/203/195
f 172/172/167 530/530/479 564/564/497
f 316/316/298 169/169/164 490/490/447
f 215/215/206 492/492/449 491/491/448
f 593/593/510 244/244/235 556/556/491
f 556/556/491 203/203/195 593/593/510
f 46/46/45 446/446/414 292/292/277
f 81/81/79 80/80/78 232/232/223
f 94/94/92 392/392/365 224/224/215
f 588/588/507 635/635/38 610/610/150
f 573/573/500 627/627/524 588/588/507
f 199/199/83 201/201/194 636/636/516
f 201/201/194 588/588/507 636/636/516
f 627/627/524 636/636/516 588/588/507
f 213/213/204 287/287/272 24/24/23
f 287/287/272 356/356/333 24/24/23
f 356/356/333 25/25/24 24/24/23
f 92/92/90 95/95/93 93/93/91
f 598/598/324 637/637/526 90/90/88
f 637/637/526 528/528/401 90/90/88
f 459/459/422 626/626/523 102/102/100
f 79/79/77 307/307/291 220/220/211
f 426/426/398 403/403/376 553/553/489
f 403/403/376 405/405/378 553/553/489
f 405/405/378 48/48/47 553/553/489
f 214/214/205 215/215/206 382/382/357
f 212/212/203 499/499/454 517/517/469
f 499/499/454 163/163/158 517/517/469
f 163/163/158 162/162/157 517/517/469
f 372/372/347 412/412/385 294/294/279
f 294/294/279 296/296/281 372/372/347
f 25/25/24 356/356/333 613/613/518
f 223/223/214 225/225/216 500/500/455
f 225/225/216 163/163/158 499/499/454
f 7/7/7 293/293/278 453/453/420
f 336/336/316 335/335/315 481/481/441
f 481/481/441 353/353/330 501/501/456
f 315/315/297 402/402/375 502/502/457
f 506/506/459 277/277/263 504/504/314
f 277/277/263 276/276/262 504/504/314
f 267/267/256 546/546/484 507/507/460
f 508/508/461 638/638/397 66/66/64
f 357/357/334 399/399/372 410/410/383
f 510/510/462 591/591/508 511/511/463
f 495/495/452 494/494/451 29/29/28
f 494/494/451 378/378/353 29/29/28
f 259/259/4 15/15/6 14/14/14
f 3/3/3 151/151/147 233/233/224
f 151/151/147 574/574/501 512/512/464
f 472/472/434 144/144/140 16/16/15
f 16/16/15 18/18/17 513/513/465
f 429/429/400 631/631/440 430/430/71
f 360/360/337 468/468/431 422/422/395
f 468/468/431 423/423/396 422/422/395
f 565/565/498 514/514/466 490/490/447
f 197/197/191 265/265/254 514/514/466
f 20/20/19 565/565/498 490/490/447
f 200/200/193 490/490/447 514/514/466
f 514/514/466 265/265/254 201/201/194
f 211/211/202 499/499/454 212/212/203
f 164/164/159 71/71/69 550/550/486
f 328/328/309 249/249/240 210/210/201
f 260/260/249 271/271/258 316/316/298
f 521/521/473 229/229/220 208/208/199
f 444/444/412 379/379/354 445/445/413
f 252/252/243 338/338/318 332/332/312
f 338/338/318 180/180/174 332/332/312
f 158/158/153 277/277/263 318/318/300
f 277/277/263 506/506/459 318/318/300
f 254/254/245 318/318/300 506/506/459
f 485/485/443 297/297/282 299/299/284
f 299/299/284 222/222/213 485/485/443
f 303/303/287 383/383/358 491/491/448
f 303/303/287 491/491/448 493/493/450
f 229/229/220 69/69/67 68/68/66
f 101/101/99 508/508/461 65/65/63
f 65/65/63 96/96/94 101/101/99
f 411/411/384 184/184/178 444/444/412
f 184/184/178 379/379/354 444/444/412
f 162/162/157 439/439/408 419/419/392
f 418/418/391 420/420/393 517/517/469
f 420/420/393 285/285/270 517/517/469
f 318/318/300 254/254/245 22/22/21
f 638/638/397 508/508/461 100/100/98
f 101/101/99 100/100/98 508/508/461
f 74/74/72 466/466/429 519/519/471
f 381/381/356 193/193/187 109/109/106
f 406/406/379 449/449/416 74/74/72
f 520/520/472 493/493/450 492/492/449
f 223/223/214 500/500/455 520/520/472
f 214/214/205 413/413/386 91/91/89
f 365/365/320 364/364/340 489/489/446
f 489/489/446 203/203/195 365/365/320
f 278/278/264 158/158/153 119/119/116
f 87/87/85 86/86/84 399/399/372
f 232/232/223 447/447/407 622/622/521
f 230/230/221 232/232/223 622/622/521
f 631/631/440 304/304/288 579/579/505
f 550/550/486 433/433/402 164/164/159
f 311/311/294 428/428/399 639/639/520
f 383/383/358 382/382/357 491/491/448
f 448/448/415 493/493/450 520/520/472
f 520/520/472 26/26/25 448/448/415
f 98/98/96 97/97/95 253/253/244
f 97/97/95 395/395/368 253/253/244
f 175/175/170 524/524/475 435/435/404
f 131/131/128 617/617/438 603/603/342
f 97/97/95 393/393/366 395/395/368
f 244/244/235 593/593/510 245/245/236
f 328/328/309 475/475/436 329/329/310
f 384/384/359 58/58/56 314/314/296
f 58/58/56 60/60/58 314/314/296
f 5/5/5 254/254/245 506/506/459
f 289/289/274 640/640/294 290/290/275
f 640/640/294 618/618/520 290/290/275
f 437/437/406 397/397/370 396/396/369
f 437/437/406 396/396/369 641/641/521
f 413/413/386 414/414/387 401/401/374
f 437/437/406 439/439/408 529/529/478
f 147/147/143 521/521/473 530/530/479
f 82/82/80 84/84/82 257/257/247
f 405/405/378 510/510/462 48/48/47
f 510/510/462 337/337/317 48/48/47
f 166/166/161 72/72/70 71/71/69
f 220/220/211 222/222/213 370/370/345
f 222/222/213 299/299/284 370/370/345
f 436/436/405 138/138/135 140/140/137
f 214/214/205 382/382/357 502/502/457
f 532/532/426 457/457/421 295/295/280
f 29/29/28 28/28/27 495/495/452
f 524/524/475 495/495/452 28/28/27
f 533/533/427 61/61/59 122/122/119
f 624/624/522 281/281/266 543/543/395
f 375/375/350 551/551/487 376/376/351
f 439/439/408 438/438/407 419/419/392
f 190/190/184 274/274/261 440/440/409
f 426/426/398 433/433/402 404/404/377
f 354/354/331 489/489/446 28/28/27
f 28/28/27 489/489/446 525/525/476
f 515/515/467 397/397/370 94/94/92
f 298/298/283 134/134/131 207/207/198
f 408/408/381 369/369/344 393/393/366
f 611/611/371 547/547/65 519/519/471
f 592/592/509 611/611/371 519/519/471
f 546/546/484 559/559/494 146/146/142
f 322/322/304 236/236/227 387/387/361
f 440/440/409 548/548/485 441/441/410
f 642/642/146 32/32/31 549/549/115
f 643/643/527 156/156/151 118/118/115
f 511/511/463 591/591/508 283/283/268
f 591/591/508 363/363/339 283/283/268
f 419/419/392 625/625/196 183/183/177
f 152/152/148 644/644/31 150/150/146
f 530/530/479 172/172/167 288/288/273
f 338/338/318 596/596/513 180/180/174
f 596/596/513 597/597/514 180/180/174
f 597/597/514 1/1/1 180/180/174
f 358/358/335 470/470/432 190/190/184
f 433/433/402 550/550/486 112/112/109
f 550/550/486 376/376/351 551/551/487
f 107/107/104 44/44/43 226/226/217
f 4/4/4 107/107/104 226/226/217
f 207/207/198 206/206/197 370/370/345
f 465/465/428 230/230/221 612/612/369
f 612/612/369 230/230/221 622/622/521
f 612/612/369 592/592/509 465/465/428
f 194/194/188 573/573/500 195/195/189
f 573/573/500 588/588/507 195/195/189
f 465/465/428 467/467/430 488/488/445
f 488/488/445 231/231/222 230/230/221
f 19/19/18 110/110/107 282/282/267
f 300/300/150 39/39/38 42/42/41
f 39/39/38 35/35/34 42/42/41
f 443/443/411 552/552/488 47/47/46
f 91/91/89 459/459/422 92/92/90
f 237/237/228 416/416/389 555/555/490
