# Blender 4.0.2
# www.blender.org
mtllib shield.mtl
o Shield_Material.002_0
v -0.000070 -0.285049 0.079668
v -0.008867 -0.119968 0.089429
v -0.140863 -0.128629 0.069491
v -0.000166 -0.342892 0.035406
v -0.001113 -0.146295 0.074897
v 0.175461 -0.146295 0.035406
v -0.180528 -0.146295 0.035406
v 0.141829 -0.131370 0.067803
v 0.083109 0.130789 0.081234
v -0.000240 0.047220 0.088841
v 0.081440 0.149161 0.089025
v 0.173024 0.133193 0.066277
v -0.096711 0.131305 0.077553
v -0.092390 0.151099 0.085931
v -0.174053 0.135522 0.066004
v -0.180307 -0.146620 0.058861
v -0.213457 0.188303 0.058861
v -0.213457 0.188303 0.035406
v -0.180528 -0.146295 0.035406
v 0.175461 -0.146295 0.035406
v 0.213165 0.187967 0.035406
v 0.213165 0.187967 0.058861
v 0.175461 -0.146295 0.058861
v -0.000166 -0.342892 0.035406
v -0.000166 -0.342892 0.058861
v -0.000166 -0.342892 0.058861
v -0.000166 -0.342892 0.035406
v -0.092084 0.197543 0.053847
v -0.213457 0.188303 0.035406
v -0.213457 0.188303 0.058861
v -0.089616 0.197575 0.085891
v -0.213457 0.188303 0.058861
v -0.089616 0.197575 0.085891
v 0.079119 0.198274 0.055580
v -0.001155 0.222646 0.067662
v -0.000930 0.222703 0.106141
v 0.081819 0.198309 0.088432
v -0.021974 -0.010926 0.009979
v 0.023315 -0.010926 0.009979
v 0.023315 0.050817 0.009979
v -0.021974 0.050817 0.009979
v 0.023315 -0.078667 0.025204
v 0.023315 -0.098236 0.059529
v -0.021974 -0.098236 0.059529
v -0.021974 -0.078667 0.025204
v -0.021974 -0.073037 0.043596
v -0.021974 -0.088106 0.074545
v 0.023315 -0.088106 0.074545
v 0.023315 -0.073037 0.043596
v -0.021974 -0.078667 0.025204
v -0.021974 -0.098236 0.059529
v -0.021974 -0.088106 0.074545
v -0.021974 -0.073037 0.043596
v 0.023315 0.059760 -0.007740
v 0.023315 0.079302 0.058794
v 0.023315 0.071623 0.076346
v 0.023315 0.050817 0.009979
v 0.023315 0.050817 0.009979
v 0.023315 0.071623 0.076346
v -0.021974 0.071623 0.076346
v -0.021974 0.050817 0.009979
v -0.021974 0.059760 -0.007740
v -0.021974 0.079302 0.058794
v 0.023315 0.079302 0.058794
v 0.023315 0.059760 -0.007740
v -0.021974 0.050817 0.009979
v -0.021974 0.071623 0.076346
v -0.021974 0.079302 0.058794
v -0.021974 0.059760 -0.007740
v -0.021974 0.108805 0.057627
v -0.021974 0.110509 0.075336
v 0.023315 0.110509 0.075336
v 0.023315 0.108805 0.057627
v -0.021974 0.079302 0.058794
v -0.021974 0.108805 0.057627
v 0.023315 0.108805 0.057627
v 0.023315 0.079302 0.058794
v -0.021974 0.110509 0.075336
v -0.021974 0.108805 0.057627
v 0.023315 0.108805 0.057627
v 0.023315 0.110509 0.075336
v 0.023315 -0.010926 0.009979
v 0.023315 -0.015157 -0.007740
v -0.021974 -0.015157 -0.007740
v -0.021974 -0.010926 0.009979
v 0.023315 -0.015157 -0.007740
v -0.021974 -0.015157 -0.007740
v -0.021974 0.059760 -0.007740
v 0.023315 0.059760 -0.007740
v 0.023315 -0.141597 0.057566
v 0.023315 -0.143531 0.075281
v -0.021974 -0.143531 0.075281
v -0.021974 -0.141597 0.057566
v 0.023315 -0.098236 0.059529
v 0.023315 -0.141597 0.057566
v -0.021974 -0.141597 0.057566
v -0.021974 -0.098236 0.059529
v -0.021974 -0.141597 0.057566
v -0.021974 -0.143531 0.075281
v 0.023315 -0.088106 0.074545
v 0.023315 -0.143531 0.075281
v 0.023315 -0.141597 0.057566
v 0.023315 -0.098236 0.059529
v 0.023315 -0.078667 0.025204
v 0.023315 -0.053962 0.005569
v 0.023315 -0.049322 0.023770
v 0.023315 -0.073037 0.043596
v -0.021974 -0.053962 0.005569
v 0.023315 -0.053962 0.005569
v -0.021974 -0.049322 0.023770
v -0.021974 -0.053962 0.005569
v 0.023315 -0.049322 0.023770
v -0.021974 -0.049322 0.023770
v -0.180307 -0.146620 0.058861
v -0.000166 -0.342892 0.058861
v 0.175461 -0.146295 0.058861
v -0.000166 -0.342892 0.058861
v 0.213165 0.187967 0.058861
v 0.213165 0.187967 0.035406
v 0.213165 0.187967 0.058861
v 0.081819 0.198309 0.088432
v -0.000930 0.222703 0.106141
v -0.000355 0.079785 0.100601
v -0.000355 0.079785 0.100601
v -0.001155 0.222646 0.067662
v 0.079119 0.198274 0.055580
v 0.213165 0.187967 0.035406
v -0.213457 0.188303 0.035406
v -0.092084 0.197543 0.053847
vn 0.0059 -0.2014 0.9795
vn -0.0065 -0.0326 0.9994
vn -0.2147 -0.0877 0.9727
vn -0.0012 0.1969 -0.9804
vn -0.0006 0.0968 -0.9953
vn -0.1932 0.0649 -0.9790
vn 0.1918 0.0645 -0.9793
vn 0.2183 -0.0922 0.9715
vn 0.2391 -0.2215 0.9454
vn -0.0044 -0.0884 0.9961
vn 0.2300 -0.1419 0.9628
vn 0.2085 -0.0306 0.9775
vn -0.2238 -0.2038 0.9531
vn -0.2342 -0.1362 0.9626
vn -0.2061 -0.0274 0.9781
vn -0.9116 -0.4112 0.0014
vn -0.9952 -0.0982 0.0040
vn -0.9143 -0.4051 0.0016
vn 0.9128 -0.4084 -0.0000
vn 0.9937 -0.1121 -0.0000
vn 0.7458 -0.6662 -0.0000
vn -0.7368 -0.6761 -0.0012
vn -0.1603 0.9871 0.0055
vn -0.0758 0.9971 0.0028
vn -0.1923 0.9813 0.0066
vn -0.2238 -0.0142 0.9745
vn -0.2071 -0.0197 0.9781
vn 0.1772 0.9841 -0.0085
vn 0.0059 1.0000 -0.0019
vn 0.0097 1.0000 -0.0021
vn 0.1904 0.9817 -0.0090
vn -0.0000 0.1716 0.9852
vn -0.0000 -0.0000 1.0000
vn -0.0000 -0.7592 -0.6509
vn -0.0000 -0.8687 -0.4953
vn -0.0000 0.7877 0.6161
vn -0.0000 0.8991 0.4378
vn -1.0000 -0.0000 -0.0000
vn 1.0000 -0.0000 -0.0000
vn -0.0000 -0.9542 0.2992
vn -0.0000 0.9595 -0.2818
vn -0.0000 0.9954 -0.0958
vn -0.0000 -0.0395 -0.9992
vn -0.0000 -0.1645 -0.9864
vn -0.0000 -0.0000 -1.0000
vn -0.0000 -0.9941 -0.1086
vn -0.0000 0.0452 -0.9990
vn -0.0000 -0.4803 -0.8771
vn -0.0000 0.4974 0.8675
vn -0.2597 -0.1287 0.9571
vn 0.0031 -0.2482 0.9687
vn 0.2656 -0.1325 0.9549
vn 0.2275 -0.0170 0.9736
vn 0.0768 0.9970 -0.0043
vn 0.2022 -0.0199 0.9791
vn -0.0086 -0.0261 0.9996
vn 0.0071 -0.2445 0.9696
vn 0.0016 -0.0011 -1.0000
vn -0.1811 -0.0004 -0.9835
vn 0.1808 -0.0017 -0.9835
vt 0.060925 0.736112
vt 0.170443 0.713376
vt 0.151714 0.627039
vt 0.420651 0.733310
vt 0.554169 0.723700
vt 0.543779 0.602419
vt 0.561220 0.845205
vt 0.173425 0.823312
vt 0.353560 0.750323
vt 0.283885 0.698261
vt 0.364796 0.746575
vt 0.372560 0.818425
vt 0.333535 0.628182
vt 0.346638 0.628421
vt 0.332793 0.580016
vt 0.137815 0.604958
vt 0.360747 0.553783
vt 0.357042 0.538173
vt 0.130109 0.592034
vt 0.162495 0.860479
vt 0.415334 0.856301
vt 0.415068 0.840247
vt 0.166854 0.846062
vt 0.009030 0.754697
vt 0.020297 0.741101
vt 0.020297 0.741101
vt 0.006716 0.730348
vt 0.389112 0.623891
vt 0.375775 0.548169
vt 0.373532 0.625676
vt 0.411213 0.740324
vt 0.399104 0.680619
vt 0.383111 0.679536
vt 0.395080 0.739731
vt 0.953330 0.776769
vt 0.983681 0.776769
vt 0.983681 0.818146
vt 0.953330 0.818146
vt 0.936200 0.526126
vt 0.928021 0.496721
vt 0.967403 0.490390
vt 0.967502 0.522185
vt 0.953330 0.728714
vt 0.953330 0.705646
vt 0.983681 0.705646
vt 0.983681 0.728714
vt 0.981856 0.490438
vt 0.978125 0.513659
vt 0.947578 0.614612
vt 0.946474 0.651230
vt 0.937852 0.654012
vt 0.938961 0.616759
vt 0.983681 0.864756
vt 0.953330 0.864756
vt 0.971102 0.613536
vt 0.974137 0.651453
vt 0.979897 0.614821
vt 0.983930 0.654293
vt 0.972003 0.668880
vt 0.971336 0.681028
vt 0.945773 0.676850
vt 0.947414 0.666808
vt 0.979285 0.670523
vt 0.941250 0.667791
vt 0.930939 0.575598
vt 0.942755 0.573188
vt 0.970437 0.571014
vt 0.982784 0.571545
vt 0.922149 0.460199
vt 0.918173 0.445013
vt 0.956766 0.434909
vt 0.960021 0.452301
vt 0.973394 0.448869
vt 0.915239 0.500943
vt 0.909205 0.461595
vt 0.939397 0.546768
vt 0.926349 0.544913
vt 0.924336 0.520578
vt 0.968944 0.543727
vt 0.981774 0.539117
vt 0.983681 0.749429
vt 0.953330 0.749429
vt 0.431434 0.840023
vt 0.303873 0.694533
vt 0.303873 0.694533
vt 0.787982 0.720452
vt 0.788141 0.660774
vt 0.788406 0.561120
vt 0.790047 0.852462
vt 0.788866 0.776992
s 1
usemtl Material.006
f 1/1/1 2/2/2 3/3/3
f 4/4/4 5/5/5 6/6/6
f 4/4/4 7/7/7 5/5/5
f 1/1/1 8/8/8 2/2/2
f 2/2/2 9/9/9 10/10/10
f 11/11/11 9/9/9 12/12/12
f 13/13/13 14/14/14 15/15/15
f 13/13/13 2/2/2 10/10/10
f 16/16/16 17/17/17 18/18/17
f 16/16/16 18/18/17 19/19/18
f 20/20/19 21/21/20 22/22/20
f 20/20/19 22/22/20 23/23/19
f 24/24/21 20/20/19 23/23/19
f 24/24/21 23/23/19 25/25/21
f 26/26/22 16/16/16 19/19/18
f 26/26/22 19/19/18 27/27/22
f 28/28/23 29/29/24 30/17/24
f 28/28/23 30/17/24 31/30/25
f 32/17/26 15/15/15 14/14/14
f 32/17/26 14/14/14 33/30/27
f 34/31/28 35/32/29 36/33/30
f 34/31/28 36/33/30 37/34/31
f 38/35/32 39/36/32 40/37/33
f 38/35/32 40/37/33 41/38/33
f 42/39/34 43/40/35 44/41/35
f 42/39/34 44/41/35 45/42/34
f 46/43/36 47/44/37 48/45/37
f 46/43/36 48/45/37 49/46/36
s 0
f 50/42/38 51/41/38 52/47/38
f 50/42/38 52/47/38 53/48/38
f 54/49/39 55/50/39 56/51/39
f 54/49/39 56/51/39 57/52/39
f 58/37/40 59/53/40 60/54/40
f 58/37/40 60/54/40 61/38/40
f 62/55/41 63/56/41 64/50/41
f 62/55/41 64/50/41 65/49/41
f 66/57/38 67/58/38 68/56/38
f 66/57/38 68/56/38 69/55/38
f 70/59/42 71/60/42 72/61/42
f 70/59/42 72/61/42 73/62/42
f 74/56/43 75/59/43 76/62/43
f 74/56/43 76/62/43 77/50/43
f 67/58/38 78/63/38 79/59/38
f 67/58/38 79/59/38 68/56/38
f 55/50/39 80/62/39 81/64/39
f 55/50/39 81/64/39 56/51/39
f 82/65/39 83/66/39 54/49/39
f 82/65/39 54/49/39 57/52/39
f 84/67/38 85/68/38 66/57/38
f 84/67/38 66/57/38 69/55/38
s 1
f 86/66/44 87/67/44 88/55/45
f 86/66/44 88/55/45 89/49/45
s 0
f 90/69/46 91/70/46 92/71/46
f 90/69/46 92/71/46 93/72/46
f 94/40/47 95/69/47 96/72/47
f 94/40/47 96/72/47 97/41/47
f 51/41/38 98/72/38 99/73/38
f 51/41/38 99/73/38 52/47/38
f 100/74/39 101/75/39 102/69/39
f 100/74/39 102/69/39 103/40/39
f 104/39/39 105/76/39 106/77/39
f 104/39/39 106/77/39 107/78/39
f 105/76/39 83/66/39 82/65/39
f 105/76/39 82/65/39 106/77/39
s 1
f 45/42/34 108/79/48 109/76/48
f 45/42/34 109/76/48 42/39/34
f 108/79/48 87/67/44 86/66/44
f 108/79/48 86/66/44 109/76/48
s 0
f 53/48/38 110/80/38 111/79/38
f 53/48/38 111/79/38 50/42/38
f 110/80/38 85/68/38 84/67/38
f 110/80/38 84/67/38 111/79/38
s 1
f 49/46/36 112/81/49 113/82/49
f 49/46/36 113/82/49 46/43/36
f 112/81/49 39/36/32 38/35/32
f 112/81/49 38/35/32 113/82/49
s 0
f 107/78/39 100/74/39 103/40/39
f 107/78/39 103/40/39 104/39/39
s 1
f 3/3/3 15/15/15 32/17/26
f 3/3/3 32/17/26 114/16/50
f 8/8/8 1/1/1 115/25/51
f 8/8/8 115/25/51 116/23/52
f 1/1/1 3/3/3 114/16/50
f 1/1/1 114/16/50 117/26/51
f 12/12/12 8/8/8 116/23/52
f 12/12/12 116/23/52 118/22/53
f 8/8/8 12/12/12 9/9/9
f 8/8/8 9/9/9 2/2/2
f 119/83/54 34/31/28 37/34/31
f 119/83/54 37/34/31 120/22/54
f 35/32/29 28/28/23 31/30/25
f 35/32/29 31/30/25 36/33/30
f 121/34/55 11/11/11 12/12/12
f 121/34/55 12/12/12 118/22/53
f 2/2/2 13/13/13 15/15/15
f 2/2/2 15/15/15 3/3/3
f 11/11/11 121/34/55 122/33/56
f 11/11/11 122/33/56 123/84/57
f 33/30/27 14/14/14 124/85/57
f 33/30/27 124/85/57 122/33/56
f 11/11/11 123/84/57 10/10/10
f 11/11/11 10/10/10 9/9/9
f 124/85/57 14/14/14 13/13/13
f 124/85/57 13/13/13 10/10/10
f 125/86/58 6/6/6 5/5/5
f 6/6/6 125/86/58 126/87/59
f 6/6/6 126/87/59 127/88/59
f 128/89/60 5/5/5 7/7/7
f 5/5/5 128/89/60 129/90/60
f 5/5/5 129/90/60 125/86/58
