# Blender 4.0.2
# www.blender.org
mtllib spear.mtl
o Spear_Material.002_0
v 0.000000 0.668001 0.019467
v 0.000001 0.839004 0.004068
v -0.023758 0.668003 0.000009
v 0.023743 0.668002 0.000009
v 0.000001 0.839004 0.004068
v 0.000000 0.668001 0.019467
v 0.000001 0.839004 -0.004091
v 0.000001 0.839004 0.004068
v 0.023743 0.668002 0.000009
v -0.023758 0.668003 0.000009
v 0.000001 0.839004 0.004068
v 0.000001 0.839004 -0.004091
v 0.000000 0.668001 -0.019449
v -0.023758 0.668003 0.000009
v 0.000001 0.839004 -0.004091
v 0.023743 0.668002 0.000009
v 0.000000 0.668001 -0.019449
v 0.000001 0.839004 -0.004091
v 0.055101 0.545662 0.000009
v 0.042138 0.578912 0.000024
v 0.000001 0.578602 0.031707
v 0.000001 0.539240 0.047543
v 0.000001 0.539240 0.047543
v 0.000001 0.578602 0.031707
v -0.042148 0.578910 0.000024
v -0.055098 0.545662 0.000009
v -0.021423 0.528027 0.021366
v -0.021423 0.486760 0.021337
v 0.000001 0.486766 0.028380
v 0.000001 0.528033 0.028400
v 0.021425 0.528027 0.021366
v 0.021425 0.486760 0.021337
v 0.029436 0.486754 0.000009
v 0.029436 0.528022 0.000009
v -0.029433 0.528022 0.000009
v -0.029433 0.486754 0.000009
v 0.000001 0.486830 0.022918
v 0.000001 0.486766 0.028380
v -0.021423 0.486760 0.021337
v -0.017484 0.486831 0.017170
v 0.023894 0.486822 0.000009
v 0.029436 0.486754 0.000009
v 0.021425 0.486760 0.021337
v 0.017486 0.486831 0.017170
v -0.029433 0.486754 0.000009
v -0.023891 0.486822 0.000009
v -0.000001 0.149664 -0.021524
v -0.000001 0.530752 -0.026899
v 0.019012 0.530752 -0.019024
v 0.015212 0.149664 -0.015223
v 0.026888 0.530752 -0.000010
v 0.021513 0.149664 -0.000010
v 0.021513 0.149664 -0.000010
v 0.026888 0.530752 -0.000010
v 0.019012 0.530752 0.019003
v 0.015212 0.149664 0.015203
v -0.000001 0.530752 0.026879
v -0.000001 0.149664 0.021504
v -0.019014 0.530752 0.019003
v -0.015214 0.149664 0.015203
v -0.026890 0.530752 -0.000010
v -0.021515 0.149664 -0.000010
v -0.019014 0.530752 -0.019024
v -0.015214 0.149664 -0.015223
v -0.013015 -0.603716 -0.013024
v -0.014049 -0.227026 -0.014058
v -0.000001 -0.227026 -0.019876
v -0.000001 -0.603716 -0.018414
v -0.018405 -0.603716 -0.000010
v -0.019867 -0.227026 -0.000010
v -0.013015 -0.603716 0.013004
v -0.014049 -0.227026 0.014037
v -0.000001 -0.603716 0.018394
v -0.000001 -0.227026 0.019856
v 0.013013 -0.603716 0.013004
v 0.014046 -0.227026 0.014037
v 0.018403 -0.603716 -0.000010
v 0.019865 -0.227026 -0.000010
v 0.013013 -0.603716 -0.013024
v 0.014046 -0.227026 -0.014058
v 0.019865 -0.227026 -0.000010
v 0.018403 -0.603716 -0.000010
v 0.055101 0.545662 0.000009
v 0.000001 0.539240 -0.047526
v 0.000001 0.578602 -0.031689
v 0.042138 0.578912 0.000024
v 0.000001 0.539240 -0.047526
v -0.055098 0.545662 0.000009
v -0.042148 0.578910 0.000024
v 0.000001 0.578602 -0.031689
v -0.021423 0.528027 -0.021349
v 0.000001 0.528033 -0.028383
v 0.000001 0.486766 -0.028363
v -0.021423 0.486760 -0.021320
v 0.021425 0.528027 -0.021349
v 0.021425 0.486760 -0.021320
v 0.000001 0.486830 -0.022901
v -0.017484 0.486831 -0.017153
v -0.021423 0.486760 -0.021320
v 0.000001 0.486766 -0.028363
v 0.017486 0.486831 -0.017153
v 0.021425 0.486760 -0.021320
v 0.000001 0.528033 0.028400
v 0.021425 0.528027 0.021366
v 0.029436 0.528022 0.000009
v 0.055101 0.545662 0.000009
v 0.000001 0.539240 0.047543
v -0.029433 0.528022 0.000009
v -0.021423 0.528027 0.021366
v 0.000001 0.528033 0.028400
v 0.000001 0.539240 0.047543
v -0.055098 0.545662 0.000009
v -0.000001 -0.603716 -0.018414
v 0.013013 -0.603716 -0.013024
v 0.018403 -0.603716 -0.000010
v 0.013013 -0.603716 0.013004
v -0.000001 -0.603716 0.018394
v -0.013015 -0.603716 0.013004
v -0.018405 -0.603716 -0.000010
v -0.013015 -0.603716 -0.013024
v 0.000001 0.528033 -0.028383
v 0.000001 0.539240 -0.047526
v 0.055101 0.545662 0.000009
v 0.029436 0.528022 0.000009
v 0.021425 0.528027 -0.021349
v -0.029433 0.528022 0.000009
v -0.055098 0.545662 0.000009
v 0.000001 0.539240 -0.047526
v 0.000001 0.528033 -0.028383
v -0.021423 0.528027 -0.021349
vn -0.6200 0.0941 0.7789
vn -0.6321 0.0695 0.7718
vn -0.6195 0.0951 0.7792
vn 0.6197 0.0951 0.7791
vn 0.6323 0.0695 0.7716
vn 0.6202 0.0941 0.7788
vn 0.9905 0.1375 -0.0000
vn -0.9905 0.1376 -0.0000
vn -0.6201 0.0940 -0.7789
vn -0.6196 0.0950 -0.7791
vn -0.6321 0.0693 -0.7718
vn 0.6198 0.0950 -0.7790
vn 0.6203 0.0940 -0.7787
vn 0.6323 0.0693 -0.7716
vn 0.5966 0.2711 0.7554
vn 0.6037 0.2050 0.7704
vn 0.6039 0.2020 0.7711
vn -0.5966 0.2710 0.7554
vn -0.6038 0.2019 0.7711
vn -0.6036 0.2049 0.7705
vn -0.6921 -0.0004 0.7218
vn -0.6924 -0.0004 0.7215
vn 0.0001 -0.0006 1.0000
vn 0.6920 -0.0004 0.7219
vn 0.6923 -0.0004 0.7216
vn 1.0000 -0.0002 -0.0000
vn 1.0000 -0.0000 -0.0000
vn -1.0000 -0.0002 -0.0000
vn -1.0000 -0.0000 -0.0000
vn 0.0001 -0.9999 -0.0121
vn -0.0000 -0.9999 -0.0122
vn 0.0086 -0.9999 -0.0088
vn 0.0084 -0.9999 -0.0082
vn -0.0127 -0.9999 -0.0000
vn -0.0125 -0.9999 -0.0000
vn -0.0088 -0.9999 -0.0087
vn -0.0085 -0.9999 -0.0083
vn 0.0124 -0.9999 -0.0000
vn 0.0127 -0.9999 -0.0000
vn -0.0000 -0.0092 -1.0000
vn -0.0000 -0.0141 -0.9999
vn 0.7070 -0.0141 -0.7070
vn 0.7071 -0.0092 -0.7071
vn 0.9999 -0.0141 -0.0000
vn 1.0000 -0.0093 -0.0000
vn 1.0000 -0.0092 -0.0000
vn 0.7070 -0.0141 0.7070
vn 0.7071 -0.0092 0.7071
vn -0.0000 -0.0141 0.9999
vn -0.0000 -0.0092 1.0000
vn -0.7070 -0.0141 0.7070
vn -0.7071 -0.0092 0.7071
vn -0.9999 -0.0141 -0.0000
vn -1.0000 -0.0092 -0.0000
vn -0.7070 -0.0141 -0.7070
vn -0.7071 -0.0092 -0.7071
vn -0.7071 -0.0039 -0.7071
vn -0.7071 -0.0041 -0.7071
vn -0.0000 -0.0041 -1.0000
vn -0.0000 -0.0039 -1.0000
vn -1.0000 -0.0039 -0.0000
vn -1.0000 -0.0041 -0.0000
vn -0.7071 -0.0039 0.7071
vn -0.7071 -0.0041 0.7071
vn -0.0000 -0.0039 1.0000
vn -0.0000 -0.0041 1.0000
vn 0.7071 -0.0039 0.7071
vn 0.7071 -0.0041 0.7071
vn 1.0000 -0.0039 -0.0000
vn 1.0000 -0.0041 -0.0000
vn 0.7071 -0.0039 -0.7071
vn 0.7071 -0.0041 -0.7071
vn 0.5967 0.2714 -0.7552
vn 0.6041 0.2021 -0.7709
vn 0.6038 0.2051 -0.7703
vn -0.5967 0.2713 -0.7552
vn -0.6037 0.2050 -0.7704
vn -0.6040 0.2020 -0.7710
vn -0.6921 -0.0004 -0.7218
vn 0.0001 -0.0006 -1.0000
vn -0.6924 -0.0004 -0.7215
vn 0.6920 -0.0004 -0.7219
vn 0.6923 -0.0004 -0.7216
vn 0.0001 -0.9999 0.0121
vn 0.0084 -0.9999 0.0082
vn 0.0086 -0.9999 0.0088
vn -0.0000 -0.9999 0.0122
vn -0.0085 -0.9999 0.0083
vn -0.0088 -0.9999 0.0087
vn 0.5428 -0.6487 0.5335
vn 0.5427 -0.6487 0.5335
vn 0.5427 -0.6486 0.5336
vn -0.5427 -0.6486 0.5336
vn -0.5428 -0.6486 0.5335
vn -0.5428 -0.6486 0.5336
vn -0.5427 -0.6487 0.5336
vn -0.0000 -1.0000 -0.0000
vn 0.5428 -0.6487 -0.5335
vn 0.5427 -0.6487 -0.5335
vn 0.5427 -0.6486 -0.5336
vn -0.5427 -0.6486 -0.5336
vn -0.5428 -0.6486 -0.5335
vn -0.5428 -0.6486 -0.5336
vn -0.5427 -0.6487 -0.5335
vt 0.871231 0.152713
vt 0.866177 0.015557
vt 0.893620 0.150866
vt 0.848090 0.152162
vt 0.859601 0.014271
vt 0.872593 0.014382
vt 0.831536 0.234139
vt 0.837852 0.213559
vt 0.872715 0.215478
vt 0.873010 0.240804
vt 0.907799 0.212142
vt 0.914983 0.233162
vt 0.889849 0.249584
vt 0.887942 0.279640
vt 0.872530 0.279005
vt 0.873043 0.250370
vt 0.856449 0.249509
vt 0.857374 0.278604
vt 0.842720 0.279584
vt 0.841470 0.251358
vt 0.905447 0.251549
vt 0.903348 0.281707
vt 0.872404 0.282878
vt 0.887548 0.283452
vt 0.844473 0.283331
vt 0.857530 0.282304
vt 0.901218 0.285521
vt 0.275148 0.502372
vt 0.007614 0.508097
vt 0.008000 0.522530
vt 0.275353 0.513937
vt 0.008541 0.536956
vt 0.275639 0.525489
vt 0.275638 0.432948
vt 0.008541 0.421483
vt 0.008000 0.435911
vt 0.275353 0.444501
vt 0.007614 0.450344
vt 0.275148 0.456066
vt 0.007382 0.464782
vt 0.275026 0.467640
vt 0.007305 0.479221
vt 0.274985 0.479219
vt 0.007382 0.493661
vt 0.275026 0.490797
vt 0.803852 0.489099
vt 0.539592 0.489885
vt 0.539643 0.500552
vt 0.803896 0.498980
vt 0.803838 0.479218
vt 0.539575 0.479219
vt 0.803852 0.469337
vt 0.539592 0.468552
vt 0.803896 0.459456
vt 0.539643 0.457885
vt 0.803970 0.449575
vt 0.539728 0.447219
vt 0.804072 0.439695
vt 0.539847 0.436553
vt 0.803970 0.508860
vt 0.539729 0.511218
vt 0.539848 0.521883
vt 0.804072 0.518740
vt 0.487316 0.296267
vt 0.480325 0.279389
vt 0.480325 0.289276
vt 0.497203 0.296267
vt 0.487316 0.272398
vt 0.504193 0.289276
vt 0.497203 0.272398
vt 0.504193 0.279389
s 1
usemtl Material.006
f 1/1/1 2/2/2 3/3/3
f 4/4/4 5/2/5 6/1/6
s 0
f 7/5/7 8/2/7 9/4/7
f 10/3/8 11/2/8 12/6/8
s 1
f 13/1/9 14/3/10 15/2/11
f 16/4/12 17/1/13 18/2/14
f 19/7/15 20/8/16 21/9/17
f 19/7/15 21/9/17 22/10/15
f 23/10/18 24/9/19 25/11/20
f 23/10/18 25/11/20 26/12/18
f 27/13/21 28/14/22 29/15/23
f 27/13/21 29/15/23 30/16/23
f 31/17/24 32/18/25 33/19/26
f 31/17/24 33/19/26 34/20/27
f 30/16/23 29/15/23 32/18/25
f 30/16/23 32/18/25 31/17/24
f 35/21/28 36/22/29 28/14/22
f 35/21/28 28/14/22 27/13/21
f 3/3/3 25/11/20 24/9/19
f 3/3/3 24/9/19 1/1/1
f 6/1/6 21/9/17 20/8/16
f 6/1/6 20/8/16 4/4/4
f 37/23/30 38/15/31 39/14/32
f 37/23/30 39/14/32 40/24/33
f 41/25/34 42/19/35 43/18/36
f 41/25/34 43/18/36 44/26/37
f 40/24/33 39/14/32 45/22/38
f 40/24/33 45/22/38 46/27/39
f 44/26/37 43/18/36 38/15/31
f 44/26/37 38/15/31 37/23/30
f 47/28/40 48/29/41 49/30/42
f 47/28/40 49/30/42 50/31/43
f 50/31/43 49/30/42 51/32/44
f 50/31/43 51/32/44 52/33/45
f 53/34/46 54/35/44 55/36/47
f 53/34/46 55/36/47 56/37/48
f 56/37/48 55/36/47 57/38/49
f 56/37/48 57/38/49 58/39/50
f 58/39/50 57/38/49 59/40/51
f 58/39/50 59/40/51 60/41/52
f 60/41/52 59/40/51 61/42/53
f 60/41/52 61/42/53 62/43/54
f 62/43/54 61/42/53 63/44/55
f 62/43/54 63/44/55 64/45/56
f 64/45/56 63/44/55 48/29/41
f 64/45/56 48/29/41 47/28/40
f 65/46/57 66/47/58 67/48/59
f 65/46/57 67/48/59 68/49/60
f 66/47/58 64/45/56 47/28/40
f 66/47/58 47/28/40 67/48/59
f 69/50/61 70/51/62 66/47/58
f 69/50/61 66/47/58 65/46/57
f 70/51/62 62/43/54 64/45/56
f 70/51/62 64/45/56 66/47/58
f 71/52/63 72/53/64 70/51/62
f 71/52/63 70/51/62 69/50/61
f 72/53/64 60/41/52 62/43/54
f 72/53/64 62/43/54 70/51/62
f 73/54/65 74/55/66 72/53/64
f 73/54/65 72/53/64 71/52/63
f 74/55/66 58/39/50 60/41/52
f 74/55/66 60/41/52 72/53/64
f 75/56/67 76/57/68 74/55/66
f 75/56/67 74/55/66 73/54/65
f 76/57/68 56/37/48 58/39/50
f 76/57/68 58/39/50 74/55/66
f 77/58/69 78/59/70 76/57/68
f 77/58/69 76/57/68 75/56/67
f 78/59/70 53/34/46 56/37/48
f 78/59/70 56/37/48 76/57/68
f 79/60/71 80/61/72 81/62/70
f 79/60/71 81/62/70 82/63/69
f 80/61/72 50/31/43 52/33/45
f 80/61/72 52/33/45 81/62/70
f 68/49/60 67/48/59 80/61/72
f 68/49/60 80/61/72 79/60/71
f 67/48/59 47/28/40 50/31/43
f 67/48/59 50/31/43 80/61/72
f 83/7/73 84/10/73 85/9/74
f 83/7/73 85/9/74 86/8/75
f 87/10/76 88/12/76 89/11/77
f 87/10/76 89/11/77 90/9/78
f 91/13/79 92/16/80 93/15/80
f 91/13/79 93/15/80 94/14/81
f 95/17/82 34/20/27 33/19/26
f 95/17/82 33/19/26 96/18/83
f 92/16/80 95/17/82 96/18/83
f 92/16/80 96/18/83 93/15/80
f 35/21/28 91/13/79 94/14/81
f 35/21/28 94/14/81 36/22/29
f 14/3/10 13/1/9 90/9/78
f 14/3/10 90/9/78 89/11/77
f 17/1/13 16/4/12 86/8/75
f 17/1/13 86/8/75 85/9/74
f 97/23/84 98/24/85 99/14/86
f 97/23/84 99/14/86 100/15/87
f 41/25/34 101/26/88 102/18/89
f 41/25/34 102/18/89 42/19/35
f 98/24/85 46/27/39 45/22/38
f 98/24/85 45/22/38 99/14/86
f 101/26/88 97/23/84 100/15/87
f 101/26/88 100/15/87 102/18/89
f 104/17/90 107/10/90 103/16/91
f 107/10/90 104/17/90 106/7/92
f 106/7/92 104/17/90 105/20/90
f 112/12/93 109/13/94 111/10/95
f 109/13/94 112/12/93 108/21/93
f 111/10/95 109/13/94 110/16/96
s 0
f 120/64/97 118/65/97 119/66/97
f 118/65/97 120/64/97 113/67/97
f 118/65/97 113/67/97 117/68/97
f 117/68/97 113/67/97 114/69/97
f 117/68/97 114/69/97 116/70/97
f 116/70/97 114/69/97 115/71/97
s 1
f 122/10/98 125/17/98 121/16/99
f 125/17/98 122/10/98 123/7/100
f 125/17/98 123/7/100 124/20/98
f 127/12/101 130/13/102 126/21/103
f 130/13/102 127/12/101 128/10/103
f 130/13/102 128/10/103 129/16/104
