# Blender 4.0.2
# www.blender.org
mtllib sword.mtl
o Sword_Material.002_0
v 0.000001 0.669130 -0.005074
v 0.000001 0.669130 0.005073
v 0.056659 0.584990 -0.000000
v -0.056657 0.584990 -0.000000
v 0.000001 0.669130 0.005073
v 0.000001 0.669130 -0.005074
v 0.000001 0.584990 0.020296
v 0.000001 0.669130 0.005073
v -0.056657 0.584990 -0.000000
v 0.056659 0.584990 -0.000000
v 0.000001 0.669130 0.005073
v 0.000001 0.584990 0.020296
v 0.000001 0.584990 -0.020296
v -0.056657 0.584990 -0.000000
v 0.000001 0.669130 -0.005074
v 0.056659 0.584990 -0.000000
v 0.000001 0.584990 -0.020296
v 0.000001 0.669130 -0.005074
v 0.000001 0.382619 0.016172
v 0.045146 0.382620 -0.000000
v -0.045144 0.382620 -0.000000
v 0.000001 0.382619 0.016172
v -0.034392 0.004510 -0.000000
v 0.000001 0.004510 0.012320
v 0.000001 0.180243 0.013273
v -0.037051 0.180243 -0.000000
v 0.000001 0.004510 0.012320
v 0.034393 0.004510 -0.000000
v 0.037053 0.180243 -0.000000
v 0.000001 0.180243 0.013273
v 0.000001 -0.101662 -0.023792
v -0.016823 -0.101662 -0.016823
v -0.018131 -0.042881 -0.018132
v 0.000001 -0.042881 -0.025642
v -0.023791 -0.101662 0.000000
v -0.025642 -0.042881 0.000000
v -0.016823 -0.101662 0.016823
v -0.018131 -0.042881 0.018132
v 0.000001 -0.101662 0.023792
v 0.000001 -0.042881 0.025642
v 0.016824 -0.101662 0.016823
v 0.018132 -0.042881 0.018132
v 0.023793 -0.101662 0.000000
v 0.025643 -0.042881 0.000000
v 0.023793 -0.101662 0.000000
v 0.016824 -0.101662 -0.016823
v 0.018132 -0.042881 -0.018132
v 0.025643 -0.042881 0.000000
v -0.018439 -0.174270 -0.018440
v -0.027278 -0.183165 -0.027279
v -0.038577 -0.183165 0.000000
v -0.026077 -0.174270 0.000000
v 0.000001 -0.183165 0.038578
v 0.000001 -0.214139 0.038578
v 0.027279 -0.214139 0.027279
v 0.027279 -0.183165 0.027279
v 0.000001 -0.174270 0.026078
v 0.000001 -0.183165 0.038578
v 0.027279 -0.183165 0.027279
v 0.018440 -0.174270 0.018440
v 0.018440 -0.174270 -0.018440
v 0.027279 -0.183165 -0.027279
v 0.000001 -0.183165 -0.038578
v 0.000001 -0.174270 -0.026077
v -0.027278 -0.183165 0.027279
v -0.018439 -0.174270 0.018440
v 0.038578 -0.183165 0.000000
v 0.026078 -0.174270 0.000000
v -0.038577 -0.183165 0.000000
v -0.038577 -0.214139 0.000000
v -0.027278 -0.214139 0.027279
v -0.027278 -0.183165 0.027279
v 0.000001 -0.183165 -0.038578
v 0.000001 -0.214139 -0.038578
v -0.027278 -0.214139 -0.027279
v -0.027278 -0.183165 -0.027279
v 0.027279 -0.183165 -0.027279
v 0.027279 -0.214139 -0.027279
v 0.038578 -0.214139 0.000000
v 0.038578 -0.183165 0.000000
v 0.038578 -0.183165 0.000000
v 0.038578 -0.214139 0.000000
v 0.018440 -0.174270 -0.018440
v 0.000001 -0.174270 -0.026077
v 0.026078 -0.174270 0.000000
v 0.018440 -0.174270 0.018440
v 0.026078 -0.174270 0.000000
v 0.000001 -0.174270 0.026078
v -0.018439 -0.174270 0.018440
v -0.026077 -0.174270 0.000000
v -0.018439 -0.174270 -0.018440
v 0.105372 -0.039254 0.021023
v 0.105372 -0.039254 -0.021023
v 0.105372 0.002793 -0.021023
v 0.105372 0.002793 0.021023
v -0.105371 -0.039254 -0.021023
v -0.105371 -0.039254 0.021023
v -0.105371 0.002793 0.021023
v -0.105371 0.002793 -0.021023
v 0.000001 -0.046935 0.028705
v 0.105372 -0.039254 0.021023
v 0.105372 0.002793 0.021023
v 0.000001 0.010474 0.028705
v 0.000001 -0.046935 -0.028705
v 0.000001 -0.046935 0.028705
v -0.105371 -0.039254 0.021023
v -0.105371 -0.039254 -0.021023
v 0.000001 0.010474 -0.028705
v 0.000001 0.010474 0.028705
v 0.105372 0.002793 0.021023
v 0.105372 0.002793 -0.021023
v -0.105371 0.002793 -0.021023
v -0.105371 0.002793 0.021023
v 0.105372 -0.039254 -0.021023
v 0.105372 -0.039254 0.021023
v -0.105371 -0.039254 0.021023
v -0.105371 0.002793 0.021023
v 0.000001 0.382619 -0.016172
v 0.045146 0.382620 -0.000000
v -0.045144 0.382620 -0.000000
v 0.000001 0.382619 -0.016172
v -0.034392 0.004510 -0.000000
v -0.037051 0.180243 -0.000000
v 0.000001 0.180243 -0.013273
v 0.000001 0.004510 -0.012320
v 0.000001 0.004510 -0.012320
v 0.000001 0.180243 -0.013273
v 0.037053 0.180243 -0.000000
v 0.034393 0.004510 -0.000000
v 0.000001 -0.046935 -0.028705
v 0.000001 0.010474 -0.028705
v 0.105372 0.002793 -0.021023
v 0.105372 -0.039254 -0.021023
v -0.105371 -0.039254 -0.021023
v -0.105371 0.002793 -0.021023
v 0.000001 -0.214139 -0.038578
v 0.027279 -0.214139 -0.027279
v 0.038578 -0.214139 0.000000
v 0.027279 -0.214139 0.027279
v 0.000001 -0.214139 0.038578
v -0.027278 -0.214139 0.027279
v -0.038577 -0.214139 0.000000
v -0.027278 -0.214139 -0.027279
vn 0.8295 0.5586 -0.0000
vn -0.8295 0.5586 -0.0000
vn -0.3363 0.0731 0.9389
vn -0.3324 0.1679 0.9281
vn -0.3367 0.0553 0.9400
vn 0.3367 0.0553 0.9400
vn 0.3324 0.1679 0.9281
vn 0.3363 0.0731 0.9389
vn -0.3363 0.0731 -0.9389
vn -0.3367 0.0553 -0.9400
vn -0.3324 0.1679 -0.9281
vn 0.3367 0.0553 -0.9400
vn 0.3363 0.0731 -0.9389
vn 0.3324 0.1679 -0.9281
vn 0.3372 -0.0163 0.9413
vn 0.3372 -0.0164 0.9413
vn -0.3372 -0.0164 0.9413
vn -0.3372 -0.0163 0.9413
vn -0.3372 -0.0051 0.9414
vn -0.3372 -0.0093 0.9414
vn -0.3372 -0.0094 0.9414
vn 0.3372 -0.0051 0.9414
vn 0.3372 -0.0094 0.9414
vn 0.3372 -0.0093 0.9414
vn -0.0000 -0.0000 -1.0000
vn -0.7071 -0.0000 -0.7071
vn -0.7068 -0.0315 -0.7068
vn -0.0000 -0.0315 -0.9995
vn -1.0000 -0.0000 -0.0000
vn -0.9995 -0.0315 -0.0000
vn -0.7071 -0.0000 0.7071
vn -0.7068 -0.0315 0.7068
vn -0.0000 -0.0000 1.0000
vn -0.0000 -0.0315 0.9995
vn 0.7071 -0.0000 0.7071
vn 0.7068 -0.0315 0.7068
vn 1.0000 -0.0000 -0.0000
vn 0.9995 -0.0315 -0.0000
vn 0.7071 -0.0000 -0.7071
vn 0.7068 -0.0315 -0.7068
vn -0.6022 0.5242 -0.6022
vn -0.4100 0.8148 -0.4099
vn -0.5798 0.8148 -0.0000
vn -0.8516 0.5242 -0.0000
vn -0.0000 0.5241 0.8516
vn -0.0000 0.8148 0.5798
vn 0.4100 0.8148 0.4100
vn 0.6022 0.5241 0.6022
vn 0.6022 0.5241 -0.6022
vn 0.4100 0.8148 -0.4100
vn -0.0000 0.8148 -0.5798
vn -0.0000 0.5241 -0.8516
vn -0.4100 0.8148 0.4099
vn -0.6022 0.5241 0.6022
vn 0.5798 0.8148 -0.0000
vn 0.8516 0.5241 -0.0000
vn 0.8516 0.5242 -0.0000
vn -0.8516 0.5241 -0.0000
vn -0.6022 0.5241 -0.6022
vn 0.0727 -0.0000 0.9974
vn -0.0000 -1.0000 -0.0000
vn -0.0727 -0.9974 -0.0000
vn -0.0000 1.0000 -0.0000
vn 0.0727 0.9974 -0.0000
vn -0.0727 0.9974 -0.0000
vn 0.0727 -0.9974 -0.0000
vn -0.0727 -0.0000 0.9974
vn 0.3372 -0.0163 -0.9413
vn 0.3372 -0.0164 -0.9413
vn -0.3372 -0.0164 -0.9413
vn -0.3372 -0.0163 -0.9413
vn -0.3372 -0.0051 -0.9414
vn -0.3372 -0.0094 -0.9414
vn -0.3372 -0.0093 -0.9414
vn 0.3372 -0.0051 -0.9414
vn 0.3372 -0.0093 -0.9414
vn 0.3372 -0.0094 -0.9414
vn 0.0727 -0.0000 -0.9974
vn -0.0727 -0.0000 -0.9974
vt 0.007523 0.283081
vt 0.011201 0.277363
vt 0.066531 0.316990
vt 0.066582 0.237804
vt 0.007518 0.271638
vt 0.067446 0.277398
vt 0.200785 0.277484
vt 0.200901 0.309436
vt 0.200939 0.245533
vt 0.453505 0.253158
vt 0.453459 0.277589
vt 0.335891 0.277559
vt 0.335983 0.251258
vt 0.453505 0.302023
vt 0.335962 0.303862
vt 0.783736 0.082571
vt 0.783660 0.072212
vt 0.822932 0.072345
vt 0.822842 0.083088
vt 0.783599 0.061802
vt 0.822932 0.061597
vt 0.783556 0.051391
vt 0.822824 0.050851
vt 0.783530 0.041032
vt 0.822628 0.040112
vt 0.783520 0.030781
vt 0.822319 0.029383
vt 0.783526 0.020706
vt 0.821857 0.018669
vt 0.783935 0.102896
vt 0.783828 0.092822
vt 0.822640 0.093825
vt 0.822285 0.104553
vt 0.865145 0.454721
vt 0.869889 0.442781
vt 0.884593 0.457281
vt 0.872747 0.462377
vt 0.053366 0.551934
vt 0.053366 0.572524
vt 0.033739 0.572524
vt 0.033739 0.551934
vt 0.864992 0.480735
vt 0.870058 0.492527
vt 0.849459 0.492629
vt 0.854202 0.480688
vt 0.846682 0.462255
vt 0.834755 0.457478
vt 0.849290 0.442883
vt 0.854355 0.454675
vt 0.884593 0.477932
vt 0.872665 0.473155
vt 0.834755 0.478129
vt 0.846601 0.473033
vt 0.092618 0.551934
vt 0.092618 0.572524
vt 0.072992 0.572524
vt 0.072992 0.551934
vt 0.131871 0.551934
vt 0.131871 0.572524
vt 0.112245 0.572524
vt 0.112245 0.551934
vt 0.151498 0.551934
vt 0.151497 0.572524
vt 0.014113 0.572524
vt 0.014113 0.551934
vt 0.171124 0.551934
vt 0.171124 0.572524
vt 0.735723 0.095033
vt 0.735301 0.084054
vt 0.736324 0.105991
vt 0.735395 0.029056
vt 0.735887 0.018084
vt 0.735082 0.040045
vt 0.734921 0.051045
vt 0.734897 0.062053
vt 0.735030 0.073059
vt 0.192976 0.046896
vt 0.192783 0.017619
vt 0.222061 0.017426
vt 0.222253 0.046703
vt 0.194389 0.213809
vt 0.194196 0.184531
vt 0.223473 0.184339
vt 0.223666 0.213616
vt 0.190459 0.115829
vt 0.225990 0.115406
vt 0.153280 0.116028
vt 0.165179 0.187178
vt 0.263170 0.115207
vt 0.251270 0.044056
vt 0.252322 0.187056
vt 0.164128 0.044178
vt 0.477774 0.188168
vt 0.444270 0.202045
vt 0.458148 0.188168
vt 0.491652 0.202045
vt 0.444270 0.221672
vt 0.491652 0.221672
vt 0.458148 0.235550
vt 0.477774 0.235550
s 0
usemtl Material.006
f 1/1/1 2/2/1 3/3/1
f 4/4/2 5/2/2 6/5/2
s 1
f 7/6/3 8/2/4 9/4/5
f 10/3/6 11/2/7 12/6/8
f 13/6/9 14/4/10 15/2/11
f 16/3/12 17/6/13 18/2/14
f 19/7/15 20/8/16 10/3/6
f 19/7/15 10/3/6 12/6/8
f 21/9/17 22/7/18 7/6/3
f 21/9/17 7/6/3 9/4/5
f 23/10/19 24/11/19 25/12/20
f 23/10/19 25/12/20 26/13/21
f 26/13/21 25/12/20 22/7/18
f 26/13/21 22/7/18 21/9/17
f 27/11/22 28/14/22 29/15/23
f 27/11/22 29/15/23 30/12/24
f 30/12/24 29/15/23 20/8/16
f 30/12/24 20/8/16 19/7/15
f 31/16/25 32/17/26 33/18/27
f 31/16/25 33/18/27 34/19/28
f 32/17/26 35/20/29 36/21/30
f 32/17/26 36/21/30 33/18/27
f 35/20/29 37/22/31 38/23/32
f 35/20/29 38/23/32 36/21/30
f 37/22/31 39/24/33 40/25/34
f 37/22/31 40/25/34 38/23/32
f 39/24/33 41/26/35 42/27/36
f 39/24/33 42/27/36 40/25/34
f 41/26/35 43/28/37 44/29/38
f 41/26/35 44/29/38 42/27/36
f 45/30/37 46/31/39 47/32/40
f 45/30/37 47/32/40 48/33/38
f 46/31/39 31/16/25 34/19/28
f 46/31/39 34/19/28 47/32/40
f 49/34/41 50/35/42 51/36/43
f 49/34/41 51/36/43 52/37/44
f 53/38/33 54/39/33 55/40/35
f 53/38/33 55/40/35 56/41/35
f 57/42/45 58/43/46 59/44/47
f 57/42/45 59/44/47 60/45/48
f 61/46/49 62/47/50 63/48/51
f 61/46/49 63/48/51 64/49/52
f 64/49/52 63/48/51 50/35/42
f 64/49/52 50/35/42 49/34/41
f 52/37/44 51/36/43 65/50/53
f 52/37/44 65/50/53 66/51/54
f 60/45/48 59/44/47 67/52/55
f 60/45/48 67/52/55 68/53/56
f 66/51/54 65/50/53 58/43/46
f 66/51/54 58/43/46 57/42/45
f 68/53/56 67/52/55 62/47/50
f 68/53/56 62/47/50 61/46/49
f 69/54/29 70/55/29 71/56/31
f 69/54/29 71/56/31 72/57/31
f 73/58/25 74/59/25 75/60/26
f 73/58/25 75/60/26 76/61/26
f 77/62/39 78/63/39 74/59/25
f 77/62/39 74/59/25 73/58/25
f 56/41/35 55/40/35 79/64/37
f 56/41/35 79/64/37 80/65/37
f 72/57/31 71/56/31 54/39/33
f 72/57/31 54/39/33 53/38/33
f 76/61/26 75/60/26 70/55/29
f 76/61/26 70/55/29 69/54/29
f 81/66/37 82/67/37 78/63/39
f 81/66/37 78/63/39 77/62/39
f 83/68/49 84/69/52 31/16/25
f 83/68/49 31/16/25 46/31/39
f 85/70/57 83/68/49 46/31/39
f 85/70/57 46/31/39 45/30/37
f 86/71/48 87/72/57 43/28/37
f 86/71/48 43/28/37 41/26/35
f 88/73/45 86/71/48 41/26/35
f 88/73/45 41/26/35 39/24/33
f 89/74/54 88/73/45 39/24/33
f 89/74/54 39/24/33 37/22/31
f 90/75/58 89/74/54 37/22/31
f 90/75/58 37/22/31 35/20/29
f 91/76/59 90/75/58 35/20/29
f 91/76/59 35/20/29 32/17/26
f 84/69/52 91/76/59 32/17/26
f 84/69/52 32/17/26 31/16/25
s 0
f 92/77/37 93/78/37 94/79/37
f 92/77/37 94/79/37 95/80/37
f 96/81/29 97/82/29 98/83/29
f 96/81/29 98/83/29 99/84/29
s 1
f 100/85/33 101/77/60 102/80/60
f 100/85/33 102/80/60 103/86/33
f 104/87/61 105/85/61 106/82/62
f 104/87/61 106/82/62 107/88/62
f 108/89/63 109/86/63 110/80/64
f 108/89/63 110/80/64 111/90/64
f 112/91/65 113/83/65 109/86/63
f 112/91/65 109/86/63 108/89/63
f 114/92/66 115/77/66 105/85/61
f 114/92/66 105/85/61 104/87/61
f 116/82/67 100/85/33 103/86/33
f 116/82/67 103/86/33 117/83/67
f 118/7/68 17/6/13 16/3/12
f 118/7/68 16/3/12 119/8/69
f 120/9/70 14/4/10 13/6/9
f 120/9/70 13/6/9 121/7/71
f 122/10/72 123/13/73 124/12/74
f 122/10/72 124/12/74 125/11/72
f 123/13/73 120/9/70 121/7/71
f 123/13/73 121/7/71 124/12/74
f 126/11/75 127/12/76 128/15/77
f 126/11/75 128/15/77 129/14/75
f 127/12/76 118/7/68 119/8/69
f 127/12/76 119/8/69 128/15/77
f 130/85/25 131/86/25 132/80/78
f 130/85/25 132/80/78 133/77/78
f 134/82/79 135/83/79 131/86/25
f 134/82/79 131/86/25 130/85/25
s 0
f 143/93/61 141/94/61 142/95/61
f 141/94/61 143/93/61 136/96/61
f 141/94/61 136/96/61 140/97/61
f 140/97/61 136/96/61 137/98/61
f 140/97/61 137/98/61 139/99/61
f 139/99/61 137/98/61 138/100/61
