# Blender 4.0.2
# www.blender.org
mtllib watermelon.mtl
o Watermelon_Low
v 0.153877 0.015701 -0.109619
v 0.153877 0.015701 -0.124861
v 0.144966 -0.009600 -0.125925
v 0.136868 -0.032427 -0.117604
v 0.153877 0.015701 -0.097192
v 0.130833 -0.050477 -0.106898
v 0.153877 0.015701 -0.081940
v 0.126002 -0.065291 -0.091771
v 0.153877 0.015701 -0.064430
v 0.122464 -0.076298 -0.071178
v 0.153877 0.015701 -0.045224
v 0.120676 -0.083076 -0.048833
v 0.153877 0.015701 -0.025595
v 0.120311 -0.085365 -0.025595
v 0.122464 -0.076298 -0.071178
v 0.185866 -0.076298 -0.071178
v 0.187654 -0.083076 -0.048833
v 0.120676 -0.083076 -0.048833
v 0.126002 -0.065291 -0.091771
v 0.182329 -0.065291 -0.091771
v 0.130833 -0.050477 -0.106898
v 0.177498 -0.050477 -0.106898
v 0.136868 -0.032427 -0.117604
v 0.171462 -0.032427 -0.117604
v 0.144966 -0.009600 -0.125925
v 0.163364 -0.009600 -0.125925
v 0.153877 0.015701 -0.124861
v 0.154453 0.015701 -0.124861
v 0.188019 -0.085365 -0.025595
v 0.187654 -0.083076 -0.002357
v 0.120676 -0.083076 -0.002357
v 0.120311 -0.085365 -0.025595
v 0.144966 -0.009600 0.074734
v 0.153877 0.015701 0.073671
v 0.153877 0.015701 0.058428
v 0.136868 -0.032427 0.066413
v 0.153877 0.015701 0.046001
v 0.130833 -0.050477 0.055707
v 0.153877 0.015701 0.030750
v 0.126002 -0.065291 0.040581
v 0.153877 0.015701 0.013239
v 0.122464 -0.076298 0.019988
v 0.153877 0.015701 -0.005966
v 0.120676 -0.083076 -0.002357
v 0.185866 -0.076298 0.019988
v 0.122464 -0.076298 0.019988
v 0.182329 -0.065291 0.040581
v 0.126002 -0.065291 0.040581
v 0.177498 -0.050477 0.055707
v 0.130833 -0.050477 0.055707
v 0.171462 -0.032427 0.066413
v 0.136868 -0.032427 0.066413
v 0.163364 -0.009600 0.074734
v 0.144966 -0.009600 0.074734
v 0.154453 0.015701 0.073671
v 0.153877 0.015701 0.073671
v 0.163364 -0.009600 -0.125925
v 0.154453 0.015701 -0.124861
v 0.154453 0.015701 -0.109619
v 0.171462 -0.032427 -0.117604
v 0.154453 0.015701 -0.097192
v 0.177498 -0.050477 -0.106898
v 0.154453 0.015701 -0.081940
v 0.182329 -0.065291 -0.091771
v 0.154453 0.015701 -0.064430
v 0.185866 -0.076298 -0.071178
v 0.154453 0.015701 -0.045224
v 0.187654 -0.083076 -0.048833
v 0.154453 0.015701 -0.025595
v 0.188019 -0.085365 -0.025595
v 0.154453 0.015701 0.058428
v 0.154453 0.015701 0.073671
v 0.163364 -0.009600 0.074734
v 0.171462 -0.032427 0.066413
v 0.154453 0.015701 0.046001
v 0.177498 -0.050477 0.055707
v 0.154453 0.015701 0.030750
v 0.182329 -0.065291 0.040581
v 0.154453 0.015701 0.013239
v 0.185866 -0.076298 0.019988
v 0.154453 0.015701 -0.005966
v 0.187654 -0.083076 -0.002357
v 0.153877 0.015701 -0.124861
v 0.153877 0.015701 0.073671
v 0.154453 0.015701 0.073671
v 0.154453 0.015701 0.058428
v 0.154453 0.015701 0.046001
v 0.154453 0.015701 0.030750
v 0.154453 0.015701 0.013239
v 0.154453 0.015701 -0.005966
v 0.154453 0.015701 -0.025595
v 0.154453 0.015701 -0.045224
v 0.154453 0.015701 -0.064430
v 0.154453 0.015701 -0.081940
v 0.154453 0.015701 -0.097192
v 0.154453 0.015701 -0.109619
v 0.154453 0.015701 -0.124861
vn -0.9436 0.3309 0.0051
vn -0.9429 0.3330 -0.0014
vn -0.9440 0.3298 0.0086
vn -0.9448 0.3274 0.0095
vn -0.9451 0.3267 0.0090
vn -0.9458 0.3248 0.0070
vn -0.9459 0.3244 0.0066
vn -0.9467 0.3219 0.0087
vn -0.9468 0.3216 0.0092
vn -0.9479 0.3184 0.0101
vn -0.9479 0.3183 0.0100
vn -0.9485 0.3167 -0.0000
vn -0.0000 -0.9266 -0.3759
vn -0.0000 -0.9814 -0.1922
vn -0.0000 -0.8165 -0.5773
vn -0.0000 -0.6342 -0.7731
vn -0.0000 -0.4444 -0.8958
vn -0.0000 -0.1944 -0.9809
vn -0.0000 0.0420 -0.9991
vn -0.0000 -1.0000 -0.0000
vn -0.0000 -0.9814 0.1922
vn -0.9429 0.3331 0.0015
vn -0.9429 0.3330 0.0014
vn -0.9436 0.3309 -0.0051
vn -0.9440 0.3298 -0.0086
vn -0.9448 0.3274 -0.0095
vn -0.9451 0.3267 -0.0090
vn -0.9458 0.3248 -0.0070
vn -0.9459 0.3244 -0.0066
vn -0.9467 0.3219 -0.0087
vn -0.9468 0.3216 -0.0092
vn -0.9479 0.3184 -0.0101
vn -0.9479 0.3183 -0.0100
vn -0.0000 -0.9266 0.3759
vn -0.0000 -0.8165 0.5773
vn -0.0000 -0.6342 0.7731
vn -0.0000 -0.4444 0.8958
vn -0.0000 -0.1944 0.9809
vn -0.0000 0.0420 0.9991
vn 0.9429 0.3331 -0.0015
vn 0.9429 0.3330 -0.0014
vn 0.9436 0.3309 0.0051
vn 0.9440 0.3298 0.0086
vn 0.9448 0.3274 0.0095
vn 0.9451 0.3267 0.0090
vn 0.9458 0.3248 0.0070
vn 0.9459 0.3244 0.0066
vn 0.9467 0.3219 0.0087
vn 0.9468 0.3216 0.0092
vn 0.9479 0.3184 0.0101
vn 0.9479 0.3183 0.0100
vn 0.9485 0.3167 -0.0000
vn 0.9436 0.3309 -0.0051
vn 0.9429 0.3330 0.0014
vn 0.9440 0.3298 -0.0086
vn 0.9448 0.3274 -0.0095
vn 0.9451 0.3267 -0.0090
vn 0.9458 0.3248 -0.0070
vn 0.9459 0.3244 -0.0066
vn 0.9467 0.3219 -0.0087
vn 0.9468 0.3216 -0.0092
vn 0.9479 0.3184 -0.0101
vn 0.9479 0.3183 -0.0100
vn -0.0000 1.0000 -0.0000
vn 0.0001 1.0000 -0.0000
vt 0.569660 0.669114
vt 0.616748 0.669114
vt 0.620038 0.586248
vt 0.594338 0.511423
vt 0.531268 0.669114
vt 0.561260 0.452631
vt 0.484150 0.669114
vt 0.514527 0.404503
vt 0.430052 0.669114
vt 0.450910 0.368790
vt 0.370717 0.669114
vt 0.381868 0.347182
vt 0.310074 0.669114
vt 0.310074 0.340117
vt 0.629163 0.645786
vt 0.825007 0.642723
vt 0.829401 0.570510
vt 0.622513 0.573745
vt 0.641218 0.717742
vt 0.815207 0.715021
vt 0.657163 0.782906
vt 0.801308 0.780652
vt 0.676821 0.847440
vt 0.783677 0.845769
vt 0.703007 0.922099
vt 0.759837 0.921210
vt 0.731756 0.999890
vt 0.733535 0.999863
vt 0.829401 0.498365
vt 0.827146 0.426255
vt 0.620257 0.429490
vt 0.620257 0.501635
vt 0.000110 0.586248
vt 0.003400 0.669114
vt 0.050488 0.669114
vt 0.025810 0.511423
vt 0.088880 0.669114
vt 0.058888 0.452631
vt 0.135998 0.669114
vt 0.105620 0.404503
vt 0.190096 0.669114
vt 0.169238 0.368790
vt 0.249430 0.669114
vt 0.238279 0.347182
vt 0.820495 0.354214
vt 0.624652 0.357277
vt 0.808441 0.282258
vt 0.634451 0.284979
vt 0.792496 0.217094
vt 0.648351 0.219348
vt 0.772838 0.152560
vt 0.665981 0.154231
vt 0.746651 0.077901
vt 0.689821 0.078790
vt 0.717903 0.000110
vt 0.716123 0.000138
vt 0.620038 0.753759
vt 0.616748 0.670894
vt 0.569660 0.670894
vt 0.594338 0.828585
vt 0.531268 0.670894
vt 0.561260 0.887377
vt 0.484150 0.670894
vt 0.514527 0.935505
vt 0.430052 0.670894
vt 0.450910 0.971218
vt 0.370717 0.670894
vt 0.381868 0.992825
vt 0.310074 0.670894
vt 0.310074 0.999890
vt 0.050488 0.670894
vt 0.003400 0.670894
vt 0.000110 0.753759
vt 0.025810 0.828585
vt 0.088880 0.670894
vt 0.058888 0.887377
vt 0.135998 0.670894
vt 0.105620 0.935505
vt 0.190096 0.670894
vt 0.169238 0.971218
vt 0.249430 0.670894
vt 0.238279 0.992825
s 1
usemtl DefaultMaterial
f 1/1/1 2/2/2 3/3/2
f 3/3/2 4/4/3 1/1/1
f 5/5/4 1/1/1 4/4/3
f 4/4/3 6/6/5 5/5/4
f 7/7/6 5/5/4 6/6/5
f 6/6/5 8/8/7 7/7/6
f 9/9/8 7/7/6 8/8/7
f 8/8/7 10/10/9 9/9/8
f 11/11/10 9/9/8 10/10/9
f 10/10/9 12/12/11 11/11/10
f 13/13/12 11/11/10 12/12/11
f 12/12/11 14/14/12 13/13/12
f 15/15/13 16/16/13 17/17/14
f 17/17/14 18/18/14 15/15/13
f 19/19/15 20/20/15 16/16/13
f 16/16/13 15/15/13 19/19/15
f 21/21/16 22/22/16 20/20/15
f 20/20/15 19/19/15 21/21/16
f 23/23/17 24/24/17 22/22/16
f 22/22/16 21/21/16 23/23/17
f 25/25/18 26/26/18 24/24/17
f 24/24/17 23/23/17 25/25/18
f 27/27/19 28/28/19 26/26/18
f 26/26/18 25/25/18 27/27/19
f 29/29/20 30/30/21 31/31/21
f 31/31/21 32/32/20 29/29/20
f 33/33/22 34/34/23 35/35/24
f 35/35/24 36/36/25 33/33/22
f 36/36/25 35/35/24 37/37/26
f 37/37/26 38/38/27 36/36/25
f 38/38/27 37/37/26 39/39/28
f 39/39/28 40/40/29 38/38/27
f 40/40/29 39/39/28 41/41/30
f 41/41/30 42/42/31 40/40/29
f 42/42/31 41/41/30 43/43/32
f 43/43/32 44/44/33 42/42/31
f 44/44/33 43/43/32 13/13/12
f 13/13/12 14/14/12 44/44/33
f 30/30/21 45/45/34 46/46/34
f 46/46/34 31/31/21 30/30/21
f 45/45/34 47/47/35 48/48/35
f 48/48/35 46/46/34 45/45/34
f 47/47/35 49/49/36 50/50/36
f 50/50/36 48/48/35 47/47/35
f 49/49/36 51/51/37 52/52/37
f 52/52/37 50/50/36 49/49/36
f 51/51/37 53/53/38 54/54/38
f 54/54/38 52/52/37 51/51/37
f 53/53/38 55/55/39 56/56/39
f 56/56/39 54/54/38 53/53/38
f 57/57/40 58/58/41 59/59/42
f 59/59/42 60/60/43 57/57/40
f 60/60/43 59/59/42 61/61/44
f 61/61/44 62/62/45 60/60/43
f 62/62/45 61/61/44 63/63/46
f 63/63/46 64/64/47 62/62/45
f 64/64/47 63/63/46 65/65/48
f 65/65/48 66/66/49 64/64/47
f 66/66/49 65/65/48 67/67/50
f 67/67/50 68/68/51 66/66/49
f 68/68/51 67/67/50 69/69/52
f 69/69/52 70/70/52 68/68/51
f 71/71/53 72/72/54 73/73/54
f 73/73/54 74/74/55 71/71/53
f 75/75/56 71/71/53 74/74/55
f 74/74/55 76/76/57 75/75/56
f 77/77/58 75/75/56 76/76/57
f 76/76/57 78/78/59 77/77/58
f 79/79/60 77/77/58 78/78/59
f 78/78/59 80/80/61 79/79/60
f 81/81/62 79/79/60 80/80/61
f 80/80/61 82/82/63 81/81/62
f 69/69/52 81/81/62 82/82/63
f 82/82/63 70/70/52 69/69/52
f 18/18/14 17/17/14 29/29/20
f 29/29/20 32/32/20 18/18/14
s 0
f 83/2/64 84/34/64 85/72/64
f 83/2/65 85/72/65 86/71/65
f 83/2/64 86/71/64 87/75/64
f 83/2/64 87/75/64 88/77/64
f 83/2/64 88/77/64 89/79/64
f 83/2/64 89/79/64 90/81/64
f 83/2/64 90/81/64 91/69/64
f 83/2/64 91/69/64 92/67/64
f 83/2/64 92/67/64 93/65/64
f 83/2/64 93/65/64 94/63/64
f 83/2/64 94/63/64 95/61/64
f 83/2/64 95/61/64 96/59/64
f 83/2/64 96/59/64 97/58/64
